<svg width="800" height="481" viewBox="0 0 800 481" fill="none" xmlns="http://www.w3.org/2000/svg">
<g clip-path="url(#clip0_135_850)">
<path d="M50.3239 100.648C40.3708 100.648 30.6412 97.6964 22.3655 92.1667C14.0897 86.6371 7.6396 78.7775 3.8307 69.582C0.0218046 60.3866 -0.974777 50.2681 0.966982 40.5062C2.90874 30.7443 7.70164 21.7775 14.7396 14.7395C21.7775 7.70162 30.7444 2.90874 40.5062 0.966982C50.2681 -0.974776 60.3866 0.0218046 69.582 3.8307C78.7775 7.6396 86.6371 14.0897 92.1667 22.3655C97.6964 30.6412 100.648 40.3708 100.648 50.3239C100.633 63.666 95.3259 76.4573 85.8916 85.8916C76.4573 95.3259 63.666 100.633 50.3239 100.648ZM50.3239 2.09686C40.7855 2.09686 31.4613 4.92532 23.5304 10.2246C15.5995 15.5238 9.41812 23.0559 5.76792 31.8682C2.11773 40.6806 1.16268 50.3774 3.02353 59.7326C4.88438 69.0877 9.47756 77.6809 16.2222 84.4256C22.9669 91.1703 31.5602 95.7635 40.9153 97.6243C50.2704 99.4852 59.9673 98.5301 68.7796 94.8799C77.592 91.2297 85.124 85.0484 90.4233 77.1175C95.7225 69.1866 98.551 59.8623 98.551 50.3239C98.5365 37.5378 93.4508 25.2794 84.4096 16.2382C75.3684 7.19706 63.1101 2.11135 50.3239 2.09686Z" fill="#F2F2F2"/>
<path d="M392.107 71.2922C387.131 71.2922 382.266 69.8164 378.128 67.0516C373.99 64.2868 370.765 60.357 368.861 55.7593C366.956 51.1615 366.458 46.1023 367.429 41.2214C368.4 36.3404 370.796 31.857 374.315 28.338C377.834 24.8191 382.317 22.4226 387.198 21.4518C392.079 20.4809 397.139 20.9792 401.736 22.8836C406.334 24.7881 410.264 28.0131 413.029 32.151C415.794 36.2889 417.269 41.1537 417.269 46.1302C417.262 52.8013 414.608 59.1969 409.891 63.914C405.174 68.6312 398.778 71.2846 392.107 71.2922ZM392.107 23.0651C387.545 23.0651 383.086 24.4179 379.293 26.9523C375.5 29.4867 372.544 33.089 370.798 37.3036C369.052 41.5182 368.595 46.1558 369.485 50.63C370.375 55.1042 372.572 59.214 375.798 62.4397C379.023 65.6654 383.133 67.8622 387.608 68.7521C392.082 69.6421 396.719 69.1854 400.934 67.4396C405.149 65.6939 408.751 62.7375 411.285 58.9445C413.82 55.1515 415.172 50.6921 415.172 46.1302C415.166 40.0151 412.733 34.1524 408.409 29.8284C404.085 25.5043 398.222 23.072 392.107 23.0651Z" fill="#F2F2F2"/>
<path d="M569.289 193.957C563.691 193.957 558.218 192.296 553.562 189.186C548.907 186.076 545.279 181.655 543.137 176.482C540.994 171.31 540.434 165.618 541.526 160.127C542.618 154.636 545.314 149.592 549.273 145.633C553.232 141.674 558.276 138.978 563.767 137.886C569.258 136.794 574.949 137.355 580.122 139.497C585.294 141.64 589.715 145.268 592.826 149.923C595.936 154.578 597.596 160.051 597.596 165.649C597.588 173.154 594.603 180.35 589.296 185.656C583.989 190.963 576.794 193.948 569.289 193.957ZM569.289 139.439C564.105 139.439 559.038 140.976 554.727 143.856C550.417 146.736 547.058 150.83 545.074 155.619C543.09 160.409 542.571 165.679 543.582 170.763C544.594 175.847 547.09 180.517 550.756 184.183C554.421 187.849 559.091 190.345 564.176 191.356C569.26 192.368 574.53 191.849 579.319 189.865C584.109 187.881 588.202 184.521 591.082 180.211C593.962 175.901 595.5 170.833 595.5 165.649C595.492 158.7 592.728 152.038 587.814 147.125C582.9 142.211 576.238 139.447 569.289 139.439Z" fill="#F2F2F2"/>
<path d="M798.951 480.174H563.058C562.78 480.174 562.513 480.064 562.317 479.867C562.12 479.67 562.01 479.404 562.01 479.126C562.01 478.848 562.12 478.581 562.317 478.384C562.513 478.188 562.78 478.077 563.058 478.077H798.951C799.229 478.077 799.496 478.188 799.693 478.384C799.889 478.581 800 478.848 800 479.126C800 479.404 799.889 479.67 799.693 479.867C799.496 480.064 799.229 480.174 798.951 480.174Z" fill="#CCCCCC"/>
<path d="M671.946 160.666C686.168 160.666 697.697 149.138 697.697 134.916C697.697 120.695 686.168 109.166 671.946 109.166C657.725 109.166 646.196 120.695 646.196 134.916C646.196 149.138 657.725 160.666 671.946 160.666Z" fill="#FFB8B8"/>
<path d="M674.618 440.694L662.448 444.827L640.711 399.851L658.674 393.75L674.618 440.694Z" fill="#FFB8B8"/>
<path d="M652.574 444.302L676.045 436.33L681.065 451.108L642.815 464.1C642.156 462.159 641.885 460.108 642.019 458.063C642.153 456.017 642.688 454.019 643.594 452.18C644.5 450.342 645.76 448.7 647.301 447.348C648.841 445.996 650.633 444.961 652.574 444.302Z" fill="#2F2E41"/>
<path d="M702.117 466.099L689.28 466.744L680.682 417.537L699.629 416.583L702.117 466.099Z" fill="#FFB8B8"/>
<path d="M679.926 463.537L704.684 462.293L705.467 477.881L665.122 479.908C665.019 477.861 665.32 475.814 666.009 473.883C666.697 471.953 667.759 470.177 669.133 468.656C670.508 467.136 672.169 465.902 674.021 465.023C675.873 464.145 677.879 463.64 679.926 463.537Z" fill="#2F2E41"/>
<path d="M625.724 302.604C626.875 301.579 627.788 300.314 628.397 298.898C629.007 297.483 629.298 295.951 629.251 294.41C629.205 292.87 628.821 291.358 628.127 289.982C627.433 288.606 626.445 287.399 625.234 286.445L637.473 251.036L618.611 255.856L609.88 288.743C608.413 290.884 607.783 293.488 608.109 296.062C608.434 298.637 609.692 301.002 611.645 302.711C613.598 304.419 616.11 305.352 618.705 305.333C621.3 305.313 623.797 304.342 625.724 302.604Z" fill="#FFB8B8"/>
<path d="M700.917 451.262C700.751 451.262 700.586 451.253 700.42 451.236L682.995 449.391C681.925 449.283 680.924 448.81 680.16 448.051C679.397 447.293 678.918 446.295 678.804 445.225L665.337 325.171L655.593 358.023L673.76 422.588C673.945 423.245 673.985 423.935 673.877 424.61C673.77 425.284 673.517 425.927 673.136 426.494C672.755 427.062 672.256 427.539 671.673 427.895C671.09 428.25 670.436 428.475 669.757 428.553L652.094 430.583C650.969 430.707 649.837 430.425 648.902 429.788C647.967 429.15 647.291 428.199 646.995 427.107L627.695 354.449C627.536 353.852 627.497 353.229 627.579 352.616L636.253 287.406L700.955 292.595L705.633 446.4C705.653 447.032 705.545 447.66 705.317 448.249C705.088 448.839 704.744 449.376 704.304 449.829C703.864 450.283 703.338 450.643 702.756 450.889C702.174 451.136 701.549 451.262 700.917 451.262Z" fill="#2F2E41"/>
<path d="M678.551 303.746C656.875 303.746 632.333 295.37 630.846 294.856L630.417 294.707L654.87 169.228L655.32 169.246C665.012 169.64 691.458 169.841 691.725 169.843L692.199 169.847L702.393 280.579L704.215 296.776L703.991 296.956C697.756 301.998 688.452 303.746 678.551 303.746Z" fill="#E86100"/>
<path d="M639.39 292.901L624.095 286.74L631.891 192.442C632.078 190.117 632.786 187.864 633.96 185.849C635.135 183.834 636.748 182.109 638.678 180.801L646.727 175.323C646.499 174.549 646.459 173.731 646.608 172.938C646.757 172.145 647.093 171.398 647.587 170.76C648.081 170.121 648.719 169.609 649.449 169.265C650.18 168.921 650.981 168.755 651.788 168.781L654.093 168.856C654.531 168.56 655.049 168.404 655.577 168.408C656.106 168.412 656.621 168.575 657.054 168.877C657.488 169.178 657.821 169.604 658.009 170.098C658.196 170.592 658.23 171.131 658.106 171.645L657.599 181.636L639.39 292.901Z" fill="#2F2E41"/>
<path d="M631.672 275.996L611.702 275.155L618.171 233.541L623.532 194.384C623.637 192.978 624.059 191.614 624.766 190.394C625.473 189.174 626.446 188.129 627.613 187.338C628.781 186.547 630.112 186.03 631.507 185.826C632.902 185.621 634.325 185.735 635.67 186.158C637.765 186.816 639.562 188.189 640.745 190.039C641.929 191.888 642.424 194.095 642.143 196.272L636.713 238.699L631.672 275.996Z" fill="#2F2E41"/>
<path d="M663.295 294.343L663.159 293.923C663.067 293.635 654.066 264.765 669.126 230.314L676.678 192.754L683.132 169.17C683.253 168.748 683.47 168.361 683.767 168.038C684.064 167.715 684.432 167.466 684.842 167.311C685.324 167.144 685.844 167.123 686.338 167.25C686.832 167.377 687.277 167.646 687.619 168.024C692.117 166.704 696.953 167.187 701.101 169.372L710.164 174.147C712.179 175.208 713.786 176.909 714.731 178.981C715.676 181.053 715.907 183.381 715.387 185.599L702.999 238.463L709.021 287.84L663.295 294.343Z" fill="#2F2E41"/>
<path d="M676.484 273.99C678.016 274.157 679.566 273.985 681.025 273.488C682.484 272.99 683.816 272.179 684.927 271.111C686.039 270.043 686.902 268.744 687.457 267.306C688.012 265.869 688.246 264.327 688.14 262.789L716.192 242.009L706.386 237.36L676.138 252.941C673.567 253.29 671.212 254.569 669.521 256.537C667.83 258.505 666.919 261.025 666.962 263.62C667.005 266.214 667.997 268.703 669.752 270.614C671.507 272.526 673.903 273.727 676.484 273.99Z" fill="#FFB8B8"/>
<path d="M694.071 264.688L684.596 247.002L707.963 231.624L696.56 190.726C696.103 189.088 695.989 187.374 696.225 185.691C696.46 184.007 697.04 182.39 697.928 180.941C698.817 179.492 699.995 178.241 701.388 177.267C702.781 176.293 704.361 175.617 706.027 175.281C708.972 174.694 712.03 175.196 714.633 176.693C717.236 178.19 719.207 180.581 720.181 183.421L735.566 228.645C735.883 229.577 735.901 230.584 735.617 231.527C735.332 232.469 734.761 233.299 733.981 233.9L694.071 264.688Z" fill="#2F2E41"/>
<path d="M673.769 140.378C670.682 140.78 668.354 137.621 667.274 134.702C666.194 131.782 665.371 128.384 662.687 126.806C659.02 124.652 654.329 127.243 650.136 126.532C645.401 125.73 642.323 120.711 642.081 115.915C641.84 111.118 643.749 106.505 645.622 102.082L646.276 107.578C646.188 105.716 646.58 103.862 647.414 102.194C648.248 100.526 649.496 99.0996 651.038 98.0518L650.196 106.116C650.375 105.004 650.772 103.937 651.365 102.979C651.957 102.02 652.733 101.188 653.648 100.53C654.563 99.8717 655.599 99.4008 656.696 99.144C657.794 98.8873 658.931 98.8499 660.043 99.0338L659.91 103.839C665.379 103.189 670.896 102.537 676.381 103.033C681.867 103.528 687.39 105.264 691.547 108.876C697.766 114.28 700.037 123.178 699.275 131.381C698.512 139.584 695.126 147.29 691.597 154.735C690.709 156.608 689.481 158.721 687.422 158.96C685.572 159.174 683.879 157.627 683.304 155.856C682.861 154.038 682.878 152.139 683.354 150.33C683.874 147.565 684.53 144.739 684.041 141.968C683.551 139.197 681.558 136.459 678.765 136.12C675.972 135.78 673.115 138.973 674.457 141.445L673.769 140.378Z" fill="#2F2E41"/>
<path d="M336.866 423.116L326.842 418.895L319.966 368.647H228.398L220.945 418.69L211.977 423.174C211.548 423.389 211.204 423.742 211.001 424.176C210.797 424.611 210.747 425.101 210.857 425.568C210.967 426.035 211.232 426.451 211.608 426.749C211.984 427.046 212.45 427.208 212.929 427.208H336.04C336.532 427.208 337.008 427.038 337.389 426.727C337.769 426.415 338.03 425.982 338.127 425.5C338.225 425.018 338.152 424.518 337.922 424.083C337.692 423.648 337.319 423.307 336.866 423.116Z" fill="#E6E6E6"/>
<path d="M499.589 375.332H49.7798C47.4198 375.327 45.1582 374.386 43.4913 372.715C41.8243 371.044 40.8882 368.781 40.8882 366.421V302.992H508.481V366.421C508.481 368.781 507.545 371.044 505.878 372.715C504.211 374.386 501.949 375.327 499.589 375.332Z" fill="#CCCCCC"/>
<path d="M508.951 332.97H40.4775V61.5703C40.4808 58.7221 41.6138 55.9915 43.6278 53.9776C45.6418 51.9636 48.3725 50.8308 51.2207 50.8276H498.208C501.056 50.8308 503.787 51.9637 505.801 53.9776C507.815 55.9915 508.948 58.7221 508.951 61.5703V332.97Z" fill="#3F3D56"/>
<path d="M480.971 313.272H68.4579C66.2621 313.269 64.157 312.396 62.6043 310.843C61.0516 309.291 60.1782 307.186 60.1758 304.99V78.8078C60.1782 76.6119 61.0516 74.5068 62.6042 72.954C64.1569 71.4013 66.2621 70.5279 68.4579 70.5254H480.971C483.167 70.5279 485.272 71.4013 486.825 72.954C488.378 74.5068 489.251 76.6119 489.254 78.8078V304.99C489.251 307.186 488.378 309.291 486.825 310.843C485.272 312.396 483.167 313.269 480.971 313.272Z" fill="white"/>
<path d="M477.088 427.733H77.6422C77.3641 427.733 77.0974 427.622 76.9008 427.426C76.7042 427.229 76.5938 426.962 76.5938 426.684C76.5938 426.406 76.7042 426.139 76.9008 425.943C77.0974 425.746 77.3641 425.636 77.6422 425.636H477.088C477.366 425.636 477.633 425.746 477.829 425.943C478.026 426.139 478.136 426.406 478.136 426.684C478.136 426.962 478.026 427.229 477.829 427.426C477.633 427.622 477.366 427.733 477.088 427.733Z" fill="#CCCCCC"/>
<path d="M442.217 285.169H107.212C106.933 285.169 106.667 285.058 106.47 284.862C106.274 284.665 106.163 284.399 106.163 284.12V123.552C106.163 123.274 106.274 123.008 106.47 122.811C106.667 122.614 106.933 122.504 107.212 122.504C107.49 122.504 107.756 122.614 107.953 122.811C108.149 123.008 108.26 123.274 108.26 123.552V283.072H442.217C442.495 283.072 442.762 283.183 442.958 283.379C443.155 283.576 443.266 283.842 443.266 284.12C443.266 284.399 443.155 284.665 442.958 284.862C442.762 285.058 442.495 285.169 442.217 285.169Z" fill="#3F3D56"/>
<path d="M178.788 273.636H148.318C147.493 273.635 146.702 273.307 146.118 272.724C145.535 272.14 145.207 271.349 145.206 270.524V228.521C145.207 227.696 145.535 226.905 146.118 226.322C146.702 225.738 147.493 225.41 148.318 225.409H178.788C179.613 225.41 180.404 225.738 180.987 226.322C181.571 226.905 181.899 227.696 181.9 228.521V270.524C181.899 271.349 181.571 272.14 180.987 272.724C180.404 273.307 179.613 273.635 178.788 273.636Z" fill="#E86100"/>
<path d="M234.354 273.636H203.884C203.059 273.635 202.268 273.307 201.684 272.724C201.101 272.14 200.772 271.349 200.771 270.524V188.681C200.772 187.856 201.101 187.065 201.684 186.482C202.268 185.898 203.059 185.57 203.884 185.569H234.354C235.179 185.57 235.97 185.898 236.553 186.482C237.137 187.065 237.465 187.856 237.466 188.681V270.524C237.465 271.349 237.137 272.14 236.553 272.724C235.97 273.307 235.179 273.635 234.354 273.636Z" fill="#E86100"/>
<path d="M289.92 273.636H259.45C258.625 273.635 257.834 273.307 257.25 272.724C256.667 272.14 256.338 271.349 256.337 270.524V228.521C256.338 227.696 256.667 226.905 257.25 226.322C257.834 225.738 258.625 225.41 259.45 225.409H289.92C290.745 225.41 291.536 225.738 292.119 226.322C292.703 226.905 293.031 227.696 293.032 228.521V270.524C293.031 271.349 292.703 272.14 292.119 272.724C291.536 273.307 290.745 273.635 289.92 273.636Z" fill="#E86100"/>
<path d="M345.486 273.636H315.016C314.209 273.653 313.429 273.35 312.846 272.794C312.262 272.237 311.923 271.471 311.903 270.665V172.814C311.923 172.008 312.262 171.242 312.846 170.685C313.429 170.129 314.209 169.826 315.016 169.843H345.486C346.292 169.826 347.072 170.129 347.656 170.685C348.239 171.242 348.578 172.008 348.598 172.814V270.665C348.578 271.471 348.239 272.237 347.656 272.794C347.072 273.35 346.292 273.653 345.486 273.636Z" fill="#E86100"/>
<path d="M401.052 273.636H370.581C369.756 273.635 368.965 273.307 368.382 272.724C367.798 272.14 367.47 271.349 367.469 270.524V144.648C367.47 143.823 367.798 143.032 368.382 142.449C368.965 141.865 369.756 141.537 370.581 141.536H401.052C401.877 141.537 402.668 141.865 403.251 142.449C403.835 143.032 404.163 143.823 404.164 144.648V270.524C404.163 271.349 403.835 272.14 403.251 272.724C402.668 273.307 401.877 273.635 401.052 273.636Z" fill="#E86100"/>
<path d="M163.553 212.828C167.027 212.828 169.843 210.012 169.843 206.538C169.843 203.063 167.027 200.247 163.553 200.247C160.079 200.247 157.262 203.063 157.262 206.538C157.262 210.012 160.079 212.828 163.553 212.828Z" fill="#3F3D56"/>
<path d="M219.119 171.94C222.593 171.94 225.409 169.124 225.409 165.649C225.409 162.175 222.593 159.359 219.119 159.359C215.644 159.359 212.828 162.175 212.828 165.649C212.828 169.124 215.644 171.94 219.119 171.94Z" fill="#3F3D56"/>
<path d="M274.685 212.828C278.159 212.828 280.975 210.012 280.975 206.538C280.975 203.063 278.159 200.247 274.685 200.247C271.21 200.247 268.394 203.063 268.394 206.538C268.394 210.012 271.21 212.828 274.685 212.828Z" fill="#3F3D56"/>
<path d="M330.25 152.02C333.725 152.02 336.541 149.204 336.541 145.729C336.541 142.255 333.725 139.439 330.25 139.439C326.776 139.439 323.96 142.255 323.96 145.729C323.96 149.204 326.776 152.02 330.25 152.02Z" fill="#3F3D56"/>
<path d="M385.816 128.955C389.291 128.955 392.107 126.139 392.107 122.665C392.107 119.19 389.291 116.374 385.816 116.374C382.342 116.374 379.526 119.19 379.526 122.665C379.526 126.139 382.342 128.955 385.816 128.955Z" fill="#3F3D56"/>
<path d="M274.817 207.947L219.119 166.228L164.182 207.376L162.924 205.699L219.119 163.608L274.553 205.128L329.637 144.847L329.859 144.757L385.425 122.369L386.209 124.313L330.864 146.612L274.817 207.947Z" fill="#3F3D56"/>
</g>
<defs>
<clipPath id="clip0_135_850">
<rect width="800" height="480.174" fill="white"/>
</clipPath>
</defs>
</svg>
