<svg width="496" height="400" viewBox="0 0 496 400" fill="none" xmlns="http://www.w3.org/2000/svg">
<g clip-path="url(#clip0_135_964)">
<path d="M475.799 0.000565263H327.083C319.907 0.000213795 312.944 2.44159 307.339 6.92335C301.734 11.4051 297.82 17.6605 296.242 24.6613L221.1 357.964C220.28 361.599 220.266 365.37 221.058 369.011C221.85 372.653 223.428 376.077 225.683 379.044C227.939 382.011 230.815 384.449 234.112 386.187C237.409 387.924 241.046 388.92 244.768 389.103L397.649 396.635C405.836 397.038 413.889 394.449 420.307 389.351C426.725 384.253 431.068 376.994 432.527 368.929L475.155 133.281L478.326 134.187L486.484 89.5228L483.22 88.707L495.119 22.9289C495.629 20.1114 495.511 17.2161 494.773 14.4495C494.036 11.6828 492.697 9.11289 490.852 6.92298C489.008 4.73307 486.703 2.97708 484.102 1.78021C481.501 0.583329 478.667 -0.0249581 475.804 -0.00128791L475.799 0.000565263Z" fill="#3F3D56"/>
<path d="M346.659 7.18555H329.302C324.316 7.1856 319.481 8.89058 315.598 12.0175C311.715 15.1444 309.019 19.5051 307.956 24.3758L235.828 354.958C235.412 356.862 235.413 358.832 235.829 360.736C236.245 362.639 237.067 364.43 238.239 365.986C239.41 367.543 240.904 368.828 242.618 369.754C244.332 370.68 246.226 371.225 248.17 371.352L400.554 381.34C404.853 381.622 409.106 380.311 412.5 377.657C415.894 375.004 418.192 371.193 418.956 366.953L480.503 25.2639C480.901 23.0524 480.809 20.7804 480.234 18.6083C479.658 16.4361 478.613 14.4168 477.171 12.6927C475.73 10.9687 473.928 9.58195 471.892 8.63038C469.857 7.67881 467.637 7.1856 465.39 7.18555H448.923C447.329 7.1855 445.78 7.7109 444.514 8.68039C443.249 9.64989 442.339 11.0094 441.925 12.5485C441.559 13.9077 440.755 15.1083 439.637 15.9643C438.52 16.8203 437.151 17.284 435.744 17.2835H357.566C354.811 17.2834 352.156 16.2434 350.134 14.3713C348.112 12.4992 346.871 9.933 346.659 7.18555Z" fill="white"/>
<path d="M430.898 238.291C431.194 238.301 431.484 238.205 431.715 238.019C431.946 237.833 432.103 237.57 432.156 237.279L465.855 51.2926C465.887 51.1159 465.88 50.9342 465.836 50.7602C465.791 50.5861 465.71 50.4237 465.597 50.284C465.485 50.1454 465.344 50.0331 465.184 49.9553C465.023 49.8774 464.848 49.8358 464.67 49.8334L311.354 48.0225H311.339C311.061 48.0248 310.792 48.1216 310.576 48.297C310.359 48.4724 310.209 48.716 310.15 48.9879L270.423 228.937C270.384 229.113 270.384 229.295 270.422 229.471C270.46 229.646 270.535 229.812 270.643 229.956C270.75 230.099 270.887 230.216 271.044 230.3C271.201 230.384 271.375 230.432 271.553 230.441L430.898 238.291Z" fill="#E6E6E6"/>
<path d="M297.85 250.316C297.711 250.316 297.575 250.363 297.466 250.45C297.357 250.537 297.28 250.658 297.249 250.794L295.813 256.947C295.793 257.034 295.791 257.124 295.809 257.212C295.827 257.299 295.864 257.382 295.917 257.454C295.97 257.526 296.037 257.585 296.115 257.629C296.194 257.672 296.28 257.698 296.369 257.704L377.478 263.469C377.628 263.479 377.777 263.433 377.897 263.342C378.016 263.25 378.099 263.118 378.129 262.97L379.509 255.851C379.526 255.764 379.524 255.675 379.504 255.59C379.483 255.504 379.445 255.424 379.391 255.354C379.337 255.285 379.269 255.228 379.191 255.187C379.113 255.146 379.027 255.122 378.939 255.116L297.888 250.317L297.85 250.316Z" fill="#E6E6E6"/>
<path d="M396.392 286.326C396.539 286.337 396.684 286.297 396.803 286.211C396.922 286.125 397.007 286 397.042 285.857L398.8 278.723C398.821 278.635 398.824 278.544 398.806 278.456C398.789 278.367 398.752 278.284 398.699 278.211C398.646 278.138 398.578 278.078 398.499 278.034C398.421 277.991 398.333 277.965 398.243 277.958L294.663 270.714C294.522 270.703 294.382 270.74 294.266 270.821C294.15 270.901 294.066 271.019 294.027 271.155L292.2 277.32C292.174 277.408 292.168 277.501 292.183 277.591C292.197 277.682 292.231 277.769 292.283 277.844C292.335 277.92 292.404 277.983 292.483 278.03C292.563 278.076 292.651 278.103 292.743 278.111L396.392 286.326Z" fill="#E6E6E6"/>
<path d="M390.83 309.194C390.976 309.206 391.122 309.165 391.241 309.079C391.36 308.994 391.444 308.868 391.479 308.726L393.237 301.591C393.259 301.504 393.261 301.413 393.244 301.324C393.226 301.236 393.19 301.153 393.137 301.08C393.084 301.007 393.016 300.947 392.937 300.903C392.858 300.859 392.771 300.833 392.681 300.827L289.1 293.582C288.96 293.571 288.819 293.609 288.704 293.689C288.588 293.77 288.503 293.888 288.464 294.023L286.638 300.188C286.612 300.276 286.606 300.369 286.62 300.46C286.634 300.551 286.669 300.637 286.721 300.713C286.773 300.789 286.841 300.852 286.921 300.898C287 300.944 287.089 300.972 287.18 300.979L390.83 309.194Z" fill="#E6E6E6"/>
<path d="M211.241 389.702C211.241 394.874 163.894 395.425 105.62 399.067C47.3987 402.706 0 394.874 0 389.702C0 384.529 47.62 374.122 105.62 380.336C163.894 386.58 211.241 384.529 211.241 389.702Z" fill="#E6E6E6"/>
<path d="M343.125 348.288C343.272 348.303 343.42 348.264 343.541 348.179C343.662 348.093 343.748 347.966 343.782 347.822L347.499 332.957C347.52 332.87 347.523 332.779 347.506 332.691C347.49 332.603 347.454 332.52 347.402 332.447C347.35 332.374 347.283 332.313 347.205 332.269C347.127 332.225 347.04 332.198 346.951 332.19L283.342 326.84C283.194 326.83 283.046 326.873 282.926 326.961C282.806 327.049 282.722 327.177 282.687 327.322L279.517 341.589C279.498 341.674 279.497 341.763 279.515 341.849C279.533 341.935 279.569 342.016 279.621 342.087C279.672 342.158 279.738 342.217 279.815 342.26C279.891 342.304 279.975 342.33 280.063 342.338L343.125 348.288Z" fill="#E86100"/>
<path d="M86.2873 287.713C87.0883 287.164 87.7591 286.447 88.2526 285.61C88.7461 284.774 89.0501 283.84 89.1433 282.873C89.2366 281.907 89.1167 280.932 88.7922 280.017C88.4677 279.102 87.9464 278.269 87.2651 277.577L89.8406 220.086L76.7284 221.558L77.4904 277.792C76.403 279.013 75.8014 280.59 75.7997 282.225C75.7979 283.86 76.3962 285.438 77.481 286.661C78.5658 287.884 80.0617 288.667 81.685 288.86C83.3083 289.054 84.9462 288.645 86.288 287.711L86.2873 287.713Z" fill="#A0616A"/>
<path d="M110.208 385.033L117.671 386.345L125.047 358.183L115.269 356.247L110.208 385.033Z" fill="#A0616A"/>
<path d="M130.848 395.805L107.393 391.681L108.986 382.62L123.379 385.15C125.782 385.572 127.92 386.932 129.32 388.931C130.721 390.929 131.27 393.402 130.848 395.805L130.848 395.805Z" fill="#2F2E41"/>
<path d="M89.7244 388.769H97.3018L100.906 359.542H89.7231L89.7244 388.769Z" fill="#A0616A"/>
<path d="M111.913 395.806L88.0981 395.807L88.0976 386.606L102.711 386.605C105.151 386.605 107.492 387.574 109.217 389.3C110.943 391.025 111.913 393.365 111.913 395.806Z" fill="#2F2E41"/>
<path d="M121.338 378.292C121.22 378.292 121.101 378.285 120.984 378.271L112.066 377.537C111.659 377.49 111.267 377.36 110.913 377.156C110.559 376.952 110.249 376.678 110.004 376.351C109.759 376.024 109.583 375.65 109.486 375.253C109.39 374.856 109.375 374.443 109.443 374.04L118.297 330.354L112.734 301.012C112.689 300.774 112.559 300.56 112.368 300.41C112.177 300.26 111.939 300.184 111.696 300.196C111.454 300.208 111.224 300.307 111.049 300.476C110.874 300.644 110.766 300.87 110.745 301.111L102.549 375.667C102.472 376.452 102.094 377.177 101.493 377.689C100.892 378.2 100.116 378.458 99.3284 378.409L90.9259 378.096C90.1896 378.044 89.4979 377.724 88.9814 377.197C88.4649 376.669 88.1593 375.971 88.1223 375.234L88.7935 285.14L132.355 279.695L135.399 326.693L135.386 326.743L124.267 375.987C124.107 376.644 123.731 377.228 123.2 377.645C122.669 378.063 122.013 378.291 121.338 378.292Z" fill="#2F2E41"/>
<path d="M103.159 182.833C111.543 182.833 118.339 176.037 118.339 167.653C118.339 159.269 111.543 152.473 103.159 152.473C94.7754 152.473 87.9789 159.269 87.9789 167.653C87.9789 176.037 94.7754 182.833 103.159 182.833Z" fill="#A0616A"/>
<path d="M117.462 291.996C115.088 292.01 112.76 291.344 110.752 290.076C103.397 285.481 95.0465 287.307 90.7225 288.805C90.2934 288.955 89.8358 289.007 89.3841 288.955C88.9323 288.904 88.498 288.751 88.1137 288.508C87.7338 288.269 87.4128 287.948 87.1748 287.568C86.9367 287.187 86.7878 286.758 86.7391 286.312L78.8767 216.085C77.559 204.318 84.647 193.255 95.7301 189.78C96.1467 189.649 96.57 189.526 97.0002 189.409C100.449 188.474 104.061 188.306 107.582 188.917C111.103 189.529 114.447 190.904 117.379 192.946C120.366 195.011 122.864 197.706 124.697 200.84C126.53 203.975 127.654 207.473 127.989 211.088L134.609 281.787C134.655 282.245 134.593 282.707 134.429 283.136C134.265 283.566 134.004 283.952 133.666 284.264C131.344 286.409 124.609 291.996 117.462 291.996Z" fill="#E86100"/>
<path d="M93.5181 231.145L75.7796 229.194C75.2748 229.139 74.7879 228.975 74.3521 228.714C73.9163 228.454 73.5418 228.102 73.2541 227.684C72.9664 227.265 72.7722 226.79 72.6849 226.289C72.5976 225.789 72.6191 225.276 72.748 224.785L77.2636 207.574C77.3966 206.284 77.784 205.033 78.4033 203.894C79.0226 202.755 79.8616 201.749 80.8717 200.936C81.8819 200.123 83.0432 199.518 84.2885 199.156C85.5339 198.794 86.8386 198.683 88.1272 198.829C89.4158 198.974 90.6628 199.374 91.7962 200.004C92.9295 200.634 93.9267 201.483 94.7301 202.501C95.5335 203.519 96.1272 204.686 96.4768 205.935C96.8265 207.183 96.9252 208.489 96.7672 209.776L97.4378 227.499C97.457 228.007 97.3666 228.513 97.1727 228.982C96.9788 229.451 96.686 229.874 96.3142 230.22C95.9425 230.566 95.5005 230.828 95.0184 230.987C94.5363 231.147 94.0254 231.201 93.5205 231.146L93.5181 231.145Z" fill="#E86100"/>
<path d="M134.537 285.252C135.266 284.61 135.845 283.817 136.234 282.927C136.623 282.038 136.812 281.074 136.788 280.104C136.764 279.133 136.528 278.18 136.095 277.311C135.663 276.442 135.046 275.678 134.286 275.073L129.915 217.691L117.066 220.583L124.606 276.465C123.674 277.808 123.266 279.446 123.462 281.069C123.657 282.693 124.441 284.188 125.665 285.271C126.89 286.354 128.469 286.951 130.104 286.947C131.738 286.944 133.315 286.34 134.535 285.252H134.537Z" fill="#A0616A"/>
<path d="M112.14 227.538C111.768 227.192 111.476 226.77 111.282 226.301C111.088 225.832 110.997 225.326 111.017 224.819L111.687 207.096C111.543 205.815 111.652 204.518 112.008 203.28C112.365 202.041 112.962 200.885 113.765 199.877C114.568 198.87 115.562 198.03 116.69 197.406C117.818 196.783 119.057 196.387 120.338 196.243C121.619 196.098 122.915 196.207 124.154 196.564C125.392 196.92 126.548 197.517 127.556 198.32C128.564 199.124 129.404 200.118 130.027 201.245C130.651 202.373 131.046 203.613 131.191 204.893L135.706 222.104C135.835 222.595 135.857 223.108 135.77 223.609C135.682 224.109 135.488 224.584 135.2 225.003C134.913 225.421 134.538 225.773 134.102 226.033C133.667 226.294 133.18 226.458 132.675 226.513L114.936 228.464C114.431 228.519 113.92 228.465 113.438 228.305C112.956 228.145 112.514 227.883 112.143 227.537L112.14 227.538Z" fill="#E86100"/>
<path d="M102.256 183.405C101.986 183.405 101.716 183.374 101.453 183.312L101.376 183.293C88.0291 181.253 85.079 173.52 84.4319 170.292C83.762 166.95 84.5246 163.723 86.249 162.47C85.309 159.503 85.4598 156.87 86.6984 154.644C88.8616 150.762 93.5471 149.452 94.177 149.289C97.9212 146.527 102.401 148.371 103.216 148.744C110.459 146.065 113.229 148.295 113.728 148.793C116.966 149.375 118.939 150.625 119.594 152.512C120.825 156.054 116.933 160.46 116.767 160.646L116.681 160.742L110.883 161.019C110.333 161.045 109.795 161.186 109.303 161.434C108.811 161.682 108.377 162.03 108.028 162.457C107.679 162.883 107.424 163.378 107.28 163.909C107.135 164.441 107.103 164.997 107.187 165.541C107.343 166.243 107.542 166.936 107.78 167.615C108.769 170.709 109.511 173.352 108.555 174.357C108.338 174.551 108.071 174.681 107.784 174.731C107.497 174.78 107.202 174.748 106.933 174.638C106.026 174.396 105.411 174.447 105.104 174.79C104.628 175.321 104.774 176.666 105.513 178.575C105.746 179.179 105.808 179.835 105.694 180.472C105.58 181.109 105.294 181.703 104.867 182.189C104.545 182.569 104.145 182.874 103.694 183.084C103.243 183.293 102.752 183.403 102.255 183.405H102.256Z" fill="#2F2E41"/>
</g>
<defs>
<clipPath id="clip0_135_964">
<rect width="495.425" height="400" fill="white"/>
</clipPath>
</defs>
</svg>
