<svg width="542" height="400" viewBox="0 0 542 400" fill="none" xmlns="http://www.w3.org/2000/svg">
<g clip-path="url(#clip0_136_2184)">
<path d="M384.077 293.377H92.6873C90.091 293.374 87.6019 292.341 85.766 290.505C83.9301 288.669 82.8974 286.18 82.8943 283.584V46.3169C82.8974 43.7206 83.9301 41.2314 85.766 39.3955C87.6018 37.5597 90.091 36.5269 92.6873 36.5239H384.077C386.673 36.5269 389.162 37.5597 390.998 39.3955C392.834 41.2314 393.867 43.7206 393.87 46.3169V283.584C393.867 286.18 392.834 288.669 390.998 290.505C389.162 292.341 386.673 293.374 384.077 293.377Z" fill="#E6E6E6"/>
<path d="M99.2943 43.4941C96.7933 43.497 94.3956 44.4919 92.6272 46.2604C90.8587 48.0289 89.864 50.4266 89.8612 52.9276V276.978C89.8642 279.479 90.859 281.877 92.6274 283.645C94.3958 285.414 96.7934 286.408 99.2943 286.411H298.739C322.114 286.385 344.524 277.087 361.052 260.559C377.581 244.03 386.878 221.62 386.905 198.246V52.9276C386.902 50.4266 385.907 48.0289 384.139 46.2604C382.37 44.4919 379.972 43.4971 377.471 43.4942L99.2943 43.4941Z" fill="white"/>
<path d="M330.942 144.26H278.106C277.004 144.259 275.947 143.821 275.168 143.041C274.389 142.262 273.951 141.206 273.949 140.104V113.806C273.951 112.704 274.389 111.648 275.168 110.869C275.947 110.089 277.004 109.651 278.106 109.65H330.942C332.044 109.651 333.1 110.089 333.879 110.869C334.658 111.648 335.097 112.704 335.098 113.806C338.367 123.112 338.832 131.955 335.098 140.104C335.097 141.206 334.658 142.262 333.879 143.041C333.1 143.821 332.044 144.259 330.942 144.26Z" fill="#E6E6E6"/>
<path d="M324.682 141.718H279.793C278.857 141.717 277.959 141.345 277.297 140.683C276.635 140.021 276.263 139.123 276.262 138.187V115.845C276.263 114.909 276.635 114.011 277.297 113.349C277.959 112.687 278.857 112.315 279.793 112.313H324.682C325.619 112.315 326.516 112.687 327.178 113.349C327.84 114.011 328.213 114.909 328.214 115.845C331.243 123.802 331.73 131.331 328.214 138.187C328.213 139.123 327.84 140.021 327.178 140.683C326.516 141.345 325.619 141.717 324.682 141.718Z" fill="white"/>
<path d="M322.262 158.035H286.669C285.622 158.037 284.617 157.623 283.876 156.883C283.134 156.144 282.716 155.141 282.714 154.094C282.713 153.047 283.126 152.042 283.865 151.3C284.604 150.558 285.607 150.14 286.654 150.138H322.262C323.308 150.14 324.31 150.557 325.049 151.297C325.788 152.037 326.203 153.041 326.203 154.087C326.203 155.133 325.788 156.136 325.049 156.876C324.31 157.617 323.308 158.033 322.262 158.035Z" fill="#E6E6E6"/>
<path d="M298.331 118.346C297.921 118.348 297.529 118.511 297.24 118.801C296.95 119.091 296.787 119.483 296.786 119.892V136.631C296.786 136.901 296.857 137.167 296.992 137.401C297.127 137.635 297.321 137.83 297.555 137.966C297.788 138.102 298.054 138.174 298.324 138.175C298.594 138.176 298.86 138.106 299.095 137.972L313.869 129.548C314.106 129.413 314.304 129.217 314.441 128.981C314.578 128.744 314.649 128.476 314.649 128.203C314.648 127.929 314.575 127.661 314.436 127.426C314.298 127.19 314.1 126.995 313.861 126.861L299.088 118.547C298.857 118.416 298.596 118.347 298.331 118.346Z" fill="#E6E6E6"/>
<path d="M513.873 367.975C513.058 366.939 511.952 366.171 510.696 365.769C509.441 365.368 508.093 365.352 506.829 365.723L506.552 365.806L504.071 375.49C503.7 374.047 502.905 370.788 502.403 367.599L502.36 367.335L502.114 367.443C499.52 368.59 497.082 370.059 494.858 371.817C490.916 374.979 487.711 378.961 485.463 383.486C483.216 388.012 481.981 392.973 481.845 398.024L481.841 398.21L481.836 398.326L482.165 398.21L489.214 395.69C492.334 395.965 495.477 395.54 498.412 394.445C501.348 393.35 504.002 391.614 506.181 389.363C509.028 386.359 510.982 382.496 512.87 378.758C513.424 377.669 513.99 376.545 514.569 375.464C515.215 374.29 515.494 372.948 515.37 371.613C515.246 370.278 514.724 369.011 513.873 367.975Z" fill="#F2F2F2"/>
<path d="M333.871 120.997C334.012 121.73 334.312 122.424 334.751 123.028C335.189 123.632 335.755 124.133 336.408 124.496C337.06 124.858 337.785 125.073 338.53 125.125C339.275 125.177 340.022 125.065 340.719 124.797L361.785 149.303L364.452 140.256L343.567 117.836C343.039 116.695 342.111 115.787 340.958 115.284C339.806 114.782 338.509 114.72 337.314 115.109C336.119 115.499 335.108 116.314 334.474 117.399C333.839 118.484 333.624 119.764 333.871 120.997Z" fill="#FFB8B8"/>
<path d="M418.772 392.351H411.801L408.484 365.461H418.773L418.772 392.351Z" fill="#FFB6B6"/>
<path d="M418.586 390.074L411.142 387.046L410.929 386.959L406.82 390.074C404.499 390.074 402.274 390.996 400.633 392.637C398.992 394.278 398.07 396.503 398.07 398.824V399.108H420.548V390.074H418.586Z" fill="#2F2E41"/>
<path d="M468.505 392.351H461.533L458.217 365.461H468.506L468.505 392.351Z" fill="#FFB6B6"/>
<path d="M468.319 390.074L460.875 387.046L460.662 386.959L456.552 390.074C454.232 390.074 452.006 390.996 450.366 392.637C448.725 394.278 447.803 396.503 447.802 398.824V399.108H470.281V390.074H468.319Z" fill="#2F2E41"/>
<path d="M452.051 231.774C452.051 231.774 460.795 240.871 460.795 248.346C460.795 255.82 458.609 266.084 460.795 268.33C462.981 270.576 465.714 273.309 462.435 276.588C459.156 279.867 457.516 281.507 459.702 283.693C461.888 285.879 460.795 324.135 460.795 324.135L472.272 375.507H457.813L439.481 324.135L434.562 281.507L418.655 322.495L420.412 375.948L405.296 375.507L399.039 318.669C399.039 318.669 408.33 264.603 406.69 263.218C405.051 261.832 406.69 259.035 406.69 259.035L411.062 238.332L452.051 231.774Z" fill="#2F2E41"/>
<path d="M434.931 167.275C434.931 167.275 437.904 155.558 424.206 152.199C410.508 148.84 371.352 144.525 371.352 144.525L351.564 123.527L344.859 133.264L367.042 160.831L419.603 171.627L434.931 167.275Z" fill="#3F3D56"/>
<path d="M348.118 132.547C348.732 131.751 349.213 130.86 349.542 129.909L352.379 122.936L351.643 122.905C350.623 122.713 349.575 122.739 348.566 122.981C347.557 123.223 346.611 123.675 345.789 124.308C344.968 124.941 344.289 125.74 343.798 126.654C343.307 127.567 343.014 128.574 342.939 129.609C342.846 130.504 343.007 131.407 343.403 132.214C343.604 132.615 343.898 132.962 344.26 133.227C344.621 133.492 345.041 133.668 345.483 133.74C345.986 133.767 346.487 133.672 346.946 133.465C347.405 133.257 347.806 132.942 348.118 132.547Z" fill="#E6E6E6"/>
<path d="M408.272 241.124L406.632 253.009C406.632 253.009 409.911 256.531 411.551 256.09C413.19 255.65 419.202 253.088 419.202 253.088C419.202 253.088 426.307 256.971 430.132 257.411C433.958 257.851 454.179 255.21 454.725 253.89C455.272 252.569 461.624 247.4 461.624 247.4L459.097 232.32L408.272 241.124Z" fill="#E6E6E6"/>
<path d="M461.519 199.546C461.519 199.546 460.13 211.006 461.223 212.061C462.316 213.11 460.13 219.75 457.944 224.122C455.758 228.495 459.584 229.041 459.584 232.32C459.584 235.599 461.223 247.623 461.223 247.623C461.223 247.623 444.282 248.716 441.549 245.983C438.816 243.25 434.444 245.436 428.433 251.448C422.421 257.46 409.365 252.541 406.632 249.809C403.9 247.076 408.758 237.239 410.398 235.331C412.037 233.424 408.818 235.632 407.179 229.588C405.539 223.543 408.758 224.122 411.491 221.39C414.223 218.657 411.491 213.739 409.305 208.82C407.119 203.901 408.758 167.285 408.758 158.541C408.758 149.797 420.781 148.704 420.781 148.704L425.542 142.719L429.039 138.32L435.892 138.047L436.073 138.041L442.702 137.773L445.921 141.523L453.026 149.797L461.223 151.436C467.782 153.622 466.142 167.285 466.142 167.285L461.519 199.546Z" fill="#3F3D56"/>
<path d="M435.554 135.676C443.313 135.676 449.603 129.386 449.603 121.628C449.603 113.869 443.313 107.58 435.554 107.58C427.796 107.58 421.506 113.869 421.506 121.628C421.506 129.386 427.796 135.676 435.554 135.676Z" fill="#FFB6B6"/>
<path d="M451.843 116.902C447.979 114.532 448.474 108.336 444.751 106.173C442.901 105.106 440.82 104.502 438.686 104.413C436.552 104.323 434.428 104.75 432.495 105.658C429.873 104.536 426.731 105.431 424.633 107.457C422.535 109.483 421.4 112.472 421.065 115.477C420.823 118.497 421.04 121.536 421.708 124.491C421.916 123.303 422.125 122.116 422.333 120.929L433.408 118.509C432.428 119.389 431.447 120.27 430.467 121.151C435.482 122.293 440.745 121.47 445.173 118.851C449.994 121.013 449.12 125.867 444.888 132.308C446.528 135.041 456.246 119.602 451.843 116.902Z" fill="#2F2E41"/>
<path d="M445.921 141.523C445.89 141.548 445.857 141.572 445.823 141.594C444.665 142.284 443.34 142.643 441.992 142.632C440.227 142.779 438.476 142.23 437.111 141.102C436.395 140.424 433.548 141.856 431.679 142.648C429.718 143.461 427.52 143.486 425.542 142.72L429.039 138.32L434.804 137.042H436.243L442.702 137.774L445.921 141.523Z" fill="#E6E6E6"/>
<path d="M540.248 399.779L344.698 400C344.585 400.001 344.474 399.979 344.369 399.937C344.265 399.894 344.17 399.832 344.09 399.752C344.01 399.673 343.947 399.579 343.903 399.475C343.86 399.372 343.837 399.26 343.836 399.148C343.836 399.035 343.857 398.924 343.9 398.82C343.942 398.715 344.005 398.621 344.084 398.541C344.163 398.461 344.257 398.397 344.361 398.354C344.465 398.31 344.576 398.287 344.689 398.287H344.698L540.248 398.065C540.474 398.067 540.691 398.157 540.851 398.318C541.01 398.478 541.1 398.696 541.1 398.922C541.1 399.149 541.01 399.366 540.851 399.527C540.691 399.687 540.474 399.778 540.248 399.779Z" fill="#CACACA"/>
<path d="M306.103 112.037H304.664V9.10352H361.266V10.5427H306.103V112.037Z" fill="#3F3D56"/>
<path d="M405.285 0H367.146C364.665 0 362.286 0.985589 360.532 2.73994C358.777 4.4943 357.792 6.8737 357.792 9.35474C357.792 11.8358 358.777 14.2152 360.532 15.9695C362.286 17.7239 364.665 18.7095 367.146 18.7095H405.285C407.766 18.7095 410.145 17.7239 411.9 15.9695C413.654 14.2152 414.64 11.8358 414.64 9.35474C414.64 6.8737 413.654 4.4943 411.9 2.73994C410.145 0.985589 407.766 0 405.285 0Z" fill="#E86100"/>
<path d="M304.549 121.454C309.296 121.454 313.145 117.605 313.145 112.857C313.145 108.11 309.296 104.261 304.549 104.261C299.801 104.261 295.953 108.11 295.953 112.857C295.953 117.605 299.801 121.454 304.549 121.454Z" fill="#E86100"/>
<path d="M200.963 145.159L238.674 136.432L249.498 133.927C250.852 133.614 250.29 131.529 248.935 131.843L211.224 140.569L200.399 143.074C199.045 143.387 199.608 145.472 200.963 145.159Z" fill="#F2F2F2"/>
<path d="M239.904 122.432L260.093 131.719C260.781 131.957 261.427 132.306 262.003 132.753C262.56 133.299 262.155 133.824 261.7 134.299C260.341 135.568 258.906 136.752 257.403 137.846L248.802 144.838C247.722 145.716 249.246 147.248 250.315 146.378L257.806 140.288L261.552 137.243C262.613 136.38 263.905 135.5 264.331 134.125C265.227 131.238 261.691 130.09 259.727 129.186L250.935 125.142L241.004 120.573C239.752 119.998 238.643 121.852 239.904 122.432Z" fill="#F2F2F2"/>
<path d="M518.498 193.128C514.901 190.689 510.532 189.783 506.261 189.476C501.407 189.212 496.542 189.217 491.688 189.493C486.646 189.693 481.615 190.057 476.593 190.587C471.579 191.118 466.586 191.813 461.614 192.673C457.162 193.366 452.757 194.331 448.423 195.561C444.32 196.696 440.456 198.562 437.016 201.069C433.996 203.34 431.674 206.413 430.313 209.938C428.977 213.244 428.75 216.894 429.666 220.34C430.154 222.014 430.989 223.567 432.118 224.896C433.422 226.354 434.967 227.578 436.686 228.513C440.254 230.55 444.296 231.775 447.523 234.383C448.374 235.065 449.149 235.837 449.837 236.684C450.303 237.339 450.948 237.846 451.695 238.146C452.403 238.393 453.168 238.425 453.894 238.238C454.62 238.051 455.274 237.654 455.774 237.095C456.421 236.211 456.959 235.253 457.379 234.241L459.082 230.957C459.196 230.67 459.338 230.395 459.507 230.136C459.635 229.984 459.407 230.139 459.45 230.099C459.474 230.077 459.524 230.078 459.551 230.06C459.692 229.99 459.839 229.934 459.99 229.892C461.565 229.291 463.147 228.71 464.736 228.147C470.6 226.057 476.535 224.131 482.563 222.57C485.665 221.738 488.811 221.08 491.987 220.599C496.1 220.013 500.275 220.081 504.407 219.68C508.856 219.249 513.446 218.349 517.26 215.899C520.415 213.983 522.845 211.074 524.17 207.629C524.744 205.987 524.941 204.237 524.746 202.509C524.251 198.598 521.696 195.296 518.498 193.128Z" fill="#E6E6E6"/>
<path d="M511.137 195.325C507.887 193.121 503.938 192.303 500.079 192.025C495.692 191.786 491.296 191.791 486.91 192.04C482.354 192.221 477.807 192.551 473.269 193.029C468.738 193.509 464.226 194.137 459.732 194.914C455.71 195.541 451.729 196.412 447.812 197.524C444.105 198.55 440.613 200.236 437.504 202.501C434.775 204.554 432.676 207.331 431.447 210.516C430.239 213.504 430.034 216.802 430.862 219.916C431.303 221.429 432.058 222.832 433.077 224.033C434.256 225.351 435.653 226.456 437.206 227.302C440.43 229.143 444.083 230.249 446.999 232.606C447.768 233.223 448.469 233.92 449.09 234.685C449.512 235.277 450.094 235.736 450.769 236.006C451.409 236.23 452.1 236.259 452.756 236.09C453.412 235.921 454.003 235.562 454.455 235.057C455.04 234.258 455.526 233.392 455.906 232.478L457.444 229.51C457.547 229.251 457.676 229.002 457.829 228.768C457.944 228.631 457.738 228.771 457.777 228.735C457.799 228.715 457.844 228.716 457.868 228.7C457.996 228.637 458.129 228.586 458.266 228.548C459.689 228.005 461.118 227.479 462.554 226.971C467.853 225.082 473.216 223.341 478.664 221.931C481.467 221.18 484.31 220.585 487.18 220.15C490.897 219.62 494.67 219.682 498.404 219.32C502.424 218.93 506.571 218.117 510.019 215.903C512.869 214.171 515.065 211.543 516.263 208.43C516.782 206.946 516.96 205.364 516.784 203.803C516.336 200.269 514.027 197.284 511.137 195.325Z" fill="white"/>
<path d="M504.33 199.304L451.367 209.072C451.215 209.101 451.06 209.1 450.909 209.069C450.758 209.037 450.614 208.976 450.487 208.89C450.36 208.803 450.251 208.692 450.166 208.562C450.082 208.433 450.024 208.289 449.995 208.137C449.967 207.986 449.969 207.83 450.001 207.679C450.032 207.528 450.094 207.385 450.181 207.258C450.268 207.131 450.38 207.023 450.509 206.939C450.638 206.855 450.783 206.797 450.935 206.769L450.942 206.768L503.905 196.999C504.056 196.972 504.211 196.974 504.362 197.006C504.512 197.038 504.655 197.099 504.782 197.187C504.908 197.274 505.017 197.385 505.1 197.514C505.184 197.644 505.242 197.788 505.269 197.939C505.297 198.091 505.295 198.246 505.263 198.396C505.231 198.547 505.17 198.69 505.082 198.816C504.995 198.943 504.884 199.051 504.754 199.135C504.625 199.219 504.481 199.276 504.33 199.304Z" fill="#E6E6E6"/>
<path d="M505.634 206.377L452.671 216.146C452.52 216.175 452.364 216.173 452.213 216.142C452.062 216.11 451.919 216.05 451.792 215.963C451.664 215.876 451.555 215.765 451.471 215.636C451.387 215.507 451.329 215.362 451.3 215.211C451.272 215.059 451.273 214.903 451.305 214.753C451.337 214.602 451.398 214.459 451.486 214.332C451.573 214.204 451.684 214.096 451.814 214.012C451.943 213.928 452.088 213.87 452.239 213.842L452.246 213.841L505.209 204.073C505.36 204.045 505.516 204.047 505.666 204.079C505.817 204.111 505.959 204.173 506.086 204.26C506.213 204.347 506.321 204.459 506.405 204.588C506.489 204.717 506.546 204.861 506.574 205.012C506.602 205.164 506.6 205.319 506.568 205.47C506.535 205.62 506.474 205.763 506.387 205.89C506.299 206.016 506.188 206.125 506.059 206.208C505.93 206.292 505.786 206.349 505.634 206.377Z" fill="#E6E6E6"/>
<path d="M460.148 222.08L453.976 223.219C453.671 223.274 453.356 223.206 453.101 223.03C452.846 222.853 452.671 222.583 452.615 222.278C452.559 221.973 452.626 221.659 452.801 221.403C452.976 221.147 453.246 220.971 453.551 220.914L459.723 219.776C460.028 219.72 460.343 219.788 460.598 219.964C460.853 220.141 461.028 220.411 461.085 220.716C461.141 221.021 461.074 221.336 460.898 221.592C460.723 221.848 460.453 222.023 460.148 222.08Z" fill="#E6E6E6"/>
<path d="M455.677 251.486C458.382 250.987 460.17 248.39 459.671 245.685C459.172 242.98 456.575 241.191 453.87 241.69C451.165 242.189 449.376 244.787 449.875 247.492C450.374 250.197 452.971 251.985 455.677 251.486Z" fill="#D1D3D4"/>
<path d="M181.583 142.928H136.345C134.245 142.926 132.232 142.09 130.747 140.605C129.262 139.12 128.426 137.107 128.424 135.007V105.192C128.426 103.092 129.262 101.079 130.747 99.5938C132.232 98.1088 134.245 97.2735 136.345 97.271H181.583C183.683 97.2735 185.697 98.1088 187.182 99.5938C188.667 101.079 189.502 103.092 189.504 105.192V135.007C189.502 137.107 188.667 139.12 187.182 140.605C185.697 142.09 183.683 142.926 181.583 142.928Z" fill="#E6E6E6"/>
<path d="M176.612 141.321H137.241C135.413 141.319 133.661 140.592 132.368 139.3C131.076 138.008 130.349 136.255 130.347 134.428V108.479C130.349 106.652 131.076 104.899 132.368 103.607C133.661 102.315 135.413 101.588 137.241 101.585H176.612C178.44 101.588 180.192 102.315 181.485 103.607C182.777 104.899 183.504 106.652 183.506 108.479V134.428C183.504 136.255 182.777 138.008 181.484 139.3C180.192 140.592 178.44 141.319 176.612 141.321Z" fill="white"/>
<path d="M187.955 169.789H129.909C129.55 169.788 129.206 169.645 128.953 169.391C128.7 169.137 128.557 168.793 128.557 168.435C128.557 168.076 128.7 167.732 128.953 167.478C129.206 167.224 129.55 167.081 129.909 167.08H187.955C188.314 167.081 188.658 167.224 188.911 167.478C189.164 167.732 189.306 168.076 189.306 168.435C189.306 168.793 189.164 169.137 188.911 169.391C188.658 169.645 188.314 169.788 187.955 169.789Z" fill="#E6E6E6"/>
<path d="M187.955 162.05H129.909C129.55 162.049 129.206 161.906 128.953 161.652C128.7 161.398 128.557 161.054 128.557 160.695C128.557 160.337 128.7 159.993 128.953 159.739C129.206 159.485 129.55 159.342 129.909 159.341H187.955C188.314 159.342 188.658 159.485 188.911 159.739C189.164 159.993 189.306 160.337 189.306 160.695C189.306 161.054 189.164 161.398 188.911 161.652C188.658 161.906 188.314 162.049 187.955 162.05Z" fill="#E6E6E6"/>
<path d="M187.955 177.529H129.909C129.549 177.529 129.205 177.386 128.951 177.132C128.697 176.878 128.554 176.533 128.554 176.174C128.554 175.815 128.697 175.471 128.951 175.217C129.205 174.963 129.549 174.82 129.909 174.82H187.955C188.314 174.82 188.659 174.963 188.913 175.217C189.167 175.471 189.31 175.815 189.31 176.174C189.31 176.533 189.167 176.878 188.913 177.132C188.659 177.386 188.314 177.529 187.955 177.529Z" fill="#E6E6E6"/>
<path d="M187.955 185.268H129.909C129.549 185.268 129.205 185.125 128.951 184.871C128.697 184.617 128.554 184.273 128.554 183.914C128.554 183.554 128.697 183.21 128.951 182.956C129.205 182.702 129.549 182.559 129.909 182.559H187.955C188.314 182.559 188.659 182.702 188.913 182.956C189.167 183.21 189.31 183.554 189.31 183.914C189.31 184.273 189.167 184.617 188.913 184.871C188.659 185.125 188.314 185.268 187.955 185.268Z" fill="#E6E6E6"/>
<path d="M187.955 193.008H129.909C129.549 193.008 129.205 192.865 128.951 192.611C128.697 192.357 128.554 192.012 128.554 191.653C128.554 191.294 128.697 190.95 128.951 190.696C129.205 190.442 129.549 190.299 129.909 190.299H187.955C188.314 190.299 188.659 190.442 188.913 190.696C189.167 190.95 189.31 191.294 189.31 191.653C189.31 192.012 189.167 192.357 188.913 192.611C188.659 192.865 188.314 193.008 187.955 193.008Z" fill="#E6E6E6"/>
<path d="M187.955 200.747H129.909C129.55 200.746 129.206 200.603 128.953 200.349C128.7 200.095 128.557 199.751 128.557 199.393C128.557 199.034 128.7 198.69 128.953 198.436C129.206 198.182 129.55 198.039 129.909 198.038H187.955C188.314 198.039 188.658 198.182 188.911 198.436C189.164 198.69 189.306 199.034 189.306 199.393C189.306 199.751 189.164 200.095 188.911 200.349C188.658 200.603 188.314 200.746 187.955 200.747Z" fill="#E6E6E6"/>
<path d="M156.03 182.998H157.469V238.437H53.3745V236.998H156.03V182.998Z" fill="#3F3D56"/>
<path d="M9.35474 247.541H47.4933C49.9743 247.541 52.3537 246.555 54.1081 244.801C55.8624 243.046 56.848 240.667 56.848 238.186C56.848 235.705 55.8624 233.325 54.1081 231.571C52.3537 229.817 49.9743 228.831 47.4933 228.831H9.35474C6.8737 228.831 4.4943 229.817 2.73994 231.571C0.985589 233.325 0 235.705 0 238.186C0 240.667 0.985589 243.046 2.73994 244.801C4.4943 246.555 6.8737 247.541 9.35474 247.541Z" fill="#E86100"/>
<path d="M157.752 187.175C162.499 187.175 166.348 183.326 166.348 178.579C166.348 173.831 162.499 169.982 157.752 169.982C153.004 169.982 149.155 173.831 149.155 178.579C149.155 183.326 153.004 187.175 157.752 187.175Z" fill="#E86100"/>
<path d="M202.183 180.967C214.804 183.65 211.593 184.173 224.214 186.855L235.082 189.165C236.441 189.454 236.813 187.327 235.453 187.038C222.833 184.356 226.043 183.832 213.422 181.15L202.555 178.84C201.195 178.551 200.823 180.678 202.183 180.967Z" fill="#F2F2F2"/>
<path d="M231.252 174.691L245.615 191.646C246.139 192.154 246.576 192.743 246.909 193.392C247.183 194.122 246.593 194.426 245.98 194.664C244.212 195.239 242.411 195.705 240.586 196.06L229.834 198.757C228.485 199.096 229.217 201.128 230.554 200.793L239.919 198.444L244.601 197.269C245.927 196.936 247.47 196.685 248.438 195.62C250.471 193.383 247.753 190.847 246.355 189.197L240.1 181.813L233.034 173.472C232.144 172.42 230.354 173.631 231.252 174.691Z" fill="#F2F2F2"/>
<path d="M276.794 248.602C287.834 248.602 296.784 239.652 296.784 228.611C296.784 217.571 287.834 208.621 276.794 208.621C265.754 208.621 256.804 217.571 256.804 228.611C256.804 239.652 265.754 248.602 276.794 248.602Z" fill="#E6E6E6"/>
<path d="M274.846 246.053C283.239 246.053 290.043 239.249 290.043 230.856C290.043 222.463 283.239 215.659 274.846 215.659C266.452 215.659 259.648 222.463 259.648 230.856C259.648 239.249 266.452 246.053 274.846 246.053Z" fill="white"/>
<path d="M272.119 241.26C271.773 241.26 271.433 241.18 271.124 241.025C270.816 240.871 270.547 240.647 270.34 240.37L264.886 233.099C264.711 232.865 264.583 232.599 264.511 232.317C264.438 232.034 264.422 231.739 264.463 231.45C264.504 231.161 264.602 230.883 264.751 230.632C264.899 230.38 265.096 230.161 265.33 229.986C265.563 229.81 265.829 229.683 266.112 229.61C266.394 229.537 266.689 229.521 266.978 229.562C267.267 229.604 267.545 229.701 267.797 229.85C268.048 229.999 268.267 230.195 268.443 230.429L268.444 230.431L272.012 235.187L281.176 221.442C281.338 221.198 281.546 220.989 281.789 220.826C282.031 220.664 282.304 220.55 282.59 220.493C282.877 220.435 283.172 220.435 283.459 220.491C283.745 220.548 284.018 220.661 284.261 220.823C284.504 220.985 284.713 221.193 284.876 221.436C285.038 221.679 285.151 221.952 285.209 222.238C285.266 222.525 285.266 222.82 285.209 223.107C285.152 223.393 285.039 223.666 284.876 223.909L273.969 240.27C273.772 240.566 273.506 240.81 273.195 240.982C272.884 241.154 272.536 241.249 272.181 241.259C272.16 241.26 272.139 241.26 272.119 241.26Z" fill="#E6E6E6"/>
<path d="M463.456 249.205C464.099 248.827 464.652 248.312 465.075 247.696C465.498 247.081 465.781 246.381 465.904 245.644C466.027 244.908 465.988 244.153 465.787 243.434C465.587 242.714 465.232 242.048 464.746 241.481L480.798 213.432L471.38 213.944L457.234 241.124C456.335 242.003 455.79 243.181 455.702 244.435C455.614 245.689 455.989 246.932 456.756 247.928C457.522 248.924 458.628 249.604 459.863 249.84C461.098 250.075 462.376 249.849 463.456 249.205Z" fill="#FFB8B8"/>
<path d="M445.377 150.89C445.377 150.89 462.377 145.425 466.749 158.541C471.121 171.657 485.818 207.181 485.818 207.181L470.028 239.425L462.923 231.774L470.516 209.367L448.656 176.576L445.377 150.89Z" fill="#3F3D56"/>
<path d="M470.569 236.132C470.058 235.266 469.408 234.489 468.647 233.832L463.223 228.611L462.921 229.284C462.365 230.16 462.001 231.143 461.851 232.169C461.702 233.196 461.771 234.242 462.054 235.24C462.337 236.238 462.828 237.165 463.494 237.96C464.161 238.755 464.988 239.4 465.921 239.853C466.717 240.271 467.616 240.456 468.513 240.388C468.959 240.349 469.391 240.205 469.771 239.967C470.151 239.73 470.47 239.406 470.701 239.021C470.912 238.564 471.01 238.063 470.987 237.561C470.965 237.058 470.821 236.568 470.569 236.132Z" fill="#E6E6E6"/>
<path d="M276.621 255.505H275.182V310.945H323.867V309.506H276.621V255.505Z" fill="#3F3D56"/>
<path d="M377.242 310.694C377.239 308.214 376.253 305.836 374.499 304.082C372.745 302.328 370.367 301.342 367.887 301.339H329.749C327.268 301.339 324.888 302.325 323.134 304.079C321.379 305.834 320.394 308.213 320.394 310.694C320.394 313.175 321.379 315.555 323.134 317.309C324.888 319.063 327.268 320.049 329.749 320.049H367.887C370.367 320.046 372.745 319.06 374.499 317.306C376.253 315.552 377.239 313.174 377.242 310.694Z" fill="#E86100"/>
<path d="M274.899 259.683C279.647 259.683 283.495 255.834 283.495 251.086C283.495 246.339 279.647 242.49 274.899 242.49C270.152 242.49 266.303 246.339 266.303 251.086C266.303 255.834 270.152 259.683 274.899 259.683Z" fill="#E86100"/>
</g>
<defs>
<clipPath id="clip0_136_2184">
<rect width="541.1" height="400" fill="white"/>
</clipPath>
</defs>
</svg>
