<svg width="800" height="413" viewBox="0 0 800 413" fill="none" xmlns="http://www.w3.org/2000/svg">
<g clip-path="url(#clip0_135_894)">
<path d="M505.616 229.874H238.128V412.109H505.616V229.874Z" fill="#E86100"/>
<path d="M520.535 208.559H257.311C256.463 208.56 255.65 208.897 255.051 209.497C254.451 210.096 254.114 210.909 254.113 211.757V389.727C254.113 390.147 254.195 390.563 254.356 390.951C254.517 391.339 254.752 391.692 255.049 391.989C255.346 392.286 255.699 392.522 256.087 392.682C256.475 392.843 256.891 392.926 257.311 392.926H520.535C520.955 392.926 521.371 392.843 521.759 392.682C522.147 392.522 522.5 392.286 522.797 391.989C523.094 391.692 523.329 391.339 523.49 390.951C523.651 390.563 523.733 390.147 523.733 389.727V211.757C523.732 210.909 523.395 210.096 522.795 209.497C522.196 208.897 521.383 208.56 520.535 208.559ZM521.601 389.727C521.601 389.867 521.574 390.006 521.521 390.136C521.467 390.265 521.389 390.383 521.29 390.482C521.191 390.581 521.073 390.66 520.943 390.713C520.814 390.767 520.675 390.794 520.535 390.793H257.311C257.171 390.794 257.032 390.767 256.903 390.713C256.773 390.66 256.655 390.581 256.556 390.482C256.457 390.383 256.379 390.265 256.325 390.136C256.272 390.006 256.244 389.867 256.245 389.727V211.757C256.245 211.474 256.358 211.204 256.558 211.004C256.757 210.804 257.028 210.691 257.311 210.691H520.535C520.818 210.691 521.088 210.804 521.288 211.004C521.488 211.204 521.601 211.474 521.601 211.757V389.727Z" fill="#3F3D56"/>
<path d="M386.834 334.312H269.524C268.664 334.312 267.967 335.008 267.967 335.868V346.609C267.967 347.469 268.664 348.166 269.524 348.166H386.834C387.694 348.166 388.39 347.469 388.39 346.609V335.868C388.39 335.008 387.694 334.312 386.834 334.312Z" fill="#3F3D56"/>
<path d="M498.153 322.59H459.795C459.375 322.59 458.959 322.673 458.571 322.834C458.183 322.994 457.83 323.23 457.533 323.527C457.236 323.824 457.001 324.177 456.84 324.565C456.679 324.953 456.596 325.369 456.596 325.789V355.626C456.596 356.046 456.679 356.462 456.84 356.85C457.001 357.238 457.236 357.59 457.533 357.887C457.83 358.184 458.183 358.42 458.571 358.581C458.959 358.741 459.375 358.824 459.795 358.824H498.153C498.573 358.824 498.989 358.741 499.377 358.581C499.765 358.42 500.118 358.184 500.415 357.887C500.712 357.59 500.948 357.238 501.108 356.85C501.269 356.462 501.352 356.046 501.352 355.626V325.789C501.352 325.369 501.269 324.953 501.108 324.565C500.947 324.177 500.712 323.824 500.415 323.527C500.118 323.23 499.765 322.994 499.377 322.834C498.989 322.673 498.573 322.59 498.153 322.59ZM499.219 355.626C499.219 355.908 499.106 356.179 498.907 356.379C498.707 356.579 498.436 356.691 498.153 356.692H459.795C459.512 356.691 459.241 356.579 459.042 356.379C458.842 356.179 458.729 355.908 458.729 355.626V325.789C458.728 325.649 458.756 325.51 458.809 325.38C458.862 325.251 458.941 325.133 459.04 325.034C459.139 324.935 459.257 324.856 459.386 324.803C459.516 324.749 459.655 324.722 459.795 324.723H498.153C498.293 324.722 498.432 324.749 498.562 324.803C498.691 324.856 498.809 324.935 498.908 325.034C499.007 325.133 499.086 325.251 499.139 325.38C499.193 325.51 499.22 325.649 499.219 325.789V355.626Z" fill="#3F3D56"/>
<path d="M490.493 329.475H467.455C466.596 329.475 465.899 330.172 465.899 331.032V333.329C465.899 334.189 466.596 334.886 467.455 334.886H490.493C491.353 334.886 492.049 334.189 492.049 333.329V331.032C492.049 330.172 491.353 329.475 490.493 329.475Z" fill="#3F3D56"/>
<path d="M490.493 338H467.455C466.596 338 465.899 338.697 465.899 339.557V341.854C465.899 342.714 466.596 343.411 467.455 343.411H490.493C491.353 343.411 492.049 342.714 492.049 341.854V339.557C492.049 338.697 491.353 338 490.493 338Z" fill="#3F3D56"/>
<path d="M490.493 346.526H467.455C466.596 346.526 465.899 347.223 465.899 348.083V350.38C465.899 351.24 466.596 351.937 467.455 351.937H490.493C491.353 351.937 492.049 351.24 492.049 350.38V348.083C492.049 347.223 491.353 346.526 490.493 346.526Z" fill="#3F3D56"/>
<path d="M325.024 221.349H272.721C271.861 221.349 271.164 222.045 271.164 222.905V243.237C271.164 244.097 271.861 244.794 272.721 244.794H325.024C325.883 244.794 326.58 244.097 326.58 243.237V222.905C326.58 222.045 325.883 221.349 325.024 221.349Z" fill="#3F3D56"/>
<path d="M303.135 233.071C303.135 237.191 301.227 240.531 298.872 240.531C296.518 240.531 294.61 237.191 294.61 233.071C294.61 228.951 298.872 225.611 298.872 225.611C298.872 225.611 303.135 228.951 303.135 233.071Z" fill="#E86100"/>
<path d="M701.945 125.944H700.388V299.964H523.733V301.521H701.945V125.944Z" fill="#3F3D56"/>
<path d="M238.128 301.521H59.9165V125.944H61.4729V299.964H238.128V301.521Z" fill="#3F3D56"/>
<path d="M799.501 29.4241H798.504V27.6786H799.252C799.384 27.6785 799.511 27.626 799.605 27.5325C799.698 27.439 799.751 27.3121 799.751 27.1798V18.203C799.751 18.0708 799.698 17.9439 799.605 17.8504C799.511 17.7569 799.384 17.7043 799.252 17.7043H798.504V12.6062C798.504 11.18 798.223 9.76767 797.677 8.44998C797.131 7.13229 796.331 5.935 795.323 4.92649C794.314 3.91798 793.117 3.11798 791.799 2.57219C790.482 2.02639 789.069 1.74549 787.643 1.7455H786.535V0.498711C786.535 0.366445 786.482 0.239596 786.389 0.14607C786.295 0.0525437 786.168 2.0639e-06 786.036 0H777.059C776.927 2.0639e-06 776.8 0.0525437 776.707 0.14607C776.613 0.239596 776.56 0.366445 776.56 0.498711V1.7455H614.368C612.942 1.74549 611.53 2.02639 610.212 2.57219C608.894 3.11798 607.697 3.91798 606.688 4.92649C605.68 5.935 604.88 7.13229 604.334 8.44998C603.788 9.76767 603.507 11.18 603.507 12.6062V243.732C603.507 245.158 603.788 246.57 604.334 247.888C604.88 249.206 605.68 250.403 606.688 251.412C607.697 252.42 608.894 253.22 610.212 253.766C611.53 254.312 612.942 254.593 614.368 254.593H787.643C789.069 254.593 790.482 254.312 791.799 253.766C793.117 253.22 794.314 252.42 795.323 251.412C796.331 250.403 797.131 249.206 797.677 247.888C798.223 246.57 798.504 245.158 798.504 243.732V39.3983H799.501C799.634 39.3983 799.76 39.3457 799.854 39.2522C799.947 39.1587 800 39.0318 800 38.8996V29.9228C800 29.8573 799.987 29.7924 799.962 29.7319C799.937 29.6714 799.9 29.6164 799.854 29.5701C799.808 29.5238 799.753 29.4871 799.692 29.462C799.632 29.4369 799.567 29.424 799.501 29.4241Z" fill="#3F3D56"/>
<path d="M789.542 8.84961H613.966C613.147 8.84961 612.483 9.51328 612.483 10.332V244.261C612.483 245.079 613.147 245.743 613.966 245.743H789.542C790.36 245.743 791.024 245.079 791.024 244.261V10.332C791.024 9.51328 790.36 8.84961 789.542 8.84961Z" fill="#D0CDE1"/>
<path d="M710.323 124.949H682.808C681.948 124.949 681.251 125.646 681.251 126.505V132.469C681.251 133.328 681.948 134.025 682.808 134.025H710.323C711.182 134.025 711.879 133.328 711.879 132.469V126.505C711.879 125.646 711.182 124.949 710.323 124.949Z" fill="#3F3D56"/>
<path d="M747.35 54.2837H645.78C644.92 54.2837 644.223 54.9805 644.223 55.8401V56.6171C644.223 57.4767 644.92 58.1735 645.78 58.1735H747.35C748.21 58.1735 748.907 57.4767 748.907 56.6171V55.8401C748.907 54.9805 748.21 54.2837 747.35 54.2837Z" fill="#3F3D56"/>
<path d="M747.35 66.6016H645.78C644.92 66.6016 644.223 67.2984 644.223 68.158V68.935C644.223 69.7946 644.92 70.4914 645.78 70.4914H747.35C748.21 70.4914 748.907 69.7946 748.907 68.935V68.158C748.907 67.2984 748.21 66.6016 747.35 66.6016Z" fill="#3F3D56"/>
<path d="M747.35 78.9189H645.78C644.92 78.9189 644.223 79.6158 644.223 80.4754V81.2524C644.223 82.112 644.92 82.8088 645.78 82.8088H747.35C748.21 82.8088 748.907 82.112 748.907 81.2524V80.4754C748.907 79.6158 748.21 78.9189 747.35 78.9189Z" fill="#3F3D56"/>
<path d="M747.35 91.2368H645.78C644.92 91.2368 644.223 91.9337 644.223 92.7932V93.5702C644.223 94.4298 644.92 95.1267 645.78 95.1267H747.35C748.21 95.1267 748.907 94.4298 748.907 93.5702V92.7932C748.907 91.9337 748.21 91.2368 747.35 91.2368Z" fill="#3F3D56"/>
<path d="M747.35 103.555H645.78C644.92 103.555 644.223 104.252 644.223 105.111V105.888C644.223 106.748 644.92 107.445 645.78 107.445H747.35C748.21 107.445 748.907 106.748 748.907 105.888V105.111C748.907 104.252 748.21 103.555 747.35 103.555Z" fill="#3F3D56"/>
<path d="M692.859 236.39C710.816 236.39 725.373 221.833 725.373 203.876C725.373 185.919 710.816 171.362 692.859 171.362C674.903 171.362 660.346 185.919 660.346 203.876C660.346 221.833 674.903 236.39 692.859 236.39Z" fill="#E86100"/>
<path d="M702.443 228.954C694.38 228.954 686.499 226.563 679.795 222.084C673.091 217.605 667.866 211.238 664.781 203.79C661.696 196.341 660.888 188.145 662.461 180.237C664.034 172.33 667.917 165.066 673.618 159.365C679.319 153.664 686.582 149.781 694.49 148.209C702.397 146.636 710.594 147.443 718.042 150.528C725.491 153.614 731.858 158.839 736.337 165.542C740.816 172.246 743.207 180.127 743.207 188.19C743.195 198.997 738.896 209.359 731.254 217.001C723.612 224.643 713.25 228.942 702.443 228.954ZM702.443 148.908C694.673 148.908 687.078 151.212 680.618 155.528C674.159 159.844 669.124 165.979 666.151 173.157C663.177 180.335 662.399 188.233 663.915 195.853C665.431 203.473 669.172 210.473 674.666 215.966C680.16 221.46 687.159 225.201 694.779 226.717C702.399 228.233 710.297 227.455 717.475 224.482C724.653 221.509 730.788 216.474 735.104 210.014C739.421 203.554 741.725 195.959 741.725 188.19C741.713 177.775 737.571 167.79 730.206 160.426C722.842 153.062 712.857 148.919 702.443 148.908Z" fill="#3F3D56"/>
<path d="M121.006 68.4144H119.673V31.8862C119.673 29.1098 119.126 26.3607 118.064 23.7956C117.001 21.2306 115.444 18.9 113.481 16.9368C111.518 14.9736 109.187 13.4164 106.622 12.3539C104.057 11.2915 101.308 10.7446 98.5314 10.7446H21.1416C18.3652 10.7446 15.6161 11.2915 13.051 12.3539C10.486 13.4164 8.1554 14.9736 6.19222 16.9368C4.22904 18.9 2.67177 21.2306 1.6093 23.7957C0.546842 26.3607 -3.0659e-06 29.1098 0 31.8862V232.283C-3.06591e-06 235.059 0.54684 237.808 1.6093 240.373C2.67177 242.938 4.22905 245.269 6.19222 247.232C8.1554 249.195 10.486 250.752 13.0511 251.815C15.6161 252.877 18.3652 253.424 21.1416 253.424H98.5314C101.308 253.424 104.057 252.877 106.622 251.815C109.187 250.752 111.518 249.195 113.481 247.232C115.444 245.269 117.001 242.938 118.064 240.373C119.126 237.808 119.673 235.059 119.673 232.283V94.4157H121.006V68.4144Z" fill="#3F3D56"/>
<path d="M115.171 33.1287V233.233C115.172 237.42 113.509 241.437 110.548 244.398C107.588 247.359 103.572 249.024 99.3848 249.024H21.6214C17.4339 249.024 13.4183 247.359 10.4579 244.398C7.49747 241.437 5.83473 237.42 5.83545 233.233V33.1287C5.8359 28.9421 7.4992 24.9272 10.4595 21.9668C13.4199 19.0065 17.4348 17.3432 21.6214 17.3428H31.0559C30.5916 18.4817 30.4145 19.7172 30.5402 20.9407C30.6659 22.1641 31.0905 23.3379 31.7767 24.3586C32.4629 25.3792 33.3895 26.2155 34.475 26.7937C35.5605 27.3719 36.7716 27.6743 38.0015 27.6742H82.3377C83.5676 27.6743 84.7786 27.372 85.8641 26.7938C86.9496 26.2156 87.8763 25.3793 88.5624 24.3586C89.2486 23.3379 89.6733 22.1641 89.799 20.9407C89.9247 19.7172 89.7476 18.4817 89.2832 17.3428H99.3848C103.571 17.3432 107.586 19.0065 110.547 21.9669C113.507 24.9272 115.17 28.9421 115.171 33.1287Z" fill="#D0CDE1"/>
<path d="M69.3626 135.233H51.6438C50.7842 135.233 50.0874 135.93 50.0874 136.789V139.85C50.0874 140.709 50.7842 141.406 51.6438 141.406H69.3626C70.2222 141.406 70.919 140.709 70.919 139.85V136.789C70.919 135.93 70.2222 135.233 69.3626 135.233Z" fill="#3F3D56"/>
<path d="M94.7806 87.1699H26.2257C25.4951 87.1699 24.9028 87.7622 24.9028 88.4928C24.9028 89.2233 25.4951 89.8156 26.2257 89.8156H94.7806C95.5112 89.8156 96.1034 89.2233 96.1034 88.4928C96.1034 87.7622 95.5112 87.1699 94.7806 87.1699Z" fill="#3F3D56"/>
<path d="M94.7806 95.5479H26.2257C25.4951 95.5479 24.9028 96.1401 24.9028 96.8707C24.9028 97.6013 25.4951 98.1935 26.2257 98.1935H94.7806C95.5112 98.1935 96.1034 97.6013 96.1034 96.8707C96.1034 96.1401 95.5112 95.5479 94.7806 95.5479Z" fill="#3F3D56"/>
<path d="M94.7806 103.926H26.2257C25.4951 103.926 24.9028 104.518 24.9028 105.249C24.9028 105.979 25.4951 106.571 26.2257 106.571H94.7806C95.5112 106.571 96.1034 105.979 96.1034 105.249C96.1034 104.518 95.5112 103.926 94.7806 103.926Z" fill="#3F3D56"/>
<path d="M94.7806 112.304H26.2257C25.4951 112.304 24.9028 112.896 24.9028 113.627C24.9028 114.357 25.4951 114.949 26.2257 114.949H94.7806C95.5112 114.949 96.1034 114.357 96.1034 113.627C96.1034 112.896 95.5112 112.304 94.7806 112.304Z" fill="#3F3D56"/>
<path d="M94.7806 120.682H26.2257C25.4951 120.682 24.9028 121.274 24.9028 122.004C24.9028 122.735 25.4951 123.327 26.2257 123.327H94.7806C95.5112 123.327 96.1034 122.735 96.1034 122.004C96.1034 121.274 95.5112 120.682 94.7806 120.682Z" fill="#3F3D56"/>
<path d="M54.3777 221.922C66.7614 221.922 76.8004 211.883 76.8004 199.499C76.8004 187.116 66.7614 177.077 54.3777 177.077C41.994 177.077 31.9551 187.116 31.9551 199.499C31.9551 211.883 41.994 221.922 54.3777 221.922Z" fill="#E86100"/>
<path d="M60.9868 216.794C55.4266 216.794 49.9913 215.146 45.3682 212.057C40.7451 208.967 37.1418 204.577 35.014 199.44C32.8862 194.303 32.3295 188.65 33.4142 183.197C34.4989 177.744 37.1764 172.735 41.1081 168.803C45.0397 164.871 50.0489 162.194 55.5023 161.109C60.9556 160.024 66.6081 160.581 71.7451 162.709C76.882 164.837 81.2726 168.44 84.3617 173.063C87.4508 177.686 89.0996 183.121 89.0996 188.682C89.0911 196.135 86.1266 203.281 80.8562 208.551C75.5859 213.821 68.4402 216.786 60.9868 216.794ZM60.9868 161.591C55.6288 161.591 50.3912 163.18 45.9362 166.157C41.4812 169.133 38.0089 173.364 35.9585 178.315C33.9081 183.265 33.3716 188.712 34.4169 193.967C35.4622 199.222 38.0423 204.049 41.831 207.838C45.6196 211.626 50.4467 214.206 55.7017 215.252C60.9568 216.297 66.4038 215.76 71.3539 213.71C76.304 211.66 80.535 208.187 83.5117 203.732C86.4885 199.277 88.0773 194.04 88.0773 188.682C88.0692 181.499 85.2125 174.613 80.1338 169.535C75.0551 164.456 68.1692 161.599 60.9868 161.591Z" fill="#3F3D56"/>
<path d="M136.581 291.979H114.791V313.769H136.581V291.979Z" fill="#D0CDE1"/>
<path d="M149.81 301.317H123.351V274.858H149.81V301.317ZM124.501 300.167H148.66V276.008H124.501V300.167Z" fill="#3F3D56"/>
<path d="M624.522 291.979H602.732V313.769H624.522V291.979Z" fill="#D0CDE1"/>
<path d="M637.752 301.317H611.292V274.858H637.752V301.317ZM612.443 300.167H636.601V276.008H612.443V300.167Z" fill="#3F3D56"/>
</g>
<defs>
<clipPath id="clip0_135_894">
<rect width="800" height="412.109" fill="white"/>
</clipPath>
</defs>
</svg>
