<svg width="500" height="188" viewBox="0 0 500 188" fill="none" xmlns="http://www.w3.org/2000/svg">
<g clip-path="url(#clip0_175_547)">
<path d="M135.595 45.1163L155.083 36.915L163.441 54.0501L142.963 62.4086L135.595 45.1163Z" fill="#FFB6B6"/>
<path opacity="0.1" d="M135.595 45.1163L155.083 36.915L163.441 54.0501L142.963 62.4086L135.595 45.1163Z" fill="black"/>
<path d="M138.365 38.5868L157.59 60.7369C157.59 60.7369 144.216 102.948 130.843 106.709C117.469 110.47 92.8114 128.859 92.8114 128.859L61.8848 108.799L76.9302 86.6484C76.9302 86.6484 113.29 36.915 122.902 36.915C132.514 36.915 138.365 38.5868 138.365 38.5868Z" fill="#E86100"/>
<path d="M112.392 182.981H67.64L64.8106 179.198L53.2591 163.756L50.6011 160.203C50.6011 160.203 40.5708 141.815 42.6604 125.098C44.7501 108.38 66.4823 104.619 66.4823 104.619H67.3767L93.9819 127.998L92.3938 149.755L100.819 163.756L112.392 182.981Z" fill="#2F2E41"/>
<path d="M76.8051 182.981H64.8105V165.219L76.8051 182.981Z" fill="#2F2E41"/>
<path d="M406.518 58.7441L410.992 86.6492L382.727 87.0138V62.7527L406.518 58.7441Z" fill="#A0616A"/>
<path d="M473.844 156.016L472.352 163.756L468.65 182.98H394.263C394.844 178.672 395.638 172.47 396.486 165.774C396.57 165.106 396.657 164.433 396.741 163.756C398.868 146.926 401.196 127.881 401.196 127.881L410.976 129.068L429.949 131.366L437.681 132.303L458.385 134.814C468.708 136.064 475.809 145.802 473.844 156.016Z" fill="#F2F2F2"/>
<path d="M440.782 182.981H400.436C401.05 182.258 401.397 181.84 401.397 181.84L413.492 179.842L438.413 175.729C438.413 175.729 439.549 178.668 440.782 182.981Z" fill="#2F2E41"/>
<path d="M385.277 182.98H324.347C324.953 181.777 325.58 180.569 326.224 179.365C327.085 177.756 328.004 176.323 328.978 175.048C329.626 174.2 330.295 173.422 330.984 172.712C333.011 170.626 335.218 169.109 337.541 168.069C345.837 164.337 355.613 166.623 363.938 170.342C367.064 171.738 369.985 173.335 372.547 174.889C377.061 177.631 380.467 180.247 381.917 181.409C382.418 181.806 382.686 182.036 382.686 182.036L385.277 182.98Z" fill="#2F2E41"/>
<path d="M336.94 182.981H328.297L330.575 180.335L331.862 178.839L332.413 179.286L336.94 182.981Z" fill="#FFB6B6"/>
<path d="M443.733 182.981H369.308L372.547 174.889L376.998 163.756L379.234 158.164L377.387 150.303C377.387 150.303 376.476 149.659 375.088 148.502C370.144 144.406 359.14 133.857 361.669 123.025C364.544 110.696 368.155 86.6692 368.92 81.491C369.016 80.8433 369.066 80.4922 369.066 80.4922L379.807 77.8593L380.162 77.7715L381.315 77.4873H410.085L431.245 91.8181L431.241 91.9685L429.949 131.367L429.398 148.222C429.398 148.222 428.733 150.654 428.892 154.432C428.997 157.023 429.486 160.245 430.84 163.756C432.273 167.488 434.685 171.542 438.642 175.5C441.631 178.488 443.081 181.004 443.733 182.981Z" fill="#E86100"/>
<path d="M437.681 132.302C436.975 138.095 436.298 142.211 436.298 142.211L428.892 154.431L423.242 163.755L413.492 179.841L412.062 182.203L411.042 182.98H380.454L381.917 181.409L396.486 165.774L398.371 163.755L401.426 160.475L410.976 129.067L422.23 92.0516C422.23 92.0516 426.79 90.4635 431.241 91.968C433.581 92.7579 435.897 94.4045 437.489 97.5975C440.536 103.691 439.052 121.118 437.681 132.302Z" fill="#E86100"/>
<path d="M383.873 131.291L375.088 148.501L367.302 163.756L363.938 170.342L362.613 172.942L351.258 182.98H325.547L329.785 177.714L331.36 175.75L337.541 168.069L341.01 163.756L350.426 152.045L352.938 98.7102C353.354 89.8641 360.094 82.713 368.867 81.4997C368.885 81.4971 368.903 81.4941 368.919 81.4908C371.77 80.9183 376.3 80.7511 379.806 84.1405C379.928 84.2534 380.045 84.3746 380.162 84.4999C380.751 85.1226 381.307 85.854 381.817 86.7107C381.867 86.7943 381.917 86.8822 381.963 86.9699C382.109 87.2373 382.251 87.5299 382.381 87.8433C386.857 98.2665 383.873 131.291 383.873 131.291Z" fill="#E86100"/>
<path d="M391.539 71.1642C402.762 71.1642 411.859 62.0667 411.859 50.8443C411.859 39.6219 402.762 30.5244 391.539 30.5244C380.317 30.5244 371.219 39.6219 371.219 50.8443C371.219 62.0667 380.317 71.1642 391.539 71.1642Z" fill="#A0616A"/>
<path d="M399.965 58.8332C399.965 58.8332 397.858 53.0296 396.664 50.0181C395.47 47.0066 396.248 43.0985 396.248 43.0985C396.248 43.0985 380.309 39.5802 374.067 43.0674C367.825 46.5547 367.405 29.0144 373.74 24.2406C373.74 24.2406 375.437 27.189 374.778 28.0367L374.12 28.8844C374.12 28.8844 378.914 18.7459 387.009 18.2383C387.009 18.2383 390.846 21.2998 389.4 22.3104C387.954 23.3209 400.061 16.5977 402.168 22.4013C402.168 22.4013 409.888 23.7767 408.383 26.4135L408.51 28.2334C408.51 28.2334 415.507 27.5069 415.008 32.465C415.008 32.465 412.655 31.9959 411.149 33.0011C409.644 34.0062 414.73 38.7723 414.73 38.7723C414.73 38.7723 417.787 58.6327 407.185 64.3508C407.185 64.3508 408.905 55.3127 404.858 56.7902C400.812 58.2678 399.965 58.8332 399.965 58.8332Z" fill="#2F2E41"/>
<path d="M487.792 187.883H12.2081C5.47651 187.883 0 182.406 0 175.675C0 168.943 5.47651 163.467 12.2081 163.467H487.792C494.523 163.467 500 168.943 500 175.675C500 182.406 494.523 187.883 487.792 187.883Z" fill="#E6E6E6"/>
<path d="M471.572 126.255L470.647 169.404C470.558 173.581 467.146 176.92 462.968 176.92H383.595C379.516 176.92 376.148 173.731 375.926 169.659L373.567 126.51C373.326 122.11 376.829 118.41 381.236 118.41H463.893C468.199 118.41 471.664 121.95 471.572 126.255Z" fill="#3F3D56"/>
<path d="M170.964 55.5314C181.452 55.5314 189.954 47.0292 189.954 36.5411C189.954 26.053 181.452 17.5508 170.964 17.5508C160.476 17.5508 151.974 26.053 151.974 36.5411C151.974 47.0292 160.476 55.5314 170.964 55.5314Z" fill="#FFB6B6"/>
<path d="M139.201 86.2301L141.291 108.798L155.501 166.054L143.224 170.357L122.484 107.962L119.62 82.8867L139.201 86.2301Z" fill="#FFB6B6"/>
<path d="M133.549 126.255L132.624 169.404C132.535 173.581 129.123 176.92 124.945 176.92H45.572C41.493 176.92 38.1254 173.731 37.9028 169.659L35.5439 126.51C35.3034 122.11 38.8065 118.41 43.2132 118.41H125.87C130.176 118.41 133.641 121.95 133.549 126.255Z" fill="#3F3D56"/>
<path d="M157.763 177.211C166.046 177.211 172.761 174.242 172.761 170.578C172.761 166.914 166.046 163.944 157.763 163.944C149.48 163.944 142.766 166.914 142.766 170.578C142.766 174.242 149.48 177.211 157.763 177.211Z" fill="#FFB6B6"/>
<path d="M109.738 89.68L118.305 44.019C118.305 44.019 142.127 40.6756 142.963 48.6162C143.799 56.5568 142.366 95.3637 142.366 95.3637L109.738 89.68Z" fill="#E86100"/>
<path d="M163.298 39.527C163.298 39.527 175.045 35.3344 180.001 33.0786C184.956 30.8227 194.8 46.557 195.019 38.2472C195.238 29.9374 191.837 26.4526 191.837 26.4526C191.837 26.4526 190.987 8.27377 172.672 10.5466C172.672 10.5466 176.701 1.45147 163.477 0.0450802C150.254 -1.36131 129.681 30.5715 131.524 35.3437C133.366 40.1159 135.575 44.0613 130.347 49.1638C125.12 54.2663 115.332 83.0637 122.779 90.8128C130.227 98.562 130.715 101.925 125.613 106.746C120.51 111.567 108.45 122.049 121.49 123.869C134.531 125.689 120.297 124.33 130.019 115.778C139.741 107.227 153.927 107.576 148.63 93.8559C143.333 80.1359 152.536 60.4752 151.384 57.4925C150.233 54.5099 153.964 35.5701 153.964 35.5701C153.964 35.5701 162.649 34.2942 163.298 39.527Z" fill="#2F2E41"/>
<path d="M319.508 128.047C310.131 161.778 272.037 182.306 234.421 173.894C196.821 165.485 173.931 131.319 183.312 97.5895C192.685 63.8545 230.779 43.3241 268.384 51.7338C305.997 60.1435 328.885 94.3135 319.508 128.047Z" fill="#F7931A"/>
<path d="M282.363 103.845C283.761 95.4666 276.648 90.9627 266.922 87.9581L270.077 76.6088L262.374 74.8871L259.303 85.9373C257.277 85.4848 255.198 85.0578 253.131 84.6348L256.224 73.5117L248.526 71.79L245.369 83.1354C243.692 82.793 242.047 82.4546 240.45 82.0984L240.459 82.063L229.835 79.6841L227.786 87.0627C227.786 87.0627 233.501 88.2374 233.381 88.3102C236.501 89.0088 237.064 90.8603 236.97 92.3281L233.376 105.257C233.591 105.307 233.87 105.378 234.177 105.488C233.92 105.431 233.646 105.368 233.363 105.307L228.326 123.419C227.944 124.269 226.977 125.544 224.796 125.06C224.873 125.16 219.197 123.806 219.197 123.806L215.373 131.714L225.397 133.955C227.262 134.375 229.089 134.813 230.888 135.227L227.7 146.706L235.395 148.427L238.552 137.07C240.654 137.582 242.694 138.054 244.691 138.499L241.544 149.803L249.247 151.525L252.435 140.067C265.571 142.296 275.448 141.397 279.605 130.742C282.956 122.163 279.439 117.215 272.528 113.988C277.561 112.947 281.352 109.978 282.363 103.845ZM264.763 125.979C262.383 134.558 246.277 129.92 241.055 128.757L245.285 113.549C250.507 114.718 267.251 117.032 264.763 125.979ZM267.146 103.721C264.974 111.524 251.569 107.56 247.22 106.588L251.055 92.7945C255.404 93.7665 269.408 95.5807 267.146 103.721Z" fill="white"/>
</g>
<defs>
<clipPath id="clip0_175_547">
<rect width="500" height="187.883" fill="white"/>
</clipPath>
</defs>
</svg>
