<svg width="500" height="308" viewBox="0 0 500 308" fill="none" xmlns="http://www.w3.org/2000/svg">
<g clip-path="url(#clip0_175_509)">
<path d="M24.4925 283.735C24.7017 291.545 26.0101 299.287 28.379 306.732C28.4315 306.905 28.4898 307.075 28.5466 307.248H43.0492C43.034 307.093 43.0182 306.92 43.003 306.732C42.0361 295.615 47.5602 228.763 54.2262 217.192C53.6422 218.131 23.368 248.413 24.4925 283.735Z" fill="#F1F1F1"/>
<path d="M25.5805 306.732C25.7018 306.905 25.8279 307.078 25.9571 307.248H36.8373C36.7549 307.101 36.6593 306.928 36.5485 306.732C34.7512 303.489 29.4313 293.79 24.4933 283.736C19.1887 272.931 14.3179 261.717 14.7281 257.658C14.601 258.573 10.9287 286.48 25.5805 306.732Z" fill="#F1F1F1"/>
<path d="M342.065 63.3286C342.48 64.3553 343.115 65.2785 343.925 66.0331C344.736 66.7877 345.702 67.3555 346.755 67.6964C347.809 68.0373 348.925 68.143 350.023 68.0061C351.122 67.8693 352.178 67.4931 353.116 66.9042L374.113 83.7474L375.413 69.8197L355.274 55.9603C354.18 54.4505 352.571 53.3943 350.75 52.992C348.93 52.5896 347.025 52.869 345.397 53.7773C343.768 54.6855 342.53 56.1595 341.916 57.9198C341.302 59.6802 341.355 61.6047 342.065 63.3286Z" fill="#9F616A"/>
<path d="M374.582 68.5119L366.745 62.9746L357.856 73.2451L368.196 79.3732L374.582 68.5119Z" fill="#E86100"/>
<path d="M372.866 64.7561L399.277 74.9184L424.702 58.2704C427.33 56.5498 430.493 55.8443 433.603 56.2855C436.713 56.7268 439.555 58.2847 441.6 60.6684C443.645 63.052 444.753 66.0985 444.716 69.2391C444.68 72.3796 443.501 75.3994 441.401 77.7348L441.174 77.9873L402.07 98.9528L359.356 79.4397L372.866 64.7561Z" fill="#3F3D56"/>
<path d="M365.42 306.198H90.21L100.189 111.345H143.256L182.969 139.181H375.399L365.42 306.198Z" fill="#E5E5E5"/>
<path d="M298.051 246.777L138.983 181.268C138.427 181.039 137.985 180.598 137.753 180.042C137.522 179.487 137.52 178.862 137.749 178.306L209.825 3.28925C210.055 2.73314 210.496 2.29089 211.052 2.0595C211.607 1.8281 212.232 1.82647 212.788 2.05496L371.856 67.5635C372.412 67.7932 372.854 68.2342 373.086 68.7896C373.317 69.345 373.319 69.9696 373.09 70.5262L301.014 245.543C300.784 246.099 300.343 246.541 299.787 246.772C299.232 247.004 298.607 247.005 298.051 246.777Z" fill="white"/>
<path d="M298.051 246.777L138.983 181.268C138.427 181.039 137.985 180.598 137.753 180.042C137.522 179.487 137.52 178.862 137.749 178.306L209.825 3.28925C210.055 2.73314 210.496 2.29089 211.052 2.0595C211.607 1.8281 212.232 1.82647 212.788 2.05496L371.856 67.5635C372.412 67.7932 372.854 68.2342 373.086 68.7896C373.317 69.345 373.319 69.9696 373.09 70.5262L301.014 245.543C300.784 246.099 300.343 246.541 299.787 246.772C299.232 247.004 298.607 247.005 298.051 246.777ZM212.443 2.89437C212.109 2.75726 211.734 2.75823 211.401 2.89706C211.067 3.0359 210.803 3.30127 210.665 3.63494L138.588 178.651C138.451 178.985 138.452 179.36 138.591 179.693C138.73 180.027 138.995 180.291 139.329 180.429L298.396 245.938C298.73 246.075 299.105 246.074 299.438 245.935C299.772 245.796 300.036 245.531 300.174 245.197L372.251 70.1805C372.388 69.8465 372.387 69.4718 372.248 69.1385C372.109 68.8053 371.844 68.5407 371.51 68.4029L212.443 2.89437Z" fill="#3F3D56"/>
<path d="M257.369 88.6909L217.917 72.4434C217.361 72.2136 216.919 71.7727 216.687 71.2172C216.456 70.6618 216.454 70.0373 216.683 69.4807L232.93 30.0285C233.16 29.4724 233.601 29.0301 234.157 28.7988C234.712 28.5674 235.337 28.5657 235.893 28.7942L275.345 45.0417C275.901 45.2715 276.344 45.7124 276.575 46.2679C276.806 46.8233 276.808 47.4478 276.58 48.0045L260.332 87.4566C260.102 88.0127 259.661 88.455 259.106 88.6864C258.55 88.9178 257.926 88.9194 257.369 88.6909ZM235.547 29.6336C235.213 29.4965 234.839 29.4975 234.505 29.6363C234.172 29.7752 233.908 30.0405 233.77 30.3742L217.522 69.8264C217.385 70.1603 217.386 70.535 217.525 70.8683C217.664 71.2016 217.929 71.4662 218.263 71.604L257.715 87.8515C258.049 87.9886 258.424 87.9876 258.757 87.8488C259.09 87.71 259.355 87.4446 259.493 87.1109L275.74 47.6588C275.877 47.3248 275.876 46.9501 275.737 46.6168C275.599 46.2835 275.333 46.019 275 45.8811L235.547 29.6336Z" fill="#F2F2F2"/>
<path d="M244.05 88.8499L204.598 72.6024C204.097 72.3956 203.699 71.9988 203.491 71.4989C203.283 70.999 203.281 70.4369 203.487 69.9359L219.734 30.4838C219.941 29.9833 220.338 29.5852 220.838 29.377C221.338 29.1687 221.9 29.1673 222.401 29.3729L261.853 45.6204C262.353 45.8272 262.751 46.2241 262.96 46.7239C263.168 47.2238 263.169 47.7859 262.964 48.2869L246.716 87.739C246.509 88.2396 246.113 88.6376 245.613 88.8459C245.113 89.0541 244.551 89.0556 244.05 88.8499Z" fill="#E86100"/>
<path d="M320.039 142.725L196.647 91.9087C196.399 91.8066 196.173 91.6566 195.983 91.4673C195.793 91.278 195.642 91.0532 195.539 90.8056C195.436 90.558 195.382 90.2925 195.382 90.0242C195.381 89.756 195.434 89.4903 195.536 89.2423C195.638 88.9943 195.788 88.7688 195.977 88.5787C196.166 88.3887 196.391 88.2378 196.639 88.1346C196.886 88.0315 197.152 87.9781 197.42 87.9775C197.688 87.977 197.954 88.0293 198.202 88.1314L321.595 138.948C322.096 139.154 322.494 139.551 322.703 140.051C322.911 140.551 322.912 141.114 322.706 141.614C322.5 142.115 322.103 142.514 321.603 142.722C321.103 142.93 320.54 142.932 320.039 142.725Z" fill="#CCCCCC"/>
<path d="M284.882 143.464L191.288 104.919C191.04 104.817 190.815 104.667 190.625 104.478C190.435 104.289 190.284 104.064 190.181 103.816C190.077 103.569 190.024 103.303 190.023 103.035C190.023 102.767 190.075 102.501 190.177 102.253C190.279 102.005 190.429 101.78 190.619 101.589C190.808 101.399 191.033 101.249 191.28 101.145C191.528 101.042 191.794 100.989 192.062 100.988C192.33 100.988 192.596 101.04 192.844 101.142L286.438 139.687C286.939 139.893 287.337 140.29 287.545 140.79C287.754 141.29 287.755 141.852 287.549 142.353C287.342 142.854 286.945 143.253 286.445 143.461C285.945 143.669 285.383 143.67 284.882 143.464Z" fill="#CCCCCC"/>
<path d="M339.324 94.7068L284.763 72.2369C284.515 72.1347 284.289 71.9847 284.099 71.7954C283.909 71.6062 283.758 71.3813 283.655 71.1337C283.552 70.8861 283.499 70.6206 283.498 70.3524C283.498 70.0841 283.55 69.8184 283.652 69.5704C283.754 69.3224 283.904 69.0969 284.093 68.9069C284.283 68.7168 284.508 68.5659 284.755 68.4627C285.003 68.3596 285.268 68.3062 285.536 68.3057C285.805 68.3051 286.07 68.3574 286.318 68.4596L340.88 90.9295C341.381 91.1358 341.779 91.5326 341.988 92.0327C342.196 92.5327 342.197 93.095 341.991 93.5959C341.784 94.0968 341.388 94.4953 340.888 94.7036C340.387 94.9119 339.825 94.9131 339.324 94.7068Z" fill="#CCCCCC"/>
<path d="M320.349 102.11L279.404 85.2476C278.903 85.0413 278.505 84.6445 278.297 84.1445C278.088 83.6444 278.087 83.0821 278.294 82.5811C278.5 82.0802 278.897 81.6818 279.397 81.4735C279.897 81.2652 280.459 81.264 280.96 81.4703L321.905 98.3325C322.406 98.5388 322.804 98.9356 323.012 99.4357C323.221 99.9357 323.222 100.498 323.016 100.999C322.809 101.5 322.413 101.898 321.912 102.107C321.412 102.315 320.85 102.316 320.349 102.11Z" fill="#CCCCCC"/>
<path d="M309.323 168.747L185.93 117.93C185.682 117.828 185.457 117.678 185.267 117.489C185.077 117.3 184.926 117.075 184.823 116.827C184.719 116.579 184.666 116.314 184.666 116.046C184.665 115.777 184.717 115.512 184.819 115.264C184.922 115.016 185.072 114.79 185.261 114.6C185.45 114.41 185.675 114.259 185.923 114.156C186.17 114.053 186.436 114 186.704 113.999C186.972 113.998 187.238 114.051 187.486 114.153L310.879 164.97C311.38 165.176 311.778 165.573 311.986 166.073C312.195 166.573 312.196 167.135 311.99 167.636C311.783 168.137 311.387 168.535 310.886 168.744C310.386 168.952 309.824 168.953 309.323 168.747Z" fill="#CCCCCC"/>
<path d="M274.166 169.487L180.572 130.942C180.324 130.84 180.098 130.69 179.908 130.501C179.718 130.311 179.567 130.086 179.464 129.839C179.361 129.591 179.308 129.326 179.307 129.057C179.307 128.789 179.359 128.524 179.461 128.275C179.563 128.027 179.713 127.802 179.902 127.612C180.092 127.422 180.317 127.271 180.564 127.168C180.812 127.065 181.077 127.011 181.346 127.011C181.614 127.01 181.879 127.062 182.127 127.165L275.721 165.709C275.969 165.811 276.195 165.961 276.385 166.151C276.575 166.34 276.726 166.565 276.829 166.812C276.932 167.06 276.986 167.325 276.986 167.594C276.987 167.862 276.934 168.128 276.832 168.376C276.73 168.624 276.58 168.849 276.391 169.039C276.202 169.229 275.977 169.38 275.729 169.483C275.482 169.586 275.216 169.64 274.948 169.64C274.68 169.641 274.414 169.589 274.166 169.487Z" fill="#CCCCCC"/>
<path d="M298.606 194.769L175.213 143.953C174.713 143.746 174.314 143.35 174.106 142.85C173.897 142.349 173.896 141.787 174.103 141.286C174.309 140.785 174.706 140.387 175.206 140.179C175.706 139.97 176.268 139.969 176.769 140.175L300.162 190.992C300.663 191.198 301.061 191.595 301.27 192.095C301.478 192.595 301.479 193.158 301.273 193.658C301.067 194.159 300.67 194.558 300.17 194.766C299.67 194.974 299.107 194.976 298.606 194.769Z" fill="#CCCCCC"/>
<path d="M293.248 207.78L169.856 156.963C169.355 156.757 168.956 156.36 168.748 155.86C168.54 155.36 168.538 154.798 168.745 154.297C168.951 153.796 169.348 153.398 169.848 153.189C170.348 152.981 170.91 152.98 171.411 153.186L294.804 204.003C295.052 204.105 295.278 204.255 295.468 204.444C295.658 204.633 295.809 204.858 295.912 205.106C296.015 205.354 296.068 205.619 296.069 205.887C296.069 206.155 296.017 206.421 295.915 206.669C295.813 206.917 295.663 207.143 295.473 207.333C295.284 207.523 295.059 207.674 294.812 207.777C294.564 207.88 294.299 207.933 294.03 207.934C293.762 207.934 293.496 207.882 293.248 207.78Z" fill="#CCCCCC"/>
<path d="M233.052 206.813C235.521 206.944 237.997 206.868 240.454 206.587C242.667 206.329 244.971 205.973 246.911 204.809C247.75 204.331 248.464 203.661 248.995 202.855C249.526 202.049 249.86 201.128 249.968 200.169C250.054 199.256 249.847 198.34 249.377 197.553C248.907 196.766 248.199 196.148 247.355 195.79C246.499 195.43 245.561 195.308 244.641 195.437C243.721 195.565 242.853 195.941 242.129 196.523C241.355 197.195 240.743 198.033 240.338 198.974C239.934 199.915 239.747 200.936 239.792 201.96C239.893 206.164 243.22 210.315 246.913 212.064C251.073 214.034 256.754 212.36 257.82 207.509C258.041 206.501 256.667 206.15 256.093 206.798C255.309 207.663 254.884 208.794 254.906 209.961C254.928 211.129 255.394 212.243 256.211 213.078C257.027 213.912 258.131 214.404 259.297 214.452C260.463 214.5 261.604 214.101 262.486 213.336L260.939 212.699C261.389 214.583 262.326 216.314 263.657 217.72C264.988 219.126 266.666 220.157 268.522 220.708C269.438 220.983 270.388 221.127 271.343 221.138C272.505 221.141 273.699 221.724 274.81 222.086L282.816 224.695C283.994 225.078 284.741 223.291 283.554 222.904L276.303 220.542C275.094 220.148 273.889 219.743 272.677 219.36C271.811 219.087 270.862 219.235 269.958 219.074C268.267 218.754 266.702 217.959 265.444 216.783C264.187 215.608 263.29 214.099 262.858 212.432C262.832 212.267 262.763 212.11 262.659 211.979C262.555 211.847 262.419 211.744 262.263 211.68C262.108 211.616 261.939 211.593 261.773 211.614C261.606 211.634 261.447 211.696 261.312 211.796C260.805 212.278 260.129 212.54 259.43 212.526C258.73 212.511 258.065 212.221 257.579 211.719C257.092 211.217 256.824 210.542 256.833 209.843C256.841 209.144 257.125 208.476 257.624 207.986L255.897 207.274C255.21 210.403 251.393 211.578 248.642 210.673C245.565 209.661 242.921 206.717 242.004 203.632C241.758 202.891 241.668 202.108 241.739 201.33C241.811 200.553 242.041 199.799 242.417 199.114C242.752 198.49 243.274 197.987 243.91 197.676C244.546 197.364 245.264 197.26 245.962 197.378C246.586 197.466 247.151 197.793 247.538 198.29C247.925 198.787 248.104 199.414 248.037 200.041C247.934 200.745 247.66 201.414 247.238 201.988C246.817 202.561 246.26 203.023 245.619 203.331C243.887 204.26 241.814 204.491 239.891 204.702C237.698 204.941 235.49 205.004 233.287 204.89C232.051 204.828 231.802 206.75 233.052 206.813Z" fill="#E86100"/>
<path d="M365.42 152.311V306.197H90.21V124.475H133.277L172.988 152.311H365.42Z" fill="white"/>
<path d="M219.412 277.311H107.017V286.239H219.412V277.311Z" fill="#E86100"/>
<path d="M163.214 259.979H107.017V268.907H163.214V259.979Z" fill="#E86100"/>
<path d="M365.945 306.722H89.6846V123.949H133.443L173.156 151.785H365.945V306.722ZM90.735 305.672H364.895V152.836H172.825L133.111 125H90.735V305.672Z" fill="#3F3D56"/>
<path d="M477.491 288.15L468.18 291.477L450.911 257.142L464.655 252.23L477.491 288.15Z" fill="#9F616A"/>
<path d="M453.066 307.058L452.93 306.678C451.827 303.578 451.997 300.167 453.406 297.193C454.814 294.219 457.344 291.925 460.441 290.814L478.78 284.26L483.093 296.327L453.066 307.058Z" fill="#2F2E41"/>
<path d="M416.937 297.359H407.048L402.344 259.215L416.939 259.215L416.937 297.359Z" fill="#9F616A"/>
<path d="M419.459 306.945L387.572 306.944V306.541C387.572 304.911 387.893 303.297 388.517 301.791C389.141 300.286 390.055 298.917 391.208 297.765C392.36 296.612 393.728 295.698 395.234 295.075C396.74 294.451 398.354 294.13 399.984 294.13H399.984L419.459 294.131L419.459 306.945Z" fill="#2F2E41"/>
<path d="M439.474 53.6691L435.174 45.1709C435.174 45.1709 419.152 49.185 417.695 58.4707L439.474 53.6691Z" fill="#E86100"/>
<path d="M457.22 150.839L445.524 216.107L476.58 271.028L458.027 278.287L426.569 225.05L422.535 210.53L420.115 286.353L403.384 285.845L395.712 215.045L408.016 149.227L457.22 150.839Z" fill="#2F2E41"/>
<path d="M454.8 121.352L454.395 83.0792C454.395 66.8587 443.72 54.9032 442.24 53.7973C441.544 51.5751 440.294 50.0391 438.528 49.2353C434.969 47.6225 430.617 49.5578 430.433 49.6449L417.377 54.5397L417.315 54.7189C417.177 55.1285 404.003 98.3576 400.695 109.207C400.224 110.764 399.953 111.655 399.953 111.655C399.953 111.655 400.004 114.163 400.096 118.065C400.388 131.48 401.079 161.361 401.356 162.615C401.356 162.615 425.472 166.271 435.021 166.271C452.199 166.271 463.11 162.984 463.355 162.927L463.75 162.845L454.8 121.352Z" fill="#3F3D56"/>
<path d="M430.282 40.3322C438.836 35.6563 441.98 24.9313 437.304 16.3774C432.628 7.82342 421.903 4.6797 413.349 9.35567C404.795 14.0316 401.651 24.7566 406.327 33.3105C411.003 41.8645 421.728 45.0082 430.282 40.3322Z" fill="#9F616A"/>
<path opacity="0.2" d="M423.772 113.252L400.096 118.065C400.004 114.163 399.953 111.654 399.953 111.654C399.953 111.654 400.224 110.764 400.695 109.207L423.772 113.252Z" fill="black"/>
<path d="M353.661 108.208C354.501 108.929 355.49 109.456 356.556 109.754C357.623 110.051 358.742 110.111 359.834 109.929C360.927 109.748 361.966 109.329 362.879 108.702C363.792 108.075 364.556 107.256 365.118 106.301L391.509 111.603L386.259 98.6372L362.003 95.5906C360.337 94.7528 358.422 94.555 356.62 95.0349C354.819 95.5147 353.256 96.6387 352.227 98.1939C351.199 99.7492 350.777 101.628 351.041 103.473C351.305 105.319 352.237 107.003 353.661 108.208Z" fill="#9F616A"/>
<path d="M384.92 97.8575L375.414 96.5439L372.243 109.752L384.243 110.439L384.92 97.8575Z" fill="#E86100"/>
<path d="M381.669 95.3121L409.795 92.1916L424.717 65.7169C426.259 62.9808 428.745 60.8995 431.709 59.8614C434.673 58.8234 437.914 58.8997 440.826 60.076C443.738 61.2524 446.122 63.4484 447.534 66.254C448.946 69.0597 449.288 72.2831 448.497 75.3226L448.411 75.6514L423.327 112.25L376.424 114.563L381.669 95.3121Z" fill="#3F3D56"/>
<path d="M436.851 40.1695L422.2 40.6954C421.307 40.7274 418.883 31.0896 418.566 29.0902C418.315 27.7886 417.599 26.6227 416.552 25.8104C415.504 24.998 414.197 24.5948 412.874 24.6759C411.777 24.7795 409.011 22.7306 406.158 20.3045C400.74 15.6985 401.022 7.04766 406.973 3.15555C407.136 3.04918 407.295 2.95205 407.452 2.86416C411.207 0.762734 415.599 0.0570485 419.901 0.00323543C423.801 -0.0455461 427.812 0.445337 431.248 2.29132C437.407 5.60079 440.686 12.8329 440.974 19.8196C441.262 26.8062 439.022 33.6379 436.48 40.1522" fill="#2F2E41"/>
<path d="M499.475 307.773H0.52521C0.385916 307.773 0.252326 307.718 0.15383 307.619C0.0553341 307.521 0 307.387 0 307.248C0 307.109 0.0553341 306.975 0.15383 306.876C0.252326 306.778 0.385916 306.723 0.52521 306.723H499.475C499.614 306.723 499.748 306.778 499.846 306.876C499.945 306.975 500 307.109 500 307.248C500 307.387 499.945 307.521 499.846 307.619C499.748 307.718 499.614 307.773 499.475 307.773Z" fill="#CBCBCB"/>
</g>
<defs>
<clipPath id="clip0_175_509">
<rect width="500" height="307.773" fill="white"/>
</clipPath>
</defs>
</svg>
