<svg width="500" height="333" viewBox="0 0 500 333" fill="none" xmlns="http://www.w3.org/2000/svg">
<g clip-path="url(#clip0_175_574)">
<path d="M376.069 12.8634C372.292 14.9862 366.195 6.5899 364.814 10.6969C363.432 14.8038 366.778 31.3752 368.505 35.3496C369.363 37.3251 370.576 39.1318 371.418 41.1142C372.26 43.0967 372.711 45.376 371.967 47.3972C370.672 50.9145 366.397 52.3453 364.278 55.4368C361.809 59.0374 362.806 63.887 363.96 68.0973C364.955 71.7262 366.015 75.388 367.929 78.6272C369.844 81.8665 372.731 84.687 376.338 85.7587C380.93 87.1232 385.838 85.5016 390.265 83.6708C394.522 81.9106 398.733 79.9152 402.353 77.0675C405.973 74.2197 408.994 70.4398 410.259 66.0111C411.847 60.4558 410.52 54.3762 407.772 49.2942C405.024 44.2121 400.958 39.9783 396.786 35.981C389.76 29.2489 382.283 22.9875 374.422 17.2528L376.069 12.8634Z" fill="#2F2E41"/>
<path d="M432.248 297.912L428.681 331.198L428.519 332.72L388.171 332.562L387.958 331.035L383.687 300.535L432.248 297.912Z" fill="#FFB6B6"/>
<path d="M370.557 330.969C370.557 331.471 370.552 331.979 370.547 332.491L328.662 332.329L328.525 330.802L325.943 301.848L369.253 296.598C369.253 296.598 370.648 311.954 370.557 330.969Z" fill="#FFB6B6"/>
<path d="M365.895 71.8272C372.548 80.2083 384.278 82.637 393.745 77.6483C407.258 70.5274 425.708 62.3662 428.968 68.8875C434.218 79.3871 434.218 89.5768 434.218 89.5768L439.468 211.946C439.468 211.946 442.093 261.354 409.282 256.993C376.47 252.632 325.284 271.006 325.284 271.006L330.513 216.796L344.474 196.357L350.129 137.718L340.377 90.5431L352.19 85.2932C352.19 85.2932 353.502 76.106 357.439 76.106C361.377 76.106 362.328 67.2805 365.79 71.6932C365.824 71.7374 365.859 71.782 365.895 71.8272Z" fill="#E86100"/>
<path d="M437.077 332.755L428.519 332.72L388.171 332.563L382.92 332.542L382.616 331.015L374.499 290.039L373.231 330.98L373.185 332.502L370.547 332.492L328.662 332.329L325.659 332.314L325.648 330.792L325.471 301.854L325.309 275.057L325.283 271.004L325.288 270.999L337.829 245.577L341.487 238.159L342.238 236.638L349.564 221.788L415.851 212.611L416.866 212.468L434.876 209.978L435.008 217.359L435.084 221.55L435.353 236.638L435.383 238.159L435.414 239.9L437.047 331.228L437.077 332.755Z" fill="#2F2E41"/>
<path d="M385.505 67.9344C400.643 67.9344 412.915 55.6627 412.915 40.5248C412.915 25.3869 400.643 13.1152 385.505 13.1152C370.367 13.1152 358.096 25.3869 358.096 40.5248C358.096 55.6627 370.367 67.9344 385.505 67.9344Z" fill="#FFB6B6"/>
<path d="M416.404 83.4519C410.007 92.5778 406.735 103.853 407.254 114.986C400.001 111.472 395.105 104.049 393.439 96.1633C391.773 88.2777 393.044 79.9978 395.721 72.3959C395.748 72.3199 395.775 72.2439 395.802 72.168C399.868 60.7576 396.09 48.0047 386.271 40.9117C379.648 36.1272 373.904 30.1248 369.495 23.2445C367.006 19.3602 364.89 14.4876 366.75 10.2656C368.463 6.37525 372.889 4.55694 376.962 3.34028C386.263 0.562136 396.145 -1.01867 405.692 0.739264C415.238 2.49719 424.428 7.98702 428.939 16.5816C433.451 25.1761 432.269 36.9055 424.946 43.2769C427.256 44.0237 428.89 46.4718 428.694 48.8913C428.498 51.3107 426.49 53.4636 424.091 53.8285C425.656 53.773 426.581 55.8352 426.022 57.299C425.464 58.7628 424.024 59.6721 422.65 60.4256C420.694 61.4988 418.525 62.6211 418.516 65.4316C418.513 66.5586 418.915 67.6523 419.571 68.5682C421.163 70.7877 423.731 71.7873 426.204 72.7258C420.974 74.2662 416.803 78.9409 415.867 84.3123L416.404 83.4519Z" fill="#2F2E41"/>
<path d="M299.524 72.8482C298.776 65.0007 302.219 58.2536 307.214 57.7784C312.208 57.3032 316.861 63.2793 317.609 71.1297C317.95 74.2615 317.537 77.4296 316.403 80.3689L319.152 113.659L303.502 114.617L302.454 81.6964C300.785 79.0233 299.78 75.9892 299.524 72.8482Z" fill="#FFB6B6"/>
<path d="M384.787 88.6403C384.787 88.6403 359.219 73.6006 353.955 75.8566C348.691 78.1125 323.124 116.464 323.124 116.464L320.773 109.465L302.82 111.2C302.82 111.2 292.293 160.079 315.604 155.567C338.916 151.055 377.267 108.944 377.267 108.944L384.787 88.6403Z" fill="#E86100"/>
<path d="M147.579 169.451C147.579 169.451 162.015 160.987 165.902 168.835C169.79 176.683 205.706 270.302 205.706 270.302L182.562 274.808L147.579 169.451Z" fill="#E86100"/>
<path d="M116.092 113.524L116.773 114.493C114.236 115.958 113.862 119.653 115.051 122.334C116.241 125.015 118.544 127.002 120.535 129.156C122.527 131.31 124.343 133.978 124.158 136.907C123.951 140.201 121.265 142.913 120.891 146.194C120.351 150.97 124.798 155.161 124.577 159.965C124.411 163.633 121.59 166.58 118.791 168.959C116.601 170.825 114.218 172.699 112.74 175.105C112.334 175.768 111.996 176.475 111.748 177.232C110.644 180.648 111.685 184.37 113.087 187.673C114.484 190.976 116.263 194.202 116.701 197.762C117.133 201.322 115.79 205.432 112.514 206.892C119.039 206.333 125.406 204.057 130.809 200.358C131.296 200.024 131.769 199.682 132.238 199.331C139.898 193.563 145.279 185.231 150.456 177.111C150.884 176.444 151.308 175.772 151.736 175.105C152.885 173.298 154.039 171.496 155.192 169.689C158.482 164.525 161.812 159.284 163.605 153.435C165.254 148.041 165.534 142.341 166.21 136.74C166.539 133.996 166.971 131.26 167.052 128.498C167.183 124.249 166.458 119.982 164.98 115.994C163.533 112.073 161.361 108.419 158.563 105.309C155.697 102.124 152.191 99.5326 148.334 97.667C144.598 95.8601 140.534 94.738 136.393 94.4272C135.005 94.3235 133.621 94.3055 132.238 94.3686C126.781 94.5939 121.387 95.9727 116.142 97.6671C112.285 99.5326 108.779 102.124 105.913 105.309C103.115 108.419 100.943 112.073 99.4961 115.994C104.525 113.308 110.5 112.384 116.092 113.524Z" fill="#2F2E41"/>
<path d="M155.2 162.821L129.327 152.675L128.672 162.821L105.99 166.373L95.3359 214.569L104.975 244.501L177.015 246.53L174.479 236.384C174.479 236.384 186.147 223.193 179.045 201.885L178.256 196.463C176.194 182.284 167.679 169.861 155.2 162.821Z" fill="#E86100"/>
<path d="M140.8 152.219C153.492 152.219 163.781 141.93 163.781 129.237C163.781 116.545 153.492 106.256 140.8 106.256C128.107 106.256 117.818 116.545 117.818 129.237C117.818 141.93 128.107 152.219 140.8 152.219Z" fill="#A0616A"/>
<path d="M97.4232 128.498C97.5043 131.26 97.9369 133.996 98.2659 136.74C98.9418 142.341 99.2212 148.041 100.87 153.435C102.664 159.284 105.994 164.525 109.283 169.689C110.437 171.496 111.591 173.298 112.74 175.105C113.168 175.772 113.591 176.444 114.019 177.111C119.197 185.231 124.577 193.563 132.238 199.331C132.706 199.682 133.18 200.024 133.666 200.358C139.069 204.057 145.436 206.333 151.961 206.892C148.685 205.432 147.342 201.322 147.775 197.762C148.212 194.202 149.992 190.976 151.389 187.673C152.79 184.37 153.831 180.648 152.727 177.232C152.479 176.475 152.141 175.768 151.736 175.105C150.258 172.699 147.874 170.825 145.684 168.959C142.886 166.58 140.065 163.633 139.898 159.965C139.677 155.161 136.609 156.77 136.068 151.993C135.694 148.713 131.319 143.121 131.111 139.827C130.927 136.898 132.724 129.814 134.716 127.66C136.708 125.506 134.878 119.076 136.068 116.395C137.258 113.714 150.24 115.958 147.703 114.493L148.383 113.524C153.976 112.384 159.951 113.308 164.98 115.994C166.075 116.575 167.12 117.237 168.111 117.985C170.504 113.614 167.665 108.067 163.803 104.918C160.023 101.826 155.363 100.042 150.74 98.4692C149.942 98.1988 149.14 97.9284 148.334 97.6671C143.089 95.9727 137.695 94.5939 132.238 94.3686C130.854 94.3055 129.471 94.3235 128.083 94.4272C123.942 94.7381 119.877 95.8601 116.142 97.6671C112.285 99.5326 108.779 102.124 105.913 105.309C103.114 108.419 100.943 112.073 99.4961 115.994C98.018 119.982 97.2925 124.249 97.4232 128.498Z" fill="#2F2E41"/>
<path d="M498.581 312.213L466.548 244.906C464.159 239.884 459.019 236.637 453.454 236.637H48.8517C47.3143 236.637 45.8179 236.875 44.4074 237.332C40.841 238.473 37.8072 240.969 36.0112 244.399L1.67532 309.854C-0.698934 314.374 -0.541633 319.691 2.09644 324.064C4.72943 328.442 9.35122 331.07 14.46 331.091L325.659 332.313L328.662 332.329L370.547 332.491L373.185 332.501L382.921 332.542L388.171 332.562L428.519 332.719L437.078 332.755L485.431 332.942H485.492C490.484 332.942 495.055 330.426 497.733 326.21C500.422 321.974 500.737 316.738 498.581 312.213Z" fill="white"/>
<path d="M498.581 312.213L466.548 244.906C464.159 239.884 459.019 236.637 453.454 236.637H48.8517C47.3143 236.637 45.8179 236.875 44.4074 237.332C40.841 238.473 37.8072 240.969 36.0112 244.399L1.67532 309.854C-0.698934 314.374 -0.541633 319.691 2.09644 324.064C4.72943 328.442 9.35122 331.07 14.46 331.091L325.659 332.313L328.662 332.329L370.547 332.491L373.185 332.501L382.921 332.542L388.171 332.562L428.519 332.719L437.078 332.755L485.431 332.942H485.492C490.484 332.942 495.055 330.426 497.733 326.21C500.422 321.974 500.737 316.738 498.581 312.213ZM496.45 325.393C494.05 329.173 489.961 331.42 485.492 331.42H485.436L437.047 331.228L428.681 331.197L387.958 331.035L382.616 331.015L373.231 330.979L370.557 330.969L328.525 330.801L325.649 330.791L14.465 329.569C9.89408 329.548 5.75423 327.199 3.40029 323.283C1.04115 319.366 0.899213 314.608 3.02488 310.559L37.3607 245.109C38.5985 242.75 40.4857 240.883 42.7434 239.681C44.585 238.696 46.6752 238.159 48.8517 238.159H453.454C458.436 238.159 463.032 241.066 465.173 245.561L497.206 312.862C499.139 316.921 498.855 321.604 496.45 325.393Z" fill="#3F3D56"/>
<path d="M143.785 285.341L220.391 257.438L182.088 242.032L105.736 262.004L143.785 285.341Z" fill="#F2F2F2"/>
<path d="M260.47 243.232L251.846 270.628L352.804 276.716L344.179 245.769L260.47 243.232Z" fill="#F2F2F2"/>
<path d="M141.466 247.918C148.564 248.622 153.954 252.855 153.506 257.373C153.057 261.89 146.94 264.98 139.839 264.275C136.999 264.032 134.258 263.113 131.846 261.594L101.808 258.231L103.686 244.169L133.099 248.977C135.763 247.961 138.632 247.598 141.466 247.918Z" fill="#A0616A"/>
<path d="M111.317 169.162L105.99 166.372C105.99 166.372 97.6189 166.626 92.0383 172.206C86.4578 177.787 41.3057 241.71 41.3057 241.71C41.3057 241.71 30.1446 258.959 58.0475 261.496C85.9504 264.032 116.897 264.032 116.897 264.032L119.434 243.232L77.3259 238.666L106.813 199.602L111.317 169.162Z" fill="#E86100"/>
<path d="M269.617 162.404C264.498 163.921 259.09 164.779 253.505 164.86C253.175 164.87 252.845 164.875 252.515 164.875C247.462 164.875 242.557 164.251 237.864 163.074L237.986 161.872L240.715 135.547L240.887 133.862L238.356 126.268H269.414L268.917 133.69L268.735 136.394L269.003 137.251L275.852 159.076L276.157 160.05C274.036 160.959 271.855 161.745 269.617 162.404Z" fill="#E86100"/>
<path d="M237.864 163.074C230.492 161.232 223.653 158.026 217.632 153.749C215.151 152.405 212.741 150.949 210.433 149.407L211.574 148.833L240.253 134.491L240.715 135.546L253.063 163.855L253.505 164.86C253.175 164.87 252.845 164.875 252.515 164.875C247.462 164.875 242.556 164.251 237.864 163.074Z" fill="#2F2E41"/>
<path d="M300.346 141.3C300.219 141.473 300.087 141.64 299.955 141.808C297.814 144.527 295.44 147.053 292.873 149.362L292.853 148.007L292.782 143.02C292.782 143.02 294.831 141.523 297.363 141.133C297.967 141.036 298.601 141.006 299.24 141.077C299.61 141.113 299.976 141.184 300.346 141.3Z" fill="#2F2E41"/>
<path d="M292.873 149.362C287.962 153.791 282.321 157.423 276.157 160.051C274.036 160.959 271.854 161.745 269.617 162.405L269.592 161.355L269.003 137.252L268.917 133.69L297.363 141.133L298.875 141.529L299.955 141.808C297.814 144.527 295.44 147.053 292.873 149.362Z" fill="#2F2E41"/>
<path d="M254.178 118.038C266.761 118.038 276.962 107.837 276.962 95.2537C276.962 82.6705 266.761 72.4697 254.178 72.4697C241.594 72.4697 231.394 82.6705 231.394 95.2537C231.394 107.837 241.594 118.038 254.178 118.038Z" fill="#A0616A"/>
<path d="M269.594 161.355C264.348 162.937 258.803 163.805 253.065 163.856L253.507 164.86C259.093 164.779 264.501 163.922 269.62 162.405L269.594 161.355ZM211.576 148.834C199.883 138.028 192.46 122.666 192.161 105.599C180.224 119.419 192.085 137.155 210.435 149.407C212.743 150.949 215.153 152.405 217.634 153.75C215.508 152.243 213.484 150.599 211.576 148.834ZM299.76 66.9564C288.69 53.0557 271.629 44.1318 252.518 44.1318C219.232 44.1318 192.146 71.2129 192.146 104.504C192.146 104.869 192.151 105.234 192.161 105.599C192.476 105.229 192.81 104.864 193.16 104.504C209.902 87.2545 219.79 45.1465 252.518 45.1465C271.649 45.1465 288.695 54.2428 299.557 68.3414C307.278 78.3561 311.875 90.9022 311.875 104.504C311.875 106.477 311.778 108.43 311.586 110.353C311.464 111.632 311.296 112.9 311.088 114.153C309.577 123.361 305.939 131.869 300.698 139.139C300.226 139.798 299.739 140.443 299.242 141.077C299.12 141.229 299.004 141.381 298.877 141.528C297.03 143.837 295.016 146.003 292.855 148.007C287.899 152.613 282.156 156.378 275.855 159.077C273.825 159.954 271.735 160.715 269.594 161.355C264.348 162.937 258.803 163.805 253.065 163.856C252.883 163.861 252.7 163.861 252.518 163.861C247.921 163.861 242.995 163.156 237.988 161.872C231.149 160.122 224.153 157.301 217.634 153.75C223.656 158.026 230.495 161.233 237.866 163.074C242.559 164.251 247.465 164.875 252.518 164.875C252.847 164.875 253.177 164.87 253.507 164.86C259.093 164.779 264.501 163.922 269.62 162.405C271.857 161.745 274.038 160.959 276.159 160.051C282.323 157.423 287.964 153.79 292.875 149.361C295.442 147.053 297.817 144.527 299.958 141.807C300.089 141.64 300.221 141.472 300.348 141.3C300.521 141.077 300.693 140.848 300.861 140.62C306.598 132.975 310.556 123.924 312.128 114.087C312.331 112.824 312.494 111.545 312.615 110.252C312.798 108.359 312.889 106.442 312.889 104.504C312.889 90.3238 307.979 77.2704 299.76 66.9564Z" fill="#E6E6E6"/>
<path d="M233.772 107.374C229.672 103.507 226.813 98.38 229.674 87.4512C229.887 86.6376 229.316 85.7642 228.765 85.129C228.213 84.4938 227.174 84.1986 226.52 84.7271C226.985 83.3551 233.37 78.4545 233.836 77.0824C233.292 77.8043 229.14 79.3519 228.808 78.5114C228.475 77.6709 228.767 76.7264 229.059 75.871L230.801 70.772C231.24 69.4894 232.969 71.0218 233.836 69.9799C235.389 68.1133 233.616 66.1456 235.988 65.6223C243.748 63.9095 251.975 62.3793 259.513 64.8933C262.806 65.9914 265.801 67.8157 268.764 69.6249L274.185 72.9354C277.295 74.8345 280.672 77.0875 281.524 80.6303L275.832 78.596C277.1 81.2958 278.379 84.029 278.959 86.9547C279.539 89.8805 277.971 100.897 276.451 103.463C275.116 105.718 274.171 99.6625 273.732 102.246C274.235 97.1712 271.951 91.9074 267.901 88.8083C267.07 88.1726 266.123 87.5613 265.754 86.5828C265.342 85.4916 265.755 84.1793 265.192 83.1575C264.493 81.887 262.667 81.7659 261.305 82.2646C259.943 82.7633 258.752 83.7005 257.342 84.0364C253.601 84.9269 250.199 81.3905 246.363 81.1245C242.709 80.8712 239.441 83.7315 237.922 87.0641C236.402 90.3968 232.199 89.6754 231.806 93.3169C231.413 96.9584 237.151 104.165 234.85 107.015L233.772 107.374Z" fill="#2F2E41"/>
<path d="M230.895 141.346L229.196 140.022L228.8 139.717C228.42 139.418 227.918 139.316 227.446 139.433L225.457 139.93C225.249 139.981 225.026 139.92 224.874 139.768L222.641 137.536C222.489 137.383 222.428 137.16 222.479 136.952L222.976 134.963C223.098 134.492 222.991 133.995 222.692 133.609L221.064 131.514C221.023 131.463 220.977 131.412 220.932 131.367C220.313 130.748 219.313 130.748 218.694 131.367L217.756 132.305C217.081 132.975 216.787 133.984 217.117 134.918C217.959 137.312 219.328 139.489 221.129 141.28C221.769 141.919 222.454 142.507 223.179 143.035C224.498 143.989 225.949 144.75 227.491 145.293C228.43 145.622 229.434 145.328 230.104 144.659L231.043 143.715C231.717 143.045 231.646 141.934 230.895 141.346ZM230.358 143.035L229.419 143.974C228.978 144.41 228.359 144.572 227.811 144.379C226.517 143.928 225.295 143.309 224.163 142.538C223.321 141.975 222.535 141.32 221.814 140.595C220.12 138.905 218.826 136.856 218.03 134.598C217.837 134.05 217.999 133.431 218.436 132.99L219.379 132.051C219.394 132.031 219.415 132.016 219.435 132.001C219.704 131.793 220.089 131.838 220.297 132.107L221.926 134.202C222.043 134.35 222.083 134.547 222.038 134.73L221.54 136.719C221.403 137.257 221.566 137.83 221.956 138.221L224.189 140.453C224.579 140.848 225.152 141.006 225.69 140.869L227.679 140.372C227.862 140.326 228.059 140.367 228.207 140.483L228.232 140.504L230.302 142.112C230.322 142.127 230.342 142.147 230.358 142.162C230.601 142.406 230.601 142.792 230.358 143.035Z" fill="#CCCCCC"/>
<path d="M250.7 136.761C250.951 136.761 251.154 136.964 251.154 137.215V138.123C251.154 140.128 252.78 141.754 254.785 141.754C256.791 141.754 258.417 140.128 258.417 138.123V137.215C258.417 136.964 258.62 136.761 258.871 136.761C259.122 136.761 259.325 136.964 259.325 137.215V138.123C259.325 140.454 257.559 142.406 255.239 142.639V144.478H257.963C258.214 144.478 258.417 144.681 258.417 144.932C258.417 145.182 258.214 145.386 257.963 145.386H251.608C251.357 145.386 251.154 145.182 251.154 144.932C251.154 144.681 251.357 144.478 251.608 144.478H254.332V142.639C252.012 142.406 250.246 140.454 250.246 138.123V137.215C250.246 136.964 250.449 136.761 250.7 136.761Z" fill="#CCCCCC"/>
<path d="M254.785 130.859C253.284 130.859 252.061 132.077 252.061 133.584V138.124C252.061 139.626 253.284 140.844 254.785 140.844C256.292 140.844 257.51 139.626 257.51 138.124V133.584C257.51 132.077 256.292 130.859 254.785 130.859ZM256.602 138.124C256.602 139.124 255.79 139.94 254.785 139.94C253.781 139.94 252.969 139.124 252.969 138.124V133.584C252.969 132.579 253.781 131.767 254.785 131.767C255.79 131.767 256.602 132.579 256.602 133.584V138.124Z" fill="#CCCCCC"/>
<path d="M286.204 131.036C284.778 130.554 283.231 131.315 282.749 132.741L283.515 133.507C283.566 132.543 284.367 131.787 285.336 131.792C286.336 131.797 287.148 132.614 287.142 133.614V137.134L288.05 138.042V133.614C288.05 132.452 287.305 131.412 286.204 131.036ZM288.507 144.511H285.783V142.669C286.579 142.593 287.34 142.304 287.99 141.832L287.335 141.178C286.762 141.563 286.072 141.787 285.326 141.787C283.322 141.787 281.694 140.158 281.694 138.154V137.246C281.694 137.165 281.673 137.084 281.628 137.018C281.552 136.886 281.41 136.794 281.242 136.794C281.161 136.794 281.085 136.815 281.019 136.855C280.882 136.931 280.786 137.079 280.786 137.246V138.154C280.786 140.483 282.556 142.436 284.875 142.669V144.511H282.15C281.897 144.511 281.694 144.714 281.694 144.962C281.694 145.216 281.897 145.419 282.15 145.419H288.507C288.756 145.419 288.959 145.216 288.959 144.962C288.959 144.714 288.756 144.511 288.507 144.511ZM289.415 136.794C289.162 136.794 288.959 136.997 288.959 137.246V138.154C288.959 138.398 288.933 138.641 288.888 138.88L288.933 138.925L289.623 139.62C289.674 139.463 289.72 139.306 289.755 139.143C289.831 138.824 289.867 138.494 289.867 138.154V137.246C289.867 136.997 289.664 136.794 289.415 136.794Z" fill="#CCCCCC"/>
<path d="M287.198 138.474L280.202 131.478L279.558 132.122L285.453 138.017L290.455 143.014L291.095 142.37L287.198 138.474ZM285.996 139.843C285.068 140.214 284.012 139.757 283.642 138.824C283.556 138.611 283.51 138.382 283.51 138.154V137.357L282.602 136.449V138.154C282.602 139.656 283.825 140.878 285.326 140.878C285.798 140.878 286.265 140.757 286.676 140.523L285.996 139.843Z" fill="#CCCCCC"/>
<path d="M408.37 237.641C402.348 242.113 395.158 242.631 392.313 238.797C389.467 234.964 392.043 228.233 398.068 223.76C400.451 221.94 403.234 220.717 406.186 220.194L431.943 201.567L440.426 213.841L414.134 230.9C412.778 233.575 410.802 235.886 408.37 237.641Z" fill="#FFB6B6"/>
<path d="M424.597 85.9492C424.597 85.9492 445.374 86.6054 449.311 101.042C453.249 115.48 461.123 146.251 459.811 188.977C459.811 188.977 466.373 216.539 449.311 215.226L425.687 225.726L409.938 204.727L423.062 188.977L424.597 85.9492Z" fill="#E86100"/>
</g>
<defs>
<clipPath id="clip0_175_574">
<rect width="500" height="332.943" fill="white"/>
</clipPath>
</defs>
</svg>
