<svg width="500" height="381" viewBox="0 0 500 381" fill="none" xmlns="http://www.w3.org/2000/svg">
<g clip-path="url(#clip0_135_656)">
<path d="M210.53 -50L210.299 -48.9613L399.904 -48.7304C454.485 -48.7304 498.73 -4.4847 498.73 50.0956V166.467H500V-35.5963C500 -43.5513 493.551 -50 485.596 -50H210.53Z" fill="#E6E6E6"/>
<path d="M338.341 77.0664H263.261C260.686 77.0664 258.59 74.9707 258.59 72.395C258.59 69.8193 260.686 67.7236 263.261 67.7236H338.341C340.917 67.7236 343.013 69.8193 343.013 72.395C343.013 74.9707 340.917 77.0664 338.341 77.0664Z" fill="#E6E6E6"/>
<path d="M396.934 92.8769H263.261C260.686 92.8769 258.59 90.7813 258.59 88.2056C258.59 85.6298 260.686 83.5342 263.261 83.5342H396.934C399.51 83.5342 401.606 85.6298 401.606 88.2056C401.606 90.7813 399.51 92.8769 396.934 92.8769Z" fill="#E6E6E6"/>
<path d="M422.229 117.437H237.966C233.988 117.437 230.751 114.2 230.751 110.222V50.3797C230.751 46.4017 233.988 43.165 237.966 43.165H422.229C426.207 43.165 429.444 46.4017 429.444 50.3797V110.222C429.444 114.2 426.207 117.437 422.229 117.437ZM237.966 44.4346C234.688 44.4346 232.021 47.1016 232.021 50.3797V110.222C232.021 113.5 234.688 116.167 237.966 116.167H422.229C425.508 116.167 428.174 113.5 428.174 110.222V50.3797C428.174 47.1016 425.508 44.4346 422.229 44.4346H237.966Z" fill="#3F3D56"/>
<path d="M425.728 133.458C434.493 133.458 441.598 126.353 441.598 117.588C441.598 108.823 434.493 101.718 425.728 101.718C416.963 101.718 409.858 108.823 409.858 117.588C409.858 126.353 416.963 133.458 425.728 133.458Z" fill="#E86100"/>
<path d="M429.616 112.498C428.346 110.967 426.227 110.063 424.258 110.639C422.455 111.166 420.953 112.874 421.122 114.822C421.2 115.727 421.568 116.596 422.202 117.252C422.918 117.994 423.83 118.25 424.83 118.334C425.898 118.424 426.814 118.583 427.525 119.463C428.144 120.228 428.337 121.243 427.983 122.168C427.141 124.367 424.163 124.623 422.918 122.646C422.429 121.87 421.193 122.586 421.685 123.366C422.7 124.978 424.763 125.866 426.618 125.263C428.422 124.677 429.747 122.806 429.58 120.893C429.405 118.906 427.824 117.269 425.858 117C424.823 116.858 423.74 116.972 423.039 116.045C422.492 115.321 422.374 114.32 422.788 113.508C423.293 112.518 424.391 111.896 425.491 111.894C426.739 111.891 427.83 112.571 428.606 113.508C429.193 114.216 430.199 113.201 429.616 112.498Z" fill="white"/>
<path d="M424.059 107.768L423.372 127.744C423.351 128.357 424.303 128.356 424.324 127.744L425.011 107.768C425.032 107.155 424.08 107.156 424.059 107.768Z" fill="white"/>
<path d="M426.279 107.768L425.593 127.744C425.572 128.357 426.524 128.356 426.545 127.744L427.232 107.768C427.253 107.155 426.301 107.156 426.279 107.768Z" fill="white"/>
<path d="M60.1166 322.432L66.8593 322.431L70.0669 296.423L60.1152 296.424L60.1166 322.432Z" fill="#A0616A"/>
<path d="M59.8792 329.466L80.6141 329.465V329.203C80.6138 324.746 77.0006 321.132 72.5435 321.132L68.7556 318.259L61.6889 321.133L59.8789 321.133L59.8792 329.466Z" fill="#2F2E41"/>
<path d="M101.323 322.432L108.066 322.431L111.273 296.423L101.322 296.424L101.323 322.432Z" fill="#A0616A"/>
<path d="M101.086 329.466L121.821 329.465V329.203C121.82 324.746 118.207 321.132 113.75 321.132L109.962 318.259L102.895 321.133L101.085 321.133L101.086 329.466Z" fill="#2F2E41"/>
<path d="M54.1603 156.977L115.823 155.263L115.428 190.051L112.175 230.715C112.175 230.715 119.765 260.536 113.259 290.356L112.717 313.128L95.3668 312.044C95.3668 312.044 92.3847 267.313 96.1801 250.505L84.7941 189.78L73.9502 248.878C73.9502 248.878 75.5768 283.036 71.2393 296.591V309.367H58.9717C58.9717 309.367 45.7563 264.602 55.5157 241.83L54.1603 156.977Z" fill="#2F2E41"/>
<path d="M98.5113 55.8863C98.5113 55.8863 96.8474 51.7112 95.605 49.8477C86.9083 49.8477 85.8032 50.4449 78.2116 49.8477L57.1387 162.986C57.1387 162.986 45.5534 172.749 58.2751 172.749C70.9968 172.749 89.3398 169.199 94.3694 171.861C99.3989 174.524 115.375 170.382 115.375 170.382L98.5113 55.8863Z" fill="#E86100"/>
<path d="M78.5588 49.623L70.7574 57.923L65.6052 57.9911C60.84 58.0541 57.0207 61.9545 57.0577 66.7199L58.6733 114.264C58.6733 114.264 44.0736 159.494 53.8368 161.269L52.0617 168.073L70.7902 179.612C70.7902 179.612 76.4702 149.228 77.3578 142.424C78.2453 135.619 82.6563 97.2708 82.6563 97.2708C82.6563 97.2708 81.7956 65.725 81.2039 62.8026L78.5588 49.623Z" fill="#2F2E41"/>
<path d="M95.8486 49.9697L92.0024 69.792L101.766 122.158C101.766 122.158 99.3988 170.678 106.795 175.412L118.451 172.395L117.564 162.927C117.564 162.927 118.629 160.619 118.038 151.744C117.446 142.868 113.959 126.688 113.959 126.688L119.123 67.721C119.123 67.721 106.203 55.591 100.582 57.0702L95.8486 49.9697Z" fill="#2F2E41"/>
<path d="M32.095 161.419L33.298 145.279L42.6141 144.68L40.7351 161.699C41.0363 162.126 41.2813 162.604 41.4533 163.127C42.3886 165.969 40.8429 169.031 38.0009 169.966C35.1589 170.902 32.0968 169.356 31.1614 166.514C30.5649 164.702 30.9807 162.802 32.095 161.419Z" fill="#A0616A"/>
<path d="M67.9685 58.1855L63.0607 58.2668C59.433 58.3269 56.2271 60.6414 55.0283 64.0658L36.637 116.601L34.7279 126.397C34.7279 126.397 25.9055 147.552 29.2133 150.752L30.7903 156.644L42.4889 156.45L42.409 151.623C42.409 151.623 45.9812 151.287 45.9643 147.034C45.9643 147.034 55.2224 131.088 52.7726 126.098L59.0797 113.862L67.9685 58.1855Z" fill="#2F2E41"/>
<path d="M182.875 140.922L171.003 129.922L163.772 135.827L176.739 147.011C176.809 147.529 176.955 148.046 177.185 148.545C178.436 151.263 181.653 152.453 184.371 151.203C187.089 149.952 188.279 146.735 187.028 144.017C186.231 142.283 184.633 141.176 182.875 140.922Z" fill="#A0616A"/>
<path d="M111.623 61.8623L105.668 84.8658L126.523 113.526L133.313 120.841C133.313 120.841 162.556 143.687 167.091 142.9L172.781 145.098L179.517 135.532L175.57 132.752C175.57 132.752 177.404 129.668 173.958 127.176C173.958 127.176 149.179 107.046 143.704 106.085L137.534 93.7793L118.681 67.5157L111.623 61.8623Z" fill="#2F2E41"/>
<path d="M97.4343 44.8793C97.3529 44.9444 97.2768 44.9933 97.1954 45.0422C96.5656 45.4603 95.9085 45.8349 95.219 46.1552C95.2081 46.1661 95.1919 46.1715 95.1756 46.1769C93.9322 46.7634 92.591 47.2032 91.1739 47.4638C89.7241 47.7299 88.2852 47.8005 86.8844 47.6864C79.6683 47.1163 73.4567 41.7789 72.0775 34.3239C71.616 31.8371 71.7463 29.3828 72.3599 27.0969C73.9508 21.1894 78.7995 16.4221 85.2174 15.233C94.1167 13.5878 102.663 19.4681 104.308 28.3675C105.525 34.9483 102.625 41.3391 97.4343 44.8793Z" fill="#A0616A"/>
<path d="M78.2124 44.4788L79.201 39.9133C79.201 39.9133 76.5099 37.5712 79.201 35.3933L80.6654 34.442H82.9013L84.3452 27.0824L93.5447 26.4691C93.5447 26.4691 102.744 24.6292 103.971 21.5627C103.971 21.5627 100.904 20.9494 101.518 18.4962C101.518 18.4962 94.158 9.29673 87.4117 11.7499C80.6654 14.2031 78.2122 16.6563 78.2122 16.6563C78.2122 16.6563 67.1729 14.8164 67.1729 28.309C67.1729 41.8015 78.2124 44.4788 78.2124 44.4788Z" fill="#2F2E41"/>
<path d="M179.047 162.269H160.513C158.503 162.269 156.869 160.634 156.869 158.625V123.21C156.869 121.201 158.503 119.566 160.513 119.566H179.047C181.056 119.566 182.691 121.201 182.691 123.21V158.625C182.691 160.634 181.056 162.269 179.047 162.269Z" fill="#3F3D56"/>
<path d="M182.69 132.593C182.605 132.593 182.536 132.662 182.536 132.747V137.68C182.536 137.765 182.605 137.834 182.69 137.834C182.775 137.834 182.844 137.765 182.844 137.68V132.747C182.844 132.662 182.775 132.593 182.69 132.593Z" fill="#3F3D56"/>
<path d="M182.344 123.211V158.625C182.344 160.374 180.982 161.804 179.261 161.915H179.26C179.235 161.917 179.21 161.918 179.183 161.919C179.138 161.921 179.092 161.922 179.046 161.922C179.046 161.922 178.877 161.91 178.567 161.887C178.254 161.864 177.798 161.829 177.23 161.783C177.06 161.77 176.88 161.756 176.691 161.74C176.313 161.709 175.898 161.675 175.453 161.637C175.276 161.622 175.093 161.606 174.905 161.59C173.948 161.507 172.876 161.411 171.745 161.302C171.554 161.284 171.361 161.265 171.167 161.246C171.116 161.241 171.064 161.236 171.013 161.231C170.207 161.151 169.378 161.066 168.546 160.975C168.495 160.969 168.443 160.964 168.392 160.959C166.959 160.801 165.521 160.629 164.175 160.444C163.14 160.302 162.159 160.152 161.279 159.997C160.992 159.947 160.716 159.896 160.453 159.844C160.401 159.834 160.349 159.824 160.299 159.813C158.436 159.44 157.215 159.038 157.215 158.625V123.211C157.215 121.389 158.691 119.913 160.513 119.913H162.481C162.796 119.913 163.049 120.158 163.076 120.472C163.078 120.493 163.08 120.514 163.084 120.534C163.141 120.85 163.43 121.069 163.751 121.069H175.808C176.129 121.069 176.418 120.85 176.475 120.534C176.479 120.514 176.481 120.493 176.483 120.472C176.51 120.158 176.763 119.913 177.077 119.913H179.046C180.868 119.913 182.344 121.389 182.344 123.211Z" fill="#E86100"/>
<path d="M156.791 128.894C156.706 128.894 156.637 128.963 156.637 129.048V130.281C156.637 130.366 156.706 130.435 156.791 130.435C156.876 130.435 156.946 130.366 156.946 130.281V129.048C156.946 128.963 156.876 128.894 156.791 128.894Z" fill="#3F3D56"/>
<path d="M156.791 132.593C156.706 132.593 156.637 132.662 156.637 132.747V135.136C156.637 135.221 156.706 135.291 156.791 135.291C156.876 135.291 156.946 135.221 156.946 135.136V132.747C156.946 132.662 156.876 132.593 156.791 132.593Z" fill="#3F3D56"/>
<path d="M156.791 135.984C156.706 135.984 156.637 136.054 156.637 136.139V138.528C156.637 138.613 156.706 138.682 156.791 138.682C156.876 138.682 156.946 138.613 156.946 138.528V136.139C156.946 136.054 156.876 135.984 156.791 135.984Z" fill="#3F3D56"/>
<path d="M162.264 120.453H159.643C159.537 120.453 159.451 120.539 159.451 120.646C159.451 120.752 159.537 120.839 159.643 120.839H162.264C162.371 120.839 162.457 120.752 162.457 120.646C162.457 120.539 162.371 120.453 162.264 120.453Z" fill="#3F3D56"/>
<path d="M177.565 120.838C177.735 120.838 177.873 120.7 177.873 120.53C177.873 120.36 177.735 120.222 177.565 120.222C177.394 120.222 177.256 120.36 177.256 120.53C177.256 120.7 177.394 120.838 177.565 120.838Z" fill="#3F3D56"/>
<path d="M178.412 120.838C178.583 120.838 178.721 120.7 178.721 120.53C178.721 120.36 178.583 120.222 178.412 120.222C178.242 120.222 178.104 120.36 178.104 120.53C178.104 120.7 178.242 120.838 178.412 120.838Z" fill="#3F3D56"/>
<path d="M179.26 120.838C179.431 120.838 179.569 120.7 179.569 120.53C179.569 120.36 179.431 120.222 179.26 120.222C179.09 120.222 178.952 120.36 178.952 120.53C178.952 120.7 179.09 120.838 179.26 120.838Z" fill="#3F3D56"/>
<path d="M170.189 151.013C175.579 151.013 179.949 146.644 179.949 141.254C179.949 135.864 175.579 131.494 170.189 131.494C164.799 131.494 160.43 135.864 160.43 141.254C160.43 146.644 164.799 151.013 170.189 151.013Z" fill="white"/>
<path d="M172.58 138.123C171.799 137.181 170.496 136.626 169.285 136.98C168.176 137.304 167.253 138.354 167.357 139.552C167.405 140.109 167.631 140.643 168.021 141.047C168.461 141.503 169.022 141.66 169.637 141.712C170.294 141.767 170.857 141.865 171.294 142.406C171.675 142.877 171.793 143.501 171.576 144.07C171.058 145.422 169.227 145.579 168.461 144.363C168.161 143.886 167.4 144.326 167.703 144.807C168.327 145.798 169.596 146.344 170.737 145.973C171.846 145.613 172.661 144.462 172.558 143.286C172.451 142.064 171.478 141.057 170.269 140.892C169.633 140.804 168.966 140.874 168.536 140.304C168.199 139.859 168.127 139.243 168.381 138.744C168.692 138.135 169.367 137.753 170.043 137.751C170.811 137.75 171.482 138.168 171.959 138.744C172.32 139.18 172.939 138.555 172.58 138.123Z" fill="#E86100"/>
<path d="M169.163 135.215L168.74 147.5C168.727 147.877 169.313 147.876 169.326 147.5L169.748 135.215C169.761 134.838 169.175 134.839 169.163 135.215Z" fill="#E86100"/>
<path d="M170.528 135.215L170.106 147.5C170.093 147.877 170.679 147.876 170.692 147.5L171.114 135.215C171.127 134.838 170.541 134.839 170.528 135.215Z" fill="#E86100"/>
<path d="M33.7051 319.913C32.4218 319.993 31.7125 318.399 32.6834 317.47L32.78 317.086C32.7673 317.055 32.7545 317.024 32.7416 316.993C31.4438 313.899 27.0454 313.92 25.7586 317.019C24.6165 319.77 23.1624 322.526 22.8043 325.434C22.6438 326.718 22.7161 328.026 23.0009 329.286C20.3248 323.44 18.9165 317.057 18.9165 310.637C18.9165 309.024 19.0048 307.411 19.1853 305.802C19.3338 304.486 19.5384 303.178 19.8032 301.882C21.2356 294.877 24.337 288.205 28.8106 282.632C30.9611 281.456 32.7546 279.619 33.8378 277.416C34.227 276.622 34.532 275.767 34.6764 274.897C34.4317 274.929 33.7536 271.201 33.9382 270.973C33.5971 270.455 32.9866 270.198 32.6141 269.693C30.7615 267.181 28.2092 267.62 26.8767 271.033C24.0303 272.469 24.0027 274.852 25.7493 277.143C26.8604 278.601 27.0131 280.574 27.9881 282.134C27.8878 282.263 27.7834 282.387 27.6831 282.516C25.8438 284.875 24.2529 287.411 22.9118 290.075C23.2908 287.114 22.7312 283.547 21.7772 281.248C20.6912 278.628 18.6558 276.422 16.8633 274.157C14.7103 271.437 10.2952 272.624 9.91591 276.072C9.91224 276.106 9.90867 276.139 9.90516 276.172C10.1714 276.323 10.4322 276.482 10.687 276.651C12.1403 277.612 11.638 279.865 9.91608 280.13L9.87708 280.136C9.97339 281.095 10.1379 282.046 10.3786 282.981C8.07908 291.874 13.0436 295.113 20.1322 295.258C20.2887 295.339 20.4412 295.419 20.5976 295.495C19.8794 297.517 19.3057 299.591 18.8804 301.694C18.4993 303.551 18.2344 305.429 18.086 307.315C17.9014 309.694 17.9175 312.085 18.1181 314.461L18.1061 314.376C17.5965 311.76 16.1762 309.317 14.1139 307.624C11.0418 305.1 6.70138 304.171 3.38705 302.142C1.79163 301.166 -0.252778 302.428 0.0256641 304.277L0.0392185 304.366C0.532711 304.567 1.01416 304.799 1.47958 305.06C1.74582 305.21 2.00665 305.37 2.26143 305.538C3.7147 306.5 3.21245 308.752 1.49049 309.018L1.45147 309.024C1.42339 309.028 1.39931 309.032 1.37127 309.036C2.21784 311.046 3.39739 312.912 4.87387 314.521C6.3117 322.284 12.4872 323.02 19.0931 320.76H19.0971C19.8193 323.905 20.8745 326.979 22.2306 329.908H33.4246C33.4647 329.783 33.5008 329.655 33.5369 329.53C32.5018 329.595 31.4586 329.534 30.4395 329.346C31.2701 328.327 32.1005 327.3 32.9311 326.281C32.9511 326.26 32.9672 326.24 32.9832 326.22C33.4045 325.699 33.8298 325.181 34.2511 324.66L34.2513 324.659C34.2777 323.058 34.0854 321.462 33.7051 319.913Z" fill="#F2F2F2"/>
<path d="M158.907 329.94C158.907 330.35 158.577 330.68 158.167 330.68H0.826131C0.416164 330.68 0.0869141 330.35 0.0869141 329.94C0.0869141 329.53 0.416164 329.201 0.826131 329.201H158.167C158.577 329.201 158.907 329.53 158.907 329.94Z" fill="#CCCCCC"/>
</g>
<defs>
<clipPath id="clip0_135_656">
<rect width="500" height="380.68" fill="white"/>
</clipPath>
</defs>
</svg>
