<svg width="64" height="64" viewBox="0 0 64 64" fill="none" xmlns="http://www.w3.org/2000/svg">
<g clip-path="url(#clip0_135_500)">
<path d="M58.6667 45.3332H48V26.6665H58.6667M61.3333 21.3332H45.3333C44.6261 21.3332 43.9478 21.6141 43.4477 22.1142C42.9476 22.6143 42.6667 23.2926 42.6667 23.9998V50.6665C42.6667 51.3737 42.9476 52.052 43.4477 52.5521C43.9478 53.0522 44.6261 53.3332 45.3333 53.3332H61.3333C62.0406 53.3332 62.7189 53.0522 63.219 52.5521C63.7191 52.052 64 51.3737 64 50.6665V23.9998C64 23.2926 63.7191 22.6143 63.219 22.1142C62.7189 21.6141 62.0406 21.3332 61.3333 21.3332ZM10.6667 15.9998H58.6667V10.6665H10.6667C9.25218 10.6665 7.89562 11.2284 6.89543 12.2286C5.89524 13.2288 5.33333 14.5853 5.33333 15.9998V45.3332H0V53.3332H37.3333V45.3332H10.6667V15.9998Z" fill="#E86100"/>
</g>
<defs>
<clipPath id="clip0_135_500">
<rect width="64" height="64" fill="white"/>
</clipPath>
</defs>
</svg>
