<svg width="64" height="64" viewBox="0 0 64 64" fill="none" xmlns="http://www.w3.org/2000/svg">
<path d="M53.5198 13.1465C55.9999 15.6194 57.9669 18.5581 59.3077 21.7935C60.6486 25.029 61.3369 28.4975 61.3332 31.9998C61.3332 39.3598 58.3465 46.0265 53.5198 50.8532L49.7598 47.0932C51.7477 45.116 53.3229 42.7636 54.3941 40.1726C55.4653 37.5815 56.0111 34.8035 55.9998 31.9998C55.9998 26.1065 53.6265 20.7465 49.7598 16.9065L53.5198 13.1465ZM45.9732 20.6932C47.4617 22.1757 48.6426 23.9378 49.4481 25.8782C50.2535 27.8186 50.6676 29.8989 50.6665 31.9998C50.6665 36.3998 48.8798 40.3998 45.9732 43.3065L42.2132 39.5465C43.2046 38.556 43.9906 37.3795 44.526 36.0844C45.0614 34.7893 45.3357 33.4012 45.3332 31.9998C45.3332 29.0398 44.1332 26.3732 42.2132 24.4532L45.9732 20.6932ZM34.6665 26.6665C36.081 26.6665 37.4375 27.2284 38.4377 28.2286C39.4379 29.2288 39.9998 30.5854 39.9998 31.9998C39.9998 33.4143 39.4379 34.7709 38.4377 35.7711C37.4375 36.7713 36.081 37.3332 34.6665 37.3332C33.252 37.3332 31.8955 36.7713 30.8953 35.7711C29.8951 34.7709 29.3332 33.4143 29.3332 31.9998C29.3332 30.5854 29.8951 29.2288 30.8953 28.2286C31.8955 27.2284 33.252 26.6665 34.6665 26.6665ZM30.6665 2.6665C32.4346 2.6665 34.1303 3.36888 35.3806 4.61913C36.6308 5.86937 37.3332 7.56506 37.3332 9.33317V21.3332H31.9998V10.6665H7.99984V50.6665H31.9998V42.6665H37.3332V54.6665C37.3332 56.4346 36.6308 58.1303 35.3806 59.3806C34.1303 60.6308 32.4346 61.3332 30.6665 61.3332H9.33317C7.56506 61.3332 5.86937 60.6308 4.61913 59.3806C3.36888 58.1303 2.6665 56.4346 2.6665 54.6665V9.33317C2.6665 7.56506 3.36888 5.86937 4.61913 4.61913C5.86937 3.36888 7.56506 2.6665 9.33317 2.6665H30.6665Z" fill="#E86100"/>
</svg>
