<svg width="500" height="411" viewBox="0 0 500 411" fill="none" xmlns="http://www.w3.org/2000/svg">
<g clip-path="url(#clip0_135_1144)">
<path d="M500 398.104C500.153 414.103 399.334 415.569 397.414 398.105C397.261 382.107 498.079 380.641 500 398.104Z" fill="#E6E6E6"/>
<path d="M421.121 342.563L413.628 346.65L418.396 362.316L425.888 362.997L429.975 354.142L421.121 342.563Z" fill="#9F616A"/>
<path d="M444.279 373.896V381.388L455.859 380.707L455.697 374.536L444.279 373.896Z" fill="#9F616A"/>
<path d="M418.396 252.651L422.482 303.737L435.424 378.663L455.859 375.939L449.048 316.679L451.772 262.187L418.396 252.651Z" fill="#2F2E41"/>
<path d="M472.888 214.507L423.845 215.188L418.396 252.652L451.772 268.318L459.946 298.289L418.396 342.563L434.743 362.998C434.743 362.998 457.902 331.665 474.931 313.955C491.96 296.245 483.786 242.434 483.786 242.434L472.888 214.507Z" fill="#2F2E41"/>
<path d="M443.598 117.784C451.874 117.784 458.583 111.075 458.583 102.799C458.583 94.5226 451.874 87.8135 443.598 87.8135C435.322 87.8135 428.613 94.5226 428.613 102.799C428.613 111.075 435.322 117.784 443.598 117.784Z" fill="#9F616A"/>
<path d="M438.149 113.016V128.001L448.366 144.349C448.366 144.349 464.033 132.769 460.627 130.045C457.221 127.32 456.54 106.205 456.54 106.205L438.149 113.016Z" fill="#9F616A"/>
<path d="M438.149 125.277L427.932 137.537L432.019 222.68L464.033 221.999L469.482 147.754L462.671 128.682L457.998 122.325L449.729 134.812L438.149 125.277Z" fill="#D0CDE1"/>
<path d="M421.801 169.551L414.309 198.159L421.801 226.768L409.541 243.115L398.642 191.348C398.642 191.348 406.816 149.117 407.497 144.349C408.178 139.581 409.541 138.899 409.541 138.899L414.99 139.581L421.801 169.551Z" fill="#2F2E41"/>
<path d="M476.293 180.449L481.061 189.305L482.424 204.29L479.699 221.318L489.235 236.985L498.771 194.072L488.554 138.899H484.467L476.293 180.449Z" fill="#2F2E41"/>
<path d="M418.396 341.882C418.396 341.882 408.86 344.606 405.454 345.288C402.048 345.969 407.497 358.911 407.497 358.911C407.497 358.911 410.903 376.62 411.584 380.026C412.265 383.432 417.033 395.011 423.164 396.374C429.294 397.736 425.207 372.533 425.207 372.533C425.207 372.533 427.932 364.36 427.932 361.635C427.932 358.911 423.845 360.273 423.845 360.273C412.947 358.911 418.396 341.882 418.396 341.882Z" fill="#2F2E41"/>
<path d="M440.874 394.33C441.555 398.417 440.193 398.417 451.091 399.779C461.989 401.142 459.265 392.287 459.265 392.287C458.809 388.112 457.895 384.001 456.54 380.026C454.497 374.577 443.598 381.388 443.598 381.388C443.598 381.388 440.193 390.243 440.874 394.33Z" fill="#2F2E41"/>
<path d="M456.558 106.68L456.913 112.738C456.913 112.738 461.308 102.799 461.989 92.5816C462.67 82.3644 451.091 80.3209 444.279 79.6398C437.468 78.9586 425.888 83.7267 425.888 89.1759C425.888 94.6251 438.149 93.2628 442.917 91.9005C447.685 90.5382 449.729 102.118 449.729 102.118L452.453 102.799L456.558 106.68Z" fill="#2F2E41"/>
<path d="M434.129 130.1L438.149 125.277L449.729 134.813L438.149 142.986L434.129 130.1Z" fill="#D0CDE1"/>
<path d="M462.671 128.682L457.902 122.552L449.729 134.813L459.946 142.305L462.671 128.682Z" fill="#D0CDE1"/>
<path d="M419.758 179.087L422.483 204.971L417.033 220.637L413.628 235.623C413.628 235.623 413.628 249.927 427.251 250.608C440.874 251.289 452.453 207.696 452.453 207.696C452.453 207.696 454.497 217.232 455.859 222.681C457.221 228.13 480.38 249.927 480.38 249.927C480.38 249.927 485.829 249.246 490.597 238.347C495.366 227.449 481.061 217.232 481.061 217.232L476.974 202.928L478.337 185.218L487.873 138.9L459.605 124.255L462.67 163.421L452.453 194.073L437.127 126.298L432.019 130.045L410.222 138.9L419.758 179.087Z" fill="#2F2E41"/>
<path d="M150.562 282.112C149.215 282.102 147.853 282.092 146.515 282.051L146.556 280.702C147.88 280.743 149.234 280.761 150.562 280.762C151.896 280.762 153.255 280.741 154.603 280.697L154.647 282.046C153.284 282.09 151.91 282.112 150.562 282.112ZM138.401 281.542C135.713 281.288 133 280.943 130.335 280.518L130.548 279.185C133.184 279.606 135.869 279.947 138.528 280.199L138.401 281.542ZM162.76 281.528L162.631 280.184C165.289 279.93 167.973 279.585 170.61 279.161L170.825 280.493C168.16 280.923 165.446 281.271 162.76 281.528ZM122.351 278.978C119.72 278.381 117.073 277.69 114.483 276.925L114.866 275.631C117.428 276.388 120.047 277.071 122.65 277.661L122.351 278.978ZM178.806 278.944L178.506 277.628C181.115 277.033 183.734 276.347 186.288 275.589L186.672 276.883C184.09 277.649 181.444 278.343 178.806 278.944ZM106.763 274.371C104.224 273.438 101.684 272.411 99.213 271.318L99.7594 270.084C102.204 271.165 104.716 272.181 107.228 273.104L106.763 274.371ZM194.388 274.318L193.922 273.051C196.418 272.132 198.922 271.116 201.365 270.032L201.912 271.266C199.443 272.362 196.912 273.388 194.388 274.318ZM91.8783 267.785C89.4891 266.538 87.1032 265.193 84.7875 263.789L85.4874 262.635C87.7788 264.025 90.139 265.354 92.5028 266.588L91.8783 267.785ZM209.227 267.735L208.602 266.539C210.96 265.306 213.315 263.977 215.6 262.588L216.301 263.741C213.991 265.145 211.611 266.488 209.227 267.735ZM77.9692 259.349C75.7563 257.804 73.5631 256.166 71.4501 254.482L72.2918 253.426C74.3824 255.093 76.5525 256.713 78.7416 258.241L77.9692 259.349ZM223.108 259.3L222.335 258.194C224.523 256.665 226.69 255.045 228.776 253.379L229.618 254.434C227.51 256.117 225.32 257.754 223.108 259.3ZM65.2556 249.208C63.2553 247.393 61.2886 245.49 59.4111 243.554L60.38 242.614C62.2377 244.53 64.1836 246.412 66.1632 248.209L65.2556 249.208ZM235.806 249.162L234.898 248.162C236.873 246.369 238.817 244.485 240.678 242.565L241.647 243.504C239.767 245.445 237.801 247.348 235.806 249.162ZM53.9394 237.541C52.1878 235.487 50.4801 233.351 48.863 231.191L49.9436 230.382C51.5436 232.519 53.2331 234.633 54.9662 236.664L53.9394 237.541ZM247.117 237.484L246.09 236.609C247.823 234.576 249.513 232.46 251.112 230.32L252.193 231.128C250.577 233.291 248.869 235.429 247.117 237.484ZM44.2029 224.532C42.7262 222.271 41.3052 219.936 39.9792 217.591L41.1543 216.927C42.4659 219.246 43.8721 221.557 45.3333 223.794L44.2029 224.532ZM256.855 224.459L255.724 223.722C257.186 221.48 258.592 219.166 259.904 216.841L261.08 217.504C259.754 219.854 258.332 222.194 256.855 224.459ZM36.2098 210.395C35.0353 207.966 33.9257 205.469 32.9121 202.974L34.1623 202.466C35.1655 204.934 36.2632 207.404 37.4252 209.807L36.2098 210.395ZM264.851 210.29L263.635 209.703C264.797 207.296 265.895 204.819 266.899 202.34L268.15 202.846C267.135 205.352 266.025 207.857 264.851 210.29ZM30.0944 195.346C29.2406 192.782 28.4606 190.16 27.7758 187.551L29.0814 187.208C29.7586 189.789 30.5304 192.384 31.3751 194.919L30.0944 195.346ZM270.962 195.203L269.681 194.779C270.521 192.246 271.29 189.65 271.965 187.065L273.272 187.406C272.588 190.02 271.811 192.643 270.962 195.203ZM25.9649 179.625C25.4492 176.977 25.0128 174.276 24.6678 171.598L26.0064 171.426C26.3478 174.075 26.7795 176.747 27.2897 179.367L25.9649 179.625ZM275.073 179.477L273.748 179.221C274.254 176.602 274.684 173.929 275.022 171.277L276.361 171.449C276.019 174.129 275.585 176.83 275.073 179.477ZM23.8874 163.506C23.7144 160.816 23.6251 158.081 23.6222 155.378L24.972 155.377C24.9749 158.051 25.0633 160.757 25.2346 163.419L23.8874 163.506ZM277.132 163.355L275.785 163.269C275.953 160.61 276.038 157.904 276.038 155.229L276.037 154.933H277.387L277.388 155.225C277.388 157.933 277.301 160.667 277.132 163.355ZM25.2158 147.336L23.8687 147.253C24.036 144.557 24.2921 141.834 24.6299 139.158L25.9692 139.327C25.6347 141.975 25.3813 144.669 25.2158 147.336ZM275.766 146.893C275.591 144.225 275.328 141.531 274.985 138.887L276.323 138.713C276.67 141.386 276.936 144.108 277.114 146.805L275.766 146.893ZM27.2333 131.383L25.9079 131.128C26.4171 128.479 27.0202 125.811 27.6996 123.197L29.006 123.537C28.3337 126.122 27.7372 128.762 27.2333 131.383ZM273.691 130.948C273.177 128.325 272.57 125.688 271.89 123.108L273.195 122.764C273.883 125.371 274.496 128.037 275.016 130.688L273.691 130.948ZM31.2818 115.821L29.9999 115.398C30.8471 112.833 31.7903 110.26 32.8036 107.751L34.0552 108.256C33.0528 110.739 32.1198 113.284 31.2818 115.821ZM269.589 115.4C268.741 112.866 267.801 110.329 266.793 107.857L268.042 107.347C269.061 109.846 270.013 112.411 270.869 114.972L269.589 115.4ZM37.3112 100.887L36.0945 100.302C37.2653 97.8682 38.5315 95.4394 39.8572 93.0838L41.0337 93.7462C39.7218 96.0765 38.4695 98.4792 37.3112 100.887ZM263.522 100.519C262.359 98.1226 261.102 95.7288 259.784 93.4045L260.959 92.7388C262.291 95.0878 263.561 97.5077 264.736 99.9308L263.522 100.519ZM45.2057 86.8597L44.0741 86.1235C45.5462 83.8609 47.1119 81.615 48.7273 79.4489L49.8095 80.2556C48.2112 82.399 46.662 84.6208 45.2057 86.8597ZM255.597 86.542C254.136 84.3114 252.583 82.0965 250.979 79.9591L252.058 79.149C253.68 81.3095 255.25 83.5481 256.727 85.8025L255.597 86.542ZM54.8245 73.961L53.7963 73.087C55.5446 71.0303 57.3825 69.003 59.2589 67.0616L60.2297 67.9995C58.3731 69.9204 56.5546 71.9264 54.8245 73.961ZM245.948 73.6829C244.213 71.6538 242.389 69.6538 240.527 67.7385L241.495 66.798C243.377 68.7334 245.22 70.7548 246.974 72.8056L245.948 73.6829ZM66.0024 62.3949L65.0935 61.3971C67.0909 59.5776 69.171 57.8011 71.2754 56.1171L72.1191 57.171C70.0367 58.8372 67.9787 60.595 66.0024 62.3949ZM234.737 62.1501C232.758 60.3583 230.694 58.6058 228.602 56.9416L229.443 55.8851C231.557 57.5674 233.643 59.3384 235.643 61.1496L234.737 62.1501ZM78.5548 52.3481L77.7804 51.2428C79.989 49.6949 82.2773 48.1984 84.5819 46.7946L85.2841 47.9473C83.0043 49.3364 80.74 50.817 78.5548 52.3481ZM222.147 52.1332C219.95 50.6038 217.679 49.1281 215.396 47.747L216.095 46.5922C218.402 47.9879 220.698 49.4794 222.919 51.0253L222.147 52.1332ZM92.2784 43.9875L91.6516 42.7919C94.0378 41.5403 96.4975 40.3493 98.9616 39.2523L99.5106 40.4854C97.0726 41.5706 94.6396 42.7491 92.2784 43.9875ZM208.376 43.8023C206.006 42.5685 203.563 41.3956 201.116 40.316L201.661 39.0809C204.134 40.172 206.604 41.3577 209 42.6047L208.376 43.8023ZM106.95 37.4576L106.481 36.1914C109.012 35.2552 111.608 34.3891 114.195 33.6177L114.581 34.9115C112.021 35.6743 109.454 36.5312 106.95 37.4576ZM193.643 37.3043C191.134 36.3865 188.564 35.5389 186.003 34.7856L186.384 33.4904C188.973 34.252 191.571 35.1089 194.107 36.0369L193.643 37.3043ZM122.36 32.8634L122.058 31.5478C124.685 30.9461 127.369 30.4218 130.038 29.9884L130.255 31.3211C127.614 31.7495 124.958 32.2682 122.36 32.8634ZM178.217 32.7652C175.614 32.1786 172.956 31.6691 170.316 31.2506L170.528 29.9172C173.196 30.3404 175.883 30.8554 178.514 31.4483L178.217 32.7652ZM138.232 30.288L138.102 28.9447C140.782 28.6847 143.511 28.5071 146.214 28.4171L146.259 29.7663C143.584 29.8553 140.884 30.0309 138.232 30.288ZM162.335 30.2461C159.68 29.998 156.978 29.8319 154.306 29.7525L154.347 28.4033C157.047 28.4837 159.777 28.6515 162.461 28.9022L162.335 30.2461Z" fill="#D0CDE1"/>
<path d="M145.78 63.4415C163.299 63.4415 177.501 49.2396 177.501 31.7207C177.501 14.2019 163.299 0 145.78 0C128.262 0 114.06 14.2019 114.06 31.7207C114.06 49.2396 128.262 63.4415 145.78 63.4415Z" fill="#E86100"/>
<path d="M268.614 149.83C286.133 149.83 300.335 135.628 300.335 118.109C300.335 100.59 286.133 86.3882 268.614 86.3882C251.095 86.3882 236.893 100.59 236.893 118.109C236.893 135.628 251.095 149.83 268.614 149.83Z" fill="#E86100"/>
<path d="M230.144 282.112C247.663 282.112 261.865 267.91 261.865 250.391C261.865 232.872 247.663 218.67 230.144 218.67C212.625 218.67 198.423 232.872 198.423 250.391C198.423 267.91 212.625 282.112 230.144 282.112Z" fill="#E86100"/>
<path d="M77.6146 287.511C95.1335 287.511 109.335 273.309 109.335 255.791C109.335 238.272 95.1335 224.07 77.6146 224.07C60.0957 224.07 45.8938 238.272 45.8938 255.791C45.8938 273.309 60.0957 287.511 77.6146 287.511Z" fill="#E86100"/>
<path d="M31.7207 149.83C49.2396 149.83 63.4415 135.628 63.4415 118.109C63.4415 100.59 49.2396 86.3882 31.7207 86.3882C14.2019 86.3882 0 100.59 0 118.109C0 135.628 14.2019 149.83 31.7207 149.83Z" fill="#E86100"/>
<path d="M159.374 29.1915H148.309C147.303 29.1915 146.338 28.7919 145.627 28.0805C144.916 27.369 144.516 26.4042 144.516 25.3981V14.3337C144.516 14.2922 144.508 14.2511 144.492 14.2127C144.476 14.1744 144.453 14.1395 144.423 14.1102C144.394 14.0808 144.359 14.0575 144.321 14.0416C144.282 14.0257 144.241 14.0176 144.2 14.0176H136.929C135.588 14.0176 134.301 14.5505 133.352 15.499C132.404 16.4476 131.871 17.7341 131.871 19.0756V44.3655C131.871 45.7069 132.404 46.9935 133.352 47.942C134.301 48.8906 135.587 49.4235 136.929 49.4235H154.632C155.973 49.4235 157.26 48.8906 158.208 47.942C159.157 46.9935 159.69 45.7069 159.69 44.3655V29.5077C159.69 29.4661 159.682 29.425 159.666 29.3867C159.65 29.3483 159.627 29.3135 159.597 29.2841C159.568 29.2548 159.533 29.2315 159.495 29.2156C159.456 29.1997 159.415 29.1915 159.374 29.1915ZM152.103 41.8365H139.458C139.123 41.8365 138.801 41.7033 138.564 41.4661C138.327 41.229 138.193 40.9074 138.193 40.572C138.193 40.2366 138.327 39.915 138.564 39.6779C138.801 39.4407 139.123 39.3075 139.458 39.3075H152.103C152.438 39.3075 152.76 39.4407 152.997 39.6779C153.234 39.915 153.367 40.2366 153.367 40.572C153.367 40.9074 153.234 41.229 152.997 41.4661C152.76 41.7033 152.438 41.8365 152.103 41.8365ZM152.103 35.514H139.458C139.123 35.514 138.801 35.3808 138.564 35.1436C138.327 34.9065 138.193 34.5849 138.193 34.2495C138.193 33.9141 138.327 33.5925 138.564 33.3554C138.801 33.1182 139.123 32.985 139.458 32.985H152.103C152.438 32.985 152.76 33.1182 152.997 33.3554C153.234 33.5925 153.367 33.9141 153.367 34.2495C153.367 34.5849 153.234 34.9065 152.997 35.1436C152.76 35.3808 152.438 35.514 152.103 35.514Z" fill="white"/>
<path d="M158.68 26.3934L147.314 15.0279C147.292 15.0059 147.264 14.991 147.234 14.9849C147.203 14.9789 147.171 14.982 147.143 14.9939C147.114 15.0058 147.089 15.026 147.072 15.0519C147.054 15.0777 147.045 15.1082 147.045 15.1393V25.3983C147.045 25.7337 147.178 26.0553 147.415 26.2925C147.652 26.5296 147.974 26.6628 148.309 26.6628H158.568C158.6 26.6627 158.63 26.6534 158.656 26.636C158.682 26.6186 158.702 26.594 158.714 26.5652C158.726 26.5364 158.729 26.5047 158.723 26.4741C158.717 26.4436 158.702 26.4155 158.68 26.3934Z" fill="white"/>
<path d="M234.732 244.143C234.343 244.143 233.966 244.278 233.666 244.525C233.365 244.772 233.16 245.115 233.084 245.497C233.008 245.878 233.067 246.274 233.251 246.617C233.434 246.96 233.731 247.228 234.09 247.377C234.45 247.526 234.85 247.545 235.222 247.432C235.594 247.319 235.915 247.08 236.131 246.757C236.347 246.434 236.444 246.045 236.406 245.658C236.368 245.271 236.196 244.909 235.921 244.634C235.765 244.478 235.58 244.355 235.376 244.27C235.172 244.186 234.953 244.142 234.732 244.143Z" fill="white"/>
<path d="M244.091 237.42V237.414C244.038 237.181 243.92 236.967 243.752 236.797C243.584 236.626 243.371 236.507 243.138 236.451C241.261 235.993 238.308 236.481 235.036 237.791C231.89 239.014 229.011 240.837 226.56 243.159C225.89 243.824 225.268 244.536 224.699 245.289C223.44 245.202 222.178 245.405 221.01 245.882C217.373 247.483 216.334 251.578 216.058 253.26C216.018 253.499 216.033 253.744 216.103 253.976C216.174 254.208 216.296 254.42 216.462 254.597C216.628 254.774 216.832 254.91 217.059 254.995C217.286 255.08 217.529 255.111 217.77 255.087H217.778L221.83 254.645C221.835 254.696 221.84 254.743 221.845 254.787C221.897 255.281 222.117 255.741 222.468 256.092L224.445 258.07C224.795 258.422 225.256 258.643 225.75 258.694L225.885 258.709L225.444 262.755V262.763C225.423 262.969 225.443 263.177 225.502 263.375C225.561 263.573 225.658 263.758 225.789 263.918C225.919 264.079 226.08 264.212 226.262 264.31C226.443 264.409 226.643 264.47 226.849 264.491C226.897 264.496 226.946 264.499 226.994 264.5C227.082 264.5 227.169 264.493 227.256 264.478C228.947 264.206 233.041 263.18 234.637 259.524C235.11 258.36 235.314 257.103 235.232 255.849C235.988 255.281 236.703 254.659 237.371 253.988C239.69 251.56 241.516 248.704 242.744 245.578C244.047 242.344 244.538 239.369 244.091 237.42ZM237.348 248.435C236.83 248.953 236.171 249.306 235.453 249.449C234.735 249.592 233.991 249.519 233.314 249.239C232.638 248.96 232.059 248.485 231.652 247.877C231.245 247.268 231.028 246.553 231.027 245.821C231.027 245.089 231.244 244.373 231.65 243.764C232.057 243.155 232.635 242.68 233.311 242.4C233.987 242.119 234.731 242.045 235.449 242.188C236.167 242.33 236.827 242.683 237.345 243.2L237.348 243.203C238.042 243.886 238.436 244.817 238.443 245.791C238.45 246.765 238.071 247.702 237.387 248.396L237.348 248.435Z" fill="white"/>
<path d="M224.219 258.607C223.975 258.577 223.729 258.636 223.526 258.775C223.123 259.05 222.719 259.322 222.311 259.588C222.134 259.702 221.923 259.753 221.714 259.733C221.504 259.713 221.307 259.623 221.154 259.478C221.002 259.332 220.902 259.14 220.872 258.932C220.842 258.723 220.883 258.51 220.988 258.328L221.753 257.005C221.863 256.845 221.924 256.657 221.929 256.463C221.934 256.269 221.883 256.078 221.782 255.913C221.682 255.747 221.535 255.614 221.361 255.529C221.186 255.445 220.991 255.413 220.799 255.436C219.949 255.544 219.16 255.931 218.554 256.536C218.324 256.767 217.623 257.469 217.246 260.142C217.138 260.91 217.071 261.683 217.043 262.458C217.039 262.591 217.062 262.722 217.11 262.846C217.157 262.969 217.228 263.082 217.32 263.178C217.411 263.274 217.52 263.351 217.641 263.405C217.762 263.459 217.892 263.488 218.024 263.492C218.033 263.492 218.042 263.492 218.051 263.492H218.076C218.851 263.465 219.625 263.397 220.394 263.29C223.069 262.913 223.77 262.211 224.001 261.98C224.609 261.375 224.995 260.582 225.096 259.729C225.128 259.464 225.054 259.197 224.89 258.986C224.725 258.776 224.484 258.639 224.219 258.607Z" fill="white"/>
<path d="M66.6978 273.028H64.3995C63.9423 273.028 63.5039 272.846 63.1806 272.523C62.8574 272.2 62.6758 271.761 62.6758 271.304V260.962C62.6758 260.505 62.8574 260.066 63.1806 259.743C63.5039 259.42 63.9423 259.238 64.3995 259.238H66.6978C67.1549 259.238 67.5934 259.42 67.9166 259.743C68.2399 260.066 68.4215 260.505 68.4215 260.962V271.304C68.4215 271.761 68.2399 272.2 67.9166 272.523C67.5934 272.846 67.1549 273.028 66.6978 273.028Z" fill="white"/>
<path d="M82.7857 273.028H80.4874C80.0303 273.028 79.5918 272.846 79.2686 272.523C78.9453 272.2 78.7637 271.761 78.7637 271.304V254.067C78.7637 253.61 78.9453 253.171 79.2686 252.848C79.5918 252.525 80.0303 252.343 80.4874 252.343H82.7857C83.2429 252.343 83.6813 252.525 84.0045 252.848C84.3278 253.171 84.5094 253.61 84.5094 254.067V271.304C84.5094 271.761 84.3278 272.2 84.0045 272.523C83.6813 272.846 83.2429 273.028 82.7857 273.028Z" fill="white"/>
<path d="M90.8297 273.028H88.5314C88.0742 273.028 87.6358 272.846 87.3125 272.523C86.9893 272.2 86.8077 271.761 86.8077 271.304V246.023C86.8077 245.566 86.9893 245.127 87.3125 244.804C87.6358 244.481 88.0742 244.299 88.5314 244.299H90.8297C91.2868 244.299 91.7253 244.481 92.0485 244.804C92.3718 245.127 92.5534 245.566 92.5534 246.023V271.304C92.5534 271.761 92.3718 272.2 92.0485 272.523C91.7253 272.846 91.2868 273.028 90.8297 273.028Z" fill="white"/>
<path d="M74.7417 273.028H72.4435C71.9863 273.028 71.5479 272.846 71.2247 272.523C70.9014 272.2 70.7198 271.761 70.7198 271.304V240.277C70.7198 239.82 70.9014 239.382 71.2247 239.059C71.5479 238.735 71.9863 238.554 72.4435 238.554H74.7418C75.1989 238.554 75.6374 238.735 75.9606 239.059C76.2839 239.382 76.4655 239.82 76.4655 240.277V271.304C76.4655 271.531 76.4209 271.755 76.3343 271.964C76.2476 272.173 76.1207 272.363 75.9606 272.523C75.8005 272.683 75.6105 272.81 75.4014 272.897C75.1923 272.983 74.9681 273.028 74.7417 273.028Z" fill="white"/>
<path d="M270.134 117.279L268.492 115.636C268.115 115.26 267.606 115.048 267.074 115.046C266.542 115.045 266.031 115.254 265.653 115.628L254.237 126.164C253.818 126.535 253.561 127.056 253.523 127.614C253.511 127.891 253.556 128.168 253.656 128.427C253.755 128.686 253.907 128.922 254.102 129.12L256.555 131.599L256.559 131.604C256.938 131.981 257.451 132.194 257.986 132.196H258.06C258.338 132.181 258.609 132.11 258.859 131.99C259.109 131.869 259.333 131.701 259.518 131.494L270.127 120.13C270.506 119.754 270.72 119.243 270.722 118.709C270.724 118.176 270.515 117.663 270.139 117.284L270.134 117.279Z" fill="white"/>
<path d="M283.33 113.958L283.31 113.939L281.155 111.806C281.029 111.68 280.879 111.58 280.714 111.513C280.549 111.445 280.373 111.411 280.194 111.412C279.906 111.412 279.624 111.504 279.39 111.673C279.39 111.645 279.394 111.619 279.396 111.596C279.483 111.045 279.366 110.481 279.069 110.01C278.594 109.37 278.073 108.766 277.509 108.202L277.504 108.197C275.929 106.686 274.077 105.491 272.05 104.679C270.991 104.245 269.857 104.021 268.712 104.022C267.23 104.009 265.79 104.513 264.64 105.449C264.313 105.761 264.015 106.102 263.749 106.469C263.621 106.644 263.554 106.856 263.557 107.072C263.56 107.289 263.633 107.499 263.765 107.671C263.896 107.843 264.08 107.968 264.289 108.027C264.497 108.086 264.719 108.076 264.921 107.999C265.098 107.933 265.278 107.878 265.461 107.834C265.842 107.753 266.233 107.729 266.621 107.762C267.426 107.846 268.197 108.128 268.866 108.585C269.24 108.9 269.538 109.297 269.737 109.745C269.936 110.192 270.031 110.679 270.014 111.169C269.735 111.964 269.308 112.7 268.756 113.337C268.609 113.531 268.537 113.772 268.554 114.015C268.571 114.257 268.675 114.486 268.847 114.658L271.011 116.822C271.193 117.004 271.438 117.11 271.695 117.117C271.953 117.124 272.203 117.032 272.395 116.861C273.007 116.314 273.939 115.49 274.265 115.289C274.543 115.102 274.858 114.978 275.189 114.924C275.435 114.9 275.683 114.952 275.899 115.073C275.9 115.084 275.899 115.095 275.896 115.105C275.892 115.116 275.887 115.125 275.88 115.133L275.765 115.242L275.746 115.26C275.492 115.513 275.349 115.857 275.348 116.216C275.347 116.575 275.489 116.919 275.743 117.174L275.749 117.18L277.904 119.313C278.03 119.438 278.18 119.538 278.345 119.605C278.51 119.673 278.687 119.707 278.865 119.706C279.223 119.706 279.566 119.566 279.822 119.316L283.312 115.868C283.324 115.856 283.336 115.844 283.347 115.831C283.582 115.575 283.71 115.239 283.707 114.891C283.703 114.544 283.569 114.211 283.33 113.958Z" fill="white"/>
<path d="M36.7572 116.22C36.5081 116.22 36.2647 116.146 36.0577 116.008C35.8506 115.87 35.6892 115.673 35.5939 115.443C35.4986 115.213 35.4737 114.96 35.5223 114.716C35.5709 114.471 35.6908 114.247 35.8669 114.071L38.7538 111.184L35.8669 108.297C35.6307 108.061 35.4981 107.74 35.4981 107.407C35.4981 107.073 35.6307 106.752 35.8669 106.516C36.103 106.28 36.4232 106.147 36.7572 106.147C37.0911 106.147 37.4113 106.28 37.6475 106.516L41.4248 110.294C41.5417 110.41 41.6345 110.549 41.6978 110.702C41.761 110.855 41.7936 111.018 41.7936 111.184C41.7936 111.349 41.761 111.513 41.6978 111.666C41.6345 111.818 41.5417 111.957 41.4248 112.074L37.6475 115.851C37.5307 115.969 37.3919 116.061 37.2391 116.125C37.0863 116.188 36.9225 116.22 36.7572 116.22Z" fill="white"/>
<path d="M16.6115 119.998C16.4461 119.998 16.2824 119.965 16.1297 119.902C15.9769 119.839 15.8381 119.746 15.7212 119.629C15.6042 119.512 15.5115 119.373 15.4482 119.22C15.3849 119.068 15.3524 118.904 15.3524 118.739V117.479C15.3623 115.48 16.1609 113.564 17.5747 112.15C18.9885 110.735 20.9034 109.936 22.9033 109.925H39.2754C39.6093 109.925 39.9296 110.057 40.1657 110.294C40.4018 110.53 40.5345 110.85 40.5345 111.184C40.5345 111.518 40.4018 111.838 40.1657 112.074C39.9296 112.31 39.6093 112.443 39.2754 112.443H22.907C21.5731 112.451 20.2961 112.985 19.3531 113.928C18.4102 114.872 17.8775 116.149 17.8706 117.483V118.739C17.8706 118.904 17.838 119.068 17.7748 119.22C17.7115 119.373 17.6187 119.512 17.5018 119.629C17.3849 119.746 17.2461 119.839 17.0933 119.902C16.9406 119.965 16.7768 119.998 16.6115 119.998Z" fill="white"/>
<path d="M26.6843 130.071C26.519 130.071 26.3552 130.038 26.2024 129.975C26.0496 129.912 25.9108 129.819 25.794 129.702L22.0167 125.924C21.8998 125.807 21.807 125.669 21.7437 125.516C21.6805 125.363 21.6479 125.199 21.6479 125.034C21.6479 124.869 21.6805 124.705 21.7437 124.552C21.807 124.4 21.8998 124.261 22.0167 124.144L25.794 120.366C26.0302 120.131 26.3504 119.998 26.6841 119.999C27.0178 119.999 27.3378 120.131 27.5738 120.367C27.8098 120.603 27.9424 120.923 27.9426 121.257C27.9427 121.591 27.8104 121.911 27.5746 122.147L24.6877 125.034L27.5746 127.921C27.7507 128.097 27.8706 128.322 27.9192 128.566C27.9678 128.81 27.9428 129.063 27.8475 129.293C27.7523 129.523 27.5909 129.72 27.3838 129.858C27.1768 129.997 26.9334 130.071 26.6843 130.071Z" fill="white"/>
<path d="M24.1661 126.294C23.8322 126.294 23.5119 126.161 23.2758 125.925C23.0397 125.689 22.907 125.368 22.907 125.034C22.907 124.701 23.0397 124.38 23.2758 124.144C23.5119 123.908 23.8322 123.775 24.1661 123.775H40.5344C41.8684 123.767 43.1454 123.234 44.0883 122.29C45.0312 121.347 45.5639 120.069 45.5709 118.735V117.48C45.5709 117.146 45.7035 116.826 45.9396 116.589C46.1758 116.353 46.496 116.221 46.83 116.221C47.1639 116.221 47.4842 116.353 47.7203 116.589C47.9564 116.826 48.0891 117.146 48.0891 117.48V118.739C48.0792 120.739 47.2806 122.654 45.8668 124.069C44.453 125.483 42.5381 126.283 40.5382 126.294L24.1661 126.294Z" fill="white"/>
</g>
<defs>
<clipPath id="clip0_135_1144">
<rect width="500" height="410.659" fill="white"/>
</clipPath>
</defs>
</svg>
