<svg width="500" height="427" viewBox="0 0 500 427" fill="none" xmlns="http://www.w3.org/2000/svg">
<g clip-path="url(#clip0_135_1245)">
<path d="M232.793 390.446C235.692 391.465 238.805 391.721 241.831 391.187C244.857 390.654 247.695 389.351 250.071 387.403C256.123 382.323 258.021 373.957 259.564 366.209L264.131 343.29L254.571 349.873C247.695 354.607 240.665 359.492 235.905 366.349C231.145 373.206 229.069 382.566 232.892 389.986" fill="#E4E4E4"/>
<path d="M234.27 419.789C233.066 411.023 231.828 402.143 232.674 393.283C233.424 385.414 235.825 377.729 240.713 371.426C243.307 368.087 246.464 365.226 250.041 362.972C250.974 362.384 251.832 363.862 250.904 364.448C244.714 368.36 239.926 374.136 237.23 380.945C234.254 388.516 233.776 396.77 234.288 404.812C234.598 409.676 235.257 414.508 235.918 419.334C235.971 419.552 235.938 419.782 235.827 419.977C235.716 420.173 235.535 420.318 235.321 420.385C235.103 420.444 234.87 420.414 234.673 420.303C234.476 420.191 234.332 420.006 234.27 419.788L234.27 419.789Z" fill="#F2F2F2"/>
<path d="M242.931 405.723C244.174 407.613 245.883 409.151 247.893 410.189C249.903 411.227 252.146 411.729 254.407 411.648C260.218 411.373 265.061 407.318 269.42 403.468L282.316 392.082L273.781 391.674C267.643 391.38 261.347 391.104 255.501 392.999C249.656 394.894 244.264 399.447 243.195 405.498" fill="#E4E4E4"/>
<path d="M230.868 424.829C236.661 414.579 243.38 403.187 255.386 399.546C258.724 398.537 262.225 398.176 265.698 398.481C266.793 398.576 266.52 400.263 265.427 400.169C259.604 399.686 253.792 401.223 248.97 404.523C244.33 407.682 240.717 412.073 237.659 416.73C235.786 419.582 234.108 422.555 232.43 425.525C231.894 426.474 230.326 425.789 230.868 424.829Z" fill="#F2F2F2"/>
<path d="M423.155 300.588H0V0H423.155V300.588Z" fill="white"/>
<path d="M34.4695 123.457C33.376 123.457 32.3273 123.891 31.5541 124.665C30.7809 125.438 30.3465 126.487 30.3465 127.58C30.3465 128.674 30.7809 129.722 31.5541 130.496C32.3273 131.269 33.376 131.703 34.4695 131.703H177.37C178.462 131.701 179.509 131.266 180.28 130.493C181.052 129.72 181.485 128.672 181.485 127.58C181.485 126.488 181.052 125.44 180.28 124.667C179.509 123.894 178.462 123.459 177.37 123.457H34.4695Z" fill="#E86100"/>
<path d="M34.4695 148.195C33.376 148.193 32.3264 148.625 31.5515 149.397C30.7767 150.168 30.3401 151.216 30.3378 152.31C30.3355 153.403 30.7677 154.453 31.5393 155.228C32.3108 156.002 33.3586 156.439 34.4521 156.441H177.475C178.569 156.441 179.618 156.007 180.391 155.234C181.164 154.461 181.598 153.412 181.598 152.318C181.598 151.225 181.164 150.176 180.391 149.403C179.618 148.63 178.569 148.195 177.475 148.195H34.4695Z" fill="#E86100"/>
<path d="M34.4695 172.58C33.376 172.577 32.3264 173.009 31.5515 173.781C30.7767 174.553 30.3401 175.6 30.3378 176.694C30.3355 177.787 30.7677 178.837 31.5393 179.612C32.3108 180.387 33.3586 180.823 34.4521 180.826H66.6366C67.7301 180.826 68.7788 180.391 69.552 179.618C70.3253 178.845 70.7596 177.796 70.7596 176.703C70.7596 175.609 70.3253 174.56 69.552 173.787C68.7788 173.014 67.7301 172.58 66.6366 172.58H34.4695Z" fill="#E86100"/>
<path d="M423.155 300.588H0V0H423.155V300.588ZM6.95597 293.632H416.199V6.95597H6.95597V293.632Z" fill="#E5E5E5"/>
<path d="M290.008 234.54C288.042 234.537 286.155 235.315 284.762 236.703C283.37 238.09 282.585 239.974 282.581 241.94C282.577 243.906 283.354 245.794 284.74 247.187C286.127 248.581 288.01 249.367 289.977 249.373H360.793C361.768 249.374 362.733 249.182 363.634 248.81C364.534 248.438 365.353 247.892 366.042 247.203C366.732 246.514 367.279 245.696 367.652 244.796C368.025 243.896 368.217 242.931 368.217 241.956C368.217 240.982 368.025 240.016 367.652 239.116C367.279 238.216 366.732 237.398 366.042 236.709C365.353 236.02 364.534 235.474 363.634 235.102C362.733 234.73 361.768 234.539 360.793 234.54H290.008Z" fill="#E4E4E4"/>
<path d="M290.008 144.725C288.042 144.722 286.155 145.5 284.762 146.888C283.37 148.276 282.585 150.159 282.581 152.126C282.577 154.092 283.354 155.979 284.74 157.372C286.127 158.766 288.01 159.552 289.977 159.558H360.793C361.768 159.559 362.733 159.368 363.634 158.995C364.534 158.623 365.353 158.077 366.042 157.388C366.732 156.699 367.279 155.881 367.652 154.981C368.025 154.081 368.217 153.116 368.217 152.141C368.217 151.167 368.025 150.202 367.652 149.301C367.279 148.401 366.732 147.583 366.042 146.894C365.353 146.205 364.534 145.659 363.634 145.287C362.733 144.915 361.768 144.724 360.793 144.725H290.008Z" fill="#E4E4E4"/>
<path d="M34.4695 237.975C33.9281 237.973 33.3917 238.079 32.891 238.285C32.3904 238.491 31.9352 238.794 31.5515 239.176C31.1679 239.558 30.8632 240.012 30.6549 240.512C30.4467 241.012 30.3389 241.548 30.3378 242.089C30.3366 242.63 30.4421 243.167 30.6483 243.667C30.8544 244.168 31.1572 244.623 31.5393 245.007C31.9213 245.391 32.3752 245.695 32.875 245.904C33.3748 246.112 33.9107 246.22 34.4521 246.221H177.475C178.569 246.221 179.618 245.786 180.391 245.013C181.164 244.24 181.598 243.191 181.598 242.098C181.598 241.004 181.164 239.955 180.391 239.182C179.618 238.409 178.569 237.975 177.475 237.975H34.4695Z" fill="#E4E4E4"/>
<path d="M34.4695 262.359C33.9281 262.358 33.3917 262.463 32.891 262.669C32.3904 262.876 31.9352 263.178 31.5515 263.56C31.1679 263.942 30.8632 264.396 30.655 264.896C30.4467 265.396 30.3389 265.932 30.3378 266.473C30.3366 267.015 30.4421 267.551 30.6483 268.052C30.8544 268.552 31.1572 269.008 31.5393 269.391C31.9213 269.775 32.3752 270.08 32.875 270.288C33.3748 270.496 33.9107 270.604 34.4521 270.605H66.6366C67.7301 270.605 68.7788 270.171 69.552 269.397C70.3253 268.624 70.7596 267.575 70.7596 266.482C70.7596 265.388 70.3253 264.34 69.552 263.567C68.7788 262.793 67.7301 262.359 66.6366 262.359H34.4695Z" fill="#E4E4E4"/>
<path d="M34.4695 213.236C33.376 213.236 32.3273 213.671 31.5541 214.444C30.7809 215.217 30.3465 216.266 30.3465 217.359C30.3465 218.453 30.7809 219.502 31.5541 220.275C32.3273 221.048 33.376 221.482 34.4695 221.482H177.37C178.462 221.48 179.509 221.045 180.28 220.272C181.052 219.499 181.485 218.452 181.485 217.359C181.485 216.267 181.052 215.22 180.28 214.447C179.509 213.674 178.462 213.238 177.37 213.236H34.4695Z" fill="#E4E4E4"/>
<path d="M34.4695 33.6772C33.376 33.6772 32.3273 34.1116 31.5541 34.8849C30.7809 35.6581 30.3465 36.7068 30.3465 37.8003C30.3465 38.8938 30.7809 39.9425 31.5541 40.7157C32.3273 41.4889 33.376 41.9233 34.4695 41.9233H177.37C178.462 41.9213 179.509 41.486 180.28 40.713C181.052 39.94 181.485 38.8924 181.485 37.8003C181.485 36.7081 181.052 35.6606 180.28 34.8876C179.509 34.1146 178.462 33.6793 177.37 33.6772H34.4695Z" fill="#E4E4E4"/>
<path d="M34.4695 58.4155C33.9281 58.4144 33.3917 58.5199 32.891 58.7261C32.3904 58.9322 31.9352 59.2349 31.5515 59.617C31.1679 59.9991 30.8632 60.4529 30.6549 60.9527C30.4467 61.4525 30.3389 61.9884 30.3378 62.5299C30.3366 63.0713 30.4421 63.6077 30.6483 64.1084C30.8544 64.609 31.1572 65.0642 31.5393 65.4479C31.9213 65.8315 32.3752 66.1362 32.875 66.3445C33.3748 66.5527 33.9107 66.6605 34.4521 66.6616H177.475C178.017 66.6616 178.553 66.555 179.053 66.3478C179.553 66.1406 180.008 65.8369 180.391 65.454C180.774 65.0712 181.077 64.6166 181.285 64.1164C181.492 63.6162 181.598 63.08 181.598 62.5386C181.598 61.9971 181.492 61.461 181.285 60.9608C181.077 60.4605 180.774 60.006 180.391 59.6231C180.008 59.2403 179.553 58.9366 179.053 58.7294C178.553 58.5222 178.017 58.4155 177.475 58.4155H34.4695Z" fill="#E4E4E4"/>
<path d="M34.4695 82.8003C33.376 82.798 32.3264 83.2302 31.5515 84.0018C30.7767 84.7733 30.3401 85.8211 30.3378 86.9146C30.3355 88.0081 30.7677 89.0578 31.5393 89.8326C32.3108 90.6075 33.3586 91.0441 34.4521 91.0464H66.6366C67.7301 91.0464 68.7788 90.612 69.552 89.8388C70.3253 89.0655 70.7596 88.0168 70.7596 86.9233C70.7596 85.8298 70.3253 84.7811 69.552 84.0079C68.7788 83.2347 67.7301 82.8003 66.6366 82.8003H34.4695Z" fill="#E4E4E4"/>
<path d="M290.008 54.9805C288.042 54.9778 286.155 55.7558 284.762 57.1436C283.37 58.5314 282.585 60.4153 282.581 62.3814C282.577 64.3474 283.354 66.2346 284.74 67.6283C286.127 69.0219 288.01 69.8079 289.977 69.8135H360.793C361.768 69.8145 362.733 69.6234 363.634 69.2511C364.534 68.8788 365.353 68.3327 366.042 67.6439C366.732 66.9551 367.279 66.1372 367.652 65.2369C368.025 64.3366 368.217 63.3716 368.217 62.397C368.217 61.4224 368.025 60.4574 367.652 59.5571C367.279 58.6568 366.732 57.8389 366.042 57.1501C365.353 56.4613 364.534 55.9152 363.634 55.5429C362.733 55.1706 361.768 54.9795 360.793 54.9805H290.008Z" fill="#E4E4E4"/>
<path d="M304.927 75.6272C312.272 75.6272 318.227 69.6723 318.227 62.3265C318.227 54.9808 312.272 49.0259 304.927 49.0259C297.581 49.0259 291.626 54.9808 291.626 62.3265C291.626 69.6723 297.581 75.6272 304.927 75.6272Z" fill="#CACACA"/>
<path d="M328.173 155.358C328.026 156.425 328.114 157.512 328.433 158.542C328.751 159.572 329.291 160.52 330.015 161.318C330.739 162.117 331.629 162.747 332.623 163.164C333.617 163.581 334.69 163.775 335.767 163.733L342.83 179.029L353.172 177.004L342.894 155.543C342.703 153.738 341.857 152.067 340.515 150.844C339.174 149.622 337.431 148.935 335.616 148.912C333.802 148.889 332.042 149.532 330.67 150.72C329.298 151.908 328.41 153.558 328.173 155.358Z" fill="#FFB6B6"/>
<path d="M399.725 213.242L370.907 198.988L350.571 164.475L336.357 171.35L354.804 211.221L401.403 238.121L399.725 213.242Z" fill="#3F3D56"/>
<path d="M334.664 417.268L325.605 417.267L321.295 391.148L334.666 391.149L334.664 417.268Z" fill="#FFB6B6"/>
<path d="M336.975 426.049L307.764 426.048V425.679C307.765 422.664 308.963 419.772 311.095 417.64C313.227 415.508 316.119 414.31 319.134 414.31H319.135L336.975 414.31L336.975 426.049Z" fill="#2F2E41"/>
<path d="M425.09 400.653L418.77 407.142L397.051 392.006L406.38 382.428L425.09 400.653Z" fill="#FFB6B6"/>
<path d="M432.993 405.125L412.612 426.049L412.347 425.792C410.188 423.688 408.952 420.812 408.912 417.797C408.872 414.782 410.032 411.874 412.135 409.714L424.584 396.934L432.993 405.125Z" fill="#2F2E41"/>
<path d="M345.864 261.82H339.599C323.31 279.619 310.877 300.593 303.079 323.425L295.594 345.341L322.271 401.196L338.917 401.493L319.891 342.193L339.059 316.774L340.026 367.872L401.72 400.21L414.068 381.97L363.865 354.518L372.414 311.055C372.414 311.055 389.616 296.711 379.599 274.286L345.864 261.82Z" fill="#2F2E41"/>
<path d="M428.327 204.939L402.291 193.536L373.634 206.235C373.634 206.235 365.519 210.851 370.691 222.674L339.599 261.821C339.599 261.821 339.656 261.837 378.732 274.286L413.987 243.239C419.34 238.525 423.449 232.564 425.95 225.884C428.451 219.204 429.268 212.01 428.327 204.939Z" fill="#3F3D56"/>
<path d="M423.958 193.199C433.981 193.199 442.106 185.074 442.106 175.051C442.106 165.027 433.981 156.902 423.958 156.902C413.934 156.902 405.809 165.027 405.809 175.051C405.809 185.074 413.934 193.199 423.958 193.199Z" fill="#FFB6B6"/>
<path d="M447.461 150.966C443.296 147.578 436.836 146.838 432.536 150.054C425.037 146.118 414.902 148.171 409.526 154.715C407.591 157.071 406.221 160.257 407.178 163.15C408.135 166.044 412.263 167.745 414.415 165.586L414.377 166.475C416.315 168.416 417.658 170.87 418.25 173.548C418.841 176.227 418.656 179.018 417.715 181.595C416.774 184.171 415.118 186.426 412.94 188.093C410.762 189.76 408.153 190.771 405.42 191.006C411.368 193.409 417.315 195.811 423.262 198.214C425.765 199.225 428.347 200.252 431.045 200.238C433.744 200.224 436.621 198.913 437.668 196.426C438.421 198.734 439.174 201.042 439.927 203.35C444.36 196.297 448.006 188.78 450.8 180.933C452.601 175.874 454.056 170.584 453.862 165.219C453.667 159.853 451.626 154.355 447.461 150.966Z" fill="#2F2E41"/>
<path d="M304.927 255.186C312.272 255.186 318.227 249.231 318.227 241.886C318.227 234.54 312.272 228.585 304.927 228.585C297.581 228.585 291.626 234.54 291.626 241.886C291.626 249.231 297.581 255.186 304.927 255.186Z" fill="#CACACA"/>
<path d="M346.306 165.442C353.652 165.442 359.607 159.487 359.607 152.141C359.607 144.796 353.652 138.841 346.306 138.841C338.961 138.841 333.006 144.796 333.006 152.141C333.006 159.487 338.961 165.442 346.306 165.442Z" fill="#E86100"/>
<path d="M346.647 147.968C346.499 149.036 346.588 150.123 346.906 151.153C347.224 152.183 347.764 153.13 348.488 153.929C349.212 154.727 350.102 155.357 351.096 155.775C352.09 156.192 353.163 156.386 354.24 156.344L361.303 171.64L371.645 169.615L361.367 148.154C361.176 146.349 360.33 144.677 358.988 143.455C357.647 142.233 355.904 141.545 354.089 141.523C352.275 141.5 350.515 142.143 349.143 143.331C347.771 144.519 346.883 146.169 346.647 147.968Z" fill="#FFB6B6"/>
<path d="M418.198 205.853L389.38 191.598L369.044 157.085L354.83 163.961L373.277 203.831L419.877 230.731L418.198 205.853Z" fill="#3F3D56"/>
<path d="M499.261 426.617H217.731C217.535 426.617 217.347 426.539 217.208 426.401C217.069 426.262 216.992 426.074 216.992 425.878C216.992 425.682 217.069 425.494 217.208 425.356C217.347 425.217 217.535 425.139 217.731 425.139H499.261C499.457 425.139 499.645 425.217 499.784 425.356C499.922 425.494 500 425.682 500 425.878C500 426.074 499.922 426.262 499.784 426.401C499.645 426.539 499.457 426.617 499.261 426.617Z" fill="#CACACA"/>
</g>
<defs>
<clipPath id="clip0_135_1245">
<rect width="500" height="426.617" fill="white"/>
</clipPath>
</defs>
</svg>
