<svg width="500" height="398" viewBox="0 0 500 398" fill="none" xmlns="http://www.w3.org/2000/svg">
<g clip-path="url(#clip0_135_1222)">
<path d="M372.981 392.528C366.061 386.679 361.857 377.441 362.959 368.448C364.062 359.454 370.89 351.187 379.747 349.277C388.604 347.367 398.701 352.654 401.391 361.306C402.872 344.625 404.578 327.245 413.446 313.04C421.477 300.177 435.386 290.973 450.46 289.327C465.534 287.68 481.404 293.899 490.806 305.796C500.207 317.694 502.508 334.991 495.924 348.651C491.074 358.713 482.138 366.202 472.775 372.294C442.52 391.815 406.233 399.753 370.591 394.649" fill="#F2F2F2"/>
<path d="M475.899 294.243C463.461 304.374 452.051 315.705 441.833 328.071C425.842 347.358 412.902 368.982 403.463 392.191C402.772 393.884 405.521 394.621 406.205 392.946C421.648 355.228 446.301 321.984 477.91 296.254C479.329 295.098 477.307 293.097 475.899 294.243Z" fill="white"/>
<path d="M122.244 396.53H82.9935C81.6672 396.528 80.3957 396.001 79.4579 395.063C78.5201 394.125 77.9925 392.854 77.991 391.528V309.948C77.9925 308.622 78.5201 307.351 79.4579 306.413C80.3957 305.475 81.6672 304.947 82.9935 304.946H122.244C123.57 304.947 124.842 305.475 125.78 306.413C126.717 307.351 127.245 308.622 127.246 309.948V391.528C127.245 392.854 126.717 394.125 125.78 395.063C124.842 396.001 123.57 396.528 122.244 396.53Z" fill="#E86100"/>
<path d="M215.367 397.3H176.117C174.587 397.298 173.12 396.689 172.037 395.607C170.955 394.525 170.347 393.058 170.345 391.528V232.987C170.347 231.457 170.955 229.989 172.037 228.907C173.12 227.825 174.587 227.217 176.117 227.215H215.367C216.898 227.217 218.365 227.825 219.447 228.907C220.529 229.989 221.138 231.457 221.14 232.987V391.528C221.138 393.058 220.529 394.525 219.447 395.607C218.365 396.689 216.898 397.298 215.367 397.3ZM176.117 228.754C174.995 228.755 173.919 229.202 173.125 229.995C172.332 230.789 171.885 231.865 171.884 232.987V391.528C171.885 392.65 172.332 393.726 173.125 394.519C173.919 395.313 174.995 395.759 176.117 395.761H215.367C216.49 395.759 217.566 395.313 218.359 394.519C219.153 393.726 219.599 392.65 219.6 391.528V232.987C219.599 231.865 219.153 230.789 218.359 229.995C217.566 229.202 216.49 228.755 215.367 228.754H176.117Z" fill="#3F3D56"/>
<path d="M308.491 397.3H269.24C267.71 397.298 266.243 396.689 265.161 395.607C264.079 394.525 263.47 393.058 263.468 391.527V132.167C263.47 130.637 264.079 129.17 265.161 128.088C266.243 127.005 267.71 126.397 269.24 126.395H308.491C310.021 126.397 311.488 127.005 312.57 128.088C313.653 129.17 314.261 130.637 314.263 132.167V391.527C314.261 393.058 313.653 394.525 312.57 395.607C311.488 396.689 310.021 397.298 308.491 397.3ZM269.24 127.934C268.118 127.936 267.042 128.382 266.249 129.175C265.455 129.969 265.009 131.045 265.007 132.167V391.527C265.009 392.65 265.455 393.726 266.249 394.519C267.042 395.313 268.118 395.759 269.24 395.76H308.491C309.613 395.759 310.689 395.313 311.482 394.519C312.276 393.726 312.722 392.65 312.724 391.527V132.167C312.722 131.045 312.276 129.969 311.482 129.175C310.689 128.382 309.613 127.936 308.491 127.934H269.24Z" fill="#3F3D56"/>
<path d="M402.483 396.915H363.233C361.907 396.913 360.635 396.386 359.697 395.448C358.76 394.51 358.232 393.239 358.231 391.912V26.3453C358.232 25.019 358.76 23.7475 359.697 22.8097C360.635 21.8718 361.907 21.3443 363.233 21.3428H402.483C403.81 21.3443 405.081 21.8718 406.019 22.8097C406.957 23.7475 407.484 25.019 407.486 26.3453V391.912C407.484 393.239 406.957 394.51 406.019 395.448C405.081 396.386 403.81 396.913 402.483 396.915Z" fill="#E86100"/>
<path d="M158.371 171.13C158.513 170.008 158.408 168.868 158.062 167.791C157.716 166.714 157.138 165.725 156.369 164.895C155.6 164.066 154.658 163.415 153.611 162.988C152.563 162.562 151.434 162.37 150.304 162.427L136.623 137.331L133.544 148.105L142.917 171.106C143.139 172.998 144.047 174.743 145.469 176.01C146.891 177.277 148.728 177.979 150.633 177.982C152.538 177.985 154.378 177.289 155.804 176.026C157.23 174.764 158.143 173.022 158.371 171.13Z" fill="#A0616A"/>
<path d="M52.9619 270.222L60.5818 275.786L85.6674 249.039L74.4203 240.828L52.9619 270.222Z" fill="#A0616A"/>
<path d="M70.1128 293.591L46.1624 276.106L52.918 266.852L67.6148 277.582C70.069 279.373 71.711 282.067 72.1794 285.069C72.6479 288.071 71.9045 291.137 70.1128 293.591Z" fill="#2F2E41"/>
<path d="M93.2781 299.671L102.714 299.67L107.202 263.276L93.2766 263.277L93.2781 299.671Z" fill="#A0616A"/>
<path d="M120.911 308.431L91.2569 308.432L91.2564 296.975L109.453 296.974C112.492 296.974 115.406 298.181 117.555 300.329C119.703 302.478 120.911 305.392 120.911 308.431Z" fill="#2F2E41"/>
<path d="M121.615 157.725C121.615 157.725 126.233 202.363 114.689 233.148L106.223 291.638H91.6003L93.1395 222.373L87.7522 160.804C87.7522 160.804 98.5268 133.098 121.615 157.725Z" fill="#2F2E41"/>
<path d="M71.5904 160.803L86.9827 213.907L56.9677 261.623L71.9752 274.322L106.223 220.833L96.2181 155.416L71.5904 160.803Z" fill="#2F2E41"/>
<path d="M110.844 41.724C121.283 41.724 129.746 33.2611 129.746 22.8215C129.746 12.3819 121.283 3.91895 110.844 3.91895C100.404 3.91895 91.9412 12.3819 91.9412 22.8215C91.9412 33.2611 100.404 41.724 110.844 41.724Z" fill="#A0616A"/>
<path d="M95.0635 48.8248C95.0635 48.8248 106.608 41.1286 119.691 58.0601L123.154 164.652C123.154 164.652 113.149 150.799 92.3699 163.882C71.5902 176.966 66.9726 162.343 66.9726 162.343C66.9726 162.343 52.3499 52.288 95.0635 48.8248Z" fill="#CCCCCC"/>
<path d="M118.76 57.7916C122.08 57.9711 125.217 59.372 127.566 61.7248C129.916 64.0777 131.312 67.2162 131.487 70.5367L133.929 116.936L150.091 160.804L140.856 168.5L110.841 116.166L104.695 73.1501C104.414 71.1785 104.573 69.1689 105.161 67.2661C105.749 65.3633 106.752 63.6146 108.097 62.1458C109.442 60.677 111.096 59.5247 112.94 58.7718C114.784 58.0189 116.771 57.6841 118.76 57.7916Z" fill="#CCCCCC"/>
<path d="M96.9544 37.0003C100.045 40.2921 105.784 38.525 106.186 34.028C106.218 33.6789 106.216 33.3275 106.179 32.9788C105.971 30.9868 104.821 29.1784 105.096 27.0751C105.159 26.5517 105.354 26.0528 105.663 25.6259C108.125 22.3284 113.906 27.1008 116.23 24.1156C117.655 22.2852 115.98 19.4033 117.074 17.3575C118.517 14.6574 122.792 15.9894 125.473 14.5107C128.456 12.8654 128.277 8.28889 126.314 5.50523C123.919 2.11046 119.721 0.298973 115.575 0.0378812C111.428 -0.223211 107.311 0.897609 103.44 2.4061C99.042 4.12003 94.6807 6.48876 91.9743 10.3559C88.6829 15.0588 88.3662 21.3814 90.0122 26.8806C91.0136 30.2258 94.4309 34.3123 96.9544 37.0003Z" fill="#2F2E41"/>
<path d="M499.084 396.973H0.916392C0.673816 396.972 0.441409 396.875 0.27013 396.704C0.0988504 396.532 0.00268555 396.299 0.00268555 396.056C0.00268555 395.814 0.0988504 395.581 0.27013 395.409C0.441409 395.238 0.673816 395.141 0.916392 395.14H499.084C499.326 395.141 499.559 395.238 499.73 395.409C499.901 395.581 499.997 395.814 499.997 396.056C499.997 396.299 499.901 396.532 499.73 396.704C499.559 396.875 499.326 396.972 499.084 396.973Z" fill="#3F3D56"/>
</g>
<defs>
<clipPath id="clip0_135_1222">
<rect width="500" height="397.3" fill="white"/>
</clipPath>
</defs>
</svg>
