<svg width="500" height="487" viewBox="0 0 500 487" fill="none" xmlns="http://www.w3.org/2000/svg">
<g clip-path="url(#clip0_135_1183)">
<path d="M193.051 443.042L180.03 455.03L190.378 437.667C182.225 422.883 168.892 410.105 168.892 410.105C168.892 410.105 141.229 436.608 141.229 457.441C141.229 478.274 153.614 485.548 168.892 485.548C184.169 485.548 196.554 478.274 196.554 457.441C196.554 452.804 195.181 447.886 193.051 443.042Z" fill="#F2F2F2"/>
<path d="M176.681 455.679V456.705C176.62 468.642 174.607 477.955 170.657 484.513C170.601 484.609 170.54 484.701 170.484 484.797L170.042 484.528L169.62 484.263C174.002 477.182 175.553 467.173 175.609 456.761C175.614 456.426 175.619 456.085 175.614 455.745C175.599 451.337 175.329 446.879 174.897 442.548C174.867 442.212 174.831 441.871 174.795 441.531C174.196 435.817 173.331 430.357 172.447 425.614C172.386 425.279 172.32 424.943 172.254 424.613C170.723 416.591 169.163 410.78 168.807 409.494C168.766 409.337 168.741 409.25 168.736 409.23L169.219 409.093L169.224 409.087L169.712 408.95C169.717 408.971 169.803 409.26 169.946 409.799C170.49 411.812 171.903 417.277 173.291 424.486C173.352 424.811 173.418 425.147 173.479 425.482C174.201 429.33 174.907 433.631 175.466 438.145C175.609 439.279 175.736 440.397 175.848 441.5C175.888 441.841 175.924 442.182 175.954 442.517C176.422 447.199 176.664 451.586 176.681 455.679Z" fill="white"/>
<path d="M173.291 424.485C172.95 424.531 172.604 424.577 172.254 424.613C171.301 424.711 170.344 424.76 169.386 424.76C165.305 424.765 161.275 423.855 157.592 422.096C157.379 422.366 157.165 422.635 156.947 422.91C160.821 424.801 165.076 425.781 169.386 425.777C170.409 425.776 171.43 425.722 172.447 425.614C172.792 425.578 173.138 425.533 173.479 425.482C176.29 425.079 179.024 424.251 181.587 423.026C181.368 422.747 181.155 422.472 180.947 422.203C178.521 423.337 175.941 424.106 173.291 424.485Z" fill="white"/>
<path d="M175.848 441.5C175.497 441.52 175.146 441.531 174.795 441.531C174.689 441.536 174.577 441.536 174.47 441.536C170.048 441.536 165.691 440.467 161.772 438.419C157.852 436.372 154.486 433.407 151.96 429.777C151.757 430.077 151.553 430.377 151.355 430.682C153.988 434.355 157.458 437.347 161.478 439.411C165.498 441.475 169.951 442.552 174.47 442.552C174.612 442.552 174.755 442.552 174.897 442.547C175.253 442.542 175.604 442.532 175.954 442.517C181.382 442.239 186.615 440.403 191.027 437.23C190.865 436.93 190.702 436.63 190.534 436.33C186.246 439.446 181.142 441.243 175.848 441.5Z" fill="white"/>
<path d="M176.681 455.678C176.326 455.709 175.97 455.729 175.614 455.744C175.233 455.76 174.851 455.77 174.47 455.77C168.528 455.763 162.748 453.831 157.995 450.265C153.243 446.698 149.773 441.688 148.107 435.984C147.878 436.396 147.649 436.803 147.43 437.215C149.308 442.905 152.932 447.859 157.786 451.372C162.64 454.886 168.478 456.78 174.47 456.786C174.851 456.786 175.233 456.781 175.609 456.761C175.97 456.751 176.326 456.731 176.681 456.705C183.869 456.143 190.574 452.87 195.44 447.55C195.333 447.173 195.211 446.802 195.089 446.426C190.39 451.786 183.787 455.105 176.681 455.678Z" fill="white"/>
<path d="M499.276 26.0492H0.723593C0.532117 26.0486 0.348724 25.9721 0.213564 25.8364C0.0784032 25.7008 0.00250244 25.5171 0.00250244 25.3256C0.00250244 25.1342 0.0784032 24.9505 0.213564 24.8149C0.348724 24.6792 0.532117 24.6027 0.723593 24.6021H499.276C499.468 24.6027 499.651 24.6792 499.786 24.8149C499.922 24.9505 499.998 25.1342 499.998 25.3256C499.998 25.5171 499.922 25.7008 499.786 25.8364C499.651 25.9721 499.468 26.0486 499.276 26.0492Z" fill="#CACACA"/>
<path d="M17.01 15.9189C21.4059 15.9189 24.9695 12.3554 24.9695 7.95947C24.9695 3.56358 21.4059 0 17.01 0C12.6141 0 9.05054 3.56358 9.05054 7.95947C9.05054 12.3554 12.6141 15.9189 17.01 15.9189Z" fill="#3F3D56"/>
<path d="M44.5064 15.9189C48.9023 15.9189 52.4659 12.3554 52.4659 7.95947C52.4659 3.56358 48.9023 0 44.5064 0C40.1105 0 36.5469 3.56358 36.5469 7.95947C36.5469 12.3554 40.1105 15.9189 44.5064 15.9189Z" fill="#3F3D56"/>
<path d="M72.0028 15.9189C76.3987 15.9189 79.9623 12.3554 79.9623 7.95947C79.9623 3.56358 76.3987 0 72.0028 0C67.6069 0 64.0433 3.56358 64.0433 7.95947C64.0433 12.3554 67.6069 15.9189 72.0028 15.9189Z" fill="#3F3D56"/>
<path d="M482.802 4.86848H463.265C462.882 4.86715 462.515 4.7141 462.245 4.44285C461.975 4.1716 461.823 3.80425 461.823 3.4213C461.823 3.03835 461.975 2.67101 462.245 2.39976C462.515 2.1285 462.882 1.97545 463.265 1.97413H482.802C482.992 1.97347 483.181 2.01042 483.357 2.08285C483.533 2.15528 483.694 2.26178 483.829 2.39623C483.963 2.53067 484.07 2.69043 484.144 2.86633C484.217 3.04224 484.254 3.23084 484.254 3.4213C484.254 3.61177 484.217 3.80037 484.144 3.97627C484.07 4.15218 483.963 4.31193 483.829 4.44638C483.694 4.58083 483.533 4.68732 483.357 4.75976C483.181 4.83219 482.992 4.86913 482.802 4.86848Z" fill="#3F3D56"/>
<path d="M482.802 10.2952H463.265C462.882 10.2939 462.515 10.1409 462.245 9.86961C461.975 9.59835 461.823 9.23101 461.823 8.84806C461.823 8.46511 461.975 8.09777 462.245 7.82651C462.515 7.55526 462.882 7.40221 463.265 7.40089H482.802C482.992 7.40023 483.181 7.43717 483.357 7.50961C483.533 7.58204 483.694 7.68854 483.829 7.82298C483.963 7.95743 484.07 8.11718 484.144 8.29309C484.217 8.469 484.254 8.65759 484.254 8.84806C484.254 9.03853 484.217 9.22713 484.144 9.40303C484.07 9.57894 483.963 9.73869 483.829 9.87314C483.694 10.0076 483.533 10.1141 483.357 10.1865C483.181 10.2589 482.992 10.2959 482.802 10.2952Z" fill="#3F3D56"/>
<path d="M482.802 15.7225H463.265C462.882 15.7212 462.515 15.5681 462.245 15.2969C461.975 15.0256 461.823 14.6583 461.823 14.2753C461.823 13.8924 461.975 13.525 462.245 13.2538C462.515 12.9825 462.882 12.8295 463.265 12.8281H482.802C482.992 12.8275 483.181 12.8644 483.357 12.9369C483.533 13.0093 483.694 13.1158 483.829 13.2502C483.963 13.3847 484.07 13.5444 484.144 13.7203C484.217 13.8963 484.254 14.0848 484.254 14.2753C484.254 14.4658 484.217 14.6544 484.144 14.8303C484.07 15.0062 483.963 15.1659 483.829 15.3004C483.694 15.4348 483.533 15.5413 483.357 15.6138C483.181 15.6862 482.992 15.7232 482.802 15.7225Z" fill="#3F3D56"/>
<path d="M471.9 58.7725H15.0193V300.834H471.9V58.7725Z" fill="#F0F0F0"/>
<path d="M471.9 104.082V101.709H382.963V58.7725H380.589V101.709H291.652V58.7725H289.279V101.709H200.342V58.7725H197.968V101.709H109.031V58.7725H106.658V101.709H15.0193V104.082H106.658V151.516H15.0193V153.89H106.658V201.323H15.0193V203.697H106.658V251.122H15.0193V253.496H106.658V300.834H109.031V253.496H197.968V300.834H200.342V253.496H289.279V300.834H291.652V253.496H380.589V300.834H382.963V253.496H471.9V251.122H382.963V203.697H471.9V201.323H382.963V153.89H471.9V151.516H382.963V104.082L471.9 104.082ZM197.968 251.122H109.031V203.697H197.968V251.122ZM197.968 201.323H109.031V153.89H197.968V201.323ZM197.968 151.516H109.031V104.082H197.968V151.516ZM289.279 251.122H200.342V203.697H289.279V251.122ZM289.279 201.323H200.342V153.89H289.279V201.323ZM289.279 151.516H200.342V104.083H289.279V151.516ZM380.589 251.122H291.652V203.697H380.589V251.122ZM380.589 201.323H291.652V153.89H380.589V201.323ZM380.589 151.516H291.652V104.083H380.589V151.516Z" fill="white"/>
<path d="M157.289 115.618H126.724V145.209H157.289V115.618Z" fill="#CACACA"/>
<path d="M438.696 211.435H408.131V241.026H438.696V211.435Z" fill="#CACACA"/>
<path d="M166.785 260.638H136.219V290.229H166.785V260.638Z" fill="#CACACA"/>
<path d="M175.818 110.128H145.253V139.719H175.818V110.128Z" fill="#E86100"/>
<path d="M319.5 233.133L355.772 200.817L366.472 206.119L322.97 251.746L319.5 233.133Z" fill="#FFB6B6"/>
<path d="M360.545 211.923C365.313 211.923 369.178 208.059 369.178 203.291C369.178 198.524 365.313 194.659 360.545 194.659C355.778 194.659 351.913 198.524 351.913 203.291C351.913 208.059 355.778 211.923 360.545 211.923Z" fill="#FFB6B6"/>
<path d="M285.549 476.368H276.967L272.884 443.264L285.55 443.265L285.549 476.368Z" fill="#FFB6B6"/>
<path d="M287.738 484.688L260.065 484.687V484.337C260.065 481.48 261.2 478.74 263.22 476.72C265.24 474.7 267.979 473.566 270.836 473.565L287.739 473.566L287.738 484.688Z" fill="#2F2E41"/>
<path d="M254.474 476.368H245.891L241.808 443.264L254.475 443.265L254.474 476.368Z" fill="#FFB6B6"/>
<path d="M256.662 484.688L228.989 484.687V484.337C228.989 481.48 230.124 478.74 232.144 476.72C234.164 474.7 236.904 473.566 239.76 473.565L256.663 473.566L256.662 484.688Z" fill="#2F2E41"/>
<path d="M292.757 287.138C292.757 287.138 314.338 285.412 307.432 323.393C300.526 361.374 286.222 465.272 286.222 465.272L273.254 467.054L265.592 328.457L259.796 467.054L243.302 465.272L227.153 316.487C227.153 316.487 221.968 304.525 227.15 296.263C232.333 288.001 292.757 287.138 292.757 287.138Z" fill="#2F2E41"/>
<path d="M278.946 193.048L284.938 189.838C284.938 189.838 299.7 188.579 305.724 205.919L321.701 230.051L347.597 207.607L358.819 215.376L326.182 254.328L312.611 256.062L283.262 218.081L278.946 193.048Z" fill="#3F3D56"/>
<path d="M257.205 123.013C232.588 123.013 225.698 150.054 225.698 165.31C225.698 180.566 239.804 178.258 257.205 178.258C264.674 178.258 271.531 178.68 276.931 177.959L279.528 171.617L281.618 176.872C286.051 175.243 288.712 171.933 288.712 165.31C288.712 150.054 282.669 123.013 257.205 123.013Z" fill="#2F2E41"/>
<path d="M257.099 178.233C268.809 178.233 278.301 168.741 278.301 157.031C278.301 145.322 268.809 135.83 257.099 135.83C245.39 135.83 235.898 145.322 235.898 157.031C235.898 168.741 245.39 178.233 257.099 178.233Z" fill="#FFB6B6"/>
<path d="M232.603 154.951H240.989L244.688 144.593L245.428 154.951H249.436L251.594 148.909L252.026 154.951H281.806C281.806 148.999 279.442 143.29 275.233 139.081C271.024 134.872 265.315 132.508 259.363 132.508H255.047C249.094 132.508 243.386 134.872 239.177 139.081C234.968 143.29 232.603 148.999 232.603 154.951Z" fill="#2F2E41"/>
<path d="M374.357 170.553H343.791V200.144H374.357V170.553Z" fill="#E86100"/>
<path d="M299.466 279.327C296.21 279.369 286.405 221.19 286.405 221.19L284.938 189.838L274.224 189.478V188.773C274.224 187.358 273.662 186.001 272.661 185C271.661 184 270.304 183.438 268.889 183.438H248.484C247.129 183.438 245.824 183.955 244.837 184.883C243.849 185.811 243.251 187.081 243.166 188.434L234.764 188.151L220.214 234.38C220.214 234.38 233.622 277.333 227.151 296.263C227.151 296.263 290.198 301.677 302.268 289.66C302.268 289.66 302.721 279.285 299.466 279.327Z" fill="#3F3D56"/>
<path d="M238.375 193.911L234.764 188.151C234.764 188.151 223.016 185.247 218.179 193.032C213.342 200.817 199.125 242.999 199.125 242.999L213.799 248.179L230.452 224.833L238.375 193.911Z" fill="#3F3D56"/>
<path d="M275.088 224.072H244.522V253.663H275.088V224.072Z" fill="#E86100"/>
<path d="M221.071 234.767L210.437 233.642C209.766 235.075 209.429 236.641 209.452 238.223C209.475 239.805 209.858 241.361 210.571 242.773C211.285 244.185 212.31 245.417 213.569 246.374C214.829 247.332 216.289 247.99 217.841 248.3L259.917 256.697L255.528 243.18L221.071 234.767Z" fill="#FFB6B6"/>
<path d="M260.044 256.853C264.811 256.853 268.676 252.988 268.676 248.221C268.676 243.454 264.811 239.589 260.044 239.589C255.276 239.589 251.411 243.454 251.411 248.221C251.411 252.988 255.276 256.853 260.044 256.853Z" fill="#FFB6B6"/>
<path d="M249.268 257.116L217.213 249.791C214.89 249.254 212.745 248.126 210.986 246.517C209.227 244.908 207.913 242.872 207.172 240.606L205.876 236.611L214.195 230.064L252.308 240.717L249.268 257.116Z" fill="#3F3D56"/>
<path d="M429.395 486.425H100.511C100.283 486.425 100.063 486.334 99.9011 486.172C99.7392 486.01 99.6483 485.79 99.6483 485.561C99.6483 485.333 99.7392 485.113 99.9011 484.951C100.063 484.789 100.283 484.698 100.511 484.698H429.395C429.624 484.698 429.844 484.789 430.005 484.951C430.167 485.113 430.258 485.333 430.258 485.561C430.258 485.79 430.167 486.01 430.005 486.172C429.844 486.334 429.624 486.425 429.395 486.425Z" fill="#CACACA"/>
</g>
<defs>
<clipPath id="clip0_135_1183">
<rect width="500" height="486.425" fill="white"/>
</clipPath>
</defs>
</svg>
