<svg width="726" height="645" viewBox="0 0 726 645" fill="none" xmlns="http://www.w3.org/2000/svg">
<path d="M343.466 8.16875C348.438 -0.0372524 376.329 -3.98225 380.107 5.61575C383.889 15.1987 375.218 74.1808 367.961 76.2848C360.702 78.3928 338.489 16.3837 343.466 8.16875Z" fill="#E86100"/>
<path d="M200.395 56.244C198.381 44.074 219.414 24.546 230.035 33.616C240.655 42.681 278.461 115.582 273.82 121.911C269.178 128.246 202.409 68.415 200.395 56.244Z" fill="#E86100"/>
<path d="M200.395 56.244C198.381 44.074 219.414 24.546 230.035 33.616C240.655 42.681 278.461 115.582 273.82 121.911C269.178 128.246 202.409 68.415 200.395 56.244Z" fill="#E86100"/>
<path d="M120.443 325.57C108.534 322.351 99.489 295.126 112.148 289.221C124.808 283.316 206.818 279.154 210.654 286.012C214.496 292.859 132.353 328.789 120.443 325.57Z" fill="#E86100"/>
<path d="M95.2632 185.658C82.0802 176.993 83.9912 150.588 102.487 152.355C120.977 154.108 224.396 192.783 225.843 200.218C227.299 207.664 108.44 194.328 95.2632 185.658Z" fill="#E86100"/>
<path d="M626.689 224.38C634.688 229.056 638.924 235.343 639.393 243.246C640.228 257.261 635.997 264.534 626.699 265.087C620.389 265.462 611.379 261.927 599.677 254.469L598.917 241.639C608.036 232.633 614.137 228.271 616.879 227.075C622.673 224.546 626.689 224.38 626.689 224.38Z" fill="#E86100"/>
<path d="M619.57 327.917C623.821 338.261 623.262 347.41 617.921 355.339C608.451 369.391 599.05 373.267 589.729 366.982C583.399 362.726 577.351 352.713 571.583 336.987L580.264 324.115C595.614 322.145 604.805 322.187 608.35 322.925C614.895 324.289 619.57 327.917 619.57 327.917Z" fill="#E86100"/>
<path d="M541.387 409.398C536.745 419.579 529.699 425.439 520.264 426.97C503.541 429.66 494.274 425.469 492.487 414.369C491.262 406.84 494.432 395.578 501.957 380.619L517.278 378.14C529.212 387.995 535.255 394.348 537.36 397.289C540.873 402.196 541.387 409.398 541.387 409.398Z" fill="#E86100"/>
<path d="M336.228 399.246C332.707 399.246 320.957 396.826 317.622 365.667C317.311 362.771 317.034 360.055 316.775 357.534C316.166 351.555 315.541 345.424 314.911 341.944C309.448 342.306 302.227 343.397 293.364 345.201C291.343 345.695 285.973 347.323 273.16 351.981C257.775 357.786 254.655 358.274 252.781 358.274C245.069 358.274 237.26 354.09 228.906 345.486L227.121 343.647V340.448C227.121 333.177 230.827 327.5 237.554 324.46C250.416 318.469 274.668 313.842 311.605 310.349C311.822 310.164 312.027 309.98 312.215 309.796C310.899 297.939 310.233 286.164 310.233 274.756C310.233 232.131 319.785 196.161 338.626 167.846C360.531 134.59 392.796 117.717 434.508 117.717C453.336 117.717 471.852 121.778 489.54 129.786C513.029 140.527 524.973 155.035 525.06 172.913L525.089 179.163L518.86 195.99L511.047 185.098C493.494 160.631 468.877 148.736 435.786 148.736C424.975 148.736 413.171 151.417 400.693 156.705C387.513 162.115 377.989 168.77 372.321 176.516C365.472 185.876 358.501 200.447 351.596 219.818C344.197 240.062 340.455 255.411 340.455 265.485C340.455 267.641 340.806 272.911 342.482 285.766C343.514 294.433 344.212 300.389 344.6 303.812C347.97 306.235 349.32 306.465 349.419 306.478C349.35 306.466 350.631 306.336 355.388 305.086C361.429 303.533 362.426 303.314 363.174 303.283C371.79 302.419 389.59 301.999 417.567 301.999C435.838 301.999 453.452 302.542 469.923 303.612L469.303 317.11L470.108 324.623L404.194 328.531C381.327 329.849 363.646 334.458 351.635 342.234L349.84 343.397C349.267 345.751 348.924 350.836 349.596 361.57C350.107 369.712 349.63 388.985 349.611 389.8L349.571 391.357L348.816 392.716C346.641 396.623 341.582 399.246 336.228 399.246Z" fill="#E86100"/>
<path d="M9.90757 568.631C10.6145 568.749 11.3214 568.749 11.9105 568.984C13.9135 569.455 17.9195 569.572 18.5086 565.453C18.862 563.217 17.6838 561.922 16.27 561.216C15.4452 560.862 14.5026 560.745 13.56 560.627C12.264 560.392 11.0858 560.156 9.78975 559.921L11.0858 530.142C12.7353 530.024 14.267 530.024 15.9165 530.142C16.6234 530.142 17.2125 530.26 17.9195 530.26C18.7442 530.26 19.569 530.495 20.3937 530.378C22.3967 530.26 25.6957 528.73 25.1066 525.199C24.871 523.315 22.7502 521.197 20.7472 520.961C18.0373 520.608 15.3274 520.726 12.6175 520.844C10.8501 520.961 8.96499 521.55 7.19766 521.785C4.72341 522.256 2.36697 523.786 2.72043 527.2C2.83825 528.965 3.19172 530.731 3.0739 532.378C2.72043 539.911 2.13132 547.444 1.66004 554.977C1.18875 562.981 2.24915 570.867 1.30657 578.871C0.71746 584.638 1.18875 590.523 1.18875 596.409C1.18875 600.881 0.953104 605.472 0.953104 610.062C0.953104 613.711 1.30657 617.477 1.18875 621.244C0.953104 626.894 0.363995 632.661 0.010529 638.311C-0.107293 640.194 0.71746 643.96 4.84123 643.019C6.60856 642.548 8.37588 640.782 8.72935 638.899C9.20064 636.781 9.08282 634.544 9.08282 632.308C9.20064 625.481 9.43628 618.654 9.31846 611.828C9.20064 607.12 8.72935 602.411 8.61153 597.821C8.61153 594.761 8.96499 591.701 9.08282 588.64C9.31846 581.931 9.67193 575.34 9.90757 568.631Z" fill="#E86100"/>
<path d="M47.7818 536.38C47.3105 531.319 47.0749 528.612 46.8392 525.905C46.7214 524.963 46.7214 524.139 46.4857 523.198C45.8966 521.668 44.4828 520.726 42.5976 520.726C38.2382 520.726 37.8847 524.492 37.8847 526.376C38.1204 533.202 38.4739 540.147 38.356 546.974C38.2382 554.154 37.6491 561.333 37.4135 568.631C37.2956 574.987 37.2956 581.343 37.2956 587.699C37.2956 596.409 37.4135 605.236 37.4135 614.064C37.4135 621.95 37.2956 629.954 37.06 637.84C36.9422 640.9 38.7095 643.019 41.655 643.136C44.1293 643.136 46.1323 640.076 46.1323 638.428C46.2501 630.778 46.0145 623.245 45.8966 615.712C45.7788 612.534 45.4253 609.474 45.4253 606.413C45.5432 599.469 45.8966 592.524 46.0145 585.58C46.1323 577.694 46.0145 569.926 46.2501 562.157C46.4857 552.859 46.957 543.678 47.5461 531.201L42.1263 536.851L47.7818 536.38Z" fill="#E86100"/>
<path d="M78.1752 545.326C81.2386 562.51 82.299 580.048 86.3049 597.115L71.695 596.409L78.1752 545.326ZM99.2654 640.547C100.208 639.723 100.208 638.546 100.208 638.193C100.208 637.722 100.09 637.251 100.09 636.898C99.7366 634.78 99.3832 632.661 99.0297 630.425C98.3228 624.893 97.7337 619.361 96.9089 613.711C95.7307 605.589 94.3168 597.35 92.903 589.229C91.6069 581.931 89.9574 574.751 88.7792 567.454C87.7188 560.862 87.1297 554.271 86.3049 547.68C85.3624 540.971 84.4198 534.262 83.1237 527.553C83.0059 526.376 82.4168 525.316 81.9455 524.492C81.4742 523.669 81.003 522.845 79.2356 519.314C76.2901 521.785 75.701 522.256 75.2297 522.609C74.7584 522.962 73.698 523.786 73.3445 524.963C72.5198 527.906 72.0485 530.966 71.5772 534.026C71.2237 536.969 71.1059 539.911 70.7524 542.736C69.6921 549.916 68.5138 557.096 67.5713 564.276C66.6287 572.162 65.9218 579.93 64.9792 587.816C64.2722 593.937 63.3297 599.94 62.8584 606.06C62.2693 614.064 62.0336 622.185 61.798 630.189C61.6802 633.485 61.798 636.781 61.798 641.959C68.2782 643.49 69.8099 640.076 69.9277 637.487C70.0455 634.427 69.9277 631.484 70.0455 628.541C70.1633 622.539 70.399 616.653 70.6346 610.651C70.7524 608.65 70.9881 606.649 71.1059 604.766C76.5257 603.589 81.8277 604.295 87.3653 605.707C87.4832 605.825 87.7188 605.825 87.7188 605.943C88.6614 612.887 89.604 619.949 90.3109 627.011C90.7822 630.895 90.9 634.78 91.2535 638.664C91.3713 639.841 91.9604 640.665 92.3139 641.018C92.5495 641.371 92.903 641.724 94.4347 644.078C96.7911 642.43 97.2624 642.195 97.7337 641.842C98.205 641.606 98.7941 641.136 99.2654 640.547Z" fill="#E86100"/>
<path d="M124.204 529.318C124.557 531.201 124.793 533.085 124.793 534.85C124.793 541.795 124.557 548.739 124.557 555.566C124.557 560.509 124.793 565.571 125.029 570.514C125.382 579.224 126.089 587.934 126.207 596.644C126.325 606.884 126.207 617.007 126.089 627.247C126.089 630.895 126.089 634.662 125.971 638.428C125.971 641.253 128.092 643.96 131.509 642.901C133.276 642.43 135.044 640.194 135.161 638.311C135.279 635.25 134.926 632.19 134.926 629.012C134.808 618.772 134.926 608.414 134.69 598.174C134.572 592.642 134.219 587.228 133.983 581.696C133.748 575.222 133.394 568.631 133.394 562.039C133.276 551.329 133.394 540.618 133.394 529.671C135.279 529.789 137.164 529.789 139.167 529.907C140.699 529.907 144.941 529.671 144.705 525.081C144.587 520.844 140.935 520.608 139.05 520.726C136.34 520.961 133.748 520.961 131.038 520.961C128.328 520.961 124.322 520.844 120.905 520.961C116.074 521.079 112.657 523.198 112.54 524.257C112.304 527.67 114.071 528.965 118.077 529.083C120.198 529.083 122.201 529.083 124.204 529.318Z" fill="#E86100"/>
<path d="M179.684 537.44C180.038 542.619 181.216 547.798 181.334 552.976C181.569 559.568 181.216 566.159 181.098 572.75C180.98 579.577 181.334 586.404 180.627 593.113C179.92 598.88 179.802 604.766 179.331 610.533C178.977 616.3 178.506 621.95 176.857 627.364C176.621 628.306 176.385 629.248 176.032 630.189C175.796 631.131 175.561 631.955 175.207 632.779C174.971 633.132 174.736 633.838 174.382 634.309C174.5 634.309 174.5 634.427 174.618 634.544C173.204 634.191 172.026 633.249 171.672 632.661C170.494 630.66 169.905 628.071 169.434 625.363C168.02 616.183 166.724 607.002 165.31 597.703C165.31 589.111 164.957 580.401 165.546 571.691C166.37 561.333 167.784 551.093 169.552 540.853C170.376 536.38 171.555 532.261 174.736 529.318C175.089 529.083 174.971 528.73 175.089 528.965C175.325 529.436 175.678 529.789 175.914 530.024C176.267 530.26 176.503 530.495 176.739 530.731C178.742 532.378 179.566 534.497 179.684 537.44ZM189.464 578.753C189.581 574.751 189.581 570.75 189.581 566.865C189.581 560.392 189.817 553.918 189.581 547.444C189.464 543.443 188.285 539.558 188.05 535.674C187.814 530.024 185.104 525.905 181.334 522.609C179.095 520.491 171.555 519.549 169.198 522.845C167.195 525.669 164.957 528.965 163.661 532.496C162.129 536.498 161.186 540.853 160.362 545.09C159.419 549.681 158.476 554.389 158.123 558.979C157.534 566.159 157.298 573.457 157.298 580.636C157.298 588.287 157.534 596.056 158.005 603.706C158.241 607.355 158.948 610.886 159.537 614.535H159.065C160.479 621.832 161.304 626.894 162.247 631.837C162.6 633.72 163.307 635.839 164.367 637.604C166.724 641.724 171.908 643.725 175.796 643.019C180.391 642.195 182.63 638.546 183.455 634.897C184.633 629.954 185.929 625.01 186.518 619.949C187.343 613.475 187.696 607.002 188.167 600.411C188.639 593.231 189.11 585.933 189.464 578.753Z" fill="#E86100"/>
<path d="M217.834 533.909C219.955 541.089 221.251 547.68 219.13 554.389C218.423 556.625 217.362 557.685 215.477 558.038C214.653 558.273 213.828 558.508 213.003 558.626L215.006 530.613C216.42 531.437 217.362 532.378 217.834 533.909ZM213.828 567.336C221.722 565.571 227.024 560.862 228.202 552.27C229.262 545.09 228.202 538.264 226.081 531.672C223.96 525.081 219.012 522.374 213.357 521.079C207.937 519.902 205.345 522.492 206.523 527.67C206.758 528.965 206.876 530.495 206.758 532.025C206.523 537.793 206.052 543.56 205.816 549.328C205.462 557.685 205.109 565.924 204.756 574.281C204.52 581.578 204.284 588.993 204.049 596.291C203.813 603.118 203.342 610.062 203.106 616.889C202.87 622.303 202.635 627.717 202.517 633.132C202.517 635.25 202.399 637.487 202.87 639.605C203.342 641.724 206.052 643.254 207.701 643.136C209.94 643.019 211.707 640.312 211.825 638.781C211.943 634.78 211.825 630.895 211.825 627.011C211.825 617.948 211.707 608.885 211.943 599.822C212.06 592.171 212.532 584.521 212.767 576.752C212.885 573.81 212.885 570.749 212.885 567.689C213.239 567.572 213.474 567.454 213.828 567.336Z" fill="#E86100"/>
<path d="M248.63 633.25C248.63 629.836 248.63 626.423 248.63 623.009C248.866 611.239 248.984 599.469 249.219 587.699C249.337 580.283 249.573 572.868 249.691 565.453C252.283 565.453 254.875 565.217 257.467 565.1C261.591 564.982 261.944 561.216 261.709 559.568C261.355 557.096 259.117 555.566 256.289 556.154C254.286 556.625 252.165 556.743 250.044 556.978V530.024C253.815 530.024 257.231 530.024 260.766 530.024C263.594 530.024 265.95 528.377 265.95 525.081C265.832 520.961 262.062 520.726 260.648 520.726C256.407 520.844 252.047 520.608 247.806 520.961C245.685 521.079 243.564 522.492 242.268 523.904C241.561 524.846 241.443 526.14 241.561 527.2C241.561 527.788 241.797 528.494 241.797 529.083C241.797 537.44 242.032 545.797 241.915 554.153C241.797 561.922 241.208 569.69 241.09 577.341C240.854 585.345 241.09 593.348 240.972 601.352C240.972 606.649 240.618 611.945 240.501 617.36C240.383 622.539 240.265 627.835 240.029 633.132C239.912 634.78 239.912 635.957 239.912 636.898C240.147 639.488 241.208 641.136 244.035 641.724C244.86 641.959 246.038 642.077 247.57 642.195C248.277 642.313 248.866 642.43 249.573 642.548C251.812 642.783 254.168 643.136 256.407 643.136C257.585 643.136 258.527 642.43 258.999 642.195C259.352 641.959 259.706 641.606 262.062 640.076C260.53 637.958 260.413 637.722 260.413 637.604C260.177 637.251 260.059 637.016 259.941 636.663C259.352 635.839 258.527 634.897 257.467 634.662C254.757 633.956 251.694 633.25 248.63 633.25Z" fill="#E86100"/>
<path d="M335.982 627.011C336.806 623.833 337.513 620.538 338.338 617.36C339.045 614.653 337.513 611.945 334.214 611.71C331.033 611.475 329.383 613.358 329.03 616.183C328.794 618.772 326.202 637.958 321.607 632.896C318.78 629.836 317.837 626.07 317.366 621.715C316.777 615.712 316.423 609.591 315.952 603.589C315.716 599.469 315.363 595.232 315.363 590.994C315.363 586.757 315.834 582.52 315.834 578.282C315.952 573.339 315.598 568.278 315.952 563.452C316.541 556.861 317.366 550.387 318.544 544.031C319.251 539.911 320.547 535.792 322.196 531.79C322.432 530.966 323.728 530.024 324.435 529.907C324.553 529.789 324.671 530.142 324.788 530.378C325.378 530.731 325.731 531.319 326.202 531.79C326.674 532.261 326.909 533.438 327.027 534.026C327.498 536.38 327.734 538.852 328.323 542.501C335.039 544.973 335.746 539.676 335.628 538.264C335.392 535.086 335.039 531.319 333.861 527.906C333.036 525.552 331.504 521.785 327.027 520.961C323.021 520.255 317.248 521.079 315.598 525.434C313.595 530.731 311.003 535.91 309.943 541.442C308.411 548.857 308.176 556.508 307.586 564.04C307.233 568.278 307.586 572.633 307.469 576.87C307.233 582.284 306.644 587.581 306.762 592.995C306.879 598.763 307.586 604.53 307.94 610.18C308.529 618.772 308.765 627.011 312.417 634.897C314.302 638.899 316.894 641.842 321.372 642.901C325.967 644.078 330.326 640.782 332.447 636.898C334.096 633.72 335.157 630.307 335.982 627.011Z" fill="#E86100"/>
<path d="M372.065 537.44C372.419 542.619 373.597 547.798 373.715 552.976C373.951 559.568 373.597 566.159 373.479 572.75C373.361 579.577 373.715 586.404 373.008 593.113C372.301 598.88 372.183 604.766 371.712 610.533C371.358 616.3 370.887 621.95 369.238 627.364C369.002 628.306 368.766 629.248 368.413 630.189C368.177 631.131 367.942 631.955 367.588 632.779C367.353 633.132 367.117 633.838 366.763 634.309C366.881 634.309 366.881 634.427 366.999 634.544C365.585 634.191 364.407 633.249 364.053 632.661C362.875 630.66 362.286 628.071 361.815 625.363C360.401 616.183 359.105 607.002 357.691 597.703C357.691 589.111 357.338 580.401 357.927 571.691C358.751 561.333 360.165 551.093 361.933 540.853C362.757 536.38 363.936 532.261 367.117 529.318C367.47 529.083 367.353 528.73 367.47 528.965C367.706 529.436 368.059 529.789 368.295 530.024C368.649 530.26 368.884 530.495 369.12 530.731C371.123 532.378 371.948 534.497 372.065 537.44ZM381.845 578.753C381.962 574.751 381.962 570.75 381.962 566.865C381.962 560.392 382.198 553.918 381.962 547.444C381.845 543.443 380.666 539.558 380.431 535.674C380.195 530.024 377.485 525.905 373.715 522.609C371.476 520.491 363.936 519.549 361.579 522.845C359.576 525.669 357.338 528.965 356.042 532.496C354.51 536.498 353.567 540.853 352.743 545.09C351.8 549.681 350.857 554.389 350.504 558.979C349.915 566.159 349.679 573.457 349.679 580.636C349.679 588.287 349.915 596.056 350.386 603.706C350.622 607.355 351.329 610.886 351.918 614.535H351.447C352.86 621.832 353.685 626.894 354.628 631.837C354.981 633.72 355.688 635.839 356.749 637.604C359.105 641.724 364.289 643.725 368.177 643.019C372.772 642.195 375.011 638.546 375.836 634.897C377.014 629.954 378.31 625.01 378.899 619.949C379.724 613.475 380.077 607.002 380.549 600.411C381.02 593.231 381.491 585.933 381.845 578.753Z" fill="#E86100"/>
<path d="M425.178 601.823C424.825 600.057 424.471 598.41 424.118 596.644C421.644 585.227 418.816 574.045 416.106 562.746C414.103 554.624 412.336 546.385 410.097 538.381C408.919 533.909 406.916 529.671 405.266 525.316C403.852 521.432 400.436 521.55 398.315 522.021C394.073 523.08 394.78 526.964 395.251 528.377C395.369 528.73 395.251 529.554 395.369 529.907C395.487 534.379 395.487 538.852 395.723 543.325C395.841 546.15 396.43 548.975 396.43 551.917C396.547 555.684 396.312 559.45 396.312 563.217C396.312 570.867 396.194 578.4 396.43 586.051C396.547 589.464 396.783 609.827 396.901 614.653C396.901 618.184 397.254 621.832 397.49 625.481C397.608 629.012 397.726 632.543 397.019 635.957C396.547 638.546 400.082 640.429 401.378 640.429C404.324 640.429 406.327 638.428 406.209 635.133C405.855 627.482 405.738 619.714 405.502 612.063C405.266 605.589 404.677 599.233 404.559 592.76C404.442 583.932 404.442 574.987 404.442 566.041C404.442 563.687 404.324 561.333 404.206 558.979C404.088 554.271 404.088 549.681 403.97 545.09C403.97 543.325 403.97 541.677 403.852 540.029C403.735 538.381 403.499 536.851 402.792 535.439L400.671 536.498C401.143 537.44 401.614 538.499 401.967 539.558C403.499 545.09 405.266 550.505 406.562 556.037C408.447 563.687 409.979 571.338 411.629 579.106C412.218 582.167 412.807 585.227 413.514 588.287C414.103 590.759 415.046 593.231 415.635 595.702C417.166 603.118 418.816 610.533 419.994 617.948C421.054 624.304 421.644 630.778 422.35 637.134C422.704 640.547 425.532 642.901 428.242 643.136C431.187 643.49 433.779 641.371 433.779 637.134C433.779 629.483 433.779 621.832 433.779 614.182C433.779 608.414 433.779 602.647 433.779 596.997C433.661 590.994 433.19 584.991 433.19 578.989C433.072 570.043 433.072 560.98 433.19 551.917C433.19 543.089 433.661 534.262 433.661 525.434C433.661 524.139 432.954 523.198 432.13 522.138C432.012 522.021 431.894 521.903 430.009 519.078C427.888 521.668 427.77 521.903 427.535 522.021C426.592 522.962 425.649 523.904 425.532 525.434C425.178 530.142 425.06 534.85 425.06 539.558C424.943 548.504 424.825 557.567 424.943 566.63C424.943 573.574 424.943 580.519 425.06 587.463C425.06 590.523 425.532 593.701 425.532 596.879C425.532 598.527 425.296 600.175 425.178 601.823Z" fill="#E86100"/>
<path d="M481.027 621.362C481.38 617.831 481.027 614.064 481.262 610.415C481.851 599.587 480.438 589.111 475.725 578.989C473.84 575.104 471.483 571.691 469.127 568.395C466.888 565.217 464.414 562.157 462.175 558.862C461.586 558.038 460.997 557.096 460.408 556.272C458.758 553.8 457.58 551.682 457.816 548.975C457.934 546.385 458.169 543.796 458.523 541.206C458.876 539.323 458.876 537.322 459.23 535.439C459.583 533.556 460.172 531.908 461.35 530.495C462.529 528.847 463.236 528.73 464.06 530.26C464.767 531.555 465.356 533.085 465.828 534.615C466.417 536.263 466.888 537.911 467.595 539.558C467.948 540.618 468.302 541.559 469.009 542.501C470.187 543.796 474.075 543.56 474.664 541.089C474.9 540.029 474.9 538.734 474.664 537.557C474.546 536.851 474.311 536.027 474.075 535.321C473.84 534.733 473.722 534.262 473.722 534.026C473.368 528.847 471.247 524.139 466.063 521.785C463.943 520.726 459.465 520.02 456.991 521.903C454.399 523.904 453.103 527.553 452.396 530.142C451.336 534.615 450.864 539.441 450.157 544.031C450.04 545.09 449.804 546.267 449.568 547.327C449.333 548.504 449.215 549.798 449.568 551.093C451.218 557.449 454.752 562.863 458.523 567.689C461.704 571.809 465.592 575.928 467.595 580.872C468.302 582.755 469.245 584.638 470.069 586.522C470.894 588.287 471.483 590.053 471.837 591.701C473.486 600.41 473.84 609.238 473.133 618.184C472.779 623.716 471.837 628.541 468.655 632.543C466.888 634.78 465.592 634.897 464.649 634.427C461.586 632.661 459.465 630.189 458.758 626.894C458.051 624.069 457.816 621.126 457.344 618.301C457.109 616.536 455.931 613.829 452.396 614.417C449.097 615.006 448.508 617.595 448.979 619.831C449.568 622.185 449.686 624.657 450.275 627.011C451.453 631.484 452.985 636.427 457.58 639.723C459.23 640.9 460.408 642.195 462.411 642.783C468.891 644.431 473.133 640.429 475.843 636.898C479.613 632.19 480.438 626.423 481.027 621.362Z" fill="#E86100"/>
<path d="M512.227 594.172C512.227 594.761 512.227 595.467 512.11 596.056C511.403 604.412 510.931 612.769 509.871 621.008C509.518 623.362 509.046 625.599 508.339 627.717C507.75 629.483 507.279 631.131 506.69 632.896C506.572 632.543 506.572 632.19 506.454 631.719C506.219 630.542 506.219 629.365 505.865 628.188C503.391 619.125 503.155 609.591 502.566 600.293C502.095 591.583 502.802 582.755 502.919 574.045C503.037 568.278 503.037 562.51 503.037 556.743C503.155 546.385 503.391 536.027 503.391 525.669C503.391 523.904 502.919 520.726 499.267 520.726C497.146 520.726 495.968 522.138 495.615 523.433C495.379 524.022 495.379 524.61 495.379 524.963C495.379 525.199 495.379 525.434 495.379 525.669C495.261 526.729 495.379 527.788 495.379 528.847C495.379 529.671 495.497 530.495 495.497 531.319C495.379 538.617 495.261 545.914 495.143 553.33C495.143 555.33 494.79 557.331 494.79 559.332C494.672 565.571 494.79 571.927 494.672 578.282C494.436 585.462 493.729 592.76 493.965 599.94C494.318 607.826 495.025 615.712 496.086 623.598C496.793 629.483 497.382 635.133 500.799 640.312C503.273 643.96 511.638 644.431 513.759 639.605C514.937 636.781 515.998 633.838 516.705 630.895C517.529 627.247 517.883 623.598 518.354 619.949C518.943 615.476 519.415 611.121 519.65 606.766C520.239 595.938 520.593 585.109 521.064 574.281C521.418 565.217 521.889 556.037 522.36 546.856C522.714 540.618 522.949 534.497 523.42 528.259C523.538 526.14 523.42 522.727 519.061 522.374C514.82 522.021 514.348 525.081 514.23 527.553C514.113 533.791 513.877 540.029 513.641 546.267C513.406 550.74 513.052 555.33 512.934 559.803C512.817 563.923 513.17 568.16 513.052 572.28C512.817 578.871 512.345 585.345 511.874 594.172H512.227Z" fill="#E86100"/>
<path d="M546.196 633.367C546.196 633.25 546.078 633.132 546.078 633.014C545.96 625.128 545.489 617.242 545.489 609.356C545.489 601.117 546.196 592.995 546.314 584.756C546.549 576.164 546.314 567.572 546.314 558.979C546.196 548.033 546.078 537.087 545.843 526.14C545.843 525.199 545.843 524.257 545.489 523.433C545.018 522.138 543.84 520.373 541.365 520.726C537.831 521.314 537.477 524.846 537.477 526.258C537.359 530.731 537.595 535.203 537.713 539.676C537.948 548.151 538.302 556.625 538.302 565.1C538.302 572.75 537.831 580.401 537.713 587.934C537.359 601.588 537.124 615.241 536.888 628.777C536.888 631.719 536.77 634.544 536.652 637.369C536.535 639.605 537.359 641.842 540.423 642.548C544.311 643.49 557.271 642.43 557.86 638.781C558.567 634.544 555.033 633.25 551.616 633.25C549.966 633.25 547.963 633.485 546.196 633.603V633.367Z" fill="#E86100"/>
<path d="M581.799 529.318C582.153 531.201 582.388 533.085 582.388 534.85C582.388 541.795 582.153 548.739 582.153 555.566C582.153 560.509 582.388 565.571 582.624 570.514C582.978 579.224 583.685 587.934 583.802 596.644C583.92 606.884 583.802 617.007 583.685 627.247C583.685 630.895 583.685 634.662 583.567 638.428C583.567 641.253 585.688 643.96 589.104 642.901C590.872 642.43 592.639 640.194 592.757 638.311C592.875 635.25 592.521 632.19 592.521 629.012C592.403 618.772 592.521 608.414 592.286 598.174C592.168 592.642 591.814 587.228 591.579 581.696C591.343 575.222 590.99 568.631 590.99 562.039C590.872 551.329 590.99 540.618 590.99 529.671C592.875 529.789 594.76 529.789 596.763 529.907C598.294 529.907 602.536 529.671 602.3 525.081C602.183 520.844 598.53 520.608 596.645 520.726C593.935 520.961 591.343 520.961 588.633 520.961C585.923 520.961 581.917 520.844 578.5 520.961C573.67 521.079 570.253 523.198 570.135 524.257C569.899 527.67 571.667 528.965 575.673 529.083C577.793 529.083 579.796 529.083 581.799 529.318Z" fill="#E86100"/>
<path d="M625.615 536.38C625.144 531.319 624.908 528.612 624.673 525.905C624.555 524.963 624.555 524.139 624.319 523.198C623.73 521.668 622.316 520.726 620.431 520.726C616.072 520.726 615.718 524.492 615.718 526.376C615.954 533.202 616.307 540.147 616.19 546.974C616.072 554.154 615.483 561.333 615.247 568.631C615.129 574.987 615.129 581.343 615.129 587.699C615.129 596.409 615.247 605.236 615.247 614.064C615.247 621.95 615.129 629.954 614.894 637.84C614.776 640.9 616.543 643.019 619.489 643.136C621.963 643.136 623.966 640.076 623.966 638.428C624.084 630.778 623.848 623.245 623.73 615.712C623.612 612.534 623.259 609.474 623.259 606.413C623.377 599.469 623.73 592.524 623.848 585.58C623.966 577.694 623.848 569.926 624.084 562.157C624.319 552.859 624.791 543.678 625.38 531.201L619.96 536.851L625.615 536.38Z" fill="#E86100"/>
<path d="M669.912 601.823C669.558 600.057 669.205 598.41 668.851 596.644C666.377 585.227 663.549 574.045 660.839 562.746C658.836 554.624 657.069 546.385 654.831 538.381C653.652 533.909 651.649 529.671 650 525.316C648.586 521.432 645.169 521.55 643.048 522.021C638.807 523.08 639.514 526.964 639.985 528.377C640.103 528.73 639.985 529.554 640.103 529.907C640.221 534.379 640.221 538.852 640.456 543.325C640.574 546.15 641.163 548.975 641.163 551.917C641.281 555.684 641.045 559.45 641.045 563.217C641.045 570.867 640.928 578.4 641.163 586.051C641.281 589.464 641.517 609.827 641.635 614.653C641.635 618.184 641.988 621.832 642.224 625.481C642.341 629.012 642.459 632.543 641.752 635.957C641.281 638.546 644.816 640.429 646.112 640.429C649.057 640.429 651.06 638.428 650.942 635.133C650.589 627.482 650.471 619.714 650.236 612.063C650 605.589 649.411 599.233 649.293 592.76C649.175 583.932 649.175 574.987 649.175 566.041C649.175 563.687 649.057 561.333 648.939 558.979C648.822 554.271 648.822 549.681 648.704 545.09C648.704 543.325 648.704 541.677 648.586 540.029C648.468 538.381 648.233 536.851 647.526 535.439L645.405 536.498C645.876 537.44 646.347 538.499 646.701 539.558C648.233 545.09 650 550.505 651.296 556.037C653.181 563.687 654.713 571.338 656.362 579.106C656.951 582.167 657.54 585.227 658.247 588.287C658.836 590.759 659.779 593.231 660.368 595.702C661.9 603.118 663.549 610.533 664.728 617.948C665.788 624.304 666.377 630.778 667.084 637.134C667.438 640.547 670.265 642.901 672.975 643.136C675.921 643.49 678.513 641.371 678.513 637.134C678.513 629.483 678.513 621.832 678.513 614.182C678.513 608.414 678.513 602.647 678.513 596.997C678.395 590.994 677.924 584.991 677.924 578.989C677.806 570.043 677.806 560.98 677.924 551.917C677.924 543.089 678.395 534.262 678.395 525.434C678.395 524.139 677.688 523.198 676.863 522.138C676.745 522.021 676.628 521.903 674.742 519.078C672.622 521.668 672.504 521.903 672.268 522.021C671.326 522.962 670.383 523.904 670.265 525.434C669.912 530.142 669.794 534.85 669.794 539.558C669.676 548.504 669.558 557.567 669.676 566.63C669.676 573.574 669.676 580.519 669.794 587.463C669.794 590.523 670.265 593.701 670.265 596.879C670.265 598.527 670.03 600.175 669.912 601.823Z" fill="#E86100"/>
<path d="M723.993 609.356C724.935 602.647 725.525 595.702 725.996 588.876C726.114 586.639 723.639 584.05 721.754 583.697C718.809 583.108 715.863 583.226 712.8 582.755C708.558 582.167 706.909 585.345 706.673 587.934C706.555 589.7 710.326 591.936 711.857 592.171C713.507 592.524 715.156 592.524 717.041 592.524C716.57 598.292 716.452 603.824 715.51 609.238C714.096 617.124 711.975 625.01 710.208 632.896C709.972 633.838 709.383 634.073 709.147 634.073C708.912 634.073 708.323 633.367 708.087 632.896C706.673 629.836 705.495 626.894 705.024 623.951C703.492 615.476 702.078 607.002 702.432 598.41C702.667 593.819 701.96 589.346 702.196 584.756C702.432 578.636 703.021 572.515 703.61 566.395C703.963 561.804 704.317 557.214 705.141 552.741C706.438 545.914 707.969 539.323 709.737 532.614C710.561 529.436 711.739 529.083 714.449 530.731C714.803 530.966 715.038 531.201 715.392 531.437C715.745 531.672 716.335 532.143 717.041 532.378C717.041 532.378 717.159 532.496 717.395 532.732C717.748 533.085 718.102 533.438 718.573 533.909C719.398 534.615 721.165 535.91 723.522 535.086C724.464 534.85 725.289 534.144 725.76 533.202C727.174 529.907 720.93 524.022 718.337 522.609C714.096 518.843 704.67 520.961 702.785 526.258C701.489 529.671 699.957 533.085 699.133 536.734C697.719 543.678 696.423 550.622 695.716 557.685C694.891 564.982 694.42 572.28 694.184 579.577C693.831 587.346 693.241 595.232 693.831 602.882C694.302 609.356 694.302 615.83 696.187 622.068C697.13 625.481 697.247 629.012 698.072 632.426C698.543 634.427 699.25 636.781 700.782 638.664C705.024 644.078 713.036 645.02 716.924 639.017C718.22 637.016 719.28 634.662 719.751 632.19C721.283 624.657 722.815 617.007 723.993 609.356Z" fill="#E86100"/>
</svg>
