<svg width="3130" height="428" viewBox="0 0 3130 428" fill="none" xmlns="http://www.w3.org/2000/svg">
<path d="M256.718 8.16875C261.69 -0.0372524 289.581 -3.98225 293.359 5.61575C297.141 15.1987 288.47 74.1808 281.213 76.2848C273.954 78.3928 251.741 16.3837 256.718 8.16875Z" fill="#E86100"/>
<path d="M113.647 56.244C111.633 44.074 132.666 24.546 143.287 33.616C153.907 42.681 191.713 115.582 187.072 121.911C182.43 128.246 115.661 68.415 113.647 56.244Z" fill="#E86100"/>
<path d="M113.647 56.244C111.633 44.074 132.666 24.546 143.287 33.616C153.907 42.681 191.713 115.582 187.072 121.911C182.43 128.246 115.661 68.415 113.647 56.244Z" fill="#E86100"/>
<path d="M33.6945 325.57C21.7855 322.351 12.7405 295.126 25.3995 289.221C38.0595 283.316 120.069 279.154 123.905 286.012C127.747 292.859 45.6045 328.789 33.6945 325.57Z" fill="#E86100"/>
<path d="M8.51514 185.658C-4.66786 176.993 -2.75686 150.588 15.7391 152.355C34.2291 154.108 137.648 192.783 139.095 200.218C140.551 207.664 21.6921 194.328 8.51514 185.658Z" fill="#E86100"/>
<path d="M539.941 224.38C547.94 229.056 552.176 235.343 552.645 243.246C553.48 257.261 549.249 264.534 539.951 265.087C533.641 265.462 524.631 261.927 512.929 254.469L512.169 241.639C521.288 232.633 527.389 228.271 530.131 227.075C535.925 224.546 539.941 224.38 539.941 224.38Z" fill="#E86100"/>
<path d="M532.822 327.917C537.073 338.261 536.514 347.41 531.173 355.339C521.703 369.391 512.302 373.267 502.981 366.982C496.651 362.726 490.603 352.713 484.835 336.987L493.516 324.115C508.866 322.145 518.057 322.187 521.602 322.925C528.147 324.289 532.822 327.917 532.822 327.917Z" fill="#E86100"/>
<path d="M454.639 409.398C449.997 419.579 442.951 425.439 433.516 426.97C416.793 429.66 407.526 425.469 405.739 414.369C404.514 406.84 407.684 395.578 415.209 380.619L430.53 378.14C442.464 387.995 448.507 394.348 450.612 397.289C454.125 402.196 454.639 409.398 454.639 409.398Z" fill="#E86100"/>
<path d="M249.48 399.246C245.959 399.246 234.209 396.826 230.874 365.667C230.563 362.771 230.286 360.055 230.027 357.534C229.418 351.555 228.793 345.424 228.163 341.944C222.7 342.306 215.479 343.397 206.616 345.201C204.595 345.695 199.225 347.323 186.412 351.981C171.027 357.786 167.907 358.274 166.033 358.274C158.321 358.274 150.512 354.09 142.158 345.486L140.373 343.647V340.448C140.373 333.177 144.079 327.5 150.806 324.46C163.668 318.469 187.92 313.842 224.857 310.349C225.074 310.164 225.279 309.98 225.467 309.796C224.151 297.939 223.485 286.164 223.485 274.756C223.485 232.131 233.037 196.161 251.878 167.846C273.783 134.59 306.048 117.717 347.76 117.717C366.588 117.717 385.104 121.778 402.792 129.786C426.281 140.527 438.225 155.035 438.312 172.913L438.341 179.163L432.112 195.99L424.299 185.098C406.746 160.631 382.129 148.736 349.038 148.736C338.227 148.736 326.423 151.417 313.945 156.705C300.765 162.115 291.241 168.77 285.573 176.516C278.724 185.876 271.753 200.447 264.848 219.818C257.449 240.062 253.707 255.411 253.707 265.485C253.707 267.641 254.058 272.911 255.734 285.766C256.766 294.433 257.464 300.389 257.852 303.812C261.222 306.235 262.572 306.465 262.671 306.478C262.602 306.466 263.883 306.336 268.64 305.086C274.681 303.533 275.678 303.314 276.426 303.283C285.042 302.419 302.842 301.999 330.819 301.999C349.09 301.999 366.704 302.542 383.175 303.612L382.555 317.11L383.36 324.623L317.446 328.531C294.579 329.849 276.898 334.458 264.887 342.234L263.092 343.397C262.519 345.751 262.176 350.836 262.848 361.57C263.359 369.712 262.882 388.985 262.863 389.8L262.823 391.357L262.068 392.716C259.893 396.623 254.834 399.246 249.48 399.246Z" fill="#E86100"/>
<path d="M677.98 169.669C680.4 170.072 682.82 170.072 684.836 170.878C691.692 172.49 705.404 172.893 707.42 158.787C708.63 151.13 704.597 146.697 699.758 144.279C696.935 143.07 693.708 142.667 690.482 142.264C686.046 141.458 682.013 140.652 677.577 139.846L682.013 37.8833C687.659 37.4802 692.902 37.4802 698.548 37.8833C700.968 37.8833 702.984 38.2863 705.404 38.2863C708.227 38.2863 711.05 39.0923 713.873 38.6893C720.729 38.2863 732.021 33.0471 730.004 20.9567C729.198 14.5085 721.939 7.25424 715.083 6.44822C705.807 5.23918 696.531 5.64218 687.256 6.04519C681.206 6.44822 674.754 8.46329 668.705 9.2693C660.235 10.8814 652.17 16.1205 653.38 27.8079C653.783 33.8531 654.993 39.8983 654.589 45.5405C653.38 71.3333 651.363 97.1262 649.75 122.919C648.137 150.324 651.766 177.326 648.54 204.731C646.524 224.478 648.137 244.629 648.137 264.78C648.137 280.094 647.33 295.812 647.33 311.529C647.33 324.023 648.54 336.919 648.137 349.815C647.33 369.16 645.314 388.908 644.104 408.252C643.701 414.701 646.524 427.597 660.639 424.373C666.688 422.761 672.737 416.716 673.947 410.267C675.56 403.013 675.157 395.356 675.157 387.699C675.56 364.324 676.367 340.949 675.964 317.574C675.56 301.454 673.947 285.333 673.544 269.616C673.544 259.137 674.754 248.659 675.157 238.181C675.964 215.209 677.174 192.64 677.98 169.669Z" fill="#E86100"/>
<path d="M807.618 59.2429C806.005 41.9134 805.199 32.6441 804.392 23.3748C803.989 20.1507 803.989 17.3296 803.182 14.1055C801.166 8.86629 796.326 5.64218 789.874 5.64218C774.952 5.64218 773.742 18.5386 773.742 24.9868C774.549 48.3616 775.759 72.1394 775.355 95.5141C774.952 120.098 772.936 144.682 772.129 169.669C771.726 191.431 771.726 213.194 771.726 234.957C771.726 264.78 772.129 295.006 772.129 325.232C772.129 352.234 771.726 379.638 770.919 406.64C770.516 417.119 776.565 424.373 786.647 424.776C795.117 424.776 801.972 414.298 801.972 408.655C802.376 382.46 801.569 356.667 801.166 330.874C800.763 319.992 799.553 309.514 799.553 299.036C799.956 275.258 801.166 251.48 801.569 227.702C801.972 200.701 801.569 174.102 802.376 147.503C803.182 115.665 804.795 84.2298 806.812 41.5104L788.261 60.855L807.618 59.2429Z" fill="#E86100"/>
<path d="M911.651 89.8719C922.137 148.712 925.766 208.761 939.478 267.198L889.47 264.78L911.651 89.8719ZM983.84 415.91C987.066 413.089 987.066 409.058 987.066 407.849C987.066 406.237 986.663 404.625 986.663 403.416C985.453 396.162 984.243 388.908 983.033 381.25C980.613 362.309 978.597 343.367 975.774 324.023C971.741 296.215 966.902 268.004 962.062 240.196C957.626 215.209 951.98 190.625 947.947 165.638C944.318 143.07 942.301 120.501 939.478 97.9322C936.252 74.9605 933.025 51.9887 928.589 29.017C928.186 24.9868 926.169 21.3597 924.556 18.5386C922.943 15.7175 921.33 12.8964 915.281 0.80604C905.198 9.2693 903.182 10.8814 901.569 12.0904C899.956 13.2994 896.326 16.1205 895.116 20.1507C892.293 30.226 890.68 40.7043 889.067 51.1827C887.857 61.258 887.454 71.3333 886.244 81.0057C882.614 105.589 878.581 130.173 875.355 154.757C872.129 181.759 869.709 208.358 866.483 235.36C864.063 256.316 860.837 276.87 859.224 297.827C857.207 325.232 856.401 353.04 855.594 380.444C855.191 391.729 855.594 403.013 855.594 420.746C877.775 425.985 883.018 414.298 883.421 405.431C883.824 394.953 883.421 384.878 883.824 374.802C884.228 354.249 885.034 334.098 885.841 313.544C886.244 306.693 887.051 299.842 887.454 293.394C906.005 289.363 924.153 291.782 943.108 296.618C943.511 297.021 944.318 297.021 944.318 297.424C947.544 321.202 950.77 345.382 953.19 369.563C954.803 382.863 955.206 396.162 956.416 409.461C956.819 413.492 958.836 416.313 960.046 417.522C960.852 418.731 962.062 419.94 967.305 428C975.371 422.358 976.984 421.552 978.597 420.343C980.21 419.537 982.227 417.925 983.84 415.91Z" fill="#E86100"/>
<path d="M1069.2 35.0621C1070.41 41.5104 1071.22 47.9586 1071.22 54.0038C1071.22 77.7815 1070.41 101.559 1070.41 124.934C1070.41 141.861 1071.22 159.19 1072.02 176.117C1073.23 205.94 1075.65 235.763 1076.06 265.586C1076.46 300.648 1076.06 335.307 1075.65 370.369C1075.65 382.863 1075.65 395.759 1075.25 408.655C1075.25 418.328 1082.51 427.597 1094.21 423.97C1100.25 422.358 1106.3 414.701 1106.71 408.252C1107.11 397.774 1105.9 387.296 1105.9 376.414C1105.5 341.352 1105.9 305.887 1105.09 270.825C1104.69 251.883 1103.48 233.345 1102.67 214.403C1101.87 192.237 1100.66 169.669 1100.66 147.1C1100.25 110.426 1100.66 73.7514 1100.66 36.2712C1107.11 36.6742 1113.56 36.6742 1120.42 37.0772C1125.66 37.0772 1140.18 36.2712 1139.37 20.5537C1138.97 6.04519 1126.47 5.23918 1120.02 5.64218C1110.74 6.44822 1101.87 6.44822 1092.59 6.44822C1083.32 6.44822 1069.6 6.04519 1057.91 6.44822C1041.37 6.85123 1029.68 14.1055 1029.28 17.7326C1028.47 29.42 1034.52 33.8531 1048.23 34.2561C1055.49 34.2561 1062.35 34.2561 1069.2 35.0621Z" fill="#E86100"/>
<path d="M1259.1 62.8701C1260.31 80.6026 1264.35 98.3352 1264.75 116.068C1265.56 138.637 1264.35 161.205 1263.94 183.774C1263.54 207.149 1264.75 230.524 1262.33 253.495C1259.91 273.243 1259.51 293.394 1257.89 313.141C1256.68 332.889 1255.07 352.234 1249.42 370.772C1248.62 373.996 1247.81 377.22 1246.6 380.444C1245.79 383.669 1244.99 386.49 1243.78 389.311C1242.97 390.52 1242.16 392.938 1240.96 394.55C1241.36 394.55 1241.36 394.953 1241.76 395.356C1236.92 394.147 1232.89 390.923 1231.68 388.908C1227.65 382.056 1225.63 373.19 1224.02 363.921C1219.18 332.486 1214.74 301.051 1209.9 269.213C1209.9 239.793 1208.69 209.97 1210.71 180.147C1213.53 144.682 1218.37 109.62 1224.42 74.5574C1227.24 59.2429 1231.28 45.1375 1242.16 35.0621C1243.37 34.2561 1242.97 33.0471 1243.37 33.8531C1244.18 35.4652 1245.39 36.6742 1246.2 37.4802C1247.41 38.2863 1248.21 39.0923 1249.02 39.8983C1255.88 45.5405 1258.7 52.7947 1259.1 62.8701ZM1292.58 204.328C1292.98 190.625 1292.98 176.923 1292.98 163.623C1292.98 141.458 1293.79 119.292 1292.98 97.1262C1292.58 83.4237 1288.54 70.1243 1287.74 56.8249C1286.93 37.4802 1277.65 23.3748 1264.75 12.0904C1257.09 4.83617 1231.28 1.61206 1223.21 12.8964C1216.35 22.5687 1208.69 33.8531 1204.26 45.9435C1199.01 59.6459 1195.79 74.5574 1192.96 89.0659C1189.74 104.783 1186.51 120.904 1185.3 136.621C1183.28 161.205 1182.48 186.192 1182.48 210.776C1182.48 236.972 1183.28 263.571 1184.9 289.766C1185.7 302.26 1188.12 314.35 1190.14 326.844H1188.53C1193.37 351.831 1196.19 369.16 1199.42 386.087C1200.63 392.535 1203.05 399.789 1206.68 405.834C1214.74 419.94 1232.49 426.791 1245.79 424.373C1261.52 421.552 1269.19 409.058 1272.01 396.565C1276.04 379.638 1280.48 362.712 1282.49 345.382C1285.32 323.217 1286.53 301.051 1288.14 278.482C1289.75 253.898 1291.37 228.911 1292.58 204.328Z" fill="#E86100"/>
<path d="M1389.68 50.7797C1396.94 75.3635 1401.38 97.9322 1394.12 120.904C1391.7 128.561 1388.07 132.188 1381.62 133.397C1378.79 134.203 1375.97 135.009 1373.15 135.412L1380 39.4953C1384.84 42.3164 1388.07 45.5405 1389.68 50.7797ZM1375.97 165.235C1402.99 159.19 1421.14 143.07 1425.17 113.65C1428.8 89.0659 1425.17 65.6912 1417.91 43.1224C1410.65 20.5537 1393.72 11.2844 1374.36 6.85123C1355.81 2.8211 1346.93 11.6874 1350.97 29.42C1351.77 33.8531 1352.18 39.0923 1351.77 44.3315C1350.97 64.0791 1349.35 83.8267 1348.55 103.574C1347.34 132.188 1346.13 160.399 1344.92 189.013C1344.11 214 1343.31 239.39 1342.5 264.377C1341.69 287.751 1340.08 311.529 1339.27 334.904C1338.47 353.443 1337.66 371.981 1337.26 390.52C1337.26 397.774 1336.85 405.431 1338.47 412.686C1340.08 419.94 1349.35 425.179 1355 424.776C1362.66 424.373 1368.71 415.104 1369.12 409.864C1369.52 396.162 1369.12 382.863 1369.12 369.563C1369.12 338.531 1368.71 307.499 1369.52 276.467C1369.92 250.271 1371.54 224.075 1372.34 197.476C1372.75 187.401 1372.75 176.923 1372.75 166.444C1373.96 166.041 1374.76 165.638 1375.97 165.235Z" fill="#E86100"/>
<path d="M1495.1 390.923C1495.1 379.235 1495.1 367.548 1495.1 355.861C1495.9 315.559 1496.31 275.258 1497.11 234.957C1497.52 209.567 1498.32 184.177 1498.73 158.787C1507.6 158.787 1516.47 157.981 1525.34 157.578C1539.46 157.175 1540.67 144.279 1539.86 138.637C1538.65 130.173 1530.99 124.934 1521.31 126.949C1514.45 128.561 1507.19 128.964 1499.94 129.77V37.4802C1512.84 37.4802 1524.54 37.4802 1536.63 37.4802C1546.31 37.4802 1554.38 31.838 1554.38 20.5537C1553.98 6.44822 1541.07 5.64218 1536.23 5.64218C1521.71 6.04519 1506.79 5.23918 1492.27 6.44822C1485.01 6.85123 1477.75 11.6874 1473.32 16.5235C1470.9 19.7477 1470.5 24.1808 1470.9 27.8079C1470.9 29.823 1471.71 32.2411 1471.71 34.2561C1471.71 62.8701 1472.51 91.484 1472.11 120.098C1471.71 146.697 1469.69 173.296 1469.29 199.492C1468.48 226.896 1469.29 254.301 1468.88 281.706C1468.88 299.842 1467.67 317.977 1467.27 336.516C1466.87 354.249 1466.46 372.384 1465.66 390.52C1465.25 396.162 1465.25 400.192 1465.25 403.416C1466.06 412.282 1469.69 417.925 1479.37 419.94C1482.19 420.746 1486.22 421.149 1491.47 421.552C1493.89 421.955 1495.9 422.358 1498.32 422.761C1505.98 423.567 1514.05 424.776 1521.71 424.776C1525.75 424.776 1528.97 422.358 1530.59 421.552C1531.8 420.746 1533.01 419.537 1541.07 414.298C1535.83 407.043 1535.42 406.237 1535.42 405.834C1534.62 404.625 1534.22 403.819 1533.81 402.61C1531.8 399.789 1528.97 396.565 1525.34 395.759C1516.07 393.341 1505.58 390.923 1495.1 390.923Z" fill="#E86100"/>
<path d="M1794.09 369.563C1796.91 358.682 1799.33 347.397 1802.15 336.516C1804.57 327.247 1799.33 317.977 1788.04 317.171C1777.15 316.365 1771.5 322.814 1770.29 332.486C1769.49 341.352 1760.61 407.043 1744.89 389.714C1735.21 379.235 1731.98 366.339 1730.37 351.427C1728.35 330.874 1727.14 309.917 1725.53 289.363C1724.72 275.258 1723.51 260.75 1723.51 246.241C1723.51 231.733 1725.12 217.224 1725.12 202.716C1725.53 185.789 1724.32 168.46 1725.53 151.936C1727.54 129.367 1730.37 107.202 1734.4 85.4388C1736.82 71.3333 1741.26 57.2279 1746.9 43.5254C1747.71 40.7043 1752.15 37.4802 1754.56 37.0772C1754.97 36.6742 1755.37 37.8833 1755.77 38.6893C1757.79 39.8983 1759 41.9134 1760.61 43.5254C1762.23 45.1375 1763.03 49.1676 1763.44 51.1827C1765.05 59.2429 1765.86 67.7062 1767.87 80.1996C1790.86 88.6629 1793.28 70.5273 1792.88 65.6912C1792.07 54.8098 1790.86 41.9134 1786.83 30.226C1784.01 22.1657 1778.76 9.2693 1763.44 6.44822C1749.73 4.03013 1729.96 6.85123 1724.32 21.7627C1717.46 39.8983 1708.59 57.6309 1704.96 76.5725C1699.72 101.962 1698.91 128.158 1696.89 153.951C1695.68 168.46 1696.89 183.371 1696.49 197.879C1695.68 216.418 1693.67 234.554 1694.07 253.092C1694.47 272.84 1696.89 292.588 1698.1 311.932C1700.12 341.352 1700.93 369.563 1713.43 396.565C1719.88 410.267 1728.75 420.343 1744.08 423.97C1759.81 428 1774.73 416.716 1781.99 403.416C1787.63 392.535 1791.26 380.847 1794.09 369.563Z" fill="#E86100"/>
<path d="M1917.6 62.8701C1918.81 80.6026 1922.84 98.3352 1923.24 116.068C1924.05 138.637 1922.84 161.205 1922.44 183.774C1922.03 207.149 1923.24 230.524 1920.82 253.495C1918.4 273.243 1918 293.394 1916.39 313.141C1915.18 332.889 1913.56 352.234 1907.92 370.772C1907.11 373.996 1906.31 377.22 1905.1 380.444C1904.29 383.669 1903.48 386.49 1902.27 389.311C1901.47 390.52 1900.66 392.938 1899.45 394.55C1899.85 394.55 1899.85 394.953 1900.26 395.356C1895.42 394.147 1891.38 390.923 1890.17 388.908C1886.14 382.056 1884.12 373.19 1882.51 363.921C1877.67 332.486 1873.24 301.051 1868.4 269.213C1868.4 239.793 1867.19 209.97 1869.2 180.147C1872.03 144.682 1876.87 109.62 1882.91 74.5574C1885.74 59.2429 1889.77 45.1375 1900.66 35.0621C1901.87 34.2561 1901.47 33.0471 1901.87 33.8531C1902.68 35.4652 1903.89 36.6742 1904.69 37.4802C1905.9 38.2863 1906.71 39.0923 1907.52 39.8983C1914.37 45.5405 1917.19 52.7947 1917.6 62.8701ZM1951.07 204.328C1951.47 190.625 1951.47 176.923 1951.47 163.623C1951.47 141.458 1952.28 119.292 1951.47 97.1262C1951.07 83.4237 1947.04 70.1243 1946.23 56.8249C1945.42 37.4802 1936.15 23.3748 1923.24 12.0904C1915.58 4.83617 1889.77 1.61206 1881.7 12.8964C1874.85 22.5687 1867.19 33.8531 1862.75 45.9435C1857.51 59.6459 1854.28 74.5574 1851.46 89.0659C1848.23 104.783 1845.01 120.904 1843.8 136.621C1841.78 161.205 1840.97 186.192 1840.97 210.776C1840.97 236.972 1841.78 263.571 1843.39 289.766C1844.2 302.26 1846.62 314.35 1848.64 326.844H1847.02C1851.86 351.831 1854.68 369.16 1857.91 386.087C1859.12 392.535 1861.54 399.789 1865.17 405.834C1873.24 419.94 1890.98 426.791 1904.29 424.373C1920.02 421.552 1927.68 409.058 1930.5 396.565C1934.54 379.638 1938.97 362.712 1940.99 345.382C1943.81 323.217 1945.02 301.051 1946.63 278.482C1948.25 253.898 1949.86 228.911 1951.07 204.328Z" fill="#E86100"/>
<path d="M2099.4 283.318C2098.19 277.273 2096.98 271.631 2095.77 265.586C2087.3 226.493 2077.62 188.207 2068.34 149.518C2061.49 121.71 2055.44 93.499 2047.77 66.0942C2043.74 50.7797 2036.89 36.2712 2031.24 21.3597C2026.4 8.06028 2014.7 8.46329 2007.45 10.0753C1992.93 13.7025 1995.35 27.0019 1996.96 31.838C1997.36 33.0471 1996.96 35.8682 1997.36 37.0772C1997.77 52.3917 1997.77 67.7062 1998.57 83.0207C1998.98 92.693 2000.99 102.365 2000.99 112.441C2001.4 125.337 2000.59 138.234 2000.59 151.13C2000.59 177.326 2000.19 203.119 2000.99 229.314C2001.4 241.002 2002.2 310.723 2002.61 327.247C2002.61 339.337 2003.82 351.831 2004.62 364.324C2005.03 376.414 2005.43 388.505 2003.01 400.192C2001.4 409.058 2013.5 415.507 2017.93 415.507C2028.01 415.507 2034.87 408.655 2034.47 397.371C2033.26 371.175 2032.85 344.576 2032.05 318.38C2031.24 296.215 2029.22 274.452 2028.82 252.286C2028.42 222.06 2028.42 191.431 2028.42 160.802C2028.42 152.742 2028.01 144.682 2027.61 136.621C2027.21 120.501 2027.21 104.783 2026.8 89.0659C2026.8 83.0207 2026.8 77.3785 2026.4 71.7364C2026 66.0942 2025.19 60.855 2022.77 56.0188L2015.51 59.6459C2017.12 62.8701 2018.74 66.4972 2019.95 70.1243C2025.19 89.0659 2031.24 107.605 2035.68 126.546C2042.13 152.742 2047.37 178.938 2053.02 205.537C2055.03 216.015 2057.05 226.493 2059.47 236.972C2061.49 245.435 2064.71 253.898 2066.73 262.362C2071.97 287.751 2077.62 313.141 2081.65 338.531C2085.28 360.294 2087.3 382.46 2089.72 404.222C2090.93 415.91 2100.61 423.97 2109.88 424.776C2119.96 425.985 2128.84 418.731 2128.84 404.222C2128.84 378.026 2128.84 351.831 2128.84 325.635C2128.84 305.887 2128.84 286.139 2128.84 266.795C2128.43 246.241 2126.82 225.687 2126.82 205.134C2126.42 174.505 2126.42 143.473 2126.82 112.441C2126.82 82.2147 2128.43 51.9887 2128.43 21.7627C2128.43 17.3296 2126.01 14.1055 2123.19 10.4784C2122.79 10.0753 2122.38 9.67231 2115.93 0C2108.67 8.86629 2108.27 9.67231 2107.46 10.0753C2104.23 13.2994 2101.01 16.5235 2100.61 21.7627C2099.4 37.8833 2098.99 54.0038 2098.99 70.1243C2098.59 100.753 2098.19 131.785 2098.59 162.817C2098.59 186.595 2098.59 210.373 2098.99 234.151C2098.99 244.629 2100.61 255.51 2100.61 266.392C2100.61 272.034 2099.8 277.676 2099.4 283.318Z" fill="#E86100"/>
<path d="M2290.56 350.218C2291.77 338.128 2290.56 325.232 2291.36 312.738C2293.38 275.661 2288.54 239.793 2272.41 205.134C2265.96 191.834 2257.89 180.147 2249.83 168.863C2242.16 157.981 2233.69 147.503 2226.03 136.218C2224.01 133.397 2222 130.173 2219.98 127.352C2214.34 118.889 2210.3 111.635 2211.11 102.365C2211.51 93.499 2212.32 84.6328 2213.53 75.7665C2214.74 69.3183 2214.74 62.467 2215.95 56.0188C2217.16 49.5706 2219.18 43.9284 2223.21 39.0923C2227.24 33.4501 2229.66 33.0471 2232.48 38.2863C2234.9 42.7194 2236.92 47.9586 2238.53 53.1977C2240.55 58.8399 2242.16 64.4821 2244.58 70.1243C2245.79 73.7514 2247 76.9755 2249.42 80.1996C2253.45 84.6328 2266.76 83.8267 2268.78 75.3635C2269.59 71.7364 2269.59 67.3032 2268.78 63.2731C2268.38 60.855 2267.57 58.0339 2266.76 55.6158C2265.96 53.6008 2265.55 51.9887 2265.55 51.1827C2264.34 33.4501 2257.08 17.3296 2239.34 9.2693C2232.08 5.64218 2216.76 3.22411 2208.29 9.67231C2199.41 16.5235 2194.98 29.017 2192.56 37.8833C2188.93 53.1977 2187.32 69.7213 2184.9 85.4388C2184.49 89.0659 2183.69 93.096 2182.88 96.7232C2182.07 100.753 2181.67 105.186 2182.88 109.62C2188.53 131.382 2200.62 149.921 2213.53 166.444C2224.42 180.55 2237.73 194.655 2244.58 211.582C2247 218.03 2250.23 224.478 2253.05 230.927C2255.87 236.972 2257.89 243.017 2259.1 248.659C2264.75 278.482 2265.96 308.708 2263.54 339.337C2262.33 358.279 2259.1 374.802 2248.21 388.505C2242.16 396.162 2237.73 396.565 2234.5 394.953C2224.01 388.908 2216.76 380.444 2214.34 369.16C2211.92 359.488 2211.11 349.412 2209.5 339.74C2208.69 333.695 2204.66 324.426 2192.56 326.441C2181.27 328.456 2179.25 337.322 2180.86 344.979C2182.88 353.04 2183.28 361.503 2185.3 369.563C2189.33 384.878 2194.57 401.804 2210.3 413.089C2215.95 417.119 2219.98 421.552 2226.84 423.567C2249.02 429.209 2263.54 415.507 2272.81 403.416C2285.72 387.296 2288.54 367.548 2290.56 350.218Z" fill="#E86100"/>
<path d="M2397.35 257.122C2397.35 259.137 2397.35 261.556 2396.95 263.571C2394.53 292.185 2392.92 320.798 2389.29 349.009C2388.08 357.07 2386.46 364.727 2384.04 371.981C2382.03 378.026 2380.42 383.669 2378.4 389.714C2378 388.505 2378 387.296 2377.59 385.684C2376.79 381.653 2376.79 377.623 2375.58 373.593C2367.11 342.561 2366.3 309.917 2364.28 278.079C2362.67 248.256 2365.09 218.03 2365.49 188.207C2365.9 168.46 2365.9 148.712 2365.9 128.964C2366.3 93.499 2367.11 58.0339 2367.11 22.5687C2367.11 16.5235 2365.49 5.64218 2352.99 5.64218C2345.73 5.64218 2341.7 10.4784 2340.49 14.9115C2339.68 16.9265 2339.68 18.9416 2339.68 20.1507C2339.68 20.9567 2339.68 21.7627 2339.68 22.5687C2339.28 26.1959 2339.68 29.823 2339.68 33.4501C2339.68 36.2712 2340.09 39.0923 2340.09 41.9134C2339.68 66.9002 2339.28 91.887 2338.88 117.277C2338.88 124.128 2337.67 130.979 2337.67 137.831C2337.26 159.19 2337.67 180.953 2337.26 202.716C2336.46 227.299 2334.04 252.286 2334.84 276.87C2336.05 303.872 2338.47 330.874 2342.1 357.876C2344.52 378.026 2346.54 397.371 2358.23 415.104C2366.7 427.597 2395.34 429.209 2402.6 412.686C2406.63 403.013 2410.26 392.938 2412.68 382.863C2415.5 370.369 2416.71 357.876 2418.32 345.382C2420.34 330.068 2421.95 315.156 2422.76 300.245C2424.78 263.168 2425.99 226.09 2427.6 189.013C2428.81 157.981 2430.42 126.546 2432.04 95.1111C2433.25 73.7514 2434.05 52.7947 2435.67 31.435C2436.07 24.1808 2435.67 12.4934 2420.74 11.2844C2406.23 10.0753 2404.61 20.5537 2404.21 29.017C2403.81 50.3766 2403 71.7364 2402.19 93.096C2401.39 108.411 2400.18 124.128 2399.77 139.443C2399.37 153.548 2400.58 168.056 2400.18 182.162C2399.37 204.731 2397.76 226.896 2396.14 257.122H2397.35Z" fill="#E86100"/>
<path d="M2513.62 391.326C2513.62 390.923 2513.22 390.52 2513.22 390.117C2512.82 363.115 2511.2 336.113 2511.2 309.111C2511.2 280.9 2513.62 253.092 2514.03 224.881C2514.83 195.461 2514.03 166.041 2514.03 136.621C2513.62 99.1413 2513.22 61.661 2512.41 24.1808C2512.41 20.9567 2512.41 17.7326 2511.2 14.9115C2509.59 10.4784 2505.56 4.43316 2497.09 5.64218C2484.99 7.65725 2483.78 19.7477 2483.78 24.5838C2483.38 39.8983 2484.18 55.2128 2484.59 70.5273C2485.39 99.5443 2486.6 128.561 2486.6 157.578C2486.6 183.774 2484.99 209.97 2484.59 235.763C2483.38 282.512 2482.57 329.262 2481.76 375.608C2481.76 385.684 2481.36 395.356 2480.96 405.028C2480.55 412.685 2483.38 420.343 2493.86 422.761C2507.17 425.985 2551.53 422.358 2553.55 409.864C2555.97 395.356 2543.87 390.923 2532.17 390.923C2526.53 390.923 2519.67 391.729 2513.62 392.132V391.326Z" fill="#E86100"/>
<path d="M2635.49 35.0621C2636.7 41.5104 2637.51 47.9586 2637.51 54.0038C2637.51 77.7815 2636.7 101.559 2636.7 124.934C2636.7 141.861 2637.51 159.19 2638.31 176.117C2639.52 205.94 2641.94 235.763 2642.34 265.586C2642.75 300.648 2642.34 335.307 2641.94 370.369C2641.94 382.863 2641.94 395.759 2641.54 408.655C2641.54 418.328 2648.8 427.597 2660.49 423.97C2666.54 422.358 2672.59 414.701 2672.99 408.252C2673.4 397.774 2672.19 387.296 2672.19 376.414C2671.78 341.352 2672.19 305.887 2671.38 270.825C2670.98 251.883 2669.77 233.345 2668.96 214.403C2668.16 192.237 2666.95 169.669 2666.95 147.1C2666.54 110.426 2666.95 73.7514 2666.95 36.2712C2673.4 36.6742 2679.85 36.6742 2686.71 37.0772C2691.95 37.0772 2706.47 36.2712 2705.66 20.5537C2705.26 6.04519 2692.76 5.23918 2686.3 5.64218C2677.03 6.44822 2668.16 6.44822 2658.88 6.44822C2649.6 6.44822 2635.89 6.04519 2624.2 6.44822C2607.66 6.85123 2595.97 14.1055 2595.56 17.7326C2594.76 29.42 2600.81 33.8531 2614.52 34.2561C2621.78 34.2561 2628.63 34.2561 2635.49 35.0621Z" fill="#E86100"/>
<path d="M2785.46 59.2429C2783.85 41.9134 2783.05 32.6441 2782.24 23.3748C2781.84 20.1507 2781.84 17.3296 2781.03 14.1055C2779.01 8.86629 2774.17 5.64218 2767.72 5.64218C2752.8 5.64218 2751.59 18.5386 2751.59 24.9868C2752.4 48.3616 2753.6 72.1394 2753.2 95.5141C2752.8 120.098 2750.78 144.682 2749.98 169.669C2749.57 191.431 2749.57 213.194 2749.57 234.957C2749.57 264.78 2749.98 295.006 2749.98 325.232C2749.98 352.234 2749.57 379.638 2748.77 406.64C2748.36 417.119 2754.41 424.373 2764.49 424.776C2772.96 424.776 2779.82 414.298 2779.82 408.655C2780.22 382.46 2779.42 356.667 2779.01 330.874C2778.61 319.992 2777.4 309.514 2777.4 299.036C2777.8 275.258 2779.01 251.48 2779.42 227.702C2779.82 200.701 2779.42 174.102 2780.22 147.503C2781.03 115.665 2782.64 84.2298 2784.66 41.5104L2766.11 60.855L2785.46 59.2429Z" fill="#E86100"/>
<path d="M2937.09 283.318C2935.88 277.273 2934.67 271.631 2933.46 265.586C2924.99 226.493 2915.31 188.207 2906.03 149.518C2899.18 121.71 2893.13 93.499 2885.46 66.0942C2881.43 50.7797 2874.58 36.2712 2868.93 21.3597C2864.09 8.06028 2852.4 8.46329 2845.14 10.0753C2830.62 13.7025 2833.04 27.0019 2834.65 31.838C2835.05 33.0471 2834.65 35.8682 2835.05 37.0772C2835.46 52.3917 2835.46 67.7062 2836.26 83.0207C2836.67 92.693 2838.68 102.365 2838.68 112.441C2839.09 125.337 2838.28 138.234 2838.28 151.13C2838.28 177.326 2837.88 203.119 2838.68 229.314C2839.09 241.002 2839.89 310.723 2840.3 327.247C2840.3 339.337 2841.51 351.831 2842.31 364.324C2842.72 376.414 2843.12 388.505 2840.7 400.192C2839.09 409.058 2851.19 415.507 2855.62 415.507C2865.7 415.507 2872.56 408.655 2872.16 397.371C2870.95 371.175 2870.54 344.576 2869.74 318.38C2868.93 296.215 2866.91 274.452 2866.51 252.286C2866.11 222.06 2866.11 191.431 2866.11 160.802C2866.11 152.742 2865.7 144.682 2865.3 136.621C2864.9 120.501 2864.9 104.783 2864.49 89.0659C2864.49 83.0207 2864.49 77.3785 2864.09 71.7364C2863.69 66.0942 2862.88 60.855 2860.46 56.0188L2853.2 59.6459C2854.81 62.8701 2856.43 66.4972 2857.64 70.1243C2862.88 89.0659 2868.93 107.605 2873.37 126.546C2879.82 152.742 2885.06 178.938 2890.71 205.537C2892.72 216.015 2894.74 226.493 2897.16 236.972C2899.18 245.435 2902.4 253.898 2904.42 262.362C2909.66 287.751 2915.31 313.141 2919.34 338.531C2922.97 360.294 2924.99 382.46 2927.41 404.222C2928.62 415.91 2938.3 423.97 2947.57 424.776C2957.65 425.985 2966.53 418.731 2966.53 404.222C2966.53 378.026 2966.53 351.831 2966.53 325.635C2966.53 305.887 2966.53 286.139 2966.53 266.795C2966.12 246.241 2964.51 225.687 2964.51 205.134C2964.11 174.505 2964.11 143.473 2964.51 112.441C2964.51 82.2147 2966.12 51.9887 2966.12 21.7627C2966.12 17.3296 2963.7 14.1055 2960.88 10.4784C2960.48 10.0753 2960.07 9.67231 2953.62 0C2946.36 8.86629 2945.96 9.67231 2945.15 10.0753C2941.93 13.2994 2938.7 16.5235 2938.3 21.7627C2937.09 37.8833 2936.68 54.0038 2936.68 70.1243C2936.28 100.753 2935.88 131.785 2936.28 162.817C2936.28 186.595 2936.28 210.373 2936.68 234.151C2936.68 244.629 2938.3 255.51 2938.3 266.392C2938.3 272.034 2937.49 277.676 2937.09 283.318Z" fill="#E86100"/>
<path d="M3122.2 309.111C3125.42 286.139 3127.44 262.362 3129.05 238.987C3129.46 231.33 3120.99 222.463 3114.54 221.254C3104.45 219.239 3094.37 219.642 3083.89 218.03C3069.37 216.015 3063.72 226.896 3062.91 235.763C3062.51 241.808 3075.42 249.465 3080.66 250.271C3086.31 251.48 3091.95 251.48 3098.4 251.48C3096.79 271.228 3096.39 290.169 3093.16 308.708C3088.32 335.71 3081.06 362.712 3075.01 389.714C3074.21 392.938 3072.19 393.744 3071.38 393.744C3070.58 393.744 3068.56 391.326 3067.75 389.714C3062.91 379.235 3058.88 369.16 3057.27 359.085C3052.03 330.068 3047.19 301.051 3048.4 271.631C3049.2 255.913 3046.78 240.599 3047.59 224.881C3048.4 203.925 3050.41 182.968 3052.43 162.011C3053.64 146.294 3054.85 130.576 3057.67 115.262C3062.11 91.887 3067.35 69.3183 3073.4 46.3465C3076.22 35.4652 3080.26 34.2561 3089.53 39.8983C3090.74 40.7043 3091.55 41.5104 3092.76 42.3164C3093.97 43.1224 3095.98 44.7345 3098.4 45.5405C3098.4 45.5405 3098.81 45.9435 3099.61 46.7495C3100.82 47.9586 3102.03 49.1676 3103.65 50.7797C3106.47 53.1977 3112.52 57.6309 3120.58 54.8098C3123.81 54.0038 3126.63 51.5857 3128.25 48.3616C3133.09 37.0772 3111.71 16.9265 3102.84 12.0904C3088.32 -0.806015 3056.06 6.44822 3049.61 24.5838C3045.17 36.2712 3039.93 47.9586 3037.1 60.452C3032.26 84.2298 3027.83 108.008 3025.41 132.188C3022.59 157.175 3020.97 182.162 3020.17 207.149C3018.96 233.748 3016.94 260.75 3018.96 286.945C3020.57 309.111 3020.57 331.277 3027.02 352.637C3030.25 364.324 3030.65 376.414 3033.47 388.102C3035.09 394.953 3037.51 403.013 3042.75 409.461C3057.27 428 3084.69 431.224 3098 410.67C3102.44 403.819 3106.07 395.759 3107.68 387.296C3112.92 361.503 3118.17 335.307 3122.2 309.111Z" fill="#E86100"/>
</svg>
