<svg width="500" height="357" viewBox="0 0 500 357" fill="none" xmlns="http://www.w3.org/2000/svg">
<g clip-path="url(#clip0_135_1041)">
<path d="M442.792 356.435C474.387 356.435 500 350.188 500 342.482C500 334.776 474.387 328.529 442.792 328.529C411.197 328.529 385.585 334.776 385.585 342.482C385.585 350.188 411.197 356.435 442.792 356.435Z" fill="#3F3D56"/>
<path d="M242.475 47.8578V232.508C242.474 234.708 241.6 236.817 240.044 238.372C238.488 239.928 236.378 240.801 234.178 240.801H159.214C158.124 240.803 157.045 240.59 156.038 240.174C155.03 239.758 154.115 239.147 153.344 238.377C152.574 237.606 151.963 236.691 151.546 235.684C151.13 234.677 150.916 233.598 150.917 232.508V47.8578C150.917 46.7683 151.132 45.6894 151.549 44.6827C151.966 43.6761 152.577 42.7615 153.347 41.991C154.118 41.2206 155.032 40.6094 156.039 40.1925C157.046 39.7756 158.125 39.561 159.214 39.561H170.434V41.0006C170.434 42.8125 171.154 44.5501 172.435 45.8313C173.716 47.1124 175.454 47.8322 177.266 47.8322H215.391C217.202 47.8322 218.94 47.1124 220.221 45.8312C221.502 44.5501 222.222 42.8125 222.222 41.0006V39.561H234.178C235.268 39.5607 236.347 39.775 237.354 40.1919C238.361 40.6087 239.275 41.2198 240.046 41.9903C240.816 42.7608 241.427 43.6756 241.844 44.6824C242.261 45.6891 242.476 46.7682 242.475 47.8578Z" fill="#E86100"/>
<path d="M239.193 70.4224H154.21V111.815H239.193V70.4224Z" fill="#3F3D56"/>
<path d="M188.426 98.8444C190.651 107.068 198.271 112.161 198.271 112.161C198.271 112.161 202.284 103.921 200.059 95.6975C197.835 87.4739 190.215 82.3809 190.215 82.3809C190.215 82.3809 186.202 90.6208 188.426 98.8444Z" fill="white"/>
<path d="M191.695 97.0768C197.8 103.019 198.545 112.154 198.545 112.154C198.545 112.154 189.394 111.654 183.289 105.712C177.185 99.7696 176.439 90.6348 176.439 90.6348C176.439 90.6348 185.591 91.1344 191.695 97.0768Z" fill="#E86100"/>
<path d="M208.664 98.8444C206.44 107.068 198.82 112.161 198.82 112.161C198.82 112.161 194.807 103.921 197.031 95.6975C199.256 87.4739 206.876 82.3809 206.876 82.3809C206.876 82.3809 210.889 90.6208 208.664 98.8444Z" fill="white"/>
<path d="M205.395 97.0768C199.291 103.019 198.545 112.154 198.545 112.154C198.545 112.154 207.697 111.654 213.801 105.712C219.906 99.7696 220.651 90.6348 220.651 90.6348C220.651 90.6348 211.5 91.1344 205.395 97.0768Z" fill="#E86100"/>
<path d="M231.592 134.994H161.811V138.825H231.592V134.994Z" fill="#F0F0F0"/>
<path d="M231.592 141.166H161.811V144.996H231.592V141.166Z" fill="#F0F0F0"/>
<path d="M231.592 147.337H161.811V151.167H231.592V147.337Z" fill="#F0F0F0"/>
<path d="M231.592 153.508H161.811V157.339H231.592V153.508Z" fill="#F0F0F0"/>
<path d="M209.975 186.518L194.443 175.492L183.417 191.024L198.949 202.05L209.975 186.518Z" fill="#F0F0F0"/>
<path d="M198.809 206.054C197.94 206.054 197.09 205.797 196.367 205.314C195.644 204.831 195.081 204.144 194.748 203.341C194.415 202.538 194.328 201.654 194.498 200.801C194.667 199.949 195.086 199.165 195.701 198.551C196.316 197.936 197.099 197.517 197.951 197.348C198.804 197.178 199.688 197.265 200.491 197.598C201.294 197.93 201.981 198.494 202.464 199.217C202.947 199.94 203.205 200.789 203.205 201.659C203.203 202.824 202.74 203.942 201.916 204.766C201.092 205.59 199.974 206.053 198.809 206.054ZM198.809 197.996C198.085 197.996 197.376 198.211 196.774 198.613C196.172 199.016 195.702 199.588 195.425 200.257C195.148 200.926 195.075 201.663 195.216 202.373C195.358 203.084 195.707 203.737 196.219 204.249C196.731 204.761 197.384 205.11 198.094 205.252C198.805 205.393 199.541 205.32 200.211 205.043C200.88 204.766 201.452 204.296 201.855 203.694C202.257 203.092 202.472 202.383 202.472 201.659C202.471 200.688 202.085 199.757 201.398 199.07C200.711 198.383 199.78 197.997 198.809 197.996Z" fill="#3F3D56"/>
<path d="M91.5578 8.2968V192.947C91.5568 195.147 90.6822 197.256 89.1264 198.811C87.5705 200.367 85.4608 201.24 83.261 201.24H8.29679C7.20702 201.242 6.12758 201.029 5.12035 200.613C4.11312 200.197 3.1979 199.586 2.42714 198.816C1.65638 198.045 1.04524 197.13 0.628746 196.123C0.21225 195.116 -0.00141136 194.037 7.01566e-06 192.947V8.2968C-4.00181e-05 7.20724 0.21453 6.12834 0.631466 5.1217C1.0484 4.11507 1.65954 3.20042 2.42997 2.42998C3.20041 1.65954 4.11506 1.0484 5.12169 0.631466C6.12833 0.214529 7.20723 -4.47625e-05 8.29679 4.38872e-07H19.5167V1.4396C19.5167 3.25144 20.2365 4.98908 21.5176 6.27024C22.7988 7.55141 24.5364 8.27117 26.3483 8.27119H64.4733C66.2851 8.27116 68.0227 7.5514 69.3039 6.27023C70.585 4.98907 71.3048 3.25144 71.3048 1.4396V4.38872e-07H83.261C84.3506 -0.00035402 85.4297 0.214007 86.4364 0.630834C87.4432 1.04766 88.358 1.65879 89.1285 2.42929C89.899 3.19979 90.5101 4.11456 90.9269 5.12134C91.3438 6.12811 91.5581 7.20715 91.5578 8.2968Z" fill="#F2F2F2"/>
<path d="M82.0484 100.825H8.7876V35.2568H82.0484V100.825ZM9.52019 100.093H81.3158V35.9895H9.52019V100.093Z" fill="#3F3D56"/>
<path d="M9.39808 35.3503L8.90979 35.8965L81.438 100.732L81.9263 100.186L9.39808 35.3503Z" fill="#3F3D56"/>
<path d="M81.4386 35.3509L8.9093 100.186L9.39759 100.732L81.9269 35.8971L81.4386 35.3509Z" fill="#3F3D56"/>
<path d="M81.6822 119.874H9.15393V120.606H81.6822V119.874Z" fill="#3F3D56"/>
<path d="M81.6822 126.467H9.15393V127.199H81.6822V126.467Z" fill="#3F3D56"/>
<path d="M81.6822 133.061H9.15393V133.793H81.6822V133.061Z" fill="#3F3D56"/>
<path d="M45.4181 139.654H9.15393V140.386H45.4181V139.654Z" fill="#3F3D56"/>
<path d="M45.4181 146.247H9.15393V146.98H45.4181V146.247Z" fill="#3F3D56"/>
<path d="M393.026 8.2968V192.947C393.025 195.147 392.151 197.256 390.595 198.811C389.039 200.367 386.929 201.24 384.729 201.24H309.765C308.676 201.242 307.596 201.029 306.589 200.613C305.582 200.197 304.666 199.586 303.896 198.816C303.125 198.045 302.514 197.13 302.097 196.123C301.681 195.116 301.467 194.037 301.469 192.947V8.2968C301.468 7.20724 301.683 6.12834 302.1 5.1217C302.517 4.11507 303.128 3.20042 303.898 2.42998C304.669 1.65955 305.584 1.04841 306.59 0.63147C307.597 0.214532 308.676 -4.35378e-05 309.765 4.41898e-07H320.985V1.4396C320.985 3.25144 321.705 4.98908 322.986 6.27024C324.267 7.55141 326.005 8.27117 327.817 8.27119H365.942C367.754 8.27116 369.491 7.5514 370.772 6.27023C372.054 4.98907 372.773 3.25144 372.773 1.4396V4.41898e-07H384.729C385.819 -0.00035524 386.898 0.214007 387.905 0.630834C388.912 1.04766 389.826 1.65878 390.597 2.42928C391.368 3.19978 391.979 4.11456 392.395 5.12133C392.812 6.12811 393.027 7.20715 393.026 8.2968Z" fill="#F2F2F2"/>
<path d="M383.883 94.5981H311.355V95.3308H383.883V94.5981Z" fill="#3F3D56"/>
<path d="M383.883 113.646H311.355V114.379H383.883V113.646Z" fill="#3F3D56"/>
<path d="M383.883 132.694H311.355V133.426H383.883V132.694Z" fill="#3F3D56"/>
<path d="M345.684 66.7884C352.261 66.7884 357.592 61.4572 357.592 54.8808C357.592 48.3044 352.261 42.9731 345.684 42.9731C339.108 42.9731 333.777 48.3044 333.777 54.8808C333.777 61.4572 339.108 66.7884 345.684 66.7884Z" fill="#E86100"/>
<path d="M370.696 91.3018H365.568V103.023H370.696V91.3018Z" fill="#E86100"/>
<path d="M325.641 109.983H320.513V121.705H325.641V109.983Z" fill="#E86100"/>
<path d="M355.678 128.665H350.55V140.386H355.678V128.665Z" fill="#E86100"/>
<path d="M347.247 68.2243C344.349 68.2243 341.517 67.3649 339.107 65.7549C336.698 64.1449 334.82 61.8566 333.711 59.1792C332.602 56.5019 332.311 53.5558 332.877 50.7136C333.442 47.8713 334.838 45.2606 336.887 43.2114C338.936 41.1623 341.547 39.7668 344.389 39.2015C347.231 38.6361 350.177 38.9263 352.855 40.0353C355.532 41.1443 357.82 43.0223 359.43 45.4318C361.04 47.8413 361.9 50.6742 361.9 53.5721C361.895 57.4568 360.35 61.181 357.603 63.9279C354.856 66.6747 351.132 68.2199 347.247 68.2243ZM347.247 39.6525C344.494 39.6525 341.803 40.4689 339.514 41.9984C337.225 43.5279 335.441 45.7018 334.387 48.2453C333.334 50.7888 333.058 53.5875 333.595 56.2877C334.132 58.9878 335.458 61.468 337.405 63.4147C339.351 65.3614 341.832 66.6871 344.532 67.2242C347.232 67.7613 350.031 67.4856 352.574 66.4321C355.118 65.3785 357.292 63.5944 358.821 61.3054C360.351 59.0163 361.167 56.3251 361.167 53.5721C361.163 49.8817 359.695 46.3436 357.085 43.7341C354.476 41.1246 350.938 39.6567 347.247 39.6525Z" fill="#3F3D56"/>
<path d="M101.455 96.8663L100.738 97.4585L130.131 133.057L130.848 132.464L101.455 96.8663Z" fill="#3F3D56"/>
<path d="M134.064 137.09C131.626 135.677 128.25 134.214 125.59 133.775L130.02 132.193L132.412 128.143C132.34 130.837 133.137 134.429 134.064 137.09Z" fill="#3F3D56"/>
<path d="M291.212 96.863L261.827 132.468L262.544 133.06L291.93 97.4553L291.212 96.863Z" fill="#3F3D56"/>
<path d="M258.607 137.09C259.533 134.429 260.331 130.837 260.258 128.142L262.651 132.193L267.08 133.775C264.421 134.214 261.044 135.676 258.607 137.09Z" fill="#3F3D56"/>
<path d="M472.791 175.742C472.791 175.742 472.791 243.647 462.094 268.298L437.444 323.645C437.444 323.645 421.63 322.715 420.7 316.203L439.304 258.53L450.466 224.578L453.257 171.556L472.791 175.742Z" fill="#2F2E41"/>
<path d="M457.443 177.603L453.257 205.974L456.048 268.298L457.443 302.715C457.443 302.715 463.024 318.064 461.164 319.459L457.443 322.25C457.443 322.25 442.56 320.389 442.095 319.459C441.629 318.529 432.792 248.298 432.792 248.298C432.792 248.298 414.653 191.556 415.584 190.625C416.514 189.695 420.7 175.742 420.7 175.742L457.443 177.603Z" fill="#2F2E41"/>
<path d="M460.699 317.599L462.559 328.296C462.559 328.296 467.675 350.156 462.559 350.156C457.443 350.156 448.141 344.11 447.676 340.389C447.211 336.668 448.606 319.924 448.606 319.924L460.699 317.599Z" fill="#2F2E41"/>
<path d="M436.978 321.32C436.978 321.32 440.699 328.761 443.025 329.691C445.35 330.622 455.941 336.706 449.715 340.641C443.49 344.575 436.978 340.854 436.978 340.854L415.584 329.226C415.584 329.226 418.374 317.599 422.56 316.669C426.746 315.738 436.978 321.32 436.978 321.32Z" fill="#2F2E41"/>
<path d="M432.327 72.9542C441.575 72.9542 449.071 65.4578 449.071 56.2105C449.071 46.9632 441.575 39.4668 432.327 39.4668C423.08 39.4668 415.584 46.9632 415.584 56.2105C415.584 65.4578 423.08 72.9542 432.327 72.9542Z" fill="#FFB8B8"/>
<path d="M446.281 57.606C446.281 57.606 449.536 79.0007 452.792 81.7913C456.048 84.5819 445.815 94.3491 441.164 93.884C436.513 93.4189 431.397 83.1866 431.397 83.1866C431.397 83.1866 432.793 69.6986 430.467 65.9778C428.142 62.257 446.281 57.606 446.281 57.606Z" fill="#FFB8B8"/>
<path d="M442.56 85.0474L450.459 77.7554C453.001 80.9493 456.169 83.5892 459.769 85.5125C465.815 88.7682 448.141 122.256 448.141 122.256L419.77 86.9078C419.77 86.9078 428.794 80.9095 431.723 78.5599L442.56 85.0474Z" fill="#3F3D56"/>
<path d="M447.211 113.419C447.211 113.419 459.676 91.6893 458.327 84.6475C458.327 84.6475 476.512 89.2332 477.442 95.2795C478.373 101.326 468.606 123.186 468.606 123.186C468.606 123.186 476.512 178.533 471.861 178.998C467.21 179.463 420.7 179.928 419.77 177.603C418.839 175.277 420.7 168.301 417.909 165.975C415.119 163.65 411.863 165.045 413.258 161.324C414.654 157.603 420.7 152.952 418.839 150.162C416.979 147.371 416.514 148.301 416.979 146.441C417.444 144.58 416.049 119.93 416.049 119.93C416.049 119.93 406.282 92.954 408.607 91.0936C410.933 89.2332 423.131 84.6475 423.131 84.6475L447.211 113.419Z" fill="#3F3D56"/>
<path d="M484.419 185.974C484.419 185.974 483.024 204.579 475.117 203.648C467.21 202.718 476.512 182.719 476.512 182.719L484.419 185.974Z" fill="#FFB8B8"/>
<path d="M415.119 185.51C415.119 185.51 417.909 196.672 421.165 195.742V182.719L419.77 180.394L415.119 185.51Z" fill="#FFB8B8"/>
<path d="M445.984 58.6194C445.94 58.1378 445.776 57.6748 445.506 57.273C445.234 56.9668 444.882 56.7433 444.488 56.628C443.451 56.3066 442.332 56.365 441.334 56.7929C440.335 57.2209 439.522 57.9903 439.039 58.9635C438.609 59.9 438.403 61.1061 437.461 61.5233C436.366 62.0083 435.152 60.9759 434.722 59.8583C434.291 58.7407 434.28 57.4741 433.706 56.4229C433.026 55.1763 431.652 54.4417 430.263 54.1472C429.111 53.9031 427.703 53.7752 427.183 52.7192C427.016 52.3158 426.944 51.8789 426.973 51.443C426.985 49.8883 427.267 48.3476 427.804 46.8889C423.248 45.9789 419.195 50.4256 414.549 50.4973C413.96 50.5315 413.372 50.4163 412.839 50.1623C411.808 49.6116 411.36 48.391 411.05 47.2643C410.72 46.0675 410.448 44.8567 410.235 43.6318L411.723 44.3143C411.309 43.5217 411.082 42.6445 411.06 41.7504C411.828 41.6703 412.604 41.7358 413.348 41.9435L413.456 39.2765C414.605 40.7342 416.898 40.2218 418.627 39.547C421.965 38.2447 425.286 36.8351 428.789 36.0836C432.293 35.332 436.048 35.2767 439.361 36.642C442.842 38.0769 445.526 40.9303 447.891 43.861C449.201 45.4856 450.468 47.193 451.176 49.1566C452.06 51.8152 452.05 54.6903 451.148 57.3428C450.385 59.7306 448.967 62.619 447.059 64.2737C446.391 62.5835 446.301 60.4275 445.984 58.6194Z" fill="#2F2E41"/>
<path d="M414.188 89.6982L408.142 91.0936C408.142 91.0936 401.166 98.5352 400.7 105.512C400.235 112.488 400.235 147.371 400.235 147.371L409.072 176.207C409.072 176.207 408.142 182.719 409.072 182.719C410.003 182.719 410.468 181.324 410.468 183.184C410.468 185.044 408.142 183.184 410.468 185.044L415.119 188.765L422.892 178.459C422.892 178.459 423.491 174.347 422.095 173.417C420.7 172.487 420.7 172.022 421.165 170.626C421.63 169.231 422.56 168.766 422.095 167.836C421.63 166.905 420.235 165.51 420.235 164.58C420.235 163.65 420.235 162.719 419.77 162.254C419.305 161.789 416.049 150.627 416.049 150.627L417.909 114.349L414.188 89.6982Z" fill="#3F3D56"/>
<path d="M472.791 92.0234L477.442 94.349C477.442 94.349 484.884 116.674 484.884 136.208C484.884 155.743 486.279 168.765 486.279 168.765C486.279 168.765 488.605 174.347 487.675 174.347C486.744 174.347 485.814 174.347 486.744 175.742C487.675 177.137 488.14 176.672 487.675 178.068C487.21 179.463 486.744 177.137 487.21 179.463C487.675 181.788 487.21 182.719 486.279 182.719C485.349 182.719 485.349 188.765 485.349 188.765L474.187 184.579C474.187 184.579 476.047 182.253 475.582 181.323C475.299 180.742 475.141 180.109 475.117 179.463C475.117 179.463 477.442 178.998 475.117 178.068C472.791 177.137 473.722 177.137 474.187 174.347C474.652 171.556 476.047 172.021 474.652 171.556C473.257 171.091 464.885 127.836 464.885 127.836L472.791 92.0234Z" fill="#3F3D56"/>
<path d="M442.553 86.5919C443.323 86.5919 443.948 85.9672 443.948 85.1966C443.948 84.426 443.323 83.8013 442.553 83.8013C441.782 83.8013 441.157 84.426 441.157 85.1966C441.157 85.9672 441.782 86.5919 442.553 86.5919Z" fill="#2F2E41"/>
<path d="M442.553 91.2433C443.323 91.2433 443.948 90.6186 443.948 89.8479C443.948 89.0773 443.323 88.4526 442.553 88.4526C441.782 88.4526 441.157 89.0773 441.157 89.8479C441.157 90.6186 441.782 91.2433 442.553 91.2433Z" fill="#2F2E41"/>
</g>
<defs>
<clipPath id="clip0_135_1041">
<rect width="500" height="356.435" fill="white"/>
</clipPath>
</defs>
</svg>
