<svg width="500" height="434" viewBox="0 0 500 434" fill="none" xmlns="http://www.w3.org/2000/svg">
<g clip-path="url(#clip0_135_989)">
<path d="M416.553 102.788H414.176V37.6827C414.176 27.6886 410.206 18.1039 403.139 11.037C396.073 3.97013 386.488 6.59742e-06 376.494 0H238.555C233.606 0 228.706 0.974689 224.134 2.86842C219.562 4.76215 215.408 7.53784 211.909 11.037C208.41 14.5362 205.634 18.6903 203.741 23.2621C201.847 27.834 200.872 32.7341 200.872 37.6827V394.861C200.872 404.855 204.842 414.44 211.909 421.507C218.976 428.574 228.561 432.544 238.555 432.544H376.494C386.488 432.544 396.072 428.574 403.139 421.507C410.206 414.44 414.176 404.855 414.176 394.861V149.131H416.552L416.553 102.788Z" fill="#E6E6E6"/>
<path d="M378.014 9.80029H360.01C360.838 11.8305 361.154 14.0331 360.93 16.2142C360.707 18.3953 359.95 20.4879 358.727 22.3076C357.504 24.1273 355.852 25.6183 353.917 26.6492C351.982 27.68 349.823 28.2192 347.63 28.2191H268.607C266.414 28.219 264.255 27.6797 262.32 26.6488C260.386 25.6178 258.734 24.1268 257.511 22.3071C256.288 20.4874 255.531 18.3949 255.308 16.2139C255.084 14.0329 255.4 11.8304 256.228 9.80029H239.411C231.947 9.80029 224.79 12.7651 219.512 18.0426C214.235 23.3201 211.27 30.4779 211.27 37.9413V394.601C211.27 402.065 214.235 409.223 219.512 414.5C224.79 419.778 231.947 422.742 239.411 422.742H378.014C385.478 422.742 392.636 419.778 397.913 414.5C403.19 409.223 406.155 402.065 406.155 394.601V37.9408C406.155 30.4774 403.19 23.3197 397.913 18.0424C392.635 12.7651 385.478 9.80029 378.014 9.80029Z" fill="white"/>
<path d="M266.787 92.9914C266.036 92.9981 265.292 92.8466 264.604 92.5468C263.915 92.2469 263.297 91.8055 262.79 91.2512C262.189 90.5555 261.738 89.7428 261.466 88.8643C261.193 87.9859 261.106 87.0606 261.209 86.1466C261.352 84.4059 262.081 82.7653 263.278 81.4929C263.853 80.8716 264.548 80.3742 265.322 80.0314C266.096 79.6885 266.932 79.5074 267.778 79.4991C268.565 79.4956 269.344 79.6578 270.064 79.9753C270.784 80.2927 271.43 80.7581 271.958 81.3413C272.557 82.0186 273.01 82.8129 273.287 83.674C273.564 84.535 273.66 85.4442 273.568 86.344C273.456 88.1908 272.659 89.9294 271.334 91.22C270.1 92.3688 268.473 93.0025 266.787 92.9914ZM267.778 81.7478C265.577 81.7478 263.676 83.7666 263.449 86.3439C263.374 86.9471 263.424 87.5593 263.596 88.1423C263.768 88.7253 264.058 89.2666 264.449 89.7325C264.744 90.0576 265.106 90.3159 265.509 90.4901C265.912 90.6643 266.348 90.7504 266.787 90.7427C268.846 90.7427 271.048 89.3215 271.328 86.1464C271.393 85.5573 271.335 84.9612 271.158 84.3956C270.981 83.83 270.688 83.3071 270.3 82.86C269.981 82.508 269.592 82.2271 269.157 82.0355C268.723 81.8439 268.253 81.7458 267.778 81.7478Z" fill="#3F3D56"/>
<path d="M266.86 99.7376C265.121 99.7659 263.395 99.424 261.798 98.7346C260.201 98.0452 258.769 97.024 257.596 95.7387C256.424 94.4535 255.538 92.9337 254.998 91.28C254.457 89.6264 254.275 87.8767 254.462 86.1472C254.831 82.5169 256.519 79.148 259.205 76.6792C261.892 74.2104 265.392 72.8134 269.04 72.7529C273.088 72.7529 276.419 74.0536 278.672 76.5142C280.809 78.8474 281.81 82.132 281.49 85.7628C281.187 89.2023 279.728 90.9937 278.557 91.8908C278.04 92.3123 277.442 92.6244 276.801 92.8082C276.16 92.992 275.488 93.0437 274.826 92.9601C272.975 92.632 270.928 90.9506 271.25 87.2921L271.846 80.5283C271.874 80.2324 272.018 79.9594 272.246 79.769C272.474 79.5787 272.769 79.4865 273.065 79.5126C273.361 79.5386 273.634 79.6809 273.826 79.9082C274.017 80.1356 274.111 80.4295 274.086 80.7257L273.491 87.4894C273.33 89.3082 273.977 90.5257 275.219 90.7459C275.934 90.8015 276.643 90.5713 277.189 90.1058C278.001 89.4833 279.019 88.1903 279.25 85.5655C279.517 82.5271 278.744 79.9224 277.014 78.0329C275.198 76.0499 272.441 75.0017 269.04 75.0017C265.954 75.0601 262.995 76.2457 260.723 78.335C258.45 80.4242 257.02 83.2727 256.702 86.3434C256.542 87.7622 256.687 89.1989 257.127 90.5572C257.567 91.9156 258.292 93.1642 259.254 94.2195C260.216 95.2749 261.392 96.1125 262.704 96.6763C264.016 97.2402 265.433 97.5172 266.86 97.4889C268.622 97.5841 270.381 97.2652 271.996 96.5577C272.271 96.4436 272.579 96.443 272.855 96.556C273.13 96.669 273.349 96.8864 273.464 97.1606C273.579 97.4347 273.581 97.7434 273.469 98.019C273.357 98.2945 273.141 98.5145 272.867 98.6309C270.976 99.4542 268.921 99.8328 266.86 99.7376Z" fill="#3F3D56"/>
<path d="M254.989 260.451C254.767 260.451 254.549 260.385 254.364 260.262C254.179 260.138 254.035 259.963 253.95 259.757C253.865 259.552 253.843 259.326 253.886 259.108C253.93 258.889 254.037 258.689 254.194 258.532L261.502 251.223C261.714 251.015 261.999 250.899 262.296 250.9C262.592 250.901 262.877 251.019 263.087 251.229C263.296 251.439 263.415 251.723 263.416 252.02C263.417 252.317 263.301 252.602 263.092 252.814L255.784 260.122C255.68 260.226 255.556 260.309 255.419 260.366C255.283 260.422 255.137 260.451 254.989 260.451ZM273.541 257.64C273.318 257.64 273.101 257.574 272.916 257.451C272.731 257.327 272.587 257.152 272.502 256.946C272.417 256.741 272.395 256.515 272.438 256.297C272.482 256.078 272.589 255.878 272.746 255.721L278.93 249.537C279.141 249.329 279.426 249.212 279.723 249.213C280.02 249.214 280.304 249.333 280.514 249.543C280.724 249.753 280.842 250.037 280.843 250.334C280.845 250.63 280.728 250.916 280.52 251.127L274.336 257.311C274.232 257.416 274.108 257.498 273.971 257.555C273.835 257.612 273.689 257.641 273.541 257.64ZM270.168 257.64C270.02 257.641 269.874 257.612 269.737 257.555C269.601 257.498 269.477 257.416 269.373 257.311L264.875 252.814C264.77 252.709 264.686 252.585 264.628 252.449C264.571 252.312 264.541 252.165 264.54 252.017C264.54 251.869 264.569 251.722 264.625 251.584C264.682 251.447 264.765 251.323 264.87 251.218C264.975 251.113 265.099 251.03 265.236 250.973C265.373 250.917 265.52 250.888 265.669 250.889C265.817 250.889 265.964 250.919 266.101 250.976C266.237 251.034 266.361 251.118 266.465 251.223L270.963 255.721C271.12 255.878 271.227 256.078 271.271 256.297C271.314 256.515 271.292 256.741 271.207 256.946C271.121 257.152 270.977 257.327 270.792 257.451C270.608 257.574 270.39 257.64 270.168 257.64Z" fill="#3F3D56"/>
<path d="M281.411 251.456C280.856 251.456 280.312 251.291 279.85 250.983C279.388 250.674 279.027 250.235 278.815 249.721C278.602 249.207 278.546 248.642 278.655 248.097C278.763 247.552 279.031 247.051 279.424 246.658C279.817 246.265 280.318 245.997 280.863 245.888C281.408 245.78 281.974 245.836 282.487 246.048C283.001 246.261 283.44 246.621 283.749 247.084C284.058 247.546 284.222 248.089 284.222 248.645C284.222 249.391 283.925 250.105 283.398 250.632C282.871 251.159 282.157 251.455 281.411 251.456ZM281.411 248.083C281.3 248.083 281.192 248.116 281.099 248.178C281.007 248.24 280.935 248.328 280.892 248.43C280.85 248.533 280.838 248.646 280.86 248.755C280.882 248.864 280.935 248.964 281.014 249.043C281.093 249.122 281.193 249.175 281.302 249.197C281.411 249.218 281.524 249.207 281.627 249.165C281.729 249.122 281.817 249.05 281.879 248.958C281.941 248.865 281.974 248.757 281.974 248.645C281.973 248.496 281.914 248.353 281.809 248.248C281.703 248.143 281.561 248.083 281.411 248.083Z" fill="#3F3D56"/>
<path d="M271.854 261.013C271.298 261.013 270.755 260.849 270.293 260.54C269.83 260.231 269.47 259.792 269.257 259.278C269.045 258.765 268.989 258.199 269.097 257.654C269.206 257.109 269.474 256.608 269.867 256.215C270.26 255.822 270.761 255.554 271.306 255.446C271.851 255.337 272.416 255.393 272.93 255.606C273.444 255.818 273.883 256.179 274.192 256.641C274.5 257.103 274.665 257.647 274.665 258.203C274.664 258.948 274.368 259.662 273.841 260.189C273.314 260.716 272.6 261.013 271.854 261.013ZM271.854 257.64C271.743 257.64 271.634 257.673 271.542 257.735C271.45 257.797 271.378 257.885 271.335 257.987C271.292 258.09 271.281 258.203 271.303 258.312C271.325 258.421 271.378 258.521 271.457 258.6C271.535 258.679 271.636 258.732 271.745 258.754C271.854 258.776 271.967 258.764 272.07 258.722C272.172 258.679 272.26 258.607 272.322 258.515C272.384 258.422 272.417 258.314 272.417 258.203C272.416 258.053 272.357 257.911 272.252 257.805C272.146 257.7 272.003 257.641 271.854 257.64Z" fill="#3F3D56"/>
<path d="M263.984 253.143C263.428 253.143 262.884 252.978 262.422 252.669C261.96 252.36 261.6 251.921 261.387 251.408C261.174 250.894 261.118 250.329 261.227 249.784C261.335 249.238 261.603 248.737 261.996 248.344C262.389 247.951 262.89 247.683 263.435 247.575C263.981 247.467 264.546 247.522 265.059 247.735C265.573 247.948 266.012 248.308 266.321 248.77C266.63 249.232 266.795 249.776 266.795 250.332C266.794 251.077 266.497 251.792 265.97 252.319C265.443 252.846 264.729 253.142 263.984 253.143ZM263.984 249.77C263.873 249.77 263.764 249.803 263.671 249.864C263.579 249.926 263.507 250.014 263.464 250.117C263.422 250.219 263.411 250.333 263.432 250.442C263.454 250.551 263.508 250.651 263.586 250.729C263.665 250.808 263.765 250.862 263.874 250.883C263.983 250.905 264.096 250.894 264.199 250.851C264.302 250.809 264.389 250.737 264.451 250.644C264.513 250.552 264.546 250.443 264.546 250.332C264.546 250.183 264.487 250.04 264.381 249.935C264.276 249.829 264.133 249.77 263.984 249.77Z" fill="#3F3D56"/>
<path d="M253.302 263.824C252.746 263.824 252.203 263.659 251.741 263.35C251.278 263.041 250.918 262.602 250.705 262.089C250.493 261.575 250.437 261.01 250.545 260.465C250.654 259.919 250.922 259.419 251.315 259.025C251.708 258.632 252.209 258.365 252.754 258.256C253.299 258.148 253.864 258.203 254.378 258.416C254.892 258.629 255.331 258.989 255.64 259.451C255.948 259.914 256.113 260.457 256.113 261.013C256.112 261.758 255.816 262.473 255.289 263C254.762 263.527 254.048 263.823 253.302 263.824ZM253.302 260.451C253.191 260.451 253.082 260.484 252.99 260.546C252.898 260.607 252.826 260.695 252.783 260.798C252.74 260.901 252.729 261.014 252.751 261.123C252.773 261.232 252.826 261.332 252.905 261.411C252.983 261.489 253.084 261.543 253.193 261.564C253.302 261.586 253.415 261.575 253.518 261.532C253.62 261.49 253.708 261.418 253.77 261.325C253.832 261.233 253.865 261.124 253.865 261.013C253.864 260.864 253.805 260.721 253.7 260.616C253.594 260.51 253.451 260.451 253.302 260.451Z" fill="#3F3D56"/>
<path d="M360.009 350.53H336.397C335.354 350.529 334.353 350.114 333.616 349.376C332.878 348.639 332.463 347.638 332.462 346.595V329.73C332.463 328.686 332.878 327.686 333.616 326.948C334.353 326.211 335.354 325.796 336.397 325.794H360.009C361.052 325.796 362.052 326.211 362.79 326.948C363.528 327.686 363.943 328.686 363.944 329.73V346.595C363.943 347.638 363.528 348.639 362.79 349.376C362.052 350.114 361.052 350.529 360.009 350.53ZM336.397 328.043C335.95 328.044 335.521 328.222 335.205 328.538C334.889 328.854 334.711 329.283 334.71 329.73V346.595C334.711 347.042 334.889 347.471 335.205 347.787C335.521 348.103 335.95 348.281 336.397 348.282H360.009C360.456 348.281 360.884 348.103 361.201 347.787C361.517 347.471 361.695 347.042 361.695 346.595V329.73C361.695 329.283 361.517 328.854 361.201 328.538C360.884 328.221 360.456 328.044 360.009 328.043L336.397 328.043Z" fill="#3F3D56"/>
<path d="M348.203 340.411C347.953 340.411 347.71 340.328 347.512 340.174L337.393 332.304C337.276 332.213 337.179 332.1 337.106 331.972C337.033 331.844 336.986 331.702 336.968 331.556C336.949 331.409 336.96 331.261 336.999 331.118C337.038 330.976 337.105 330.843 337.196 330.726C337.286 330.61 337.399 330.512 337.528 330.439C337.656 330.366 337.797 330.319 337.944 330.301C338.09 330.282 338.239 330.293 338.381 330.332C338.524 330.371 338.657 330.438 338.774 330.529L348.203 337.862L357.632 330.529C357.748 330.438 357.881 330.371 358.024 330.332C358.166 330.293 358.315 330.282 358.461 330.301C358.608 330.319 358.749 330.366 358.878 330.439C359.006 330.512 359.119 330.61 359.209 330.726C359.3 330.843 359.367 330.976 359.406 331.118C359.445 331.261 359.456 331.409 359.438 331.556C359.419 331.702 359.372 331.844 359.299 331.972C359.226 332.1 359.129 332.213 359.012 332.304L348.893 340.174C348.696 340.328 348.453 340.411 348.203 340.411Z" fill="#3F3D56"/>
<path d="M475.022 366.096L344.959 366.148C344.794 366.148 344.635 366.082 344.519 365.966C344.402 365.849 344.337 365.691 344.337 365.526C344.337 365.361 344.402 365.203 344.519 365.086C344.635 364.97 344.794 364.904 344.959 364.904L475.022 364.853C475.186 364.853 475.345 364.918 475.461 365.035C475.578 365.151 475.643 365.309 475.643 365.474C475.643 365.639 475.578 365.798 475.461 365.914C475.345 366.031 475.186 366.096 475.022 366.096Z" fill="#CCCCCC"/>
<path d="M473.291 374.181C478.099 374.181 481.997 370.282 481.997 365.474C481.997 360.666 478.099 356.768 473.291 356.768C468.482 356.768 464.584 360.666 464.584 365.474C464.584 370.282 468.482 374.181 473.291 374.181Z" fill="#E86100"/>
<path d="M471.912 199.429L340.605 199.481C340.44 199.481 340.282 199.415 340.166 199.299C340.049 199.182 339.983 199.024 339.983 198.859C339.983 198.694 340.049 198.536 340.166 198.419C340.282 198.303 340.44 198.237 340.605 198.237L471.912 198.186C472.077 198.186 472.235 198.251 472.352 198.368C472.468 198.484 472.534 198.643 472.534 198.807C472.534 198.972 472.468 199.131 472.352 199.247C472.235 199.364 472.077 199.429 471.912 199.429Z" fill="#CCCCCC"/>
<path d="M473.291 208.136C478.099 208.136 481.997 204.238 481.997 199.43C481.997 194.621 478.099 190.723 473.291 190.723C468.482 190.723 464.584 194.621 464.584 199.43C464.584 204.238 468.482 208.136 473.291 208.136Z" fill="#E86100"/>
<path d="M135.739 114.231L267.045 114.282C267.21 114.282 267.368 114.217 267.485 114.1C267.602 113.983 267.667 113.825 267.667 113.66C267.667 113.495 267.602 113.337 267.485 113.22C267.368 113.104 267.21 113.038 267.045 113.038L135.739 112.987C135.574 112.987 135.415 113.052 135.299 113.169C135.182 113.286 135.117 113.444 135.117 113.609C135.117 113.774 135.182 113.932 135.299 114.048C135.415 114.165 135.574 114.231 135.739 114.231Z" fill="#CCCCCC"/>
<path d="M134.36 122.937C139.169 122.937 143.067 119.039 143.067 114.23C143.067 109.422 139.169 105.524 134.36 105.524C129.552 105.524 125.654 109.422 125.654 114.23C125.654 119.039 129.552 122.937 134.36 122.937Z" fill="#E86100"/>
<path d="M135.739 282.763L267.045 282.814C267.21 282.814 267.368 282.749 267.485 282.632C267.602 282.516 267.667 282.357 267.667 282.192C267.667 282.028 267.602 281.869 267.485 281.753C267.368 281.636 267.21 281.571 267.045 281.571L135.739 281.519C135.574 281.519 135.415 281.585 135.299 281.701C135.182 281.818 135.117 281.976 135.117 282.141C135.117 282.306 135.182 282.464 135.299 282.581C135.415 282.697 135.574 282.763 135.739 282.763Z" fill="#CCCCCC"/>
<path d="M134.36 291.469C139.169 291.469 143.067 287.571 143.067 282.763C143.067 277.954 139.169 274.056 134.36 274.056C129.552 274.056 125.654 277.954 125.654 282.763C125.654 287.571 129.552 291.469 134.36 291.469Z" fill="#E86100"/>
<path d="M348.203 366.148C342.668 366.148 337.257 364.507 332.655 361.432C328.053 358.357 324.466 353.986 322.348 348.872C320.23 343.759 319.675 338.132 320.755 332.703C321.835 327.275 324.5 322.288 328.414 318.374C332.328 314.461 337.314 311.795 342.743 310.715C348.172 309.636 353.798 310.19 358.912 312.308C364.026 314.426 368.396 318.013 371.471 322.615C374.546 327.217 376.188 332.628 376.188 338.163C376.179 345.582 373.228 352.696 367.982 357.942C362.735 363.188 355.622 366.139 348.203 366.148ZM348.203 311.422C342.914 311.422 337.744 312.99 333.346 315.928C328.948 318.867 325.521 323.043 323.497 327.929C321.473 332.816 320.943 338.192 321.975 343.38C323.007 348.567 325.554 353.332 329.294 357.072C333.034 360.812 337.798 363.358 342.986 364.39C348.173 365.422 353.55 364.893 358.436 362.869C363.322 360.845 367.499 357.417 370.437 353.019C373.376 348.622 374.944 343.452 374.944 338.163C374.936 331.073 372.116 324.276 367.103 319.263C362.09 314.249 355.292 311.43 348.203 311.422Z" fill="#CCCCCC"/>
<path d="M267.357 282.814C261.822 282.814 256.411 281.173 251.809 278.098C247.207 275.023 243.62 270.652 241.502 265.539C239.384 260.425 238.83 254.798 239.91 249.37C240.989 243.941 243.655 238.955 247.568 235.041C251.482 231.127 256.469 228.462 261.897 227.382C267.326 226.302 272.953 226.856 278.066 228.974C283.18 231.093 287.551 234.68 290.626 239.282C293.701 243.884 295.342 249.294 295.342 254.829C295.334 262.249 292.382 269.362 287.136 274.608C281.89 279.855 274.776 282.806 267.357 282.814ZM267.357 228.088C262.068 228.088 256.898 229.656 252.5 232.595C248.103 235.533 244.675 239.71 242.651 244.596C240.627 249.482 240.098 254.859 241.129 260.046C242.161 265.234 244.708 269.998 248.448 273.738C252.188 277.478 256.953 280.025 262.14 281.057C267.327 282.089 272.704 281.559 277.59 279.535C282.477 277.511 286.653 274.084 289.592 269.686C292.53 265.288 294.098 260.118 294.098 254.829C294.09 247.74 291.27 240.942 286.257 235.929C281.244 230.916 274.447 228.096 267.357 228.088Z" fill="#CCCCCC"/>
<path d="M342.606 199.481C337.071 199.481 331.66 197.84 327.058 194.765C322.456 191.69 318.869 187.319 316.751 182.205C314.633 177.092 314.079 171.465 315.158 166.036C316.238 160.608 318.903 155.621 322.817 151.707C326.731 147.794 331.717 145.128 337.146 144.048C342.575 142.969 348.202 143.523 353.315 145.641C358.429 147.759 362.799 151.346 365.874 155.948C368.949 160.55 370.591 165.961 370.591 171.496C370.582 178.915 367.631 186.029 362.385 191.275C357.138 196.521 350.025 199.472 342.606 199.481ZM342.606 144.755C337.317 144.755 332.147 146.323 327.749 149.261C323.351 152.2 319.924 156.376 317.9 161.262C315.876 166.149 315.346 171.525 316.378 176.713C317.41 181.9 319.957 186.665 323.697 190.405C327.437 194.145 332.201 196.691 337.389 197.723C342.576 198.755 347.953 198.226 352.839 196.202C357.725 194.178 361.902 190.75 364.84 186.352C367.779 181.955 369.347 176.785 369.347 171.496C369.339 164.406 366.519 157.609 361.506 152.596C356.493 147.582 349.695 144.763 342.606 144.755Z" fill="#CCCCCC"/>
<path d="M267.979 114.23C262.444 114.23 257.033 112.589 252.431 109.514C247.829 106.439 244.242 102.068 242.124 96.9548C240.006 91.8411 239.452 86.2143 240.531 80.7857C241.611 75.3572 244.277 70.3707 248.19 66.4569C252.104 62.5431 257.091 59.8778 262.519 58.798C267.948 57.7182 273.575 58.2724 278.688 60.3905C283.802 62.5086 288.172 66.0955 291.247 70.6977C294.323 75.2998 295.964 80.7104 295.964 86.2453C295.955 93.6649 293.004 100.778 287.758 106.024C282.511 111.271 275.398 114.222 267.979 114.23ZM267.979 59.504C262.69 59.504 257.52 61.0724 253.122 64.0108C248.724 66.9491 245.297 71.1256 243.273 76.0119C241.249 80.8982 240.719 86.275 241.751 91.4623C242.783 96.6496 245.33 101.414 249.07 105.154C252.81 108.894 257.574 111.441 262.762 112.473C267.949 113.505 273.326 112.975 278.212 110.951C283.099 108.927 287.275 105.5 290.213 101.102C293.152 96.7044 294.72 91.5343 294.72 86.2453C294.712 79.1556 291.892 72.3585 286.879 67.3452C281.866 62.332 275.069 59.512 267.979 59.504Z" fill="#CCCCCC"/>
<path d="M92.3521 303.843C91.5871 303.259 90.9536 302.522 90.4926 301.677C90.0317 300.833 89.7537 299.901 89.6768 298.942C89.6597 298.718 89.6544 298.494 89.661 298.27L60.7007 278.766C59.7529 278.121 59.0388 277.187 58.6649 276.104C58.291 275.02 58.2772 273.845 58.6257 272.753L72.467 238.365C73.0626 236.884 74.2205 235.7 75.6872 235.072C77.1539 234.444 78.8098 234.422 80.2924 235.012C81.775 235.602 82.9634 236.755 83.5975 238.219C84.2316 239.683 84.2597 241.339 83.6756 242.824L72.5004 271.238L95.0509 291.721C95.3485 291.653 95.6504 291.606 95.9546 291.581C97.6962 291.443 99.4248 291.976 100.786 293.071C102.147 294.166 103.038 295.741 103.275 297.472C103.512 299.203 103.078 300.959 102.062 302.38C101.046 303.801 99.5245 304.78 97.8099 305.115C97.3699 305.2 96.9229 305.243 96.4749 305.243C94.9837 305.244 93.5342 304.752 92.3521 303.843Z" fill="#A0616A"/>
<path d="M60.7126 258.613C60.5431 258.217 60.461 257.79 60.4719 257.359C60.4828 256.929 60.5864 256.506 60.7756 256.119L67.383 242.614C68.0497 240.515 69.5215 238.766 71.4758 237.751C73.4301 236.735 75.7074 236.536 77.8083 237.197C79.9092 237.858 81.6623 239.325 82.6833 241.276C83.7043 243.228 83.9097 245.504 83.2547 247.607L80.8424 262.496C80.7735 262.921 80.6139 263.326 80.3743 263.684C80.1348 264.042 79.8209 264.344 79.4542 264.569C79.0875 264.794 78.6765 264.938 78.2492 264.99C77.822 265.043 77.3884 265.002 76.9782 264.872L62.5595 260.29C62.1491 260.16 61.7717 259.942 61.4529 259.653C61.1342 259.364 60.8817 259.009 60.7126 258.613Z" fill="#E86100"/>
<path d="M106.286 425.342H113.91L117.537 395.934L106.285 395.935L106.286 425.342Z" fill="#A0616A"/>
<path d="M104.341 422.853L119.356 422.853H119.357C120.613 422.853 121.857 423.1 123.018 423.581C124.179 424.062 125.234 424.766 126.123 425.655C127.011 426.544 127.716 427.598 128.197 428.759C128.678 429.92 128.925 431.165 128.925 432.421V432.732L104.342 432.733L104.341 422.853Z" fill="#2F2E41"/>
<path d="M31.7319 419.94L39.1163 421.838L49.9496 394.258L39.051 391.458L31.7319 419.94Z" fill="#A0616A"/>
<path d="M30.468 417.045L45.0103 420.782L45.0109 420.782C46.2279 421.095 47.3714 421.644 48.3761 422.399C49.3808 423.154 50.227 424.099 50.8664 425.181C51.5058 426.262 51.9258 427.46 52.1026 428.704C52.2793 429.948 52.2093 431.214 51.8965 432.431L51.819 432.733L28.009 426.614L30.468 417.045Z" fill="#2F2E41"/>
<path d="M85.2081 223.595C93.6439 223.595 100.482 216.757 100.482 208.321C100.482 199.885 93.6439 193.047 85.2081 193.047C76.7724 193.047 69.9338 199.885 69.9338 208.321C69.9338 216.757 76.7724 223.595 85.2081 223.595Z" fill="#A0616A"/>
<path d="M77.4828 271.854C73.8488 268.113 70.7633 263.877 68.3186 259.27C67.0183 256.744 66.2613 253.975 66.0964 251.139C65.9314 248.303 66.3621 245.464 67.3607 242.804C68.3804 240.086 69.9581 237.611 71.9921 235.539C74.0262 233.467 76.4715 231.844 79.1708 230.774C83.9046 228.853 89.186 228.774 93.9755 230.551C98.7649 232.329 102.715 235.836 105.049 240.38C108.871 247.86 110.369 255.172 109.501 262.117C107.842 275.391 106.87 282.253 106.614 282.509L106.529 282.595L78.1147 283.857L77.4828 271.854Z" fill="#E86100"/>
<path d="M79.1704 280.184L104.598 278.918C105.24 278.886 105.869 279.104 106.354 279.526C106.839 279.948 107.142 280.541 107.199 281.182L118.896 412.296C118.927 412.644 118.884 412.995 118.771 413.326C118.657 413.657 118.475 413.96 118.236 414.215C117.997 414.471 117.707 414.673 117.385 414.809C117.062 414.945 116.715 415.011 116.365 415.004L106.431 414.793C105.885 414.781 105.358 414.59 104.931 414.249C104.504 413.907 104.202 413.435 104.07 412.905L85.0922 336.436C84.968 335.935 84.6915 335.486 84.3009 335.15C83.9103 334.813 83.4248 334.607 82.9116 334.558C82.3984 334.51 81.8829 334.622 81.4362 334.879C80.9896 335.137 80.6339 335.526 80.4183 335.994L44.4545 414.103C44.2102 414.634 43.787 415.061 43.2591 415.311C42.7312 415.561 42.1322 415.617 41.5671 415.47L31.5697 412.862C30.9509 412.701 30.4179 412.308 30.0814 411.765C29.7449 411.221 29.631 410.569 29.7632 409.943C33.0525 394.416 52.7555 305.493 77.5627 280.881C77.9944 280.458 78.5669 280.21 79.1704 280.184Z" fill="#2F2E41"/>
<path d="M127.322 294.905C126.402 294.622 125.553 294.148 124.829 293.514C124.105 292.88 123.522 292.101 123.119 291.228C123.026 291.024 122.944 290.816 122.872 290.603L88.96 282.293C87.8478 282.015 86.8553 281.385 86.1303 280.497C85.4054 279.609 84.9868 278.51 84.937 277.365L86.0593 240.314C86.1076 238.719 86.7857 237.208 87.9453 236.112C89.1049 235.016 90.6515 234.425 92.2464 234.466C93.8414 234.508 95.3547 235.18 96.4553 236.336C97.5558 237.491 98.1538 239.035 98.1183 240.63L97.4365 271.155L125.671 282.596C125.927 282.43 126.194 282.282 126.47 282.153C127.478 281.685 128.586 281.47 129.696 281.527C130.806 281.583 131.885 281.908 132.841 282.475C133.797 283.041 134.601 283.832 135.183 284.779C135.765 285.726 136.108 286.8 136.182 287.909C136.256 289.018 136.059 290.128 135.608 291.144C135.157 292.16 134.466 293.05 133.593 293.739C132.721 294.428 131.694 294.894 130.602 295.097C129.509 295.3 128.383 295.234 127.322 294.905Z" fill="#A0616A"/>
<path d="M82.4423 258.775C82.1496 258.46 81.9285 258.084 81.794 257.676C81.6596 257.267 81.6149 256.834 81.6631 256.406L83.3439 241.465C83.2659 239.264 84.0639 237.122 85.5628 235.509C87.0618 233.895 89.1393 232.942 91.3401 232.858C93.5409 232.773 95.6852 233.565 97.3029 235.06C98.9207 236.554 99.8799 238.629 99.9702 240.83L102.706 255.663C102.784 256.086 102.77 256.521 102.664 256.939C102.559 257.356 102.365 257.746 102.095 258.082C101.826 258.417 101.487 258.691 101.102 258.884C100.718 259.077 100.296 259.185 99.8655 259.2L84.7456 259.733C84.3154 259.749 83.8869 259.671 83.4893 259.506C83.0918 259.341 82.7347 259.091 82.4423 258.775Z" fill="#E86100"/>
<path d="M63.3215 228.487L64.9175 223.329L66.0088 229.118L74.9721 228.88L74.9308 223.173L78.3382 228.805L86.4605 227.01C84.7253 224.698 82.9694 222.35 81.8597 219.624C80.7499 216.899 80.3459 213.702 81.3828 210.943C83.9464 204.122 93.6661 206.031 98.9822 205.973C100.533 205.956 102.284 205.845 103.3 204.577C104.065 203.622 104.19 202.256 104.151 200.993C103.952 194.492 100.048 188.289 94.5296 185.704C91.8284 184.46 88.817 184.052 85.8822 184.533C84.3514 184.775 82.8651 185.243 81.472 185.922C80.23 186.529 78.9255 187.974 77.5882 187.935C76.4644 187.902 74.9766 186.731 73.7537 186.531C72.2805 186.304 70.7775 186.356 69.3237 186.686C66.4021 187.337 63.7684 188.913 61.8136 191.18C57.6591 196.007 56.4247 203.12 57.1488 209.669C57.8729 216.218 60.3227 222.377 62.7453 228.429" fill="#2F2E41"/>
<path d="M499.378 433.882H0.621891C0.456955 433.882 0.298774 433.816 0.182147 433.7C0.06552 433.583 0 433.425 0 433.26C0 433.095 0.06552 432.937 0.182147 432.82C0.298774 432.704 0.456955 432.638 0.621891 432.638H499.378C499.543 432.638 499.701 432.704 499.818 432.82C499.934 432.937 500 433.095 500 433.26C500 433.425 499.934 433.583 499.818 433.7C499.701 433.816 499.543 433.882 499.378 433.882Z" fill="#E6E6E6"/>
<path d="M490.964 426.175C492.862 424.636 494.245 422.554 494.929 420.207C495.435 417.832 494.423 415.045 492.162 414.126C489.622 413.145 486.906 414.91 484.852 416.686C482.797 418.462 480.432 420.496 477.738 420.114C479.118 418.856 480.149 417.262 480.73 415.487C481.311 413.711 481.422 411.816 481.052 409.985C480.941 409.224 480.619 408.509 480.123 407.92C478.718 406.413 476.158 407.063 474.465 408.251C469.095 412.03 467.598 419.319 467.578 425.886C467.03 423.511 467.485 421.043 467.474 418.658C467.464 416.273 466.793 413.496 464.749 412.236C463.481 411.555 462.057 411.217 460.619 411.255C458.203 411.173 455.518 411.41 453.866 413.176C451.801 415.365 452.348 419.051 454.134 421.436C455.921 423.821 458.626 425.359 461.114 427.032C463.118 428.22 464.827 429.848 466.112 431.792C466.264 432.061 466.388 432.344 466.483 432.639H481.61C485.006 430.917 488.153 428.743 490.964 426.175Z" fill="#F2F2F2"/>
<path d="M333.585 187.937C333.304 187.935 333.028 187.864 332.781 187.729C332.535 187.594 332.326 187.399 332.173 187.163C332.02 186.927 331.929 186.656 331.908 186.376C331.886 186.096 331.935 185.814 332.049 185.558L333.995 181.216C331.314 178.835 329.606 175.547 329.199 171.984C328.792 168.421 329.715 164.833 331.791 161.908C333.866 158.983 336.949 156.928 340.446 156.136C343.944 155.344 347.611 155.871 350.744 157.616C353.877 159.361 356.256 162.201 357.424 165.592C358.592 168.983 358.468 172.685 357.074 175.99C355.68 179.294 353.116 181.968 349.872 183.498C346.629 185.028 342.935 185.307 339.498 184.281L334.532 187.643C334.253 187.834 333.923 187.936 333.585 187.937ZM343.626 157.92C341.039 157.918 338.516 158.722 336.406 160.218C334.296 161.715 332.704 163.831 331.851 166.274C330.997 168.716 330.925 171.363 331.643 173.848C332.362 176.333 333.835 178.533 335.86 180.143L336.473 180.632L334.38 185.304L339.184 182.051L339.659 182.21C341.372 182.786 343.191 182.982 344.988 182.786C346.785 182.589 348.518 182.003 350.067 181.07C351.615 180.137 352.942 178.878 353.956 177.381C354.969 175.884 355.645 174.184 355.937 172.4C356.228 170.616 356.128 168.789 355.643 167.048C355.159 165.306 354.301 163.69 353.13 162.313C351.959 160.935 350.503 159.829 348.862 159.07C347.221 158.312 345.434 157.919 343.626 157.92Z" fill="#3F3D56"/>
<path d="M343.626 171.742C344.743 171.742 345.649 170.836 345.649 169.719C345.649 168.602 344.743 167.696 343.626 167.696C342.509 167.696 341.604 168.602 341.604 169.719C341.604 170.836 342.509 171.742 343.626 171.742Z" fill="#3F3D56"/>
<path d="M337.895 171.742C339.012 171.742 339.918 170.836 339.918 169.719C339.918 168.602 339.012 167.696 337.895 167.696C336.778 167.696 335.873 168.602 335.873 169.719C335.873 170.836 336.778 171.742 337.895 171.742Z" fill="#3F3D56"/>
<path d="M349.357 171.742C350.475 171.742 351.38 170.836 351.38 169.719C351.38 168.602 350.475 167.696 349.357 167.696C348.24 167.696 347.335 168.602 347.335 169.719C347.335 170.836 348.24 171.742 349.357 171.742Z" fill="#3F3D56"/>
</g>
<defs>
<clipPath id="clip0_135_989">
<rect width="500" height="433.882" fill="white"/>
</clipPath>
</defs>
</svg>
