<svg width="500" height="394" viewBox="0 0 500 394" fill="none" xmlns="http://www.w3.org/2000/svg">
<g clip-path="url(#clip0_135_1092)">
<path d="M246.066 87.4358H243.998V30.7869C243.998 22.0913 240.544 13.7518 234.395 7.60307C228.246 1.45434 219.907 -1.99999 211.211 -2H91.1925C86.8869 -2.00002 82.6234 -1.15197 78.6455 0.495708C74.6676 2.14339 71.0532 4.55844 68.0086 7.60297C64.9641 10.6475 62.549 14.2619 60.9013 18.2398C59.2536 22.2176 58.4055 26.4811 58.4055 30.7868V341.567C58.4055 345.873 59.2536 350.136 60.9012 354.114C62.5489 358.092 64.964 361.707 68.0085 364.751C71.0531 367.796 74.6675 370.211 78.6453 371.859C82.6232 373.506 86.8867 374.354 91.1923 374.354H211.211C215.516 374.354 219.78 373.506 223.758 371.859C227.736 370.211 231.35 367.796 234.395 364.751C237.439 361.707 239.854 358.092 241.502 354.115C243.15 350.137 243.998 345.873 243.998 341.568V127.76H246.066V87.4358Z" fill="#3F3D56"/>
<path d="M212.287 7.30566H196.621C197.341 9.07199 197.616 10.9884 197.421 12.886C197.227 14.7837 196.568 16.6043 195.504 18.1876C194.44 19.7709 193.003 21.0682 191.32 21.9653C189.636 22.8623 187.758 23.3316 185.85 23.3317H117.093C115.186 23.3316 113.307 22.8623 111.624 21.9653C109.94 21.0682 108.503 19.7709 107.439 18.1876C106.375 16.6043 105.717 14.7837 105.522 12.886C105.327 10.9884 105.602 9.07199 106.323 7.30566H91.6905C85.1967 7.30566 78.9689 9.88529 74.377 14.4771C69.7852 19.0689 67.2056 25.2967 67.2056 31.7905V342.115C67.2056 345.33 67.8389 348.514 69.0694 351.485C70.2998 354.456 72.1034 357.155 74.377 359.428C76.6506 361.702 79.3498 363.506 82.3205 364.736C85.2911 365.967 88.475 366.6 91.6904 366.6H212.287C218.781 366.6 225.009 364.02 229.6 359.428C234.192 354.837 236.772 348.609 236.772 342.115V31.7905C236.772 28.5751 236.139 25.3912 234.908 22.4206C233.678 19.4499 231.874 16.7507 229.6 14.4771C227.327 12.2035 224.628 10.3999 221.657 9.16946C218.686 7.93898 215.502 7.30566 212.287 7.30566ZM209.655 151.267C209.65 152.948 208.98 154.558 207.792 155.746C206.604 156.935 204.993 157.604 203.313 157.609H172.659C170.979 157.604 169.369 156.935 168.18 155.746C166.992 154.558 166.322 152.948 166.317 151.267V149.682C166.322 148.001 166.992 146.391 168.18 145.203C169.369 144.014 170.979 143.345 172.659 143.34H203.313C204.993 143.345 206.604 144.014 207.792 145.203C208.98 146.391 209.65 148.001 209.655 149.682V151.267ZM213.09 123.256C213.085 124.937 212.416 126.547 211.227 127.735C210.039 128.924 208.429 129.594 206.748 129.598H96.8186C95.1381 129.594 93.5278 128.924 92.3395 127.735C91.1512 126.547 90.4815 124.937 90.4766 123.256V121.671C90.4815 119.99 91.1512 118.38 92.3395 117.192C93.5278 116.003 95.1381 115.334 96.8186 115.329H206.748C208.429 115.334 210.039 116.003 211.227 117.192C212.416 118.38 213.085 119.99 213.09 121.671V123.256ZM213.09 95.2455C213.085 96.926 212.416 98.5363 211.227 99.7246C210.039 100.913 208.429 101.583 206.748 101.588H96.8186C95.1381 101.583 93.5278 100.913 92.3395 99.7246C91.1512 98.5363 90.4815 96.926 90.4766 95.2455V93.66C90.4815 91.9794 91.1512 90.3692 92.3395 89.1809C93.5278 87.9925 95.1381 87.3228 96.8186 87.3179H206.748C208.429 87.3228 210.039 87.9926 211.227 89.1809C212.416 90.3692 213.085 91.9794 213.09 93.66V95.2455ZM213.09 67.2346C213.085 68.9151 212.416 70.5254 211.227 71.7137C210.039 72.902 208.429 73.5718 206.748 73.5767H96.8186C95.1381 73.5718 93.5278 72.902 92.3395 71.7137C91.1512 70.5254 90.4815 68.9151 90.4766 67.2346V65.6491C90.4815 63.9686 91.1512 62.3583 92.3395 61.17C93.5278 59.9817 95.1381 59.3119 96.8186 59.307H206.748C208.429 59.3119 210.039 59.9817 211.227 61.17C212.416 62.3583 213.085 63.9686 213.09 65.6491V67.2346Z" fill="white"/>
<path d="M99.1969 126.427C101.24 126.427 102.896 124.771 102.896 122.728C102.896 120.685 101.24 119.028 99.1969 119.028C97.1537 119.028 95.4974 120.685 95.4974 122.728C95.4974 124.771 97.1537 126.427 99.1969 126.427Z" fill="white"/>
<path d="M111.353 126.427C113.396 126.427 115.052 124.771 115.052 122.728C115.052 120.685 113.396 119.028 111.353 119.028C109.309 119.028 107.653 120.685 107.653 122.728C107.653 124.771 109.309 126.427 111.353 126.427Z" fill="white"/>
<path d="M123.508 126.427C125.551 126.427 127.208 124.771 127.208 122.728C127.208 120.685 125.551 119.028 123.508 119.028C121.465 119.028 119.809 120.685 119.809 122.728C119.809 124.771 121.465 126.427 123.508 126.427Z" fill="white"/>
<path d="M135.664 126.427C137.707 126.427 139.363 124.771 139.363 122.728C139.363 120.685 137.707 119.028 135.664 119.028C133.621 119.028 131.964 120.685 131.964 122.728C131.964 124.771 133.621 126.427 135.664 126.427Z" fill="white"/>
<path d="M175.302 154.438C177.345 154.438 179.001 152.782 179.001 150.739C179.001 148.695 177.345 147.039 175.302 147.039C173.259 147.039 171.602 148.695 171.602 150.739C171.602 152.782 173.259 154.438 175.302 154.438Z" fill="white"/>
<path d="M187.458 154.438C189.501 154.438 191.157 152.782 191.157 150.739C191.157 148.695 189.501 147.039 187.458 147.039C185.414 147.039 183.758 148.695 183.758 150.739C183.758 152.782 185.414 154.438 187.458 154.438Z" fill="white"/>
<path d="M199.613 154.438C201.656 154.438 203.313 152.782 203.313 150.739C203.313 148.695 201.656 147.039 199.613 147.039C197.57 147.039 195.914 148.695 195.914 150.739C195.914 152.782 197.57 154.438 199.613 154.438Z" fill="white"/>
<path d="M213.941 198.673H88.5691C85.6237 198.673 82.7989 199.843 80.7162 201.926C78.6334 204.008 77.4634 206.833 77.4634 209.779V270.862C77.4634 273.808 78.6334 276.632 80.7162 278.715C82.7989 280.798 85.6237 281.968 88.5691 281.968H213.941C216.886 281.968 219.711 280.798 221.794 278.715C223.876 276.632 225.046 273.808 225.046 270.862V209.779C225.046 206.833 223.876 204.008 221.794 201.926C219.711 199.843 216.886 198.673 213.941 198.673ZM85.4672 206.249C85.7148 206.204 91.5854 205.205 96.4465 208.13C101.307 211.054 103.175 216.71 103.252 216.949L103.449 217.559L102.818 217.67C101.918 217.811 101.008 217.878 100.097 217.87C97.2077 217.926 94.3562 217.207 91.8381 215.789C86.9772 212.865 85.1099 207.209 85.0329 206.97L84.8364 206.361L85.4672 206.249ZM112.682 262.961H90.321C88.6901 262.961 87.126 262.313 85.9728 261.16C84.8196 260.007 84.1717 258.443 84.1717 256.812C84.1717 255.181 84.8196 253.617 85.9728 252.463C87.126 251.31 88.6901 250.662 90.321 250.662H112.682C114.313 250.662 115.877 251.31 117.03 252.463C118.184 253.617 118.831 255.181 118.831 256.812C118.831 258.443 118.184 260.007 117.03 261.16C115.877 262.313 114.313 262.961 112.682 262.961ZM214.425 261.843C214.42 263.62 213.711 265.324 212.454 266.581C211.197 267.838 209.494 268.546 207.717 268.551H190.946C189.168 268.546 187.465 267.838 186.208 266.581C184.951 265.324 184.243 263.62 184.237 261.843V251.78C184.243 250.003 184.951 248.3 186.208 247.043C187.465 245.786 189.168 245.077 190.946 245.072H207.717C209.494 245.077 211.197 245.786 212.454 247.043C213.711 248.3 214.42 250.003 214.425 251.78L214.425 261.843Z" fill="#E86100"/>
<path d="M196.353 259.77H189.61C189.128 259.77 188.667 259.961 188.326 260.301C187.986 260.642 187.794 261.103 187.794 261.585C187.794 262.066 187.986 262.528 188.326 262.869C188.667 263.209 189.128 263.4 189.61 263.4H196.353C196.834 263.4 197.296 263.209 197.637 262.869C197.977 262.528 198.168 262.066 198.168 261.585C198.168 261.103 197.977 260.642 197.637 260.301C197.296 259.961 196.834 259.77 196.353 259.77Z" fill="#3F3D56"/>
<path d="M208.802 259.77H202.059C201.577 259.77 201.115 259.961 200.775 260.301C200.435 260.642 200.243 261.103 200.243 261.585C200.243 262.066 200.435 262.528 200.775 262.869C201.115 263.209 201.577 263.4 202.059 263.4H208.802C209.283 263.4 209.745 263.209 210.086 262.869C210.426 262.528 210.617 262.066 210.617 261.585C210.617 261.103 210.426 260.642 210.086 260.301C209.745 259.961 209.283 259.77 208.802 259.77Z" fill="#3F3D56"/>
<path d="M196.352 254.645H189.609C189.127 254.645 188.666 254.836 188.325 255.176C187.985 255.517 187.794 255.979 187.794 256.46C187.794 256.941 187.985 257.403 188.325 257.744C188.666 258.084 189.127 258.275 189.609 258.275H196.352C196.834 258.275 197.295 258.084 197.636 257.744C197.976 257.403 198.167 256.941 198.167 256.46C198.167 255.979 197.976 255.517 197.636 255.176C197.295 254.836 196.834 254.645 196.352 254.645Z" fill="#3F3D56"/>
<path d="M208.801 254.645H202.058C201.576 254.645 201.114 254.836 200.774 255.176C200.434 255.517 200.242 255.979 200.242 256.46C200.242 256.941 200.434 257.403 200.774 257.744C201.114 258.084 201.576 258.275 202.058 258.275H208.801C209.282 258.275 209.744 258.084 210.085 257.744C210.425 257.403 210.616 256.941 210.616 256.46C210.616 255.979 210.425 255.517 210.085 255.176C209.744 254.836 209.282 254.645 208.801 254.645Z" fill="#3F3D56"/>
<path d="M196.352 249.624H189.609C189.127 249.624 188.666 249.815 188.325 250.155C187.985 250.496 187.794 250.957 187.794 251.439C187.794 251.92 187.985 252.382 188.325 252.723C188.666 253.063 189.127 253.254 189.609 253.254H196.352C196.834 253.254 197.295 253.063 197.636 252.723C197.976 252.382 198.167 251.92 198.167 251.439C198.167 250.957 197.976 250.496 197.636 250.155C197.295 249.815 196.834 249.624 196.352 249.624Z" fill="#3F3D56"/>
<path d="M208.801 249.624H202.058C201.576 249.624 201.114 249.815 200.774 250.155C200.434 250.496 200.242 250.957 200.242 251.439C200.242 251.92 200.434 252.382 200.774 252.723C201.114 253.063 201.576 253.254 202.058 253.254H208.801C209.282 253.254 209.744 253.063 210.085 252.723C210.425 252.382 210.616 251.92 210.616 251.439C210.616 250.957 210.425 250.496 210.085 250.155C209.744 249.815 209.282 249.624 208.801 249.624Z" fill="#3F3D56"/>
<path d="M300.775 221.683H284.422V238.036H300.775V221.683Z" fill="#E6E6E6"/>
<path d="M265.149 231.611H292.014V258.477H265.149V231.611ZM290.846 232.779H266.317V257.309H290.846V232.779Z" fill="#3F3D56"/>
<path d="M16.3528 86.7725H0V103.125H16.3528V86.7725Z" fill="#E6E6E6"/>
<path d="M35.6258 93.1969H8.76044V66.3315H35.6258V93.1969ZM9.92849 92.0288H34.4577V67.4996H9.92849V92.0288Z" fill="#3F3D56"/>
<path d="M381.416 384.286H374.256L370.85 356.669H381.417L381.416 384.286Z" fill="#FFB8B8"/>
<path d="M369.141 382.241H382.95V390.935H360.447C360.447 388.629 361.363 386.418 362.993 384.787C364.624 383.157 366.835 382.241 369.141 382.241Z" fill="#2F2E41"/>
<path d="M417.042 384.286H409.881L406.475 356.669H417.043L417.042 384.286Z" fill="#FFB8B8"/>
<path d="M404.767 382.241H418.576V390.935H396.073C396.073 388.629 396.989 386.418 398.619 384.787C400.25 383.157 402.461 382.241 404.767 382.241Z" fill="#2F2E41"/>
<path d="M345.497 285.519C344.982 284.76 344.64 283.898 344.494 282.992C344.349 282.087 344.403 281.16 344.654 280.278C344.906 279.396 345.347 278.579 345.948 277.886C346.549 277.193 347.294 276.64 348.132 276.267L372.472 209.181L384.448 215.717L356.657 279.826C357.192 281.275 357.177 282.87 356.614 284.308C356.052 285.746 354.982 286.928 353.606 287.63C352.23 288.332 350.645 288.504 349.151 288.115C347.656 287.726 346.356 286.803 345.497 285.519Z" fill="#FFB8B8"/>
<path d="M413.384 298.125C412.589 297.669 411.903 297.044 411.375 296.294C410.847 295.544 410.489 294.687 410.328 293.784C410.167 292.881 410.206 291.954 410.442 291.067C410.678 290.181 411.106 289.357 411.695 288.654L404.154 217.689L417.784 218.312L420.918 288.115C422.034 289.183 422.719 290.622 422.844 292.162C422.97 293.701 422.526 295.232 421.597 296.466C420.669 297.7 419.32 298.55 417.806 298.856C416.292 299.162 414.719 298.902 413.384 298.125Z" fill="#FFB8B8"/>
<path d="M391.641 196.755C399.563 196.755 405.985 190.333 405.985 182.411C405.985 174.489 399.563 168.066 391.641 168.066C383.718 168.066 377.296 174.489 377.296 182.411C377.296 190.333 383.718 196.755 391.641 196.755Z" fill="#FFB8B8"/>
<path d="M413.293 281.985H370.047L370.099 281.649C370.177 281.146 377.807 231.166 372.179 214.815C371.615 213.208 371.664 211.449 372.319 209.877C372.973 208.304 374.186 207.03 375.724 206.298C383.767 202.51 399.207 197.846 412.238 209.165C414.155 210.858 415.653 212.974 416.612 215.345C417.57 217.717 417.964 220.279 417.762 222.829L413.293 281.985Z" fill="#CCCCCC"/>
<path d="M378.353 238.552L358.883 234.602L368.01 212.976C368.556 210.881 369.91 209.089 371.776 207.991C373.642 206.894 375.867 206.582 377.963 207.123C380.059 207.664 381.855 209.014 382.957 210.878C384.059 212.741 384.376 214.965 383.84 217.063L378.353 238.552Z" fill="#CCCCCC"/>
<path d="M403.289 245.886L402.118 219.055C401.231 214.011 404.118 209.243 408.559 208.464C413 207.687 417.337 211.186 418.229 216.266L422.629 241.337L403.289 245.886Z" fill="#CCCCCC"/>
<path d="M411.854 278.773C418.812 305.275 419.571 338.969 417.694 375.722L408.35 374.554L391.413 304.471L382.068 375.722L371.556 375.138C368.415 336.575 365.357 303.469 370.388 281.694L411.854 278.773Z" fill="#2F2E41"/>
<path d="M401.092 193.496C398.416 196.347 393.446 194.817 393.098 190.923C393.07 190.62 393.072 190.316 393.104 190.014C393.284 188.289 394.28 186.723 394.041 184.902C393.987 184.448 393.819 184.016 393.551 183.647C391.418 180.791 386.413 184.924 384.4 182.339C383.166 180.754 384.617 178.258 383.67 176.486C382.42 174.148 378.718 175.302 376.396 174.021C373.813 172.596 373.968 168.633 375.668 166.223C377.742 163.283 381.377 161.714 384.968 161.488C388.558 161.262 392.124 162.233 395.476 163.539C399.284 165.023 403.061 167.075 405.405 170.423C408.255 174.496 408.529 179.971 407.104 184.733C406.237 187.63 403.277 191.169 401.092 193.496Z" fill="#2F2E41"/>
<path d="M499.416 391.635H276.901C276.746 391.635 276.597 391.574 276.488 391.464C276.378 391.355 276.317 391.206 276.317 391.051C276.317 390.896 276.378 390.748 276.488 390.638C276.597 390.529 276.746 390.467 276.901 390.467H499.416C499.571 390.467 499.719 390.529 499.829 390.638C499.938 390.748 500 390.896 500 391.051C500 391.206 499.938 391.355 499.829 391.464C499.719 391.574 499.571 391.635 499.416 391.635Z" fill="#3F3D56"/>
</g>
<defs>
<clipPath id="clip0_135_1092">
<rect width="500" height="393.635" fill="white"/>
</clipPath>
</defs>
</svg>
