<svg width="500" height="268" viewBox="0 0 500 268" fill="none" xmlns="http://www.w3.org/2000/svg">
<g clip-path="url(#clip0_136_2042)">
<path d="M214.613 115.678H200.12C197.533 115.678 195.428 113.573 195.428 110.986V88.692C195.428 86.105 197.533 84 200.12 84H214.613C217.2 84 219.305 86.105 219.305 88.692V110.986C219.305 113.573 217.2 115.678 214.613 115.678Z" fill="#E6E6E6"/>
<path d="M246.335 115.678H231.841C229.254 115.678 227.149 113.573 227.149 110.986V88.692C227.149 86.105 229.254 84 231.841 84H246.335C248.922 84 251.027 86.105 251.027 88.692V110.986C251.027 113.573 248.922 115.678 246.335 115.678Z" fill="#CCCCCC"/>
<path d="M280.137 115.678H265.644C263.057 115.678 260.952 113.573 260.952 110.986V88.692C260.952 86.105 263.057 84 265.644 84H280.137C282.724 84 284.829 86.105 284.829 88.692V110.986C284.829 113.573 282.724 115.678 280.137 115.678Z" fill="#E6E6E6"/>
<path d="M121.591 188.028C124.103 185.473 127.457 184.697 129.083 186.295C130.71 187.894 129.992 191.261 127.479 193.817C126.49 194.852 125.266 195.635 123.912 196.1L113.134 206.795L108.224 201.63L119.37 191.636C119.812 190.273 120.573 189.036 121.591 188.028Z" fill="#A0616A"/>
<path d="M87.1232 95.2002L98.4234 120.269L116.468 110.501L122.926 113.929C122.926 113.929 108.175 138.59 98.0747 135.783C87.9746 132.975 70.0395 107.52 73.271 99.664C76.5025 91.8078 87.1232 95.2002 87.1232 95.2002Z" fill="#3F3D56"/>
<path d="M402.264 95.2207H428.938L439.388 102.797L412.143 104.312L402.264 95.2207Z" fill="#E6E6E6"/>
<path d="M456.176 155.095L466.674 160.068C462.368 154.059 458.658 144.675 456.672 137.207C453.309 144.163 447.888 152.674 442.521 157.758L453.616 154.904C446.78 188.409 421.066 212.463 391.62 212.463L391.203 213.673C421.96 213.673 449.196 189.953 456.176 155.095Z" fill="#3F3D56"/>
<path d="M239.491 137.669L249.988 142.642C245.683 136.633 241.972 127.249 239.986 119.781C236.623 126.737 231.202 135.248 225.836 140.332L236.931 137.478C230.094 170.984 204.38 195.037 174.934 195.037L174.518 196.248C205.275 196.248 232.51 172.527 239.491 137.669Z" fill="#3F3D56"/>
<path d="M400.501 238.498C399.011 236.723 397.226 235.518 395.624 235.053L376.779 213.75C376.779 213.75 375.205 193.92 373.946 186.995C372.687 180.07 364.188 181.959 364.188 181.959L365.133 201.789L370.484 223.194L392.535 241.915C392.92 242.616 393.392 243.318 393.958 243.991C396.641 247.187 400.28 248.547 402.087 247.03C403.893 245.513 403.183 241.693 400.501 238.498Z" fill="#FFB6B6"/>
<path d="M309.978 238.498C311.468 236.723 313.252 235.518 314.855 235.053L333.7 213.75C333.7 213.75 335.273 193.92 336.533 186.995C337.792 180.07 346.29 181.959 346.29 181.959L345.346 201.789L339.995 223.194L317.944 241.915C317.558 242.616 317.086 243.318 316.521 243.991C313.838 247.187 310.199 248.547 308.392 247.03C306.585 245.513 307.295 241.693 309.978 238.498Z" fill="#FFB6B6"/>
<path d="M351.44 179.283L353.626 170.879L362.143 170.47L364.69 182.054L351.44 179.283Z" fill="#FFB6B6"/>
<path opacity="0.1" d="M351.44 179.283L353.626 170.879L362.143 170.47L364.69 182.054L351.44 179.283Z" fill="black"/>
<path d="M357.988 175.828C363.203 175.828 367.431 171.601 367.431 166.385C367.431 161.17 363.203 156.942 357.988 156.942C352.773 156.942 348.545 161.17 348.545 166.385C348.545 171.601 352.773 175.828 357.988 175.828Z" fill="#FFB6B6"/>
<path d="M363.343 167.955C363.343 167.955 359.191 161.162 355.035 161.912C350.879 162.662 348.712 163.339 348.712 163.339C348.712 163.339 347.02 157.922 352.702 155.324C352.702 155.324 344.661 148.591 353.231 144.271C361.801 139.95 367.134 144.138 367.134 144.138C367.134 144.138 374.227 150.153 366.362 155.72C366.362 155.72 373.169 163.473 366.294 170.88C366.294 170.88 367.508 165.24 365.857 166.396C364.206 167.552 363.343 167.955 363.343 167.955Z" fill="#2F2E41"/>
<path d="M364.346 179.913L351.441 178.339L341.526 186.365C341.526 186.365 336.594 200.105 340.267 208.399C340.355 208.598 340.424 222.406 340.424 222.406H367.843C367.843 222.406 367.817 213.008 368.865 209.604C369.014 209.117 369.186 208.753 369.383 208.557C370.956 206.983 374.734 196.91 372.845 192.503C370.956 188.097 364.346 179.913 364.346 179.913Z" fill="#E6E6E6"/>
<path d="M340.266 221.777L322.954 276.862L319.177 320.3H329.721L338.692 280.009L351.046 256.687L363.244 323.448H373.888L373.632 233.109L367.821 221.777H340.266Z" fill="#2F2E41"/>
<path d="M354.959 289.51C378.339 289.51 397.292 270.557 397.292 247.178C397.292 223.798 378.339 204.845 354.959 204.845C331.579 204.845 312.626 223.798 312.626 247.178C312.626 270.557 331.579 289.51 354.959 289.51Z" fill="#E86100"/>
<path d="M82.1679 262.273L90.4075 262.272L94.3272 230.49L82.1663 230.491L82.1679 262.273Z" fill="#A0616A"/>
<path d="M110.398 262.086C110.654 262.518 110.79 263.913 110.79 264.415C110.79 265.96 109.538 267.212 107.993 267.212H82.476C81.4224 267.212 80.5682 266.358 80.5682 265.304V264.242C80.5682 264.242 79.3059 261.049 81.9048 257.113C81.9048 257.113 85.1348 260.195 89.9613 255.368L91.3846 252.79L101.687 260.325L107.398 261.028C108.647 261.182 109.755 261.004 110.398 262.086Z" fill="#2F2E41"/>
<path d="M88.4034 96.8093L88.57 85.6959L81.7168 81.4238L74.2646 90.5394L88.4034 96.8093Z" fill="#A0616A"/>
<path opacity="0.1" d="M88.4034 96.8093L88.847 85.9728L81.7168 81.4238L84.1393 94.8344L88.4034 96.8093Z" fill="black"/>
<path d="M88.4246 89.1538C95.156 89.1538 100.613 83.697 100.613 76.9656C100.613 70.2342 95.156 64.7773 88.4246 64.7773C81.6932 64.7773 76.2363 70.2342 76.2363 76.9656C76.2363 83.697 81.6932 89.1538 88.4246 89.1538Z" fill="#A0616A"/>
<path d="M105.046 170.296L93.6924 247.558H79.4475L81.3416 203.455L82.3385 180.265L79.4475 169.227C79.4475 169.227 78.1293 166.773 77.0188 163.799C75.7671 160.443 74.7785 156.419 76.2462 154.511C76.7862 153.808 78.1902 153.287 80.0982 152.9C81.2641 152.661 82.621 152.476 84.0859 152.332C92.51 151.498 104.492 152.019 104.492 152.019L104.797 162.071L104.966 167.685L105.046 170.296Z" fill="#2F2E41"/>
<path d="M67.6533 258.495L75.8054 259.692L84.3063 228.819L72.2746 227.051L67.6533 258.495Z" fill="#A0616A"/>
<path d="M95.6104 262.416C95.8013 262.881 95.7324 264.28 95.6593 264.778C95.4347 266.306 94.0138 267.362 92.4857 267.138L67.2399 263.426C66.1975 263.273 65.4767 262.303 65.6299 261.261L65.7844 260.21C65.7844 260.21 65 256.867 68.1437 253.352C68.1437 253.352 70.8911 256.87 76.3684 252.797L78.1516 250.453L87.2487 259.406L92.7964 260.933C94.0101 261.266 95.132 261.252 95.6104 262.416Z" fill="#2F2E41"/>
<path d="M105.226 157.411L103.668 170.822L95.1758 199.084L81.1954 245.612L67.1035 243.541L79.7508 177.385L78.4986 166.041C78.4986 166.041 78.0907 164.913 77.6232 163.262C76.6953 159.997 75.5315 154.678 76.8119 151.965C76.9848 151.596 77.2018 151.276 77.4703 151.017C77.9739 150.529 78.9975 150.232 80.3688 150.075C86.1007 149.427 97.9051 151.28 103.158 152.19L105.226 157.411Z" fill="#2F2E41"/>
<path d="M75.8313 88.1875L89.6775 94.8337C89.6775 94.8337 104.354 138.311 104.354 140.526C104.354 142.742 108.508 144.126 106.016 146.618C103.524 149.111 110.655 151.222 106.812 153.212C102.97 155.203 78.9996 166.093 76.3342 165.111C68.9829 162.402 76.6457 152.45 76.6457 152.45C76.6457 152.45 71.1236 148.003 71.9544 145.788C72.7851 143.572 66.9697 101.203 66.9697 101.203L75.8313 88.1875Z" fill="#3F3D56"/>
<path d="M87.6801 79.8846L89.2477 83.0199C89.2477 83.0199 90.8154 77.3764 93.3236 76.1222C95.8319 74.8681 96.1454 72.9869 96.1454 72.9869C96.1454 72.9869 99.2807 77.0628 101.475 76.1222C103.67 75.1816 104.611 74.5546 102.103 70.7922C99.5943 67.0298 100.221 68.911 100.221 68.911C100.221 68.911 98.0266 65.7757 98.3401 66.7163C98.6536 67.6569 96.4589 64.208 96.4589 65.1486C96.4589 66.0892 94.8913 63.2674 94.8913 64.208C94.8913 65.1486 88.3071 62.0133 89.2477 63.2674C90.1883 64.5216 83.6041 60.7592 80.4688 65.7757C77.3335 70.7922 72.986 69.8645 74.5327 72.9934C76.0793 76.1222 75.4523 84.5876 75.4523 84.5876H79.7763C79.7763 84.5876 84.2312 76.1222 87.6801 79.8846Z" fill="#2F2E41"/>
<path d="M439.389 102.798H413.629V128.558H439.389V102.798Z" fill="#E6E6E6"/>
<path d="M500 102.798L500 128.558H474.24C474.24 114.34 485.783 102.798 500 102.798Z" fill="#E6E6E6"/>
<path d="M456.814 128.557C463.509 128.557 468.936 123.13 468.936 116.435C468.936 109.74 463.509 104.312 456.814 104.312C450.119 104.312 444.691 109.74 444.691 116.435C444.691 123.13 450.119 128.557 456.814 128.557Z" fill="#CCCCCC"/>
<path d="M413.628 102.797L402.264 95.2207V115.677L413.628 128.557" fill="#F2F2F2"/>
<path d="M231.903 94.4323L246.154 94.0015C247.144 93.9716 247.239 92.4234 246.24 92.4536L231.989 92.8844C231 92.9143 230.905 94.4625 231.903 94.4323Z" fill="white"/>
<path d="M231.903 99.6325L246.154 99.2017C247.144 99.1718 247.239 97.6236 246.24 97.6538L231.989 98.0846C231 98.1145 230.905 99.6627 231.903 99.6325Z" fill="white"/>
<path d="M231.903 104.833L246.154 104.402C247.144 104.372 247.239 102.824 246.24 102.854L231.989 103.285C231 103.315 230.905 104.863 231.903 104.833Z" fill="white"/>
<path d="M199.893 95.7508C202.255 92.8745 206.528 95.7609 209.308 96.2483C210.933 96.5334 212.611 96.3829 213.984 95.3974C215.199 94.5248 216.071 93.2113 216.302 91.7238C216.454 90.7416 214.951 90.3183 214.798 91.309C214.581 92.7081 213.718 93.9334 212.406 94.5149C210.823 95.2167 209.006 94.6514 207.466 94.1152C204.719 93.1591 201.009 91.9455 198.79 94.6476C198.158 95.4177 199.256 96.5276 199.893 95.7508Z" fill="white"/>
<path d="M199.893 101.991C202.255 99.1148 206.528 102.001 209.308 102.489C210.933 102.774 212.611 102.623 213.984 101.638C215.199 100.765 216.071 99.4515 216.302 97.964C216.454 96.9818 214.951 96.5586 214.798 97.5493C214.581 98.9484 213.718 100.174 212.406 100.755C210.823 101.457 209.006 100.892 207.466 100.355C204.719 99.3994 201.009 98.1858 198.79 100.888C198.158 101.658 199.256 102.768 199.893 101.991Z" fill="white"/>
<path d="M158.47 230.46H122.526C120.148 230.46 118.213 228.526 118.213 226.147V174.92C118.213 172.541 120.148 170.606 122.526 170.606H158.47C160.848 170.606 162.783 172.541 162.783 174.92V226.147C162.783 228.526 160.848 230.46 158.47 230.46Z" fill="#E86100"/>
<path d="M266.741 90.6988C267.492 97.0549 267.736 103.466 267.443 109.861C267.398 110.852 268.937 111.116 268.983 110.113C269.282 103.577 269.06 97.0307 268.292 90.5327C268.175 89.5375 266.623 89.6982 266.741 90.6988Z" fill="white"/>
<path d="M271.942 90.6988C272.693 97.0549 272.937 103.466 272.644 109.861C272.599 110.852 274.138 111.116 274.184 110.113C274.483 103.577 274.261 97.0307 273.494 90.5327C273.376 89.5375 271.824 89.6982 271.942 90.6988Z" fill="white"/>
<path d="M277.142 90.6988C277.893 97.0549 278.137 103.466 277.844 109.861C277.799 110.852 279.338 111.116 279.384 110.113C279.683 103.577 279.461 97.0307 278.694 90.5327C278.576 89.5375 277.024 89.6982 277.142 90.6988Z" fill="white"/>
<path d="M118.022 126.498C121.458 125.482 124.767 126.433 125.413 128.62C126.059 130.807 123.796 133.402 120.359 134.417C118.991 134.841 117.542 134.932 116.132 134.681L101.518 138.799L99.7314 131.9L114.328 128.573C115.376 127.596 116.642 126.885 118.022 126.498Z" fill="#A0616A"/>
<path d="M92.1728 102.047L89.8822 129.449L110.4 129.67L114.382 135.802C114.382 135.802 89.5133 150.201 82.0461 142.843C74.5789 135.486 71.2564 104.525 77.8954 99.2249C84.5344 93.9253 92.1728 102.047 92.1728 102.047Z" fill="#3F3D56"/>
<path d="M126.341 190.136L154.439 189.286C156.39 189.227 156.577 186.175 154.608 186.234L126.51 187.084C124.559 187.143 124.371 190.195 126.341 190.136Z" fill="white"/>
<path d="M126.341 200.324L154.439 199.475C156.39 199.416 156.577 196.363 154.608 196.423L126.51 197.272C124.559 197.331 124.371 200.384 126.341 200.324Z" fill="white"/>
<path d="M126.341 210.514L154.439 209.664C156.39 209.605 156.577 206.553 154.608 206.612L126.51 207.462C124.559 207.521 124.371 210.573 126.341 210.514Z" fill="white"/>
</g>
<defs>
<clipPath id="clip0_136_2042">
<rect width="500" height="267.212" fill="white"/>
</clipPath>
</defs>
</svg>
