<svg width="500" height="333" viewBox="0 0 500 333" fill="none" xmlns="http://www.w3.org/2000/svg">
<g clip-path="url(#clip0_136_2100)">
<path d="M193.311 31.0564H132.649C130.568 31.0564 128.875 29.3632 128.875 27.2821C128.875 25.201 130.568 23.5078 132.649 23.5078H193.311C195.392 23.5078 197.086 25.201 197.086 27.2821C197.086 29.3632 195.392 31.0564 193.311 31.0564Z" fill="#E6E7E8"/>
<path d="M240.652 43.8318H132.649C130.568 43.8318 128.875 42.1386 128.875 40.0575C128.875 37.9764 130.568 36.2832 132.649 36.2832H240.652C242.733 36.2832 244.426 37.9764 244.426 40.0575C244.426 42.1386 242.733 43.8318 240.652 43.8318Z" fill="#E6E7E8"/>
<path d="M240.652 56.491H132.649C130.568 56.491 128.875 54.7978 128.875 52.7167C128.875 50.6356 130.568 48.9424 132.649 48.9424H240.652C242.733 48.9424 244.426 50.6356 244.426 52.7167C244.426 54.7978 242.733 56.491 240.652 56.491Z" fill="#E6E7E8"/>
<path d="M252.092 122.187V120.378C231.217 120.378 212.988 103.326 208.142 79.5732L216.007 81.5967C212.203 77.9924 208.359 71.9586 205.975 67.0273C204.567 72.3212 201.937 78.9741 198.885 83.2339L206.327 79.7086C211.275 104.421 230.288 122.187 252.092 122.187Z" fill="#3F3D56"/>
<path d="M244.197 52.9764C244.197 54.9708 242.574 56.5934 240.58 56.5934H193.558C191.564 56.5934 189.941 54.9708 189.941 52.9764C189.941 50.982 191.564 49.3594 193.558 49.3594H240.58C242.574 49.3594 244.197 50.982 244.197 52.9764Z" fill="#E86100"/>
<path d="M32.4667 254.461C31.7509 251.969 30.5251 249.843 29.0657 248.326L23.7635 224.155L12.2061 226.987L18.829 251.2C18.3935 253.249 18.4806 255.695 19.1964 258.187C20.8317 263.882 25.128 267.663 28.7925 266.634C32.457 265.605 34.102 260.155 32.4667 254.461Z" fill="#FFB6B6"/>
<path d="M30.8674 95.9082C30.8674 95.9082 18.3842 95.4774 11.1501 103.616C2.86211 113.74 -2.80311 153.411 1.44979 156.082L12.9724 237.904L29.4035 235.646L25.1865 137.472L30.8674 95.9082Z" fill="#E86100"/>
<path d="M115.14 233.828L112.149 333.692H69.1967L67.4605 295.198L59.8286 333.692H13.793L19.535 267.518L25.4669 253.602L29.4818 244.17L115.14 233.828Z" fill="#2F2E41"/>
<path d="M81.024 79.5956L51.1835 77.7871L41.2367 90.4467C32.646 92.2861 24.8867 94.6607 19.5346 98.585C20.8151 136.497 18.0022 185.793 29.4814 195.34L19.2881 267.285C19.2881 267.285 23.3988 263.764 30.2655 265.007C32.6377 265.437 35.5014 270.781 38.4164 271.104C60.8145 273.593 97.1364 271.034 115.139 233.828L108.152 179.968L109.96 101.298C104.306 96.8287 97.2773 93.9243 89.1623 92.2552L81.024 79.5956Z" fill="#E86100"/>
<path d="M138.472 57.5874C138.796 60.7224 138.384 63.6706 137.438 66.0344L142.408 95.7047L128.221 97.657L124.706 67.3492C123.296 65.2288 122.291 62.4268 121.967 59.2918C121.228 52.1299 124.323 45.9425 128.88 45.4718C133.438 45.0011 137.732 50.4254 138.472 57.5874Z" fill="#FFB6B6"/>
<path d="M91.3032 103.564C89.8177 105.756 90.2316 108.22 89.8769 111.18C88.3712 123.746 112.451 160.878 129.113 165.153C131.299 165.714 132.545 168.072 134.752 168.547C141.289 169.952 147.376 164.763 147.023 158.086L142.497 72.4453L123.483 78.9307L124.7 123.393C124.579 114.182 116.121 104.803 109.714 100.902C109.714 100.902 96.737 95.5471 91.3032 103.564Z" fill="#E86100"/>
<path d="M69.2007 75.4473C83.7173 75.4473 95.4853 63.6792 95.4853 49.1626C95.4853 34.646 83.7173 22.8779 69.2007 22.8779C54.6841 22.8779 42.916 34.646 42.916 49.1626C42.916 63.6792 54.6841 75.4473 69.2007 75.4473Z" fill="#FFB6B6"/>
<path d="M93.6838 29.8619C93.4577 29.9162 97.1438 26.3234 97.3008 26.2448C100.918 24.4363 97.2013 42.1145 94.588 41.6172C88.1587 40.3964 85.3827 37.973 82.887 44.0225C82.1907 45.7044 81.7567 47.6033 80.4003 48.806C78.5375 50.4427 75.445 50.3071 73.9258 52.2602C72.705 53.8337 73.0577 56.1486 73.962 57.9209C74.8662 59.7023 76.2407 61.2124 77.0636 63.0299C77.9859 65.0736 74.0524 71.5752 72.5513 75.2283V75.2374L72.5424 75.2588C72.1436 76.217 71.1957 73.4567 70.195 73.1811C68.9976 72.8514 67.2335 75.6789 65.3263 75.165C65.3173 75.165 65.3082 75.156 65.2992 75.156C63.4816 74.6496 61.4561 74.1071 59.4487 73.5645H59.4396C53.788 72.0273 52.3593 74.2337 52.088 74.1704L48.5795 70.4991C47.3754 69.6224 47.5115 66.7922 46.6625 66.0321C45.9681 65.4104 44.2371 66.8469 43.7269 66.2494C41.2254 63.3196 40.6499 60.3887 39.1752 54.6023C37.8279 49.3124 35.0338 33.4789 40.7758 32.7645C46.1922 32.0863 42.2316 24.5448 47.6843 24.8251C47.3588 23.4507 47.9646 21.9767 48.9503 20.9639C49.9268 19.9421 51.2289 19.3091 52.5401 18.7666C59.0056 16.1262 57.9295 13.8566 64.7476 15.3938C65.4258 14.4443 74.1223 11.969 75.3522 12.2856C75.4426 12.3036 73.4556 16.1624 78.3114 15.3938C78.1306 16.506 80.7777 14.0941 81.0242 18.1065C86.2032 14.9983 88.9907 22.4379 89.1625 23.5321C89.3886 24.8975 87.3268 24.2012 88.7013 24.4092C89.5152 24.5358 90.9077 26.1906 90.7721 27.0134C91.3598 26.2177 91.9476 25.431 92.5444 24.6352C92.6529 24.6443 92.7524 24.6624 92.8609 24.6804C95.6098 25.2049 92.4583 34.1914 92.5716 31.39C92.7795 26.2448 96.4236 29.256 93.6838 29.8619Z" fill="#2F2E41"/>
<path d="M428.952 24.4723C427.981 32.4544 426.92 40.4256 425.769 48.3839C425.302 51.6162 424.807 54.8896 423.507 57.8854C422.619 59.9303 421.376 61.7977 420.14 63.6526C418.679 65.8446 417.193 68.0645 415.209 69.7972C413.225 71.5299 410.647 72.7466 408.021 72.543C414.989 67.8521 419.673 59.9181 420.413 51.5504C420.76 47.6171 420.283 43.6634 420.192 39.7158C420.1 35.7682 420.43 31.6832 422.252 28.1797C424.073 24.6762 427.671 21.8717 431.618 21.9713L428.952 24.4723Z" fill="#2F2E41"/>
<path d="M358.328 194.719C352.657 199.318 345.688 200.121 342.762 196.513C339.835 192.905 342.059 186.252 347.73 181.653C350.212 179.64 352.943 178.354 355.474 177.847L379.745 158.662L388.505 170.243L363.65 187.927C362.631 190.3 360.81 192.706 358.328 194.719Z" fill="#A0616A"/>
<path d="M362.912 168.674L399.076 134.36L402.693 131.647C402.693 131.647 423.452 111.422 428.828 110.959C431.105 110.763 433.382 111.331 435.3 112.577C438.398 114.586 440.003 117.893 440.003 121.227C440.003 124.013 438.881 126.811 436.585 128.873L403.477 158.595L389.392 171.238L371.876 186.967L370.095 183.34L364.073 171.049L362.912 168.674Z" fill="#E86100"/>
<path d="M440.24 145.451L404.03 156.542C410.092 158.249 412.631 195.189 406.989 196.336C406.989 196.336 467 200.605 463.725 196.336C459.734 191.133 465.087 156.557 467.639 156.542L440.24 145.451Z" fill="#A0616A"/>
<path d="M488.422 333.694L485.257 295.499C485.257 281.835 484.371 269.492 482.951 258.487C477.264 214.314 463.003 191.672 463.003 191.672H409.652C409.58 191.753 409.508 191.817 409.435 191.898L409.426 191.907C396.839 205.136 390.292 238.404 387.38 258.487C385.997 268.045 385.436 274.619 385.436 274.619L380.219 320.99L383.989 333.694H415.033L414.544 330.972L434.519 258.487L434.764 257.601L434.981 258.487L453.5 333.694L488.422 333.694Z" fill="#2F2E41"/>
<path d="M410.745 123.417L422.019 100.66L431.518 84.1263L439.2 76.2979H460.223L462.18 84.1263L473.923 90.6501L478.076 123.269L463.278 194.04C445.664 179.688 409.359 175.713 409.359 175.713L403.477 158.595L399.589 137.973L399.119 135.507L410.745 123.417Z" fill="#E86100"/>
<path d="M409.392 164.585C402.095 164.378 396.285 160.445 396.417 155.801C396.549 151.157 402.572 147.56 409.869 147.767C413.064 147.858 415.973 148.663 418.224 149.928L449.135 151.193L448.233 165.687L417.856 162.901C415.537 164.037 412.587 164.675 409.392 164.585Z" fill="#A0616A"/>
<path d="M448.924 115.409L478.083 144.739L427.293 150.008L415.489 166.829L486.282 169.207C492.669 171.512 499.473 167.039 499.999 160.191C500.176 157.878 485.632 99.2006 476.828 93.7531C466.508 87.3685 448.924 115.409 448.924 115.409Z" fill="#E86100"/>
<path d="M469.179 47.8928C469.391 34.7436 458.903 23.9123 445.754 23.7002C432.605 23.4882 421.774 33.9758 421.562 47.125C421.35 60.2741 431.837 71.1055 444.986 71.3175C458.136 71.5295 468.967 61.0419 469.179 47.8928Z" fill="#A0616A"/>
<path d="M497.64 121.7C497.043 123.961 492.395 125.127 491.31 128.03C487.856 130.001 489.728 113.896 488.335 112.838C487.259 112.034 486.97 113.978 486.725 112.305C485.803 106.029 479.772 107.431 475.305 106.418C474.798 105.433 474.409 104.474 474.156 103.543C473.704 101.861 471.642 101.273 470.422 102.512C469.87 102.024 469.472 100.296 469.083 98.5693C468.803 97.3124 468.523 96.0555 468.197 95.2597L465.087 88.2427L466.09 93.4693C464.056 92.7368 462.003 93.4964 460.818 90.9826C459.299 87.7544 458.693 83.9746 459.797 80.5836C460.8 77.5092 462.491 71.3512 464.399 66.2512C462.238 67.8155 459.643 68.9549 456.632 69.5246C457.699 67.4991 458.784 65.4373 459.236 63.1857C459.679 60.9342 459.408 58.4294 457.979 56.6389C456.804 55.165 455.067 55.5357 453.602 54.3511C452.463 53.4288 451.478 51.0688 450.79 49.7756C453.72 59.5145 455.935 69.8592 452.21 79.1549C449.633 85.5932 444.207 90.8288 437.697 93.207C441.16 90.7294 444.542 88.0889 447.137 84.7251C449.913 81.1172 451.722 76.5597 451.17 72.0384C450.302 64.94 437.136 42.4873 435.517 38.0745C436.404 42.3879 436.06 45.7517 433.727 47.6054C433.121 41.348 426.303 41.9176 422.587 39.4129C422.587 39.4129 419.711 23.1634 426.457 23.0639C429.712 23.0187 433.121 15.3687 436.078 14.0033C440.798 11.824 443.692 13.307 448.928 13.4698C454.154 13.6235 459.173 15.8751 462.365 20.0075C464.038 22.1687 464.653 20.4506 467.166 21.7979C469.554 23.073 471.163 21.8884 473.867 21.9697C479.283 22.1144 484.537 25.0081 487.575 29.4841C490.614 33.9692 492.486 33.5533 491.283 40.4889C491.265 40.5703 491.265 40.733 491.283 40.9772C491.943 51.9006 490.252 62.8512 485.921 72.9065C484.582 75.999 491.129 79.1909 491.119 83.0521C491.11 87.5372 483.886 91.6246 484.555 93.5416C486.472 102.774 497.242 100.721 494.701 116.175C494.493 117.432 498.038 120.19 497.64 121.7Z" fill="#2F2E41"/>
<path d="M431.672 93.425C431.871 93.3618 432.07 93.2894 432.269 93.208C432.016 93.3889 431.772 93.5607 431.519 93.7415L431.672 93.425Z" fill="#2F2E41"/>
<path d="M465.213 17.2404C462.623 17.6253 459.992 13.3278 461.462 7.36816C464.667 12.2688 466.306 17.7858 466.563 23.8457L464.836 24.3808L465.213 17.2404Z" fill="#E86100"/>
<path d="M478.447 11.6777C476.679 17.9412 467.703 22.133 466.117 19.9533L465.936 23.6884L464.826 22.2607C468.046 17.4732 472.434 13.8006 478.447 11.6777Z" fill="#E86100"/>
<path d="M281.333 180.58C281.333 178.499 283.026 176.806 285.107 176.806H345.769C347.85 176.806 349.544 178.499 349.544 180.58C349.544 182.661 347.85 184.354 345.769 184.354H285.107C283.026 184.354 281.333 182.661 281.333 180.58Z" fill="#E6E7E8"/>
<path d="M281.333 205.899C281.333 203.818 283.026 202.125 285.107 202.125H345.769C347.85 202.125 349.544 203.818 349.544 205.899C349.544 207.98 347.85 209.674 345.769 209.674H285.107C283.026 209.674 281.333 207.98 281.333 205.899Z" fill="#E6E7E8"/>
<path d="M237.766 197.129C235.685 197.129 233.992 195.435 233.992 193.354C233.992 191.273 235.685 189.58 237.766 189.58H345.769C347.85 189.58 349.544 191.273 349.544 193.354C349.544 195.435 347.85 197.129 345.769 197.129H237.766Z" fill="#E6E7E8"/>
<path d="M229.738 161.006L222.296 157.48C225.348 161.74 227.978 168.393 229.387 173.687C231.771 168.756 235.614 162.722 239.418 159.118L231.553 161.141C236.399 137.388 254.629 120.336 275.504 120.336V118.527C253.699 118.527 234.686 136.294 229.738 161.006Z" fill="#3F3D56"/>
<path d="M263.99 197.198H216.969C214.974 197.198 213.352 195.575 213.352 193.581C213.352 191.586 214.974 189.964 216.969 189.964H263.99C265.984 189.964 267.607 191.586 267.607 193.581C267.607 195.575 265.984 197.198 263.99 197.198Z" fill="#E86100"/>
<path d="M277.723 123.224C278.975 115.506 273.734 108.234 266.015 106.981C258.297 105.729 251.024 110.97 249.772 118.689C248.519 126.407 253.761 133.679 261.479 134.932C269.198 136.184 276.47 130.943 277.723 123.224Z" fill="#3F3D56"/>
<path d="M186.885 18.4655C191.708 18.4655 195.618 14.5557 195.618 9.73273C195.618 4.90978 191.708 1 186.885 1C182.062 1 178.152 4.90978 178.152 9.73273C178.152 14.5557 182.062 18.4655 186.885 18.4655Z" fill="#E6E7E8"/>
<path d="M289.067 169.476C293.89 169.476 297.799 165.566 297.799 160.743C297.799 155.921 293.89 152.011 289.067 152.011C284.244 152.011 280.334 155.921 280.334 160.743C280.334 165.566 284.244 169.476 289.067 169.476Z" fill="#E6E7E8"/>
</g>
<defs>
<clipPath id="clip0_136_2100">
<rect width="500" height="332.694" fill="white"/>
</clipPath>
</defs>
</svg>
